<svg width="14" height="21" viewBox="0 0 14 21" fill="none" xmlns="http://www.w3.org/2000/svg">
<path d="M1.54422 20.4808C1.18337 20.7068 0.714844 20.4474 0.714844 20.0216V6.18639C0.714844 5.756 1.19249 5.49742 1.55287 5.73273L1.66043 5.80296C1.81365 5.90301 1.90602 6.07363 1.90602 6.25662V14.083C1.90602 14.5036 2.36433 14.7638 2.72548 14.5483L9.01101 10.7972C9.18343 10.6943 9.39862 10.6952 9.57018 10.7995L12.5912 12.6367C12.9356 12.8462 12.9389 13.3449 12.5972 13.5588L1.54422 20.4808Z" fill="#418200"/>
<path d="M12.1346 6.54117C12.4726 6.75359 12.4726 7.2463 12.1346 7.45871L4.04629 12.5406C3.68547 12.7673 3.21624 12.5079 3.21624 12.0818L3.21624 1.9181C3.21624 1.49197 3.68546 1.23263 4.04629 1.45933L12.1346 6.54117Z" fill="#81C700"/>
</svg>
