<svg width="36" height="36" viewBox="0 0 36 36" fill="none" xmlns="http://www.w3.org/2000/svg">
<g opacity="0.88" clip-path="url(#clip0)">
<path d="M35.6862 18.2315C35.6862 8.48192 27.7845 0.5802 18.0349 0.5802C8.28527 0.5802 0.383545 8.48192 0.383545 18.2315C0.383545 27.9811 8.28527 35.8828 18.0349 35.8828C18.1383 35.8828 18.2417 35.8828 18.3451 35.8759V22.141H14.5529V17.7213H18.3451V14.4668C18.3451 10.6952 20.6481 8.64051 24.0129 8.64051C25.6263 8.64051 27.0122 8.75773 27.4121 8.81289V12.7569H25.0954C23.2682 12.7569 22.9097 13.6256 22.9097 14.9012V17.7144H27.288L26.7157 22.1341H22.9097V35.2002C30.2874 33.0835 35.6862 26.2918 35.6862 18.2315Z" fill="#3F5A98"/>
</g>
<defs>
<clipPath id="clip0">
<rect width="35.3026" height="35.3026" fill="white" transform="translate(0.383545 0.5802)"/>
</clipPath>
</defs>
</svg>
