<svg width="45" height="45" viewBox="0 0 45 45" fill="none" xmlns="http://www.w3.org/2000/svg">
<g clip-path="url(#clip0)">
<path d="M44.6831 22.3415C44.6831 10.0013 34.6817 0 22.3415 0C10.0013 0 0 10.0013 0 22.3415C0 34.6817 10.0013 44.6831 22.3415 44.6831C22.4724 44.6831 22.6033 44.6831 22.7343 44.6743V27.2898H17.9343V21.6957H22.7343V17.5765C22.7343 12.8027 25.6491 10.202 29.908 10.202C31.9501 10.202 33.7043 10.3504 34.2105 10.4202V15.4122H31.2781C28.9654 15.4122 28.5116 16.5118 28.5116 18.1263V21.687H34.0534L33.329 27.2811H28.5116V43.8191C37.8497 41.1398 44.6831 32.5436 44.6831 22.3415Z" fill="white"/>
</g>
<defs>
<clipPath id="clip0">
<rect width="44.6831" height="44.6831" fill="white"/>
</clipPath>
</defs>
</svg>
