<svg width="45" height="45" viewBox="0 0 45 45" fill="none" xmlns="http://www.w3.org/2000/svg">
<g clip-path="url(#clip0)">
<path d="M26.6179 22.3417C26.6179 24.7035 24.7033 26.618 22.3416 26.618C19.9798 26.618 18.0652 24.7035 18.0652 22.3417C18.0652 19.9799 19.9798 18.0654 22.3416 18.0654C24.7033 18.0654 26.6179 19.9799 26.6179 22.3417Z" fill="white"/>
<path d="M32.3423 14.7754C32.1367 14.2184 31.8088 13.7142 31.3826 13.3003C30.9688 12.8742 30.4649 12.5463 29.9075 12.3407C29.4555 12.1651 28.7764 11.9561 27.5256 11.8992C26.1726 11.8375 25.7669 11.8242 22.3415 11.8242C18.9158 11.8242 18.5101 11.8372 17.1574 11.8989C15.9066 11.9561 15.2272 12.1651 14.7755 12.3407C14.2181 12.5463 13.7139 12.8742 13.3004 13.3003C12.8742 13.7142 12.5463 14.2181 12.3404 14.7754C12.1648 15.2275 11.9558 15.9069 11.8989 17.1577C11.8372 18.5104 11.8239 18.9161 11.8239 22.3418C11.8239 25.7672 11.8372 26.1729 11.8989 27.5259C11.9558 28.7767 12.1648 29.4558 12.3404 29.9078C12.5463 30.4652 12.8739 30.9691 13.3 31.3829C13.7139 31.8091 14.2177 32.137 14.7751 32.3426C15.2272 32.5185 15.9066 32.7275 17.1574 32.7844C18.5101 32.8461 18.9154 32.8591 22.3412 32.8591C25.7673 32.8591 26.1729 32.8461 27.5253 32.7844C28.7761 32.7275 29.4555 32.5185 29.9075 32.3426C31.0264 31.911 31.9107 31.0267 32.3423 29.9078C32.5179 29.4558 32.7268 28.7767 32.7841 27.5259C32.8458 26.1729 32.8588 25.7672 32.8588 22.3418C32.8588 18.9161 32.8458 18.5104 32.7841 17.1577C32.7272 15.9069 32.5182 15.2275 32.3423 14.7754ZM22.3415 28.9291C18.703 28.9291 15.7535 25.9799 15.7535 22.3415C15.7535 18.703 18.703 15.7538 22.3415 15.7538C25.9796 15.7538 28.9291 18.703 28.9291 22.3415C28.9291 25.9799 25.9796 28.9291 22.3415 28.9291ZM29.1896 17.0329C28.3394 17.0329 27.6501 16.3436 27.6501 15.4934C27.6501 14.6432 28.3394 13.9539 29.1896 13.9539C30.0398 13.9539 30.7291 14.6432 30.7291 15.4934C30.7288 16.3436 30.0398 17.0329 29.1896 17.0329Z" fill="white"/>
<path d="M22.3415 0C10.0045 0 0 10.0045 0 22.3415C0 34.6785 10.0045 44.6831 22.3415 44.6831C34.6785 44.6831 44.6831 34.6785 44.6831 22.3415C44.6831 10.0045 34.6785 0 22.3415 0ZM35.0931 27.6307C35.031 28.9963 34.8139 29.9287 34.4968 30.7448C33.8304 32.4681 32.4681 33.8304 30.7448 34.4968C29.929 34.8139 28.9963 35.0307 27.631 35.0931C26.263 35.1555 25.8259 35.1705 22.3419 35.1705C18.8575 35.1705 18.4208 35.1555 17.0524 35.0931C15.6871 35.0307 14.7544 34.8139 13.9386 34.4968C13.0822 34.1747 12.307 33.6698 11.6661 33.017C11.0136 32.3764 10.5087 31.6008 10.1866 30.7448C9.86953 29.929 9.65237 28.9963 9.59033 27.631C9.52726 26.2626 9.5126 25.8256 9.5126 22.3415C9.5126 18.8575 9.52726 18.4204 9.58999 17.0524C9.65203 15.6867 9.86885 14.7544 10.1859 13.9382C10.508 13.0822 11.0133 12.3067 11.6661 11.6661C12.3067 11.0133 13.0822 10.5084 13.9382 10.1862C14.7544 9.86919 15.6867 9.65237 17.0524 9.58999C18.4204 9.5276 18.8575 9.5126 22.3415 9.5126C25.8256 9.5126 26.2626 9.5276 27.6307 9.59033C28.9963 9.65237 29.9287 9.86919 30.7448 10.1859C31.6008 10.508 32.3764 11.0133 33.0173 11.6661C33.6698 12.307 34.175 13.0822 34.4968 13.9382C34.8142 14.7544 35.031 15.6867 35.0934 17.0524C35.1558 18.4204 35.1705 18.8575 35.1705 22.3415C35.1705 25.8256 35.1558 26.2626 35.0931 27.6307Z" fill="white"/>
</g>
<defs>
<clipPath id="clip0">
<rect width="44.6831" height="44.6831" fill="white"/>
</clipPath>
</defs>
</svg>
