<svg width="36" height="36" viewBox="0 0 36 36" fill="none" xmlns="http://www.w3.org/2000/svg">
<g opacity="0.88" clip-path="url(#clip0)">
<path d="M21.3682 18.2315C21.3682 20.0974 19.8556 21.61 17.9897 21.61C16.1237 21.61 14.6111 20.0974 14.6111 18.2315C14.6111 16.3655 16.1237 14.8529 17.9897 14.8529C19.8556 14.8529 21.3682 16.3655 21.3682 18.2315Z" fill="#474A50" fill-opacity="0.7"/>
<path d="M21.3682 18.2315C21.3682 20.0974 19.8556 21.61 17.9897 21.61C16.1237 21.61 14.6111 20.0974 14.6111 18.2315C14.6111 16.3655 16.1237 14.8529 17.9897 14.8529C19.8556 14.8529 21.3682 16.3655 21.3682 18.2315Z" fill="url(#paint0_linear)"/>
<path d="M25.8911 12.2539C25.7287 11.8138 25.4696 11.4154 25.1329 11.0885C24.8059 10.7518 24.4078 10.4927 23.9675 10.3303C23.6103 10.1916 23.0738 10.0265 22.0856 9.9815C21.0166 9.93275 20.6961 9.92224 17.9898 9.92224C15.2832 9.92224 14.9627 9.93248 13.894 9.98123C12.9058 10.0265 12.369 10.1916 12.0121 10.3303C11.5717 10.4927 11.1734 10.7518 10.8467 11.0885C10.51 11.4154 10.2509 11.8135 10.0882 12.2539C9.94951 12.611 9.78441 13.1478 9.73943 14.136C9.69068 15.2048 9.68018 15.5253 9.68018 18.2318C9.68018 20.9382 9.69068 21.2587 9.73943 22.3277C9.78441 23.3159 9.94951 23.8524 10.0882 24.2095C10.2509 24.6499 10.5097 25.048 10.8464 25.375C11.1734 25.7116 11.5715 25.9707 12.0118 26.1331C12.369 26.2721 12.9058 26.4372 13.894 26.4822C14.9627 26.531 15.2829 26.5412 17.9895 26.5412C20.6964 26.5412 21.0169 26.531 22.0853 26.4822C23.0735 26.4372 23.6103 26.2721 23.9675 26.1331C24.8514 25.7922 25.5501 25.0935 25.8911 24.2095C26.0298 23.8524 26.1949 23.3159 26.2401 22.3277C26.2889 21.2587 26.2991 20.9382 26.2991 18.2318C26.2991 15.5253 26.2889 15.2048 26.2401 14.136C26.1952 13.1478 26.0301 12.611 25.8911 12.2539ZM17.9898 23.4363C15.1151 23.4363 12.7848 21.1062 12.7848 18.2316C12.7848 15.3569 15.1151 13.0269 17.9898 13.0269C20.8642 13.0269 23.1945 15.3569 23.1945 18.2316C23.1945 21.1062 20.8642 23.4363 17.9898 23.4363ZM23.4002 14.0375C22.7285 14.0375 22.1839 13.4929 22.1839 12.8211C22.1839 12.1494 22.7285 11.6048 23.4002 11.6048C24.072 11.6048 24.6166 12.1494 24.6166 12.8211C24.6163 13.4929 24.072 14.0375 23.4002 14.0375Z" fill="url(#paint1_linear)"/>
<path d="M17.9897 0.5802C8.24263 0.5802 0.338379 8.48446 0.338379 18.2315C0.338379 27.9786 8.24263 35.8828 17.9897 35.8828C27.7368 35.8828 35.641 27.9786 35.641 18.2315C35.641 8.48446 27.7368 0.5802 17.9897 0.5802ZM28.0643 22.4103C28.0153 23.4893 27.8437 24.2259 27.5932 24.8707C27.0667 26.2322 25.9904 27.3085 24.6289 27.835C23.9843 28.0855 23.2474 28.2568 22.1687 28.3061C21.0879 28.3554 20.7426 28.3672 17.99 28.3672C15.2371 28.3672 14.892 28.3554 13.8109 28.3061C12.7322 28.2568 11.9953 28.0855 11.3508 27.835C10.6742 27.5805 10.0617 27.1816 9.55539 26.6658C9.03987 26.1597 8.64098 25.547 8.38646 24.8707C8.13598 24.2262 7.96441 23.4893 7.91539 22.4106C7.86556 21.3294 7.85398 20.9842 7.85398 18.2315C7.85398 15.4789 7.86556 15.1336 7.91512 14.0527C7.96414 12.9738 8.13544 12.2371 8.38592 11.5923C8.64045 10.916 9.0396 10.3033 9.55539 9.79721C10.0615 9.28143 10.6742 8.88254 11.3505 8.62801C11.9953 8.37753 12.732 8.20623 13.8109 8.15694C14.8918 8.10765 15.2371 8.0958 17.9897 8.0958C20.7423 8.0958 21.0876 8.10765 22.1685 8.15721C23.2474 8.20623 23.9841 8.37753 24.6289 8.62774C25.3052 8.88227 25.9179 9.28143 26.4243 9.79721C26.9398 10.3036 27.339 10.916 27.5932 11.5923C27.844 12.2371 28.0153 12.9738 28.0645 14.0527C28.1138 15.1336 28.1254 15.4789 28.1254 18.2315C28.1254 20.9842 28.1138 21.3294 28.0643 22.4103Z" fill="url(#paint2_linear)"/>
</g>
<defs>
<linearGradient id="paint0_linear" x1="15.0648" y1="21.1698" x2="21.3257" y2="15.75" gradientUnits="userSpaceOnUse">
<stop stop-color="#FFDD55"/>
<stop offset="0.5" stop-color="#FF543E"/>
<stop offset="1" stop-color="#C837AB"/>
</linearGradient>
<linearGradient id="paint1_linear" x1="10.796" y1="25.4585" x2="26.1946" y2="12.1285" gradientUnits="userSpaceOnUse">
<stop stop-color="#FFDD55"/>
<stop offset="0.5" stop-color="#FF543E"/>
<stop offset="1" stop-color="#C837AB"/>
</linearGradient>
<linearGradient id="paint2_linear" x1="2.70866" y1="33.5829" x2="35.419" y2="5.26693" gradientUnits="userSpaceOnUse">
<stop stop-color="#FFDD55"/>
<stop offset="0.5" stop-color="#FF543E"/>
<stop offset="1" stop-color="#C837AB"/>
</linearGradient>
<clipPath id="clip0">
<rect width="35.3026" height="35.3026" fill="white" transform="translate(0.338379 0.5802)"/>
</clipPath>
</defs>
</svg>
