<svg width="18" height="18" viewBox="0 0 18 18" fill="none" xmlns="http://www.w3.org/2000/svg">
<rect x="6" y="6" width="6" height="6" rx="3" fill="white"/>
<path d="M0.358649 9C0.160573 9 -0.000746908 9.16068 0.00713996 9.3586C0.0903536 11.4467 0.898241 13.4452 2.29801 15.0069C3.77772 16.6579 5.81473 17.7045 8.01852 17.9463C10.2223 18.1881 12.4378 17.6079 14.2402 16.3171C16.0427 15.0262 17.3053 13.1155 17.7859 10.9513C18.2666 8.78698 17.9315 6.52145 16.8449 4.58897C15.7583 2.6565 13.9967 1.19308 11.8978 0.479263C9.79881 -0.234555 7.51024 -0.148538 5.4708 0.720826C3.54154 1.54322 1.96365 3.01185 1.00436 4.86844C0.913432 5.04441 0.991569 5.25828 1.17102 5.34212C1.35048 5.42597 1.56324 5.34802 1.65477 5.17237C2.53883 3.47573 3.98538 2.13377 5.75208 1.38068C7.62898 0.580602 9.73515 0.501439 11.6668 1.15836C13.5985 1.81529 15.2197 3.16208 16.2197 4.94053C17.2197 6.71899 17.528 8.80396 17.0857 10.7957C16.6433 12.7875 15.4814 14.546 13.8226 15.7339C12.1638 16.9219 10.1249 17.4558 8.09674 17.2333C6.0686 17.0108 4.19394 16.0475 2.83216 14.5282C1.55033 13.098 0.807829 11.2699 0.725058 9.35857C0.716489 9.16067 0.556725 9 0.358649 9Z" fill="#626770" fill-opacity="0.9"/>
</svg>
