<svg width="56" height="57" viewBox="0 0 56 57" fill="none" xmlns="http://www.w3.org/2000/svg">
<rect width="55.9229" height="55.9555" rx="20" transform="matrix(1 -0.000795613 0.00137888 0.999999 0 0.722656)" fill="#AAD7C2"/>
<path d="M41.6442 43.7769C40.3531 44.962 38.2634 44.8611 37.1187 43.5626L32.5268 38.3305C32.1141 38.5323 31.6084 38.4755 31.2556 38.1603C33.0924 37.1581 34.6297 35.7145 35.7145 33.9873C35.9608 34.2332 36.0673 34.5609 36.014 34.8698L41.5444 39.4967C42.6824 40.2153 43.1017 42.4342 41.6442 43.7769Z" fill="#618473"/>
<path d="M32.1328 19.2919V23.2889C32.9415 24.4743 33.4397 25.9319 33.4397 27.6032C33.4397 31.8933 29.8425 36.0095 24.4273 35.3833C24.362 35.3506 17.7505 34.3046 17.7505 27.532C17.7894 23.2176 21.296 19.7713 25.469 19.7713C25.7924 19.7713 26.1159 19.7907 26.4394 19.8361V18.5211H24.3497L25.5595 16.9987C24.4467 16.9923 23.3275 17.1607 22.2341 17.5234C17.9382 18.9551 15.0268 22.965 14.9815 27.4996C14.9168 33.3492 19.6009 38.1818 25.4884 38.2336H25.6113C31.3629 38.2336 36.2088 33.5759 36.2088 27.6032C36.2088 24.0662 34.5525 21.1576 32.1328 19.2919Z" fill="#618473"/>
<path d="M29.0604 14.8755L27.8486 16.3296L26.8589 17.5257H26.9033C27.2522 17.5257 27.5377 17.809 27.5377 18.1552V33.6346C28.7622 33.2254 29.8218 32.4448 30.5831 31.4313V18.1552C30.5831 17.8593 30.7861 17.6138 31.0653 17.5446C31.116 17.532 31.1668 17.5257 31.2175 17.5257H31.2556L29.0604 14.8755ZM23.2298 23.9781V33.6094C23.9023 33.8549 24.6129 33.9808 25.3426 33.9871H25.4567C25.7296 33.9871 26.0024 33.9682 26.2688 33.9367V23.9781H23.2298ZM19.2264 29.2533C19.4992 30.3108 20.0512 31.2739 20.8379 32.0734C21.1806 32.4196 21.5549 32.7218 21.9546 32.9799V29.2533H19.2264V29.2533Z" fill="#618473"/>
</svg>
