<svg width="56" height="56" viewBox="0 0 56 56" fill="none" xmlns="http://www.w3.org/2000/svg">
<rect x="4.21307" y="1.11914" width="50.1869" height="51.1474" rx="20" transform="rotate(-0.0600118 4.21307 1.11914)" fill="#618473"/>
<path d="M11.8353 0C5.27888 0 0 5.27888 0 11.8353V44.1647C0 50.7211 5.27888 56 11.8353 56H44.1647C50.7211 56 56 50.7211 56 44.1647V11.8353C56 5.27888 50.7211 0 44.1647 0H11.8353ZM28 12.8288V12.8379C30.5635 12.8379 32.6667 14.9412 32.6667 17.5046C32.6667 19.6638 31.1689 21.4783 29.1667 22.0026V26.8379H40.8333V34.002C42.8356 34.5265 44.3333 36.3455 44.3333 38.5046C44.3333 41.0682 42.2302 43.1712 39.6667 43.1712C37.1032 43.1712 35 41.0682 35 38.5046C35 36.3455 36.4977 34.5265 38.5 34.002V29.1712H28V29.1439H17.5V33.9928C19.5023 34.5174 21 36.3364 21 38.4954C21 41.0591 18.8968 43.1621 16.3333 43.1621C13.7698 43.1621 11.6667 41.0591 11.6667 38.4954C11.6667 36.3364 13.1644 34.5174 15.1667 33.9928V26.8105H26.8333V21.9935C24.8311 21.4692 23.3333 19.6547 23.3333 17.4954C23.3333 14.932 25.4365 12.8288 28 12.8288Z" fill="#AAD7C3"/>
</svg>
