<svg width="56" height="57" viewBox="0 0 56 57" fill="none" xmlns="http://www.w3.org/2000/svg">
<rect width="55.9229" height="56.8845" rx="15.7693" transform="matrix(1 -0.000809095 0.0013559 0.999999 0 0.0458984)" fill="#AAD7C2"/>
<path d="M38.783 33.7661L31.9344 31.4674C31.09 31.18 30.8086 30.6054 30.9024 29.6475H30.7147C32.6849 27.7319 33.9984 26.0078 33.9984 23.2302C33.9984 19.5905 31.5591 16.4297 28.5569 16.4297C25.5548 16.4297 23.1155 19.6863 23.1155 23.326C23.1155 26.1036 24.429 27.7319 26.3991 29.6475H26.1177C26.2115 30.6054 25.8362 31.18 24.8981 31.3716L18.0494 34.3408C17.205 34.724 16.0792 35.4902 16.0792 36.448V40.1835H40.4718V36.448C40.6594 35.4902 39.7212 34.1493 38.783 33.7661Z" fill="#618473"/>
</svg>
