<svg width="56" height="56" viewBox="0 0 56 56" fill="none" xmlns="http://www.w3.org/2000/svg">
<rect width="55.9229" height="55.9555" rx="20" transform="matrix(1 -0.000795882 0.00137841 0.999999 -0.000244141 0.0444336)" fill="#AAD7C2"/>
<path d="M18.8513 40.2248H37.2011C38.4626 40.2248 39.4948 39.1923 39.4948 37.9303V35.6358C39.4948 34.3738 38.4626 33.3413 37.2011 33.3413H18.8513C17.5898 33.3413 16.5576 34.3738 16.5576 35.6358V37.9303C16.5576 39.1923 17.5898 40.2248 18.8513 40.2248ZM34.9074 35.6358H37.2011V37.9303H34.9074V35.6358Z" fill="#618473"/>
<path d="M18.8513 31.0471H37.2011C38.4626 31.0471 39.4948 30.0145 39.4948 28.7526V26.4581C39.4948 25.1961 38.4638 24.1636 37.2011 24.1636H18.8513C17.5898 24.1636 16.5576 25.1961 16.5576 26.4581V28.7526C16.5576 30.0145 17.5898 31.0471 18.8513 31.0471ZM34.9074 26.4581H37.2011V28.7526H34.9074V26.4581Z" fill="#618473"/>
<path d="M18.8513 21.8693H37.2011C38.4638 21.8693 39.4948 20.8368 39.4948 19.5748V17.2803C39.4948 16.0184 38.4638 14.9858 37.2011 14.9858H18.8513C17.5898 14.9858 16.5576 16.0184 16.5576 17.2803V19.5748C16.5576 20.8368 17.5898 21.8693 18.8513 21.8693ZM34.9074 17.2803H37.2011V19.5748H34.9074V17.2803Z" fill="#618473"/>
</svg>
