<svg width="57" height="57" viewBox="0 0 57 57" fill="none" xmlns="http://www.w3.org/2000/svg">
<rect width="55.9235" height="55.947" rx="20" transform="matrix(1 -0.000949241 0.00115571 0.999999 0.034668 0.463379)" fill="#AAD7C2"/>
<path d="M33.4762 22.5068C33.6296 23.059 34.0897 23.4578 34.6418 23.5499L40.8072 24.7157C40.8992 24.7464 40.9912 24.7464 41.0833 24.7464C41.482 24.7464 41.8808 24.593 42.1568 24.3169C42.5249 23.9487 42.6783 23.4578 42.5863 22.967L41.4207 16.8006C41.298 16.2483 40.8992 15.7881 40.3471 15.6348C39.795 15.4814 39.2122 15.6041 38.8134 16.0029L37.3718 17.4448C34.7339 15.1132 31.3904 13.8247 27.8323 13.8247C23.9981 13.8247 20.3787 15.328 17.6487 18.0277C12.0355 23.6419 12.0355 32.7842 17.6487 38.3984C20.4707 41.2209 24.1515 42.6014 27.8323 42.6014C31.5131 42.6014 35.194 41.1902 38.0159 38.3984C40.2551 36.1589 41.6661 33.3364 42.0955 30.2072C42.2182 29.3789 41.6354 28.6119 40.8072 28.4892C39.979 28.3665 39.2122 28.9494 39.0895 29.7777C38.7521 32.232 37.6478 34.4715 35.8688 36.2509C31.4518 40.6687 24.2435 40.6687 19.7959 36.2509C15.3789 31.8332 15.3789 24.593 19.7959 20.1752C21.943 18.0277 24.7956 16.8312 27.8323 16.8312C30.5623 16.8312 33.1388 17.8436 35.194 19.623L33.8443 21.0035C33.4456 21.4024 33.2922 21.9853 33.4762 22.5068Z" fill="#618473"/>
<path d="M27.7709 20.2363C26.9428 20.2363 26.2679 20.9113 26.2679 21.7396V28.2128C26.2679 28.7037 26.5133 29.1945 26.9428 29.4706L30.8383 32.0783C31.0837 32.2624 31.3904 32.3238 31.6972 32.3238C32.1879 32.3238 32.6787 32.0783 32.9548 31.6488C33.4149 30.9432 33.2308 30.0229 32.556 29.532L29.3353 27.3538V21.7396C29.3046 20.9113 28.5991 20.2363 27.7709 20.2363Z" fill="#618473"/>
</svg>
