<svg width="37" height="37" viewBox="0 0 37 37" fill="none" xmlns="http://www.w3.org/2000/svg">
<g opacity="0.88" clip-path="url(#clip0)">
<path d="M18.3869 0.735474C8.63824 0.735474 0.735596 8.63812 0.735596 18.3868C0.735596 28.1355 8.63824 36.0381 18.3869 36.0381C28.1356 36.0381 36.0382 28.1355 36.0382 18.3868C36.0382 8.63812 28.1356 0.735474 18.3869 0.735474ZM25.1753 20.6502C25.1753 20.6502 26.7364 22.191 27.1206 22.9063C27.1317 22.921 27.1372 22.9357 27.1409 22.943C27.2972 23.206 27.3339 23.4101 27.2567 23.5627C27.128 23.8164 26.6867 23.9414 26.5359 23.9525H23.7779C23.5867 23.9525 23.1859 23.9028 22.7005 23.5682C22.3272 23.3071 21.9595 22.8787 21.6009 22.4613C21.0659 21.8398 20.6025 21.3029 20.1355 21.3029C20.0762 21.3028 20.0172 21.3121 19.9608 21.3305C19.6078 21.4445 19.1555 21.9483 19.1555 23.2906C19.1555 23.7098 18.8245 23.9506 18.591 23.9506H17.3278C16.8976 23.9506 14.6562 23.7999 12.6705 21.7056C10.2397 19.1407 8.0517 13.996 8.03331 13.9482C7.89541 13.6154 8.18041 13.4371 8.49115 13.4371H11.2767C11.6482 13.4371 11.7695 13.6632 11.8541 13.8636C11.9534 14.0972 12.3174 15.0257 12.915 16.0701C13.884 17.7727 14.4779 18.464 14.9541 18.464C15.0434 18.463 15.1311 18.4403 15.2097 18.3978C15.8312 18.0522 15.7153 15.8365 15.6877 15.3769C15.6877 15.2905 15.6859 14.3858 15.3678 13.9519C15.1398 13.6375 14.7518 13.518 14.5165 13.4738C14.6118 13.3424 14.7373 13.2358 14.8824 13.1631C15.309 12.9498 16.0775 12.9186 16.8406 12.9186H17.2653C18.0927 12.9296 18.306 12.9829 18.6057 13.0583C19.2125 13.2036 19.2254 13.5952 19.172 14.9356C19.1555 15.3162 19.1389 15.7465 19.1389 16.2539C19.1389 16.3643 19.1334 16.4819 19.1334 16.607C19.115 17.2891 19.093 18.0632 19.5747 18.3813C19.6375 18.4207 19.7102 18.4417 19.7843 18.442C19.9516 18.442 20.4554 18.442 21.8197 16.1013C22.2405 15.3479 22.6061 14.5651 22.9137 13.7588C22.9413 13.711 23.0222 13.5639 23.1178 13.5069C23.1884 13.471 23.2666 13.4527 23.3458 13.4536H26.6205C26.9772 13.4536 27.2218 13.5069 27.2677 13.6448C27.3486 13.8636 27.253 14.5311 25.7582 16.5555L25.0907 17.4362C23.7356 19.2124 23.7356 19.3025 25.1753 20.6502Z" fill="#5181B8"/>
</g>
<defs>
<clipPath id="clip0">
<rect width="36.7736" height="36.7736" fill="white"/>
</clipPath>
</defs>
</svg>
