<svg width="45" height="46" viewBox="0 0 45 46" fill="none" xmlns="http://www.w3.org/2000/svg">
<g clip-path="url(#clip0)">
<path d="M22.343 0.712891C10.0003 0.712891 0 10.7125 0 23.0544C0 35.3963 10.0003 45.396 22.343 45.396C34.6858 45.396 44.6861 35.3963 44.6861 23.0544C44.6861 10.7125 34.6858 0.712891 22.343 0.712891ZM33.3163 16.0186L29.6496 33.2973C29.3793 34.5225 28.6495 34.8198 27.6315 34.2432L22.0457 30.1262L19.3519 32.7207C19.0546 33.018 18.8024 33.2703 18.2258 33.2703L18.6222 27.5858L28.9739 18.2348C29.4243 17.8384 28.8748 17.6132 28.2801 18.0096L15.487 26.0633L9.97328 24.3427C8.77504 23.9643 8.74802 23.1445 10.2255 22.568L31.7667 14.2619C32.7668 13.9016 33.6407 14.5052 33.3163 16.0186Z" fill="white"/>
</g>
<defs>
<clipPath id="clip0">
<rect width="44.6861" height="45.6106" fill="white"/>
</clipPath>
</defs>
</svg>
