<svg width="36" height="37" viewBox="0 0 36 37" fill="none" xmlns="http://www.w3.org/2000/svg">
<g opacity="0.88" clip-path="url(#clip0)">
<path d="M18.0785 1.35315C8.32695 1.35315 0.426025 9.25354 0.426025 19.0045C0.426025 28.7554 8.32695 36.6558 18.0785 36.6558C27.8301 36.6558 35.731 28.7554 35.731 19.0045C35.731 9.25354 27.8301 1.35315 18.0785 1.35315ZM26.7482 13.4457L23.8512 27.097C23.6376 28.065 23.0611 28.2999 22.2568 27.8444L17.8436 24.5917L15.7154 26.6415C15.4805 26.8764 15.2812 27.0757 14.8256 27.0757L15.1388 22.5846L23.3173 15.1966C23.6732 14.8835 23.239 14.7055 22.7693 15.0187L12.6618 21.3817L8.30559 20.0223C7.3589 19.7233 7.33755 19.0756 8.50489 18.6201L25.5239 12.0578C26.314 11.7731 27.0044 12.25 26.7482 13.4457Z" fill="#2BA5E0"/>
</g>
<defs>
<clipPath id="clip0">
<rect width="35.305" height="36.0355" fill="white" transform="translate(0.426025 0.790039)"/>
</clipPath>
</defs>
</svg>
