<svg width="47" height="47" viewBox="0 0 47 47" fill="none" xmlns="http://www.w3.org/2000/svg">
<path d="M23.2725 0.930664C10.9335 0.930664 0.931 10.9332 0.931 23.2722C0.931 35.6112 10.9335 45.6137 23.2725 45.6137C35.6116 45.6137 45.6141 35.6112 45.6141 23.2722C45.6141 10.9332 35.6116 0.930664 23.2725 0.930664ZM31.8647 26.137C31.8647 26.137 33.8405 28.0873 34.3269 28.9926C34.3409 29.0112 34.3479 29.0298 34.3525 29.0391C34.5504 29.3719 34.5969 29.6302 34.4992 29.8234C34.3362 30.1445 33.7777 30.3028 33.5869 30.3168H30.096C29.854 30.3168 29.3466 30.2539 28.7322 29.8304C28.2598 29.4999 27.7944 28.9576 27.3406 28.4294C26.6633 27.6428 26.0769 26.9632 25.4857 26.9632C25.4107 26.9631 25.336 26.9749 25.2647 26.9981C24.8178 27.1424 24.2453 27.7801 24.2453 29.479C24.2453 30.0096 23.8264 30.3144 23.5309 30.3144H21.932C21.3875 30.3144 18.5506 30.1236 16.0371 27.4729C12.9605 24.2264 10.1911 17.7147 10.1678 17.6542C9.99328 17.233 10.354 17.0073 10.7473 17.0073H14.2731C14.7432 17.0073 14.8968 17.2935 15.0038 17.5472C15.1295 17.8427 15.5903 19.018 16.3467 20.3399C17.5731 22.4949 18.3248 23.3699 18.9276 23.3699C19.0406 23.3686 19.1516 23.3399 19.2511 23.2862C20.0377 22.8486 19.891 20.0443 19.8561 19.4625C19.8561 19.3531 19.8538 18.2081 19.4512 17.6589C19.1626 17.2609 18.6716 17.1097 18.3737 17.0538C18.4943 16.8874 18.6531 16.7525 18.8368 16.6605C19.3767 16.3905 20.3495 16.351 21.3153 16.351H21.8529C22.9002 16.3649 23.1701 16.4324 23.5495 16.5278C24.3175 16.7117 24.3338 17.2074 24.2663 18.904C24.2453 19.3857 24.2244 19.9303 24.2244 20.5726C24.2244 20.7122 24.2174 20.8612 24.2174 21.0194C24.1941 21.8828 24.1662 22.8626 24.7759 23.2652C24.8555 23.3151 24.9474 23.3417 25.0412 23.342C25.253 23.342 25.8907 23.342 27.6175 20.3794C28.1501 19.4259 28.6128 18.435 29.0022 17.4145C29.0371 17.354 29.1395 17.1678 29.2605 17.0957C29.3498 17.0502 29.4489 17.027 29.5491 17.0282H33.6939C34.1454 17.0282 34.4549 17.0957 34.5131 17.2702C34.6155 17.5472 34.4945 18.392 32.6024 20.9543L31.7577 22.069C30.0425 24.3171 30.0425 24.4312 31.8647 26.137Z" fill="white"/>
</svg>
