<svg width="45" height="45" viewBox="0 0 45 45" fill="none" xmlns="http://www.w3.org/2000/svg">
<path d="M26.0703 21.9514L20.8437 19.5126C20.3876 19.3008 20.0129 19.5382 20.0129 20.0432V24.6368C20.0129 25.1418 20.3876 25.3792 20.8437 25.1674L26.068 22.7286C26.5264 22.5145 26.5264 22.1655 26.0703 21.9514ZM22.34 0C10.0018 0 0 10.0018 0 22.34C0 34.6782 10.0018 44.68 22.34 44.68C34.6782 44.68 44.68 34.6782 44.68 22.34C44.68 10.0018 34.6782 0 22.34 0ZM22.34 31.4156C10.9047 31.4156 10.7046 30.3847 10.7046 22.34C10.7046 14.2953 10.9047 13.2644 22.34 13.2644C33.7753 13.2644 33.9754 14.2953 33.9754 22.34C33.9754 30.3847 33.7753 31.4156 22.34 31.4156Z" fill="white"/>
</svg>
