<svg width="388" height="474" viewBox="0 0 388 474" fill="none" xmlns="http://www.w3.org/2000/svg">
<path opacity="0.4" d="M204.61 79.5842C204.552 79.1117 204.629 78.633 204.835 78.1996C205.041 77.7661 205.366 77.3944 205.777 77.1243L208.881 75.4436C209.331 75.2313 209.834 75.1409 210.334 75.1821C210.834 75.2233 211.312 75.3946 211.717 75.6773L383.695 170.355C384.847 171.07 385.806 172.035 386.494 173.17C387.181 174.306 387.578 175.58 387.651 176.889V323.236C387.705 323.707 387.625 324.182 387.419 324.613C387.214 325.044 386.891 325.414 386.484 325.685L383.31 327.41C382.86 327.608 382.364 327.687 381.871 327.64C381.379 327.593 380.908 327.422 380.509 327.143L208.566 232.465C207.415 231.749 206.457 230.784 205.77 229.649C205.083 228.514 204.685 227.24 204.61 225.931V79.5842Z" fill="#5F907C"/>
<path opacity="0.4" d="M204.61 79.5952V225.942C204.683 227.25 205.078 228.524 205.764 229.659C206.449 230.794 207.405 231.759 208.555 232.476L380.509 327.165C382.446 328.278 384.01 327.577 384.383 325.729C384.142 325.651 383.911 325.546 383.695 325.418L211.752 230.751C210.6 230.036 209.641 229.071 208.954 227.936C208.266 226.8 207.869 225.526 207.796 224.217V77.8477C207.789 77.5937 207.813 77.3398 207.866 77.0908C206.01 76.4341 204.61 77.447 204.61 79.5952Z" fill="#5F907C"/>
<path d="M208.566 77.4133L221.801 85.2049L256.812 104.739L299.912 128.559L349.453 155.829L371.044 167.673L376.436 170.644L379.132 172.125C379.563 172.37 380.089 172.626 380.439 172.859C380.822 173.111 381.177 173.398 381.501 173.717C382.833 175.037 383.635 176.763 383.765 178.592V184.524V244.464L383.905 274.828C383.987 306.495 384.22 293.316 384.418 324.994C384.628 293.316 384.85 306.495 384.932 274.828L385.072 244.464V184.524V178.581C384.95 176.417 384.018 174.368 382.446 172.804C382.066 172.414 381.643 172.063 381.186 171.758C380.672 171.435 380.264 171.234 379.808 170.978L377.113 169.487L371.721 166.504L350.177 154.605L300.659 127.312L257.478 103.637L222.221 84.4814L208.566 77.4133Z" fill="white"/>
<g opacity="0.5">
<path opacity="0.5" d="M357.144 289.187L366.387 294.274V190.891L357.144 185.793V289.187Z" fill="white"/>
<path opacity="0.5" d="M340.841 280.205L350.072 285.292V181.909L340.841 176.811V280.205Z" fill="white"/>
<path opacity="0.5" d="M324.525 271.222L333.768 276.32V172.927L324.525 167.84V271.222Z" fill="white"/>
<path opacity="0.5" d="M308.221 262.24L317.464 267.337V163.944L308.221 158.857V262.24Z" fill="white"/>
<path opacity="0.5" d="M291.906 253.268L301.149 258.355V154.961L291.906 149.875V253.268Z" fill="white"/>
<path opacity="0.5" d="M275.602 244.286L284.845 249.373V145.979L275.602 140.893V244.286Z" fill="white"/>
<path opacity="0.5" d="M259.298 235.303L268.53 240.39V137.008L259.298 131.91V235.303Z" fill="white"/>
<path opacity="0.5" d="M242.983 226.321L252.226 231.408V128.025L242.983 122.938V226.321Z" fill="white"/>
<path opacity="0.5" d="M226.679 217.338L235.91 222.436V119.043L226.679 113.956V217.338Z" fill="white"/>
</g>
<path d="M357.74 300.952L365.255 305.093C365.515 305.271 365.727 305.505 365.875 305.776C366.023 306.046 366.102 306.346 366.107 306.651V306.818C366.107 307.419 365.722 307.698 365.255 307.442L357.74 303.301C357.476 303.122 357.261 302.887 357.111 302.615C356.961 302.342 356.88 302.039 356.876 301.731V301.576C356.876 300.975 357.261 300.696 357.74 300.952Z" fill="#455A64"/>
<path d="M341.424 291.97L348.94 296.111C349.199 296.289 349.411 296.523 349.559 296.794C349.707 297.064 349.787 297.364 349.792 297.669V297.836C349.792 298.437 349.407 298.715 348.94 298.448L341.424 294.319C341.162 294.139 340.947 293.904 340.797 293.632C340.647 293.359 340.566 293.057 340.56 292.749V292.593C340.56 291.97 340.946 291.714 341.424 291.97Z" fill="#455A64"/>
<path d="M325.109 282.987L332.624 287.128C332.884 287.306 333.096 287.54 333.244 287.811C333.392 288.081 333.471 288.381 333.476 288.686V288.853C333.476 289.454 333.091 289.732 332.624 289.465L325.109 285.325C324.846 285.149 324.63 284.916 324.48 284.645C324.33 284.374 324.249 284.073 324.245 283.766V283.599C324.245 282.998 324.63 282.72 325.109 282.987Z" fill="#455A64"/>
<path d="M308.828 274.005L316.344 278.134C316.603 278.316 316.815 278.552 316.962 278.824C317.11 279.096 317.19 279.397 317.196 279.704V279.86C317.196 280.461 316.811 280.739 316.344 280.483L308.828 276.387C308.567 276.21 308.353 275.977 308.205 275.706C308.057 275.435 307.978 275.134 307.976 274.829V274.662C307.941 274.016 308.315 273.738 308.828 274.005Z" fill="#455A64"/>
<path d="M292.489 265.011L300.005 269.152C300.265 269.333 300.477 269.569 300.625 269.841C300.773 270.113 300.852 270.415 300.857 270.721V270.877C300.857 271.478 300.472 271.756 300.005 271.5L292.489 267.36C292.23 267.181 292.018 266.947 291.87 266.677C291.722 266.406 291.642 266.107 291.637 265.801V265.634C291.626 265.033 292.011 264.755 292.489 265.011Z" fill="#455A64"/>
<path d="M276.151 256.028L283.666 260.169C283.928 260.346 284.142 260.579 284.29 260.85C284.438 261.121 284.516 261.422 284.518 261.727V261.917C284.518 262.518 284.145 262.796 283.666 262.54L276.151 258.399C275.891 258.218 275.679 257.982 275.531 257.71C275.383 257.438 275.304 257.136 275.299 256.83V256.674C275.31 256.051 275.695 255.772 276.151 256.028Z" fill="#455A64"/>
<path d="M259.812 247.046L267.328 251.187C267.591 251.363 267.806 251.596 267.956 251.867C268.106 252.138 268.187 252.439 268.191 252.745V252.912C268.191 253.513 267.806 253.791 267.328 253.524L259.812 249.395C259.553 249.213 259.341 248.977 259.194 248.705C259.046 248.433 258.966 248.132 258.96 247.825V247.67C258.995 247.057 259.38 246.79 259.812 247.046Z" fill="#455A64"/>
<path d="M243.473 238.063L250.989 242.204C251.252 242.38 251.467 242.613 251.617 242.884C251.767 243.155 251.848 243.456 251.852 243.762V243.929C251.852 244.53 251.467 244.809 250.989 244.541L243.473 240.401C243.213 240.222 243.001 239.988 242.853 239.718C242.706 239.447 242.626 239.148 242.621 238.842V238.676C242.679 238.074 243.064 237.796 243.473 238.063Z" fill="#455A64"/>
<path d="M227.216 229.081L234.732 233.21C234.994 233.39 235.209 233.625 235.359 233.897C235.509 234.17 235.59 234.472 235.595 234.78V234.936C235.595 235.537 235.21 235.815 234.732 235.559L227.216 231.418C226.956 231.24 226.744 231.006 226.596 230.735C226.448 230.465 226.369 230.165 226.364 229.86V229.693C226.364 229.092 226.749 228.814 227.216 229.081Z" fill="#455A64"/>
<path d="M366.388 271.189L357.144 266.091V289.187L366.388 294.274V271.189Z" fill="#5F907C"/>
<path d="M350.072 238.386L340.841 233.3V280.205L350.072 285.291V238.386Z" fill="#5F907C"/>
<path d="M333.768 199.718L324.525 194.62V271.222L333.768 276.32V199.718Z" fill="#5F907C"/>
<path d="M317.464 232.209L308.221 227.122V262.24L317.464 267.337V232.209Z" fill="#5F907C"/>
<path d="M301.149 215.423L291.906 210.325V253.268L301.149 258.355V215.423Z" fill="#5F907C"/>
<path d="M284.845 193.173L275.602 188.086V244.286L284.845 249.372V193.173Z" fill="#5F907C"/>
<path d="M268.53 214.411L259.298 209.324V235.303L268.53 240.39V214.411Z" fill="#5F907C"/>
<path d="M252.226 197.147L242.983 192.061V226.321L252.226 231.408V197.147Z" fill="#5F907C"/>
<path d="M235.91 182.666L226.679 177.579V217.338L235.91 222.436V182.666Z" fill="#5F907C"/>
<path d="M366.388 213.464L357.144 208.366V266.09L366.388 271.188V213.464Z" fill="#5F907C"/>
<path d="M350.072 217.605L340.841 212.507V233.3L350.072 238.386V217.605Z" fill="#5F907C"/>
<path d="M333.768 181.575L324.525 176.488V194.62L333.768 199.718V181.575Z" fill="#5F907C"/>
<path d="M317.464 186.517L308.221 181.431V227.122L317.464 232.209V186.517Z" fill="#5F907C"/>
<path d="M301.149 196.101L291.906 191.014V210.326L301.149 215.424V196.101Z" fill="#5F907C"/>
<path d="M284.845 145.979L275.602 140.892V188.086L284.845 193.173V145.979Z" fill="#5F907C"/>
<path d="M268.53 191.681L259.298 186.594V209.323L268.53 214.41V191.681Z" fill="#5F907C"/>
<path d="M252.226 145.745L242.983 140.658V192.06L252.226 197.147V145.745Z" fill="#5F907C"/>
<path d="M235.91 164.768L226.679 159.681V177.579L235.91 182.666V164.768Z" fill="#5F907C"/>
<g opacity="0.4">
<path opacity="0.4" d="M366.387 213.465L357.144 208.367V266.091L366.387 271.189V213.465Z" fill="white"/>
<path opacity="0.4" d="M350.072 217.605L340.841 212.507V233.3L350.072 238.386V217.605Z" fill="white"/>
<path opacity="0.4" d="M333.768 181.576L324.525 176.489V194.621L333.768 199.719V181.576Z" fill="white"/>
<path opacity="0.4" d="M317.464 186.517L308.221 181.431V227.122L317.464 232.209V186.517Z" fill="white"/>
<path opacity="0.4" d="M301.149 196.101L291.906 191.014V210.326L301.149 215.424V196.101Z" fill="white"/>
<path opacity="0.4" d="M284.845 145.979L275.602 140.893V188.087L284.845 193.174V145.979Z" fill="white"/>
<path opacity="0.4" d="M268.53 191.682L259.298 186.595V209.324L268.53 214.411V191.682Z" fill="white"/>
<path opacity="0.4" d="M252.226 145.745L242.983 140.658V192.06L252.226 197.147V145.745Z" fill="white"/>
<path opacity="0.4" d="M235.91 164.768L226.679 159.681V177.579L235.91 182.666V164.768Z" fill="white"/>
</g>
<path d="M267.36 315.26L267.126 315.204L267.36 315.26Z" fill="#455A64"/>
<path d="M367.691 471.937C367.729 471.881 367.761 471.821 367.785 471.759C367.758 471.82 367.727 471.88 367.691 471.937Z" fill="#455A64"/>
<path d="M366.816 472.805L367.003 472.704L366.816 472.805Z" fill="#455A64"/>
<path d="M364.879 472.827L365.147 472.894L364.879 472.827Z" fill="#455A64"/>
<path d="M265.434 315.282L265.224 315.394L265.434 315.282Z" fill="#455A64"/>
<path d="M367.306 472.46L367.458 472.315L367.306 472.46Z" fill="#455A64"/>
<path d="M366.244 472.983L366.466 472.927L366.244 472.983Z" fill="#455A64"/>
<path d="M367.96 471.291C367.96 471.235 367.96 471.191 367.96 471.124C367.96 471.057 367.972 471.235 367.96 471.291Z" fill="#455A64"/>
<path d="M264.57 316.106C264.521 316.177 264.478 316.251 264.442 316.329C264.48 316.252 264.523 316.178 264.57 316.106Z" fill="#455A64"/>
<path d="M264.162 413.144C264.235 414.798 264.838 416.391 265.889 417.707C264.835 416.391 264.228 414.799 264.15 413.144V317.764C264.145 317.731 264.145 317.697 264.15 317.664C264.145 317.697 264.145 317.731 264.15 317.764L264.162 413.144Z" fill="#455A64"/>
<path d="M264.302 316.729L264.232 316.985L264.302 316.729Z" fill="#455A64"/>
<path d="M264.956 315.616L264.78 315.783L264.956 315.616Z" fill="#455A64"/>
<path opacity="0.9" d="M367.003 472.704C367.114 472.635 367.216 472.553 367.306 472.459C367.216 472.553 367.114 472.635 367.003 472.704Z" fill="#37474F"/>
<path opacity="0.9" d="M264.232 316.985C264.213 317.211 264.213 317.438 264.232 317.664C264.213 317.438 264.213 317.211 264.232 316.985Z" fill="#37474F"/>
<path opacity="0.9" d="M268.107 419.677L364.132 472.504C364.371 472.632 364.62 472.74 364.879 472.827C364.618 472.738 364.364 472.63 364.12 472.504L268.107 419.689C267.235 419.177 266.481 418.503 265.889 417.707C266.478 418.503 267.233 419.174 268.107 419.677Z" fill="#37474F"/>
<path opacity="0.9" d="M365.147 472.894C365.292 472.938 365.441 472.971 365.591 472.994C365.441 472.971 365.292 472.938 365.147 472.894Z" fill="#37474F"/>
<path opacity="0.9" d="M367.458 472.315C367.545 472.206 367.623 472.091 367.691 471.97C367.623 472.091 367.545 472.206 367.458 472.315Z" fill="#37474F"/>
<path opacity="0.9" d="M366.466 472.927C366.588 472.9 366.705 472.859 366.816 472.805C366.705 472.859 366.588 472.9 366.466 472.927Z" fill="#37474F"/>
<path opacity="0.9" d="M365.859 473.049H366.244C366.116 473.061 365.987 473.061 365.859 473.049Z" fill="#37474F"/>
<path opacity="0.9" d="M264.442 316.317C264.387 316.452 264.34 316.589 264.302 316.729C264.34 316.589 264.387 316.452 264.442 316.317Z" fill="#37474F"/>
<path opacity="0.9" d="M267.126 315.205C266.97 315.157 266.81 315.123 266.648 315.104C266.81 315.123 266.97 315.157 267.126 315.205Z" fill="#37474F"/>
<path opacity="0.9" d="M264.781 315.783C264.701 315.881 264.631 315.985 264.57 316.095C264.634 315.987 264.704 315.883 264.781 315.783Z" fill="#37474F"/>
<path opacity="0.9" d="M367.785 471.792C367.857 471.63 367.915 471.462 367.96 471.291C367.915 471.462 367.857 471.63 367.785 471.792Z" fill="#37474F"/>
<path opacity="0.9" d="M265.772 315.16L265.434 315.282L265.772 315.16Z" fill="#37474F"/>
<path opacity="0.9" d="M266.403 315.094C266.271 315.082 266.138 315.082 266.006 315.094C266.138 315.082 266.271 315.082 266.403 315.094Z" fill="#37474F"/>
<path opacity="0.9" d="M265.224 315.394L264.955 315.616L265.224 315.394Z" fill="#37474F"/>
<path opacity="0.8" d="M264.173 317.664C264.155 317.438 264.155 317.211 264.173 316.985L264.243 316.729C264.281 316.59 264.328 316.452 264.383 316.318C264.419 316.24 264.462 316.165 264.512 316.095C264.572 315.985 264.643 315.881 264.722 315.783L264.897 315.616L265.165 315.394L265.375 315.282L265.714 315.16H265.947C266.079 315.149 266.212 315.149 266.344 315.16H266.589C266.752 315.179 266.912 315.212 267.068 315.26L267.301 315.316H267.359C267.602 315.401 267.836 315.505 268.06 315.627L364.132 368.421C365.283 369.137 366.241 370.102 366.928 371.237C367.615 372.372 368.013 373.645 368.088 374.954V470.334C368.086 470.588 368.059 470.841 368.006 471.091C368.006 471.157 368.006 471.202 368.006 471.258C367.962 471.429 367.904 471.596 367.831 471.758C367.807 471.821 367.776 471.881 367.738 471.936C367.67 472.057 367.592 472.172 367.505 472.282L367.353 472.426C367.263 472.519 367.161 472.602 367.049 472.671L366.863 472.771C366.752 472.825 366.634 472.866 366.513 472.894L366.291 472.949H365.637C365.487 472.927 365.339 472.893 365.194 472.849L364.925 472.782C364.667 472.696 364.417 472.588 364.178 472.46L268.153 419.633C267.279 419.129 266.524 418.459 265.936 417.663C264.884 416.346 264.281 414.753 264.208 413.099V317.765C264.191 317.733 264.179 317.699 264.173 317.664Z" fill="#455A64"/>
<path opacity="0.5" d="M265.364 315.316L268.468 313.624C268.798 313.442 269.173 313.35 269.554 313.357C270.174 313.373 270.778 313.546 271.304 313.857L367.33 366.673C368.508 367.382 369.476 368.367 370.142 369.533L366.945 371.292C366.285 370.114 365.311 369.123 364.12 368.42L268.118 315.594C267.894 315.472 267.66 315.367 267.418 315.282C267.368 315.532 267.345 315.785 267.348 316.039V411.407C267.423 412.716 267.819 413.991 268.504 415.127C269.189 416.264 270.144 417.232 271.293 417.952L364.12 469.009V472.504L268.118 419.677C266.965 418.964 266.005 418 265.317 416.864C264.629 415.728 264.234 414.453 264.162 413.144V317.775C264.103 317.299 264.185 316.817 264.397 316.383C264.609 315.948 264.944 315.579 265.364 315.316Z" fill="#37474F"/>
<path opacity="0.9" d="M364.12 469.009V472.504C364.656 472.817 365.267 472.993 365.894 473.016C366.258 473.02 366.617 472.932 366.933 472.76L370.096 471.035C370.504 470.766 370.829 470.396 371.035 469.964C371.24 469.533 371.319 469.057 371.263 468.586V373.207C371.205 371.901 370.803 370.63 370.096 369.511L366.898 371.27C367.609 372.383 368.011 373.651 368.065 374.954V470.322C368.084 470.571 368.084 470.82 368.065 471.068C367.825 470.991 367.594 470.891 367.376 470.768L364.12 469.009Z" fill="#37474F"/>
<path opacity="0.4" d="M268.118 315.594L347.711 360.206L358.098 365.905L363.292 368.754C364.902 369.611 366.142 370.983 366.793 372.628C367.146 373.428 367.324 374.287 367.318 375.155V383.725L368.03 470.322L368.73 383.725V375.155C368.743 374.112 368.533 373.078 368.112 372.116C367.73 371.183 367.198 370.311 366.536 369.534C365.846 368.733 364.992 368.074 364.027 367.597L358.834 364.725L348.47 358.948L268.118 315.594Z" fill="white"/>
<path d="M292.313 405.253C282.261 382.723 284.945 360.063 298.307 354.64C311.67 349.217 330.65 363.085 340.702 385.615C350.754 408.145 348.07 430.806 334.707 436.228C321.345 441.651 302.364 427.783 292.313 405.253Z" fill="#5F907C"/>
<path d="M292.313 405.253C282.261 382.723 284.945 360.063 298.307 354.64C311.67 349.217 330.65 363.085 340.702 385.615C350.754 408.145 348.07 430.806 334.707 436.228C321.345 441.651 302.364 427.783 292.313 405.253Z" fill="#FAFAFA"/>
<path d="M298.707 416.783C291.133 405.653 286.219 391.572 286.219 378.761C286.219 357.49 299.78 347.717 316.504 356.922V395.435L298.707 416.783Z" fill="#5F907C"/>
<path opacity="0.4" d="M298.707 416.783C291.133 405.653 286.219 391.572 286.219 378.761C286.219 357.49 299.78 347.717 316.504 356.922V395.435L298.707 416.783Z" fill="white"/>
<path d="M349.952 386.886C350.139 385.25 350.711 380.441 351.037 377.614C351.189 376.368 352.076 375.878 353.127 376.501L353.687 376.813L359.23 379.863L359.79 380.174C360.379 380.572 360.871 381.086 361.231 381.681C361.592 382.277 361.813 382.94 361.879 383.625L362.965 394.088C363.035 394.733 362.743 395.201 362.288 395.056C361.963 394.916 361.684 394.696 361.478 394.418C361.273 394.14 361.15 393.814 361.121 393.476L360.187 383.914C360.18 383.82 360.151 383.728 360.103 383.645C360.055 383.562 359.988 383.491 359.907 383.436C359.732 383.347 359.604 383.436 359.627 383.692L360.969 397.917L359.23 396.959V405.864C359.23 406.654 358.717 406.977 358.063 406.677C357.711 406.444 357.422 406.135 357.22 405.775C357.017 405.415 356.906 405.015 356.896 404.606V395.702L355.904 395.145V404.05C355.904 404.851 355.391 405.218 354.737 404.862C354.386 404.629 354.097 404.319 353.895 403.96C353.692 403.6 353.581 403.2 353.57 402.792V393.887L351.971 392.908L353.255 380.13C353.265 380.02 353.244 379.91 353.195 379.81C353.146 379.71 353.07 379.625 352.975 379.562C352.835 379.473 352.706 379.562 352.683 379.718L351.761 388.244C351.679 388.879 351.166 389.057 350.594 388.6C350.366 388.374 350.192 388.104 350.081 387.809C349.97 387.513 349.926 387.199 349.952 386.886Z" fill="#37474F"/>
<path d="M358.717 375.455C358.706 374.646 358.496 373.85 358.102 373.133C357.709 372.415 357.144 371.796 356.453 371.326C355.204 370.636 354.2 371.326 354.2 372.962C354.213 373.769 354.423 374.561 354.814 375.276C355.205 375.992 355.766 376.609 356.453 377.08C357.713 377.771 358.717 377.036 358.717 375.455Z" fill="#37474F"/>
<path d="M278.75 386.631C278.737 385.822 278.525 385.027 278.132 384.31C277.739 383.593 277.175 382.973 276.486 382.501C275.237 381.811 274.222 382.501 274.222 384.137C274.236 384.945 274.449 385.738 274.842 386.453C275.235 387.168 275.798 387.785 276.486 388.256C277.735 388.946 278.75 388.211 278.75 386.631Z" fill="#37474F"/>
<path d="M273.148 387.632L273.708 387.944L279.252 390.994L279.824 391.306L280.01 391.406C280.509 391.746 280.917 392.193 281.2 392.711C281.484 393.23 281.636 393.804 281.644 394.389V404.651C281.644 405.297 281.236 405.586 280.734 405.308C280.458 405.118 280.232 404.869 280.074 404.581C279.916 404.293 279.83 403.974 279.824 403.65V394.845C279.822 394.744 279.794 394.644 279.743 394.555C279.692 394.466 279.62 394.39 279.532 394.333C279.38 394.244 279.252 394.333 279.252 394.533V417.084C279.252 417.875 278.75 418.197 278.085 417.897C277.732 417.664 277.443 417.356 277.24 416.996C277.037 416.636 276.927 416.235 276.918 415.827V404.406C276.917 404.227 276.872 404.05 276.784 403.891C276.697 403.732 276.571 403.596 276.416 403.494C276.136 403.338 275.914 403.494 275.914 403.85V415.281C275.914 416.083 275.401 416.394 274.747 416.105C274.396 415.869 274.107 415.558 273.905 415.196C273.702 414.835 273.591 414.433 273.58 414.023V391.484C273.58 391.383 273.555 391.284 273.506 391.195C273.457 391.106 273.386 391.029 273.3 390.972C273.148 390.883 273.02 390.972 273.02 391.172V399.976C273.02 400.622 272.611 400.911 272.11 400.633C271.83 400.442 271.601 400.192 271.441 399.902C271.281 399.613 271.194 399.291 271.188 398.963V388.701C271.188 387.588 271.923 387.031 272.821 387.521L273.148 387.632Z" fill="#37474F"/>
<path d="M324.475 421.459C324.702 421.461 324.925 421.522 325.118 421.636C325.311 421.75 325.468 421.912 325.572 422.104L356.208 414.057V409.493C356.208 409.431 356.233 409.372 356.279 409.328C356.325 409.284 356.388 409.259 356.453 409.259C356.518 409.259 356.58 409.284 356.626 409.328C356.672 409.372 356.698 409.431 356.698 409.493V414.235C356.697 414.285 356.68 414.334 356.649 414.374C356.617 414.414 356.573 414.443 356.523 414.457L325.701 422.616C325.706 422.646 325.706 422.676 325.701 422.705C325.701 422.941 325.627 423.171 325.49 423.367C325.353 423.563 325.158 423.715 324.93 423.806C324.702 423.896 324.451 423.919 324.208 423.873C323.966 423.827 323.744 423.714 323.569 423.547C323.394 423.381 323.275 423.169 323.227 422.938C323.179 422.707 323.204 422.467 323.298 422.249C323.393 422.032 323.553 421.846 323.758 421.715C323.964 421.584 324.205 421.514 324.452 421.514L324.475 421.459Z" fill="#5F907C"/>
<path opacity="0.25" d="M324.475 421.459C324.702 421.461 324.925 421.522 325.118 421.636C325.311 421.75 325.468 421.912 325.572 422.104L356.208 414.057V409.493C356.208 409.431 356.233 409.372 356.279 409.328C356.325 409.284 356.388 409.259 356.453 409.259C356.518 409.259 356.58 409.284 356.626 409.328C356.672 409.372 356.698 409.431 356.698 409.493V414.235C356.697 414.285 356.68 414.334 356.649 414.374C356.617 414.414 356.573 414.443 356.523 414.457L325.701 422.616C325.706 422.646 325.706 422.676 325.701 422.705C325.701 422.941 325.627 423.171 325.49 423.367C325.353 423.563 325.158 423.715 324.93 423.806C324.702 423.896 324.451 423.919 324.208 423.873C323.966 423.827 323.744 423.714 323.569 423.547C323.394 423.381 323.275 423.169 323.227 422.938C323.179 422.707 323.204 422.467 323.298 422.249C323.393 422.032 323.553 421.846 323.758 421.715C323.964 421.584 324.205 421.514 324.452 421.514L324.475 421.459Z" fill="white"/>
<path d="M276.416 374.91L303.258 367.809C303.251 367.783 303.251 367.756 303.258 367.731C303.258 367.495 303.331 367.265 303.469 367.069C303.606 366.873 303.801 366.721 304.029 366.63C304.257 366.54 304.508 366.517 304.751 366.563C304.993 366.609 305.215 366.722 305.39 366.889C305.565 367.055 305.684 367.267 305.732 367.498C305.78 367.729 305.755 367.969 305.661 368.187C305.566 368.404 305.406 368.59 305.201 368.721C304.995 368.852 304.754 368.922 304.507 368.922C304.278 368.92 304.055 368.857 303.861 368.741C303.667 368.625 303.511 368.46 303.41 368.265L276.766 375.322V379.774C276.763 379.835 276.736 379.893 276.691 379.937C276.646 379.98 276.585 380.005 276.521 380.008C276.489 380.008 276.457 380.002 276.427 379.99C276.397 379.978 276.37 379.961 276.348 379.94C276.325 379.918 276.307 379.892 276.295 379.864C276.282 379.835 276.276 379.805 276.276 379.774V375.099C276.281 375.059 276.297 375.021 276.321 374.988C276.345 374.955 276.378 374.928 276.416 374.91Z" fill="#37474F"/>
<path opacity="0.1" d="M12.5056 112.596C12.4472 112.124 12.5251 111.645 12.7307 111.211C12.9363 110.778 13.262 110.406 13.6727 110.136L16.7771 108.444C17.233 108.219 17.746 108.121 18.2577 108.16C18.7693 108.2 19.2591 108.375 19.6714 108.667L227.583 223.18C228.733 223.896 229.691 224.861 230.379 225.996C231.066 227.131 231.464 228.405 231.539 229.714V391.11C231.592 391.58 231.512 392.056 231.307 392.486C231.102 392.917 230.779 393.288 230.372 393.558L227.197 395.284C226.749 395.484 226.253 395.566 225.76 395.521C225.268 395.476 224.797 395.305 224.396 395.028L16.4503 280.526C15.2993 279.809 14.3414 278.844 13.654 277.709C12.9667 276.574 12.5693 275.301 12.494 273.992L12.5056 112.596Z" fill="#5F907C"/>
<path opacity="0.1" d="M16.4621 110.425L224.397 224.927C225.547 225.643 226.504 226.608 227.19 227.743C227.875 228.879 228.27 230.153 228.341 231.461V392.857C228.341 395.261 226.579 396.196 224.385 395.083L16.4504 280.525C15.2994 279.809 14.3415 278.844 13.6541 277.709C12.9668 276.574 12.5694 275.3 12.4941 273.992V112.596C12.5058 110.192 14.268 109.212 16.4621 110.425Z" fill="#5F907C"/>
<path opacity="0.15" d="M12.5056 112.596V273.992C12.5786 275.3 12.9739 276.573 13.6593 277.708C14.3446 278.843 15.3007 279.808 16.4502 280.525L224.385 395.027C226.334 396.14 227.944 395.45 228.283 393.603C228.043 393.513 227.809 393.409 227.582 393.291L19.6713 278.789C18.5203 278.073 17.5624 277.108 16.875 275.973C16.1877 274.838 15.7903 273.564 15.715 272.255V110.893C15.713 110.639 15.7365 110.386 15.785 110.136C13.9061 109.446 12.5056 110.459 12.5056 112.596Z" fill="#5F907C"/>
<path d="M16.4621 110.425L104.365 159.267L145.714 182.33L187.191 205.259L207.929 216.713L218.316 222.423L223.51 225.272C225.124 226.123 226.366 227.497 227.011 229.146C227.364 229.945 227.542 230.805 227.536 231.672V251.708V274.559L227.676 320.284L227.886 325.137L228.201 392.879L228.528 325.137L228.738 320.284L229.006 274.515V251.663V231.628C229.019 230.582 228.809 229.544 228.388 228.578C227.985 227.624 227.425 226.738 226.731 225.951C226.375 225.55 225.985 225.177 225.564 224.838C225.14 224.526 224.691 224.247 224.221 224.003L219.028 221.132L208.735 215.522L187.949 204.124L146.402 181.328L104.762 158.655L16.4621 110.425Z" fill="white"/>
<path opacity="0.3" d="M31.5287 135.759L41.9155 141.48L42.6858 141.903L53.0726 147.624L53.8429 148.047L64.2413 153.768L64.9999 154.191L75.3984 159.868L76.1687 160.291L86.5555 166.012L87.3257 166.435L97.7125 172.156L98.4828 172.579L108.881 178.301L109.652 178.723L119.49 184.155L120.038 184.456L120.809 184.879L131.195 190.589L131.966 191.023L142.364 196.744L143.123 197.167L154.291 203.311L164.678 209.033L165.448 209.455L174.785 214.576L175.87 215.177L176.641 215.6L187.039 221.321L187.809 221.744L198.196 227.476L198.966 227.888L209.353 233.609L210.123 234.032V343.937L31.342 245.575L30.7702 245.252V135.38L31.5287 135.759ZM198.931 336.847L209.318 342.568V327.987L198.931 322.266V336.847ZM198.931 321.264L209.318 326.985V312.404L198.931 306.683V321.264ZM198.931 305.681L209.318 311.391V296.81L198.931 291.099V305.681ZM198.931 290.098L209.318 295.83V281.249L198.931 275.516V290.098ZM198.931 274.515L209.318 280.236V265.655L198.931 259.933V274.515ZM198.931 258.932L209.318 264.642V250.06L198.931 244.35V258.932ZM198.931 243.349L209.318 249.081V234.5L198.931 228.767V243.349ZM187.728 330.714L198.114 336.435V321.854L187.728 316.133V330.714ZM187.728 315.131L198.114 320.852V306.271L187.728 300.549V315.131ZM187.728 299.548L198.114 305.269V290.688L187.728 284.966V299.548ZM187.728 283.965L198.114 289.686V275.105L187.728 269.383V283.965ZM187.728 268.382L198.114 274.103V259.522L187.728 253.8V268.382ZM187.728 252.799L198.114 258.52V243.939L187.728 238.217V252.799ZM187.728 237.216L198.114 242.926V228.344L187.728 222.634V237.216ZM176.606 324.603L187.004 330.313V315.698L176.606 309.977V324.603ZM176.606 309.02L187.004 314.741V300.115L176.606 294.394V309.02ZM176.606 293.437L187.004 299.158V284.577L176.606 278.856V293.437ZM176.606 277.854L187.004 283.575V268.994L176.606 263.273V277.854ZM176.606 262.271L187.004 267.992V253.411L176.606 247.69V262.271ZM176.606 246.688L187.004 252.409V237.828L176.606 232.107V246.688ZM176.606 231.105L187.004 236.826V222.245L176.606 216.523V231.105ZM165.448 318.314L175.835 324.046V309.465L165.448 303.733V318.314ZM165.448 302.731L175.835 308.452V293.871L165.448 288.15V302.731ZM165.448 287.148L175.835 292.869V278.288L165.448 272.567V287.148ZM165.448 271.565L175.835 277.286V262.705L165.448 256.984V271.565ZM165.448 255.982L175.835 261.703V247.122L165.448 241.401V255.982ZM165.448 240.399L175.835 246.12V231.539L165.448 225.818V240.399ZM165.448 224.816L175.835 230.537V215.956L165.448 210.235V224.816ZM154.291 312.036L164.678 317.746V303.455L154.291 297.745V312.036ZM154.291 296.453L164.678 302.175V287.872L154.291 282.15V296.453ZM154.291 280.87L164.678 286.603V272.289L154.291 266.556V280.87ZM154.291 265.287L164.678 270.997V256.705L154.291 250.995V265.287ZM154.291 249.704L164.678 255.425V240.844L154.291 235.123V249.704ZM154.291 234.121L164.678 239.842V225.261L154.291 219.54V234.121ZM154.291 218.538L164.678 224.259V209.678L154.291 203.957V218.538ZM143.123 305.748L153.521 311.48V296.899L143.123 291.166V305.748ZM143.123 290.165L153.521 295.886V281.716L143.123 275.995V290.165ZM143.123 274.581L153.521 280.292V266.155L143.123 260.434V274.581ZM143.123 258.998L153.521 264.72V250.138L143.123 244.406V258.998ZM143.123 243.415L153.521 249.137V235.023L143.123 229.313V243.415ZM143.123 227.832L153.521 233.554V218.972L143.123 213.251V227.832ZM143.123 212.249L153.521 217.97V203.389L143.123 197.657V212.249ZM131.966 299.459L142.364 305.681V291.099L131.966 285.389V299.459ZM131.966 283.876L142.364 289.597V275.628L131.966 269.907V283.876ZM131.966 268.293L142.364 274.025V260.045L131.966 254.312V268.293ZM131.966 252.71L142.364 258.42V244.462L131.966 238.752V252.71ZM131.966 237.127L142.364 242.848V228.879L131.966 223.157V237.127ZM131.966 221.543L142.364 227.276V213.296L131.966 207.563V221.543ZM131.966 205.96L142.364 211.67V197.713L131.966 192.002V205.96ZM120.809 293.17L131.195 298.902V284.321L120.809 278.589V293.17ZM120.809 277.587L131.195 283.308V268.727L120.809 263.005V277.587ZM120.809 262.004L131.195 267.714V253.133L120.809 247.422V262.004ZM120.809 246.421L131.195 252.153V237.572L120.809 231.839V246.421ZM120.809 230.838L131.195 236.559V221.978L120.809 216.256V230.838ZM120.809 215.255L131.195 220.965V207.185L120.809 201.464V215.255ZM120.809 199.672L131.195 205.404V190.823L120.809 185.09V199.672ZM109.652 286.892L120.038 293.437V278.856L109.652 273.134V286.892ZM109.652 271.309L120.038 277.854V263.273L109.652 257.551V271.309ZM109.652 255.726L120.038 262.271V247.69L109.652 241.957V255.726ZM109.652 240.143L120.038 246.688V232.107L109.652 226.396V240.143ZM109.652 224.56L120.038 230.281V216.635L109.652 210.902V224.56ZM109.652 208.977L120.038 214.709V201.052L109.652 195.319V208.977ZM109.652 193.394L120.038 200.05V185.469L109.652 179.759V193.394ZM98.4828 280.603L108.881 286.324V271.743L98.4828 266.022V280.603ZM98.4828 265.02L108.881 270.741V256.16L98.4828 250.439V265.02ZM98.4828 249.437L108.881 255.158V241.568L98.4828 235.858V249.437ZM98.4828 233.854L108.881 239.586V225.005L98.4828 219.273V233.854ZM98.4828 218.271L108.881 223.992V209.411L98.4828 203.69V218.271ZM98.4828 202.688L108.881 208.398V193.817L98.4828 188.107V202.688ZM98.4828 187.105L108.881 192.837V178.256L98.4828 172.524V187.105ZM87.3607 275.405L97.7475 281.126V266.545L87.3607 260.824V275.405ZM87.3607 259.822L97.7475 265.543V250.962L87.3607 245.241V259.822ZM87.3607 244.239L97.7475 249.96V235.379L87.3607 229.658V244.239ZM87.3607 228.656L97.7475 234.377V219.863L87.3607 214.142V228.656ZM87.3607 213.073L97.7475 218.794V204.213L87.3607 198.492V213.073ZM87.3607 197.49L97.7475 203.211V188.63L87.3607 182.909V197.49ZM87.3607 181.907L97.7475 187.628V173.225L87.3607 167.504V181.907ZM76.2037 269.127L86.5905 274.837V260.256L76.2037 254.546V269.127ZM76.2037 253.544L86.5905 259.266V244.684L76.2037 238.963V253.544ZM76.2037 237.961L86.5905 243.683V229.101L76.2037 223.38V237.961ZM76.2037 222.378L86.5905 228.099V213.518L76.2037 207.797V222.378ZM76.2037 206.795L86.5905 212.516V198.158L76.2037 192.437V206.795ZM76.2037 191.212L86.5905 196.933V182.352L76.2037 176.631V191.212ZM76.2037 175.629L86.5905 181.361V167.036L76.2037 161.315V175.629ZM65.0349 262.839L75.4334 268.571V254.257L65.0349 248.536V262.839ZM65.0349 247.255L75.4334 252.977V238.395L65.0349 232.674V247.255ZM65.0349 231.672L75.4334 237.394V222.812L65.0349 217.091V231.672ZM65.0349 216.089L75.3984 222.2V207.619L64.9999 201.898L65.0349 216.089ZM65.0349 200.506L75.3984 206.617V192.036L64.9999 186.315L65.0349 200.506ZM65.0349 184.923L75.3984 191.034V176.453L64.9999 170.732L65.0349 184.923ZM65.0349 169.34L75.3984 175.451V160.87L64.9999 155.149L65.0349 169.34ZM53.8779 256.561L64.2764 262.271V247.69L53.8779 241.98V256.561ZM53.8779 240.978L64.2764 246.699V232.552L53.8779 226.831V240.978ZM53.8779 225.395L64.2764 231.127V216.546L53.8779 210.813V225.395ZM53.8779 209.812L64.2764 215.522V200.94L53.8779 195.23V209.812ZM53.8779 194.229L64.2764 199.95V185.369L53.8779 179.647V194.229ZM53.8779 178.646L64.2764 184.367V169.786L53.8779 164.064V178.646ZM53.8779 163.063L64.2764 168.784V154.748L53.8779 149.027V163.063ZM42.7208 250.272L53.1076 256.004V241.423L42.7208 235.691V250.272ZM42.7208 234.689L53.1076 240.421V225.84L42.7208 220.108V234.689ZM42.7208 219.106L53.1076 224.816V210.235L42.7208 204.525V219.106ZM42.7208 203.523L53.1076 209.244V194.663L42.7208 188.93V203.523ZM42.7208 187.94L53.1076 193.661V179.08L42.7208 173.358V187.94ZM42.7208 172.357L53.1076 178.078V163.497L42.7208 157.775V172.357ZM42.7208 156.774L53.1076 162.506V147.925L42.7208 142.192V156.774ZM31.5638 243.994L41.9506 249.715V235.134L31.5638 229.413V243.994ZM31.5638 228.411L41.9506 234.121V220.263L31.5638 214.542V228.411ZM31.5638 212.828L41.9506 218.56V203.979L31.5638 198.247V212.828ZM31.5638 197.245L41.9506 202.955V188.374L31.5638 182.664V197.245ZM31.5638 181.662L41.9506 187.383V172.802L31.5638 167.081V181.662ZM31.5638 166.079L41.9506 171.811V157.23L31.5638 151.498V166.079ZM31.5638 150.496L41.9506 156.206V141.625L31.5638 135.915V150.496Z" fill="white"/>
<path d="M30.7585 245.23V141.625L48.6844 181.707L66.6221 193.539L84.5598 213.941L102.486 220.698L120.423 241.223L138.361 237.716L156.287 254.613L174.225 279.668L192.162 289.541L210.088 321.086V343.982L30.7585 245.23Z" fill="#5F907C"/>
<path opacity="0.7" d="M30.7585 245.23V141.625L48.6844 181.707L66.6221 193.539L84.5598 213.941L102.486 220.698L120.423 241.223L138.361 237.716L156.287 254.613L174.225 279.668L192.162 289.541L210.088 321.086V343.982L30.7585 245.23Z" fill="white"/>
<path d="M210.088 357.071C210.176 357.073 210.262 357.052 210.338 357.01C210.414 356.969 210.477 356.91 210.52 356.838C210.583 356.73 210.599 356.602 210.564 356.484C210.529 356.365 210.446 356.264 210.333 356.203L31.0036 257.451C30.9476 257.42 30.8859 257.401 30.8219 257.393C30.7579 257.385 30.6929 257.389 30.6306 257.405C30.5683 257.421 30.5099 257.448 30.4587 257.486C30.4076 257.524 30.3647 257.57 30.3325 257.624C30.3003 257.677 30.2795 257.736 30.2712 257.797C30.2628 257.858 30.2672 257.92 30.284 257.979C30.3008 258.039 30.3297 258.095 30.3691 258.143C30.4084 258.192 30.4575 258.233 30.5134 258.264L209.843 357.016C209.92 357.05 210.004 357.069 210.088 357.071Z" fill="#455A64"/>
<path d="M210.088 360.856C210.154 360.856 210.218 360.844 210.279 360.819C210.339 360.795 210.393 360.76 210.439 360.715C210.485 360.671 210.521 360.618 210.545 360.56C210.569 360.502 210.58 360.44 210.579 360.377V352.831C210.579 352.707 210.527 352.588 210.435 352.5C210.343 352.413 210.218 352.363 210.088 352.363C209.958 352.363 209.834 352.413 209.742 352.5C209.65 352.588 209.598 352.707 209.598 352.831V360.377C209.597 360.44 209.608 360.502 209.632 360.56C209.656 360.618 209.692 360.671 209.738 360.715C209.783 360.76 209.838 360.795 209.898 360.819C209.958 360.844 210.023 360.856 210.088 360.856Z" fill="#455A64"/>
<path d="M192.162 350.972C192.292 350.972 192.417 350.923 192.509 350.835C192.601 350.748 192.652 350.629 192.652 350.505V342.958C192.663 342.89 192.659 342.82 192.639 342.754C192.619 342.688 192.584 342.626 192.537 342.574C192.49 342.521 192.432 342.479 192.366 342.45C192.3 342.422 192.229 342.407 192.156 342.407C192.084 342.407 192.013 342.422 191.947 342.45C191.881 342.479 191.823 342.521 191.776 342.574C191.729 342.626 191.694 342.688 191.674 342.754C191.654 342.82 191.649 342.89 191.66 342.958V350.505C191.66 350.567 191.674 350.629 191.699 350.686C191.724 350.744 191.761 350.796 191.808 350.839C191.855 350.883 191.91 350.917 191.971 350.94C192.032 350.963 192.097 350.974 192.162 350.972Z" fill="#455A64"/>
<path d="M174.225 341.099C174.355 341.099 174.479 341.05 174.571 340.962C174.663 340.875 174.715 340.756 174.715 340.632V333.074C174.715 332.95 174.663 332.831 174.571 332.743C174.479 332.656 174.355 332.606 174.225 332.606C174.095 332.606 173.97 332.656 173.878 332.743C173.786 332.831 173.735 332.95 173.735 333.074V340.632C173.735 340.693 173.747 340.754 173.772 340.811C173.797 340.867 173.833 340.919 173.878 340.962C173.924 341.006 173.978 341.04 174.037 341.064C174.097 341.087 174.16 341.099 174.225 341.099Z" fill="#455A64"/>
<path d="M156.287 331.282C156.417 331.282 156.542 331.232 156.634 331.145C156.726 331.057 156.777 330.938 156.777 330.814V323.256C156.777 323.132 156.726 323.013 156.634 322.926C156.542 322.838 156.417 322.789 156.287 322.789C156.157 322.789 156.032 322.838 155.94 322.926C155.849 323.013 155.797 323.132 155.797 323.256V330.814C155.797 330.938 155.849 331.057 155.94 331.145C156.032 331.232 156.157 331.282 156.287 331.282Z" fill="#455A64"/>
<path d="M138.361 321.353C138.491 321.353 138.616 321.304 138.708 321.216C138.799 321.129 138.851 321.01 138.851 320.886V313.328C138.833 313.215 138.773 313.112 138.682 313.038C138.591 312.963 138.475 312.922 138.355 312.922C138.235 312.922 138.119 312.963 138.028 313.038C137.937 313.112 137.877 313.215 137.859 313.328V320.886C137.859 320.948 137.872 321.01 137.898 321.067C137.923 321.125 137.96 321.177 138.007 321.22C138.054 321.264 138.109 321.298 138.17 321.321C138.231 321.344 138.296 321.355 138.361 321.353Z" fill="#455A64"/>
<path d="M120.423 311.48C120.489 311.48 120.554 311.468 120.614 311.443C120.674 311.419 120.729 311.384 120.774 311.339C120.82 311.295 120.856 311.242 120.88 311.184C120.904 311.126 120.915 311.064 120.914 311.001V303.455C120.914 303.331 120.862 303.212 120.77 303.124C120.678 303.037 120.553 302.987 120.423 302.987C120.293 302.987 120.169 303.037 120.077 303.124C119.985 303.212 119.933 303.331 119.933 303.455V311.001C119.932 311.064 119.943 311.126 119.967 311.184C119.991 311.242 120.027 311.295 120.073 311.339C120.118 311.384 120.173 311.419 120.233 311.443C120.293 311.468 120.358 311.48 120.423 311.48Z" fill="#455A64"/>
<path d="M102.533 301.596C102.663 301.596 102.787 301.547 102.879 301.459C102.971 301.371 103.023 301.253 103.023 301.129V293.582C103.024 293.52 103.013 293.459 102.989 293.401C102.965 293.344 102.929 293.292 102.883 293.248C102.837 293.204 102.782 293.17 102.722 293.147C102.662 293.124 102.597 293.113 102.533 293.114C102.468 293.114 102.404 293.127 102.345 293.15C102.286 293.173 102.231 293.208 102.186 293.251C102.14 293.295 102.104 293.346 102.08 293.403C102.055 293.46 102.042 293.521 102.042 293.582V301.129C102.042 301.253 102.094 301.371 102.186 301.459C102.278 301.547 102.403 301.596 102.533 301.596Z" fill="#455A64"/>
<path d="M84.5598 291.723C84.6263 291.72 84.6915 291.705 84.7514 291.677C84.8114 291.649 84.8649 291.61 84.9086 291.563C84.9523 291.515 84.9852 291.459 85.0055 291.398C85.0258 291.338 85.033 291.274 85.0266 291.211V283.664C85.0376 283.596 85.033 283.526 85.0131 283.46C84.9932 283.394 84.9586 283.332 84.9115 283.28C84.8644 283.227 84.8059 283.185 84.7402 283.157C84.6744 283.128 84.6029 283.113 84.5306 283.113C84.4582 283.113 84.3867 283.128 84.321 283.157C84.2553 283.185 84.1968 283.227 84.1497 283.28C84.1026 283.332 84.0679 283.394 84.048 283.46C84.0282 283.526 84.0236 283.596 84.0346 283.664V291.211C84.0275 291.279 84.0362 291.347 84.06 291.412C84.0837 291.476 84.1219 291.535 84.172 291.584C84.222 291.632 84.2827 291.67 84.3497 291.694C84.4167 291.718 84.4884 291.728 84.5598 291.723Z" fill="#455A64"/>
<path d="M66.6221 281.85C66.7521 281.85 66.8768 281.801 66.9687 281.713C67.0606 281.626 67.1122 281.507 67.1122 281.383V273.825C67.1122 273.701 67.0606 273.582 66.9687 273.494C66.8768 273.407 66.7521 273.357 66.6221 273.357C66.4921 273.357 66.3674 273.407 66.2755 273.494C66.1836 273.582 66.1319 273.701 66.1319 273.825V281.383C66.1319 281.507 66.1836 281.626 66.2755 281.713C66.3674 281.801 66.4921 281.85 66.6221 281.85Z" fill="#455A64"/>
<path d="M48.6845 271.977C48.7498 271.979 48.8148 271.968 48.8757 271.945C48.9365 271.922 48.9919 271.888 49.0387 271.844C49.0854 271.801 49.1226 271.749 49.1479 271.691C49.1733 271.634 49.1864 271.572 49.1863 271.51V263.952C49.1681 263.839 49.1081 263.736 49.0171 263.661C48.9261 263.587 48.8102 263.546 48.6903 263.546C48.5704 263.546 48.4546 263.587 48.3636 263.661C48.2726 263.736 48.2126 263.839 48.1943 263.952V271.51C48.1943 271.634 48.246 271.753 48.3379 271.84C48.4298 271.928 48.5545 271.977 48.6845 271.977Z" fill="#455A64"/>
<path d="M30.7585 262.103C30.8238 262.103 30.8885 262.091 30.9488 262.067C31.009 262.043 31.0636 262.007 31.1092 261.963C31.1549 261.918 31.1908 261.865 31.2147 261.807C31.2387 261.749 31.2502 261.687 31.2486 261.625V254.078C31.2304 253.965 31.1704 253.862 31.0794 253.788C30.9884 253.713 30.8725 253.672 30.7526 253.672C30.6327 253.672 30.5169 253.713 30.4259 253.788C30.3349 253.862 30.2749 253.965 30.2566 254.078V261.625C30.2566 261.752 30.3095 261.874 30.4036 261.963C30.4977 262.053 30.6254 262.103 30.7585 262.103Z" fill="#455A64"/>
<path d="M30.7585 245.23V169.385L48.6844 203.5L66.6221 207.797L84.5598 225.473L102.486 231.138L120.423 247.367L138.361 244.784L156.287 261.347L174.225 288.551L192.162 301.117L210.088 327.542V343.982L30.7585 245.23Z" fill="#5F907C"/>
<path opacity="0.4" d="M30.7585 245.23V169.385L48.6844 203.5L66.6221 207.797L84.5598 225.473L102.486 231.138L120.423 247.367L138.361 244.784L156.287 261.347L174.225 288.551L192.162 301.117L210.088 327.542V343.982L30.7585 245.23Z" fill="white"/>
<path d="M210.088 343.981L30.7585 245.229V191.846L49.1863 221.844L66.6221 225.673L84.058 252.609L102.486 254.101L119.828 268.27L138.361 259.922L156.287 273.279L174.225 301.796L192.162 311.001L210.088 333.018V343.981Z" fill="#5F907C"/>
<path opacity="0.2" d="M192.174 334.12L174.225 324.236V279.713L192.162 289.541L192.174 334.12ZM156.287 314.363L138.361 304.479V237.694L156.287 254.591V314.363ZM120.423 294.606L102.532 284.733V220.698L120.47 241.223L120.423 294.606ZM84.5597 274.86L66.622 264.987V193.539L84.5597 213.941V274.86ZM48.6843 181.707V255.103L30.7584 245.23V141.625L48.6843 181.707Z" fill="#5F907C"/>
<path opacity="0.15" d="M120.423 268.003V294.606L113.339 290.71L102.486 284.733V254.101L119.828 268.27L120.423 268.003ZM192.162 311.013V334.12L174.213 324.236V301.807L192.151 311.001L192.162 311.013ZM156.287 314.352L150.312 311.013L138.361 304.423V259.9L156.287 273.257V314.352ZM48.6844 221.087V255.158L30.7584 245.285V191.858L48.6844 221.087ZM84.5598 252.699V274.96L66.6221 265.087V225.673L84.0579 252.61L84.5598 252.699Z" fill="black"/>
<path d="M188.404 357.238L195.897 361.335C196.16 361.511 196.375 361.744 196.525 362.015C196.675 362.285 196.756 362.586 196.76 362.893V363.06C196.76 363.661 196.375 363.939 195.897 363.672L188.393 359.543C188.13 359.363 187.915 359.128 187.765 358.856C187.615 358.583 187.534 358.281 187.529 357.973V357.817C187.541 357.261 187.926 356.982 188.404 357.238Z" fill="#37474F"/>
<path d="M170.467 347.365L177.983 351.506C178.242 351.684 178.454 351.918 178.602 352.189C178.75 352.459 178.83 352.759 178.835 353.064V353.231C178.835 353.832 178.45 354.11 177.983 353.843L170.467 349.714C170.207 349.534 169.994 349.298 169.846 349.025C169.698 348.753 169.619 348.451 169.615 348.144V347.977C169.615 347.376 169.988 347.109 170.467 347.365Z" fill="#37474F"/>
<path d="M152.529 337.493L160.045 341.633C160.308 341.809 160.523 342.042 160.673 342.313C160.824 342.584 160.904 342.885 160.909 343.192V343.358C160.909 343.96 160.523 344.238 160.045 343.971L152.529 339.83C152.27 339.651 152.058 339.418 151.91 339.147C151.762 338.877 151.682 338.577 151.677 338.272V338.105C151.677 337.504 152.062 337.225 152.529 337.493Z" fill="#37474F"/>
<path d="M134.603 327.619L142.107 331.749C142.37 331.928 142.585 332.163 142.735 332.436C142.885 332.708 142.965 333.011 142.971 333.318V333.508C142.971 334.109 142.586 334.387 142.107 334.131L134.603 329.99C134.34 329.814 134.125 329.581 133.975 329.31C133.825 329.039 133.744 328.738 133.739 328.432V328.265C133.739 327.631 134.125 327.352 134.603 327.619Z" fill="#37474F"/>
<path d="M116.665 317.735L124.181 321.876C124.441 322.057 124.653 322.293 124.801 322.565C124.949 322.837 125.028 323.139 125.033 323.445V323.601C125.033 324.202 124.648 324.481 124.181 324.225L116.665 320.084C116.404 319.907 116.19 319.674 116.042 319.403C115.894 319.132 115.816 318.831 115.814 318.526V318.359C115.814 317.758 116.187 317.479 116.665 317.735Z" fill="#37474F"/>
<path d="M98.7277 307.907L106.244 312.048C106.507 312.224 106.722 312.457 106.872 312.728C107.022 312.999 107.103 313.3 107.107 313.606V313.773C107.107 314.374 106.722 314.652 106.244 314.396L98.7277 310.256C98.4681 310.075 98.256 309.839 98.1081 309.567C97.9603 309.294 97.8808 308.993 97.8758 308.686V308.53C97.8641 307.907 98.2609 307.606 98.7277 307.907Z" fill="#37474F"/>
<path d="M80.8018 297.99L88.3177 302.13C88.5771 302.309 88.7892 302.543 88.9372 302.813C89.0851 303.084 89.1647 303.383 89.1696 303.689V303.855C89.1696 304.457 88.7845 304.735 88.3177 304.468L80.8018 300.338C80.5393 300.159 80.3245 299.924 80.1745 299.651C80.0245 299.379 79.9436 299.076 79.9382 298.769V298.613C79.9382 298.001 80.3584 297.734 80.8018 297.99Z" fill="#37474F"/>
<path d="M62.8525 288.117L70.3684 292.257C70.6278 292.436 70.8399 292.67 70.9878 292.94C71.1357 293.211 71.2154 293.51 71.2203 293.816V293.983C71.2203 294.584 70.8352 294.862 70.3684 294.595L62.8525 290.454C62.5911 290.277 62.3774 290.044 62.2293 289.773C62.0811 289.502 62.0027 289.201 62.0006 288.896V288.729C62.0122 288.128 62.3857 287.872 62.8525 288.117Z" fill="#37474F"/>
<path d="M44.9265 278.244L52.4423 282.373C52.7048 282.552 52.9197 282.787 53.0697 283.06C53.2196 283.332 53.3006 283.635 53.306 283.942V284.098C53.306 284.71 52.9208 284.978 52.4423 284.722L44.9265 280.581C44.6671 280.402 44.4549 280.169 44.307 279.898C44.1591 279.628 44.0795 279.328 44.0745 279.023V278.856C44.0745 278.255 44.4597 277.976 44.9265 278.244Z" fill="#37474F"/>
<path d="M192.162 279.445C192.292 279.445 192.417 279.396 192.509 279.309C192.601 279.221 192.653 279.102 192.653 278.978V251.518C192.634 251.405 192.574 251.302 192.483 251.228C192.392 251.153 192.276 251.113 192.157 251.113C192.037 251.113 191.921 251.153 191.83 251.228C191.739 251.302 191.679 251.405 191.661 251.518V278.967C191.659 279.03 191.671 279.093 191.696 279.152C191.72 279.211 191.757 279.264 191.804 279.309C191.851 279.353 191.907 279.389 191.968 279.412C192.03 279.436 192.096 279.447 192.162 279.445Z" fill="#5F907C"/>
<path d="M193.948 252.509C194.399 252.517 194.844 252.406 195.232 252.186C195.715 251.872 196.101 251.44 196.35 250.935C196.598 250.429 196.7 249.87 196.644 249.315C196.575 247.908 196.155 246.538 195.418 245.318C194.681 244.098 193.649 243.064 192.408 242.302C191.949 241.94 191.386 241.72 190.793 241.673C190.2 241.625 189.605 241.751 189.09 242.034C188.574 242.318 188.162 242.745 187.908 243.258C187.654 243.772 187.571 244.347 187.669 244.907C187.738 246.313 188.158 247.683 188.895 248.903C189.632 250.123 190.664 251.157 191.906 251.919C192.521 252.282 193.225 252.486 193.948 252.509ZM190.377 242.658C190.919 242.683 191.446 242.84 191.906 243.115C192.999 243.794 193.909 244.709 194.562 245.786C195.215 246.863 195.592 248.072 195.664 249.315C195.778 249.711 195.751 250.133 195.588 250.514C195.426 250.895 195.136 251.214 194.764 251.422C194.391 251.63 193.958 251.715 193.53 251.664C193.102 251.613 192.703 251.429 192.396 251.14C191.301 250.462 190.39 249.548 189.737 248.47C189.084 247.393 188.707 246.183 188.638 244.94C188.587 244.55 188.646 244.154 188.808 243.792C188.97 243.43 189.229 243.116 189.56 242.881C189.807 242.74 190.089 242.663 190.377 242.658Z" fill="#5F907C"/>
<path d="M138.361 227.621C138.491 227.621 138.616 227.572 138.708 227.484C138.799 227.396 138.851 227.278 138.851 227.154V215.778C138.833 215.665 138.773 215.562 138.682 215.487C138.591 215.413 138.475 215.372 138.355 215.372C138.235 215.372 138.119 215.413 138.028 215.487C137.937 215.562 137.877 215.665 137.859 215.778V227.154C137.859 227.216 137.872 227.278 137.898 227.335C137.923 227.392 137.96 227.445 138.007 227.488C138.054 227.532 138.109 227.566 138.17 227.589C138.231 227.612 138.296 227.623 138.361 227.621Z" fill="#5F907C"/>
<path d="M140.147 216.769C140.597 216.771 141.04 216.66 141.43 216.446C141.914 216.131 142.3 215.699 142.548 215.194C142.796 214.689 142.898 214.129 142.842 213.574C142.775 212.167 142.355 210.797 141.618 209.577C140.881 208.357 139.848 207.323 138.606 206.562C138.148 206.2 137.584 205.98 136.991 205.932C136.398 205.884 135.804 206.01 135.288 206.294C134.772 206.577 134.36 207.004 134.106 207.518C133.852 208.031 133.769 208.606 133.868 209.166C133.943 210.571 134.366 211.939 135.102 213.158C135.839 214.377 136.867 215.412 138.104 216.179C138.719 216.542 139.423 216.745 140.147 216.769ZM136.575 206.918C137.118 206.942 137.644 207.099 138.104 207.374C139.199 208.052 140.11 208.967 140.763 210.044C141.416 211.122 141.793 212.331 141.862 213.574C141.96 213.966 141.923 214.378 141.756 214.748C141.589 215.119 141.301 215.428 140.935 215.629C140.569 215.831 140.145 215.914 139.725 215.866C139.305 215.819 138.913 215.644 138.606 215.366C137.511 214.689 136.6 213.774 135.947 212.696C135.294 211.619 134.917 210.409 134.848 209.166C134.797 208.776 134.856 208.38 135.018 208.018C135.18 207.656 135.439 207.342 135.77 207.107C136.015 206.974 136.294 206.909 136.575 206.918Z" fill="#5F907C"/>
<path d="M84.5598 203.846C84.6898 203.846 84.8144 203.796 84.9064 203.709C84.9983 203.621 85.0499 203.502 85.0499 203.378V185.28C85.0317 185.167 84.9717 185.064 84.8807 184.989C84.7897 184.915 84.6738 184.874 84.5539 184.874C84.4341 184.874 84.3181 184.915 84.2272 184.989C84.1362 185.064 84.0762 185.167 84.058 185.28V203.378C84.0579 203.441 84.071 203.502 84.0964 203.56C84.1217 203.617 84.1589 203.669 84.2056 203.713C84.2524 203.756 84.3078 203.791 84.3686 203.813C84.4294 203.836 84.4944 203.847 84.5598 203.846Z" fill="#5F907C"/>
<path d="M86.3454 186.282C86.7957 186.284 87.2388 186.173 87.6292 185.959C88.1125 185.644 88.4986 185.212 88.7469 184.707C88.9953 184.202 89.097 183.642 89.0413 183.087C88.9756 181.68 88.5565 180.309 87.8192 179.088C87.082 177.868 86.0482 176.834 84.8049 176.075C84.3465 175.713 83.783 175.493 83.1899 175.445C82.5968 175.397 82.0026 175.523 81.487 175.807C80.9713 176.09 80.5589 176.517 80.305 177.031C80.0511 177.544 79.9679 178.119 80.0666 178.679C80.1365 180.087 80.5586 181.458 81.2977 182.678C82.0367 183.897 83.0712 184.931 84.3147 185.692C84.9251 186.056 85.6257 186.26 86.3454 186.282ZM82.7742 176.431C83.3208 176.451 83.8521 176.609 84.3147 176.887C85.4059 177.567 86.3137 178.483 86.9645 179.56C87.6154 180.637 87.991 181.846 88.061 183.087C88.1594 183.479 88.1223 183.891 87.9553 184.261C87.7883 184.632 87.5003 184.94 87.1342 185.142C86.7681 185.343 86.3435 185.427 85.9238 185.379C85.504 185.332 85.1116 185.156 84.8049 184.879C83.7103 184.201 82.7992 183.287 82.1461 182.209C81.493 181.132 81.1164 179.922 81.047 178.679C80.9962 178.289 81.0548 177.893 81.2167 177.531C81.3787 177.169 81.6382 176.855 81.969 176.62C82.214 176.487 82.4926 176.422 82.7742 176.431Z" fill="#5F907C"/>
<path d="M210.065 307.184C210.229 307.183 210.39 307.14 210.532 307.061C210.647 307.004 210.748 306.925 210.83 306.83C210.913 306.735 210.974 306.625 211.011 306.507C211.048 306.388 211.06 306.264 211.046 306.141C211.032 306.019 210.992 305.9 210.929 305.792L196.539 280.459C196.446 280.31 196.318 280.184 196.166 280.091L174.89 268.393L157.081 243.516L156.964 243.382L139.026 226.486C138.913 226.376 138.772 226.295 138.617 226.25C138.462 226.205 138.298 226.198 138.139 226.23L120.774 229.569L103.268 209.534C103.163 209.41 103.026 209.314 102.871 209.255L85.1784 202.577L67.4042 182.352C67.3467 182.288 67.2799 182.232 67.2058 182.185L53.2711 173.002L35.4268 133.154C35.3239 132.925 35.13 132.743 34.8873 132.649C34.6446 132.556 34.3729 132.557 34.1314 132.654C34.0122 132.702 33.9042 132.773 33.8137 132.861C33.7233 132.95 33.6521 133.054 33.6044 133.169C33.5566 133.284 33.5332 133.407 33.5355 133.53C33.5379 133.654 33.5659 133.776 33.6179 133.889L51.5439 173.96C51.6165 174.126 51.738 174.269 51.894 174.372L65.957 183.632L83.8013 203.946C83.9069 204.066 84.0437 204.159 84.1981 204.213L101.891 210.892L119.665 231.227C119.779 231.358 119.928 231.458 120.097 231.514C120.265 231.571 120.447 231.584 120.622 231.55L138.034 228.144L155.54 244.629L173.42 269.606C173.501 269.727 173.614 269.827 173.746 269.896L194.952 281.572L209.202 306.683C209.283 306.834 209.407 306.961 209.559 307.049C209.712 307.137 209.887 307.184 210.065 307.184Z" fill="white"/>
<path d="M33.1509 141.313C33.4139 141.313 33.6663 141.213 33.8523 141.036C34.0383 140.858 34.1429 140.618 34.1429 140.367V133.688L40.0832 137.028C40.3097 137.149 40.5772 137.181 40.8282 137.117C41.0792 137.052 41.2936 136.896 41.4253 136.683C41.4905 136.577 41.5331 136.46 41.5508 136.338C41.5685 136.216 41.5609 136.092 41.5284 135.973C41.4959 135.855 41.4391 135.743 41.3614 135.645C41.2836 135.547 41.1863 135.465 41.0752 135.403L33.6527 131.284C33.5015 131.202 33.3306 131.159 33.1567 131.159C32.9828 131.159 32.8119 131.202 32.6607 131.284C32.5112 131.367 32.3872 131.485 32.3011 131.628C32.2151 131.77 32.17 131.932 32.1705 132.097V140.456C32.1936 140.689 32.3067 140.906 32.4878 141.064C32.6689 141.223 32.9052 141.311 33.1509 141.313Z" fill="white"/>
<path d="M170.136 46.203L164.523 43.0975L175.399 34.2485L181.025 37.3429L170.136 46.203Z" fill="#5F907C"/>
<path d="M173.602 48.2395C170.72 46.3027 165.725 47.772 161.5 49.0409C160.485 49.3637 159.563 49.6531 158.722 49.898C158.46 50.49 158.321 51.1252 158.314 51.7679C158.314 54.8957 161.091 53.9941 167.125 52.1464C169.163 51.4779 171.25 50.9534 173.369 50.5769C173.556 52.1686 174.711 53.6156 179.204 51.345L173.602 48.2395Z" fill="#5F907C"/>
<path d="M159.668 88.9226L154.042 85.8283V79.4949L159.668 82.6004V88.9226Z" fill="#5F907C"/>
<path d="M169.191 64.88C169.191 67.3955 167.207 69.6439 164.266 71.269C159.598 73.8736 157.754 71.7588 157.357 69.6885L156.365 69.1431C157.181 68.9111 157.965 68.5859 158.699 68.1747C160.737 67.1809 162.356 65.5504 163.285 63.5554C166.693 62.4646 169.191 62.0417 169.191 64.88Z" fill="#5F907C"/>
<path d="M148.277 80.3851C147.655 80.0402 146.942 79.874 146.223 79.9065C146.106 79.5837 146.013 79.2609 145.92 78.9047L140.271 75.8215C140.426 76.7551 140.787 77.6466 141.33 78.4371C141.874 79.2276 142.587 79.8992 143.422 80.4074L149.036 83.5017C149.308 82.979 149.381 82.3822 149.243 81.8136C149.104 81.245 148.763 80.74 148.277 80.3851Z" fill="#5F907C"/>
<path d="M167.113 52.1467C161.08 54.0389 158.302 54.896 158.302 51.7683C158.31 51.1255 158.448 50.4904 158.711 49.8983C154.591 51.1116 152.677 51.2674 152.677 48.6739C152.677 46.7594 154.031 44.4109 157.754 42.3405C161.733 40.1144 163.951 40.6598 164.511 43.0974L175.388 34.1928C175.388 34.0593 175.283 33.9368 175.236 33.8033C175.91 33.6598 176.559 33.4236 177.162 33.102L172.68 30.5531L172.248 30.3082H172.178C170.852 29.6971 169.369 29.4652 167.907 29.6404C165.963 29.8511 164.065 30.3506 162.282 31.1207V31.0094L167.907 27.8817L162.282 24.7874L158.477 26.9578L153.319 29.8184V36.1518C145.698 41.4389 140.936 48.3957 140.936 55.831C140.936 59.237 141.905 61.1738 143.457 62.1533H143.539L143.947 62.3759L148.616 64.9025C148.746 64.216 148.649 63.5075 148.336 62.8768C149.83 62.6922 151.306 62.3869 152.747 61.964C158.466 60.3167 163.542 57.7232 163.542 61.7637C163.542 62.3718 163.427 62.975 163.204 63.5446C166.705 62.4315 169.167 62.0308 169.167 64.8692C169.167 67.3847 167.183 69.6331 164.242 71.2582C159.574 73.8628 157.73 71.748 157.334 69.6776L156.342 69.1322L151.673 66.5722L140.236 75.8107L145.861 78.9162C146.054 79.6889 146.344 80.4364 146.725 81.1423C149.242 81.0606 151.714 80.4807 153.984 79.4393V81.9994L162.877 80.8863V74.564C170.58 69.1434 175.89 61.8527 175.89 54.2282C175.933 52.9255 175.719 51.6266 175.26 50.3992C172.475 50.633 169.735 51.2208 167.113 52.1467Z" fill="#5F907C"/>
<path opacity="0.4" d="M167.113 52.1467C161.08 54.0389 158.302 54.896 158.302 51.7683C158.31 51.1255 158.448 50.4904 158.711 49.8983C154.591 51.1116 152.677 51.2674 152.677 48.6739C152.677 46.7594 154.031 44.4109 157.754 42.3405C161.733 40.1144 163.951 40.6598 164.511 43.0974L175.388 34.1928C175.388 34.0593 175.283 33.9368 175.236 33.8033C175.91 33.6598 176.559 33.4236 177.162 33.102L172.68 30.5531L172.248 30.3082H172.178C170.852 29.6971 169.369 29.4652 167.907 29.6404C165.963 29.8511 164.065 30.3506 162.282 31.1207V31.0094L167.907 27.8817L162.282 24.7874L158.477 26.9578L153.319 29.8184V36.1518C145.698 41.4389 140.936 48.3957 140.936 55.831C140.936 59.237 141.905 61.1738 143.457 62.1533H143.539L143.947 62.3759L148.616 64.9025C148.746 64.216 148.649 63.5075 148.336 62.8768C149.83 62.6922 151.306 62.3869 152.747 61.964C158.466 60.3167 163.542 57.7232 163.542 61.7637C163.542 62.3718 163.427 62.975 163.204 63.5446C166.705 62.4315 169.167 62.0308 169.167 64.8692C169.167 67.3847 167.183 69.6331 164.242 71.2582C159.574 73.8628 157.73 71.748 157.334 69.6776L156.342 69.1322L151.673 66.5722L140.236 75.8107L145.861 78.9162C146.054 79.6889 146.344 80.4364 146.725 81.1423C149.242 81.0606 151.714 80.4807 153.984 79.4393V81.9994L162.877 80.8863V74.564C170.58 69.1434 175.89 61.8527 175.89 54.2282C175.933 52.9255 175.719 51.6266 175.26 50.3992C172.475 50.633 169.735 51.2208 167.113 52.1467Z" fill="white"/>
<path d="M175.283 50.3993C172.49 50.6312 169.743 51.2189 167.113 52.1468C161.08 54.039 158.302 54.8961 158.302 51.7684C158.31 51.1256 158.448 50.4905 158.711 49.8984C159.729 47.9776 161.365 46.4176 163.379 45.4461C167.359 43.22 169.576 43.7765 170.136 46.2141L181.013 37.3095C180.666 35.9706 179.853 34.7838 178.705 33.9444C177.558 33.1049 176.145 32.6627 174.699 32.6903C172.35 32.7399 170.036 33.2554 167.907 34.2041V27.9041L162.282 31.0318L158.944 32.8795V39.2018C151.323 44.5 146.562 51.4456 146.562 58.8809C146.516 60.2674 146.746 61.6495 147.238 62.9548C148.919 66.973 153.529 66.4164 158.384 65.0585C160.088 64.5687 161.745 64.0011 163.227 63.5447C166.728 62.4316 169.191 62.0309 169.191 64.8692C169.191 67.3848 167.207 69.6332 164.266 71.2583C159.598 73.8629 157.754 71.748 157.357 69.6777L145.92 78.9162C146.112 79.6889 146.402 80.4365 146.783 81.1424C148.277 83.8138 150.938 84.4816 154.042 84.1477C155.985 83.8607 157.878 83.3215 159.668 82.5449V88.8671L168.561 83.9696V77.6028C176.263 72.1933 181.573 64.9026 181.573 57.267C181.573 51.8352 178.842 50.3325 175.283 50.3993Z" fill="#5F907C"/>
<g opacity="0.2">
<path opacity="0.2" d="M175.283 50.3993C172.49 50.6312 169.743 51.2189 167.113 52.1468C161.08 54.039 158.302 54.8961 158.302 51.7684C158.31 51.1256 158.448 50.4905 158.711 49.8984C159.729 47.9776 161.365 46.4176 163.379 45.4461C167.359 43.22 169.576 43.7765 170.136 46.2141L181.013 37.3095C180.666 35.9706 179.853 34.7838 178.705 33.9444C177.558 33.1049 176.145 32.6627 174.699 32.6903C172.35 32.7399 170.036 33.2554 167.907 34.2041V27.9041L162.282 31.0318L158.944 32.8795V39.2018C151.323 44.5 146.562 51.4456 146.562 58.8809C146.516 60.2674 146.746 61.6495 147.238 62.9548C148.919 66.973 153.529 66.4164 158.384 65.0585C160.088 64.5687 161.745 64.0011 163.227 63.5447C166.728 62.4316 169.191 62.0309 169.191 64.8692C169.191 67.3848 167.207 69.6332 164.266 71.2583C159.598 73.8629 157.754 71.748 157.357 69.6777L145.92 78.9162C146.112 79.6889 146.402 80.4365 146.783 81.1424C148.277 83.8138 150.938 84.4816 154.042 84.1477C155.985 83.8607 157.878 83.3215 159.668 82.5449V88.8671L168.561 83.9696V77.6028C176.263 72.1933 181.573 64.9026 181.573 57.267C181.573 51.8352 178.842 50.3325 175.283 50.3993Z" fill="white"/>
</g>
<path d="M158.944 39.2127L153.319 36.1072V29.7849L158.944 32.8793V39.2127Z" fill="#5F907C"/>
<path d="M168.561 77.6583L169.448 77.0461C169.728 76.8346 170.066 76.5786 170.428 76.2669C170.79 75.9553 171.233 75.6214 171.677 75.2207C172.12 74.8199 172.61 74.4192 173.089 73.9406L173.836 73.206L174.583 72.4268C174.851 72.1597 175.096 71.8814 175.341 71.592C175.586 71.3026 175.843 71.0244 176.088 70.7238C176.567 70.1116 177.057 69.5106 177.489 68.8539C177.92 68.1972 178.34 67.5516 178.749 66.906C179.157 66.2604 179.484 65.5814 179.776 64.9136C180.068 64.2457 180.313 63.589 180.57 62.9768L180.85 62.053C180.85 61.9083 180.943 61.7524 180.978 61.6077L181.083 61.1848C181.214 60.6748 181.315 60.1583 181.386 59.6376C181.458 59.2359 181.509 58.8309 181.538 58.4244V57.3113V58.4244C181.533 58.8343 181.498 59.2434 181.433 59.6487C181.38 60.1725 181.294 60.6928 181.176 61.207L181.095 61.6411C181.095 61.797 181.001 61.9417 180.966 62.0864C180.873 62.398 180.791 62.7097 180.698 63.0325C180.453 63.6558 180.254 64.3348 179.928 64.9915C179.601 65.6482 179.274 66.3272 178.912 67.0062C178.551 67.6851 178.119 68.353 177.652 68.9874C177.185 69.6219 176.707 70.2452 176.228 70.8574C175.983 71.1579 175.715 71.4362 175.47 71.7256C175.224 72.015 174.968 72.2933 174.711 72.5604L173.941 73.3396L173.17 74.0519C172.68 74.5305 172.178 74.9312 171.723 75.3208C171.268 75.7104 170.836 76.0332 170.451 76.3337C170.066 76.6343 169.728 76.8791 169.436 77.0795L168.561 77.6583Z" fill="white"/>
<path d="M95.1265 86.6572C95.2082 86.134 95.6634 85.9448 96.2002 86.2453L147.621 114.495C147.942 114.685 148.207 114.949 148.391 115.263L153.118 112.647C152.937 112.347 152.68 112.094 152.371 111.913L100.95 83.663C100.611 83.5014 100.238 83.4172 99.8589 83.4172C99.4801 83.4172 99.1065 83.5014 98.7677 83.663L96.1885 85.0655C95.9053 85.2459 95.6645 85.4805 95.4817 85.7546C95.2988 86.0287 95.1778 86.3361 95.1265 86.6572Z" fill="#F0F0F0"/>
<path d="M147.621 160.777C147.959 160.941 148.333 161.027 148.712 161.027C149.091 161.027 149.465 160.941 149.803 160.777L152.394 159.363C152.712 159.172 152.977 158.91 153.166 158.6C153.355 158.29 153.462 157.941 153.479 157.582V113.705C153.466 113.33 153.35 112.965 153.141 112.647L148.391 115.241C148.591 115.55 148.703 115.902 148.718 116.265V160.153C148.718 160.788 148.263 161.133 147.621 160.777Z" fill="#E0E0E0"/>
<path d="M153.479 127.974L162.232 136.456C162.333 136.554 162.41 136.672 162.458 136.801C162.505 136.931 162.521 137.069 162.506 137.205C162.49 137.342 162.443 137.473 162.367 137.59C162.292 137.707 162.19 137.806 162.069 137.881C161.894 137.992 157.331 140.53 157.331 140.53L148.718 130.635L153.479 127.974Z" fill="#F0F0F0"/>
<path d="M148.111 160.644C148.391 160.644 148.426 160.321 148.426 160.187V139.273L156.7 140.386C156.845 140.4 156.991 140.37 157.117 140.3C157.243 140.23 157.342 140.123 157.401 139.996C157.454 139.879 157.469 139.75 157.444 139.625C157.419 139.5 157.355 139.385 157.261 139.295L148.426 130.724V116.254C148.405 115.943 148.309 115.64 148.145 115.369C147.981 115.099 147.754 114.869 147.481 114.696L96.0601 86.4573C95.9604 86.3908 95.8432 86.3523 95.7217 86.3459C95.4299 86.3459 95.4066 86.6687 95.4066 86.8134V130.735C95.4262 131.046 95.5207 131.348 95.6826 131.618C95.8445 131.889 96.0696 132.12 96.3402 132.294L147.772 160.543C147.874 160.604 147.991 160.638 148.111 160.644Z" fill="#FAFAFA"/>
<path d="M95.7218 86.6571C95.7083 86.7195 95.7083 86.7839 95.7218 86.8463V130.735C95.7401 131 95.8222 131.257 95.9619 131.487C96.1016 131.717 96.295 131.913 96.527 132.059L147.948 160.309C148.064 160.365 148.134 160.376 148.134 160.387C148.152 160.321 148.152 160.253 148.134 160.187V138.949L148.799 139.038L156.724 140.151H156.794C156.868 140.149 156.94 140.126 157.001 140.084C157.061 140.042 157.107 139.984 157.132 139.918C157.165 139.851 157.175 139.777 157.16 139.705C157.146 139.633 157.107 139.567 157.051 139.517L148.298 131.035L148.134 130.868V116.287C148.115 116.025 148.033 115.771 147.896 115.543C147.758 115.316 147.568 115.121 147.341 114.974L95.9318 86.7239C95.8766 86.6868 95.8123 86.6639 95.7451 86.6571H95.7218ZM95.7451 86.1006C95.9184 86.1103 96.0866 86.16 96.2353 86.2453L147.621 114.495C147.942 114.686 148.21 114.95 148.402 115.262C148.593 115.574 148.701 115.926 148.718 116.287V130.635L157.459 139.127C157.592 139.254 157.683 139.416 157.721 139.592C157.758 139.768 157.74 139.951 157.669 140.117C157.598 140.284 157.477 140.426 157.321 140.527C157.166 140.629 156.982 140.684 156.794 140.686H156.619L148.694 139.573V160.176C148.694 160.643 148.449 160.91 148.088 160.91C147.914 160.904 147.744 160.854 147.597 160.766L96.1769 132.527C95.8611 132.328 95.5985 132.061 95.4101 131.748C95.2216 131.435 95.1125 131.084 95.0916 130.724V86.8463C95.0916 86.3789 95.3366 86.1006 95.6868 86.1006H95.7451Z" fill="#E0E0E0"/>
<path d="M140.362 123.311C140.68 123.314 140.99 123.216 141.244 123.033C141.498 122.85 141.681 122.591 141.763 122.298C141.846 122.005 141.825 121.694 141.702 121.414C141.579 121.134 141.362 120.9 141.085 120.751L103.623 100.114C103.459 100.024 103.278 99.9662 103.09 99.943C102.903 99.9198 102.712 99.9321 102.529 99.9791C102.347 100.026 102.176 100.107 102.026 100.217C101.876 100.327 101.75 100.464 101.656 100.621C101.562 100.777 101.501 100.95 101.477 101.129C101.452 101.308 101.465 101.489 101.514 101.663C101.564 101.838 101.649 102.001 101.764 102.144C101.879 102.287 102.023 102.406 102.187 102.496L139.638 123.133C139.859 123.25 140.108 123.311 140.362 123.311Z" fill="#E0E0E0"/>
<path d="M140.362 131.046C140.68 131.05 140.99 130.952 141.244 130.769C141.498 130.585 141.681 130.327 141.763 130.034C141.846 129.741 141.825 129.43 141.702 129.149C141.579 128.869 141.362 128.636 141.085 128.486L103.623 107.85C103.291 107.668 102.898 107.62 102.529 107.715C102.161 107.81 101.847 108.041 101.656 108.356C101.466 108.672 101.415 109.047 101.514 109.399C101.614 109.751 101.856 110.05 102.187 110.232L139.638 130.824C139.855 130.957 140.104 131.033 140.362 131.046Z" fill="#E0E0E0"/>
<path d="M140.362 138.782C140.68 138.786 140.99 138.688 141.244 138.505C141.498 138.321 141.681 138.063 141.763 137.77C141.846 137.476 141.825 137.165 141.702 136.885C141.579 136.605 141.362 136.372 141.085 136.222L103.623 115.586C103.459 115.496 103.278 115.438 103.09 115.414C102.903 115.391 102.712 115.404 102.529 115.451C102.347 115.498 102.176 115.578 102.026 115.689C101.876 115.799 101.75 115.936 101.656 116.092C101.562 116.249 101.501 116.421 101.477 116.6C101.452 116.779 101.465 116.961 101.514 117.135C101.564 117.309 101.649 117.472 101.764 117.615C101.879 117.758 102.023 117.878 102.187 117.968L139.638 138.615C139.859 138.733 140.109 138.79 140.362 138.782Z" fill="#E0E0E0"/>
<path d="M140.362 146.519C140.68 146.522 140.99 146.424 141.244 146.241C141.498 146.058 141.681 145.799 141.763 145.506C141.846 145.213 141.825 144.902 141.702 144.622C141.579 144.341 141.362 144.108 141.085 143.959L103.623 123.322C103.291 123.141 102.898 123.092 102.529 123.187C102.161 123.282 101.847 123.513 101.656 123.829C101.466 124.144 101.415 124.519 101.514 124.871C101.614 125.223 101.856 125.523 102.187 125.704L139.638 146.329C139.856 146.455 140.107 146.52 140.362 146.519Z" fill="#E0E0E0"/>
<path d="M96.0522 356.084L118.74 326.142L127.014 321.601L149.702 376.531L141.439 381.073L136.736 378.49V422.902L136.724 422.891L128.473 427.432V427.443H128.461L109.018 416.736V363.23L96.0522 356.084Z" fill="#5F907C"/>
<path d="M141.439 381.072L118.74 326.142L96.0522 356.084L109.018 363.23V416.735L128.461 427.443H128.473V373.938L141.439 381.072Z" fill="#5F907C"/>
<path opacity="0.3" d="M141.439 381.072L118.74 326.142L96.0522 356.084L109.018 363.23V416.735L128.461 427.443H128.473V373.938L141.439 381.072Z" fill="black"/>
<path opacity="0.15" d="M118.74 326.142L127.014 321.601L149.702 376.531L141.439 381.073L118.74 326.142Z" fill="black"/>
<path opacity="0.45" d="M141.439 381.073L128.473 373.938V427.443L136.736 422.902V378.49L141.439 381.073Z" fill="black"/>
<path d="M146.679 405.416L169.367 375.474L177.629 370.922L200.329 425.863L192.054 430.405L187.363 427.811V450.774H187.351L179.088 455.304V455.326L179.077 455.315L159.645 444.607V412.551L146.679 405.416Z" fill="#5F907C"/>
<path d="M192.054 430.404L169.367 375.474L146.679 405.416L159.645 412.55V444.607L179.077 455.315L179.088 455.326V423.269L192.054 430.404Z" fill="#5F907C"/>
<path opacity="0.3" d="M192.054 430.404L169.367 375.474L146.679 405.416L159.645 412.55V444.607L179.077 455.315L179.088 455.326V423.269L192.054 430.404Z" fill="white"/>
<path opacity="0.55" d="M169.367 375.474L177.629 370.922L200.329 425.863L192.054 430.405L169.367 375.474Z" fill="white"/>
<path opacity="0.1" d="M192.054 430.404L179.088 423.27V455.326L187.363 450.774V427.811L192.054 430.404Z" fill="white"/>
</svg>
