<svg width="380" height="455" viewBox="0 0 380 455" fill="none" xmlns="http://www.w3.org/2000/svg">
<path opacity="0.4" d="M154.6 330.877L204.75 301.877C208.36 299.797 207.91 296.147 203.75 293.737L171.27 274.977L108.03 311.487L140.52 330.247C144.67 332.697 150.99 332.957 154.6 330.877Z" fill="#D6D8E5"/>
<path d="M150.08 328.217L200.22 299.267C203.84 297.177 203.38 293.537 199.22 291.127L166.73 272.367L103.49 308.877L135.97 327.627C140.14 330.047 146.46 330.307 150.08 328.217Z" fill="#B1B4C4"/>
<path d="M103.48 308.877V306.967L106.4 308.647L103.48 308.877Z" fill="#B1B4C4"/>
<path d="M202.66 295.817V293.877L199.66 295.117L202.66 295.817Z" fill="#B1B4C4"/>
<path d="M150.08 326.307L200.22 297.357C203.84 295.267 203.38 291.617 199.22 289.207L166.73 270.457L103.49 306.967L135.98 325.717C140.14 328.127 146.46 328.397 150.08 326.307Z" fill="#D6D8E5"/>
<path d="M150.08 326.307L200.22 297.357C203.84 295.267 203.38 291.617 199.22 289.207L166.73 270.457L103.49 306.967L135.98 325.717C140.14 328.127 146.46 328.397 150.08 326.307Z" fill="url(#paint0_linear)"/>
<path d="M166.55 270.537L174.38 244.577L110.45 281.237L103.48 306.967L166.55 270.537Z" fill="#9EA1AF"/>
<path d="M105.34 308.037L103.48 306.967L106.24 304.767L105.34 308.037Z" fill="#9EA1AF"/>
<path d="M168.57 271.517L176.39 245.547L112.46 282.217L105.34 308.037L168.57 271.517Z" fill="#B1B4C4"/>
<path d="M6.29001 351.797L253.74 208.927C257.21 206.927 260.02 201.547 260.02 196.927V5.50724C260.02 0.877238 257.21 -1.25276 253.74 0.757239L6.29001 143.627C2.81 145.627 0 151.007 0 155.627V347.047C0 351.677 2.81 353.797 6.29001 351.797Z" fill="#B1B4C4"/>
<path d="M6.29001 351.797L253.74 208.927C257.21 206.927 260.02 201.547 260.02 196.927V5.50724C260.02 0.877238 257.21 -1.25276 253.74 0.757239L6.29001 143.627C2.81 145.627 0 151.007 0 155.627V347.047C0 351.677 2.81 353.797 6.29001 351.797Z" fill="url(#paint1_linear)"/>
<path d="M5.00998 353.767L2.26999 352.187L3.44998 344.057L5.00998 353.767Z" fill="#B1B4C4"/>
<path d="M260.47 1.9372L257.77 0.377197L253.89 2.6272C253.89 2.6272 258.02 3.2572 258.12 3.2372C258.22 3.2172 260.47 1.9372 260.47 1.9372Z" fill="#B1B4C4"/>
<path d="M8.54999 353.107L256.01 210.237C259.48 208.237 262.29 202.857 262.29 198.237V6.8173C262.29 2.1873 259.48 0.0572971 256.01 2.0673L8.54999 144.937C5.07999 146.937 2.26999 152.317 2.26999 156.937V348.357C2.26999 352.987 5.07999 355.107 8.54999 353.107Z" fill="#E4E7F2"/>
<path d="M2.70004 157.187V348.627C2.70004 353.267 5.52005 355.397 8.99005 353.377L256.45 210.487C259.92 208.487 262.73 203.107 262.73 198.487V7.0672C262.73 2.4372 259.92 0.317199 256.45 2.3172L8.99005 145.187C5.52005 147.187 2.70004 152.567 2.70004 157.187Z" fill="#D6D8E5"/>
<path d="M2.70004 157.187V348.627C2.70004 353.267 5.52005 355.397 8.99005 353.377L256.45 210.487C259.92 208.487 262.73 203.107 262.73 198.487V7.0672C262.73 2.4372 259.92 0.317199 256.45 2.3172L8.99005 145.187C5.52005 147.187 2.70004 152.567 2.70004 157.187Z" fill="url(#paint2_linear)"/>
<path d="M6.15004 340.675L259.6 194.325L259.46 6.79521C259.46 4.86521 258.12 4.09521 256.46 5.05521L9.00005 147.915C8.12576 148.489 7.39868 149.261 6.87755 150.167C6.35641 151.074 6.05583 152.091 6.00005 153.135L6.15004 340.675Z" fill="white"/>
<path d="M21.8 178.687L246.49 48.9571C247.27 48.4022 247.909 47.6711 248.354 46.8232C248.798 45.9753 249.037 45.0345 249.05 44.0771V27.8571C249.05 25.9771 247.91 25.1071 246.49 25.9271L21.8 155.627C21.0218 156.186 20.3851 156.92 19.9406 157.769C19.4961 158.618 19.2562 159.559 19.24 160.517V176.737C19.24 178.627 20.39 179.507 21.8 178.687Z" fill="#E9EAF2"/>
<path d="M235.274 47.8741C233.351 46.7641 233.351 43.1656 235.273 39.8367C237.195 36.5078 240.312 34.709 242.234 35.8191C244.157 36.9292 244.158 40.5277 242.236 43.8566C240.314 47.1855 237.197 48.9842 235.274 47.8741Z" fill="#DADCE5"/>
<path d="M121.94 111.427L141.37 100.197C141.566 100.059 141.726 99.8765 141.837 99.6644C141.949 99.4522 142.008 99.2167 142.01 98.9771V96.4071C142.01 95.9271 141.73 95.7171 141.37 95.9171L121.94 107.147C121.744 107.285 121.584 107.468 121.473 107.68C121.361 107.892 121.302 108.128 121.3 108.367V110.937C121.3 111.407 121.58 111.627 121.94 111.427Z" fill="#DADCE5"/>
<path d="M90.48 129.627L109.91 118.407C110.105 118.269 110.265 118.086 110.376 117.874C110.487 117.662 110.547 117.427 110.55 117.187V114.607C110.55 114.137 110.27 113.917 109.91 114.127L90.48 125.347C90.2842 125.485 90.124 125.668 90.0128 125.88C89.9015 126.092 89.8423 126.328 89.84 126.567V129.147C89.84 129.627 90.14 129.787 90.48 129.627Z" fill="#DADCE5"/>
<path d="M59.53 147.457L78.97 136.237C79.1637 136.095 79.3222 135.91 79.4332 135.697C79.5441 135.483 79.6046 135.248 79.61 135.007V132.437C79.61 131.967 79.32 131.747 78.97 131.947L59.53 143.177C59.3342 143.315 59.1741 143.498 59.0628 143.71C58.9515 143.922 58.8923 144.158 58.89 144.397V146.967C58.89 147.447 59.14 147.627 59.53 147.457Z" fill="#DADCE5"/>
<path d="M28.07 165.627L47.51 154.407C47.7035 154.267 47.862 154.084 47.973 153.872C48.084 153.661 48.1446 153.426 48.15 153.187V150.627C48.15 150.157 47.86 149.937 47.51 150.147L28.07 161.367C27.8754 161.506 27.7161 161.689 27.6049 161.901C27.4938 162.113 27.4339 162.348 27.43 162.587V165.167C27.43 165.627 27.72 165.827 28.07 165.627Z" fill="#DADCE5"/>
<path d="M76.5829 250.458L240.417 155.378C240.898 155.031 241.291 154.577 241.566 154.05C241.841 153.524 241.99 152.94 242 152.345V145.05C242 143.881 241.283 143.347 240.417 143.807L76.5829 238.874C76.1008 239.219 75.7063 239.674 75.4314 240.201C75.1564 240.727 75.0086 241.312 75.0001 241.907V249.202C75.0495 250.42 75.7049 250.955 76.5829 250.458Z" fill="#E9EAF2"/>
<path d="M121.42 236.377L240.48 167.627C240.87 167.349 241.189 166.984 241.411 166.56C241.634 166.136 241.753 165.666 241.76 165.187V162.267C241.76 161.327 241.19 160.887 240.48 161.267L121.42 230.007C121.032 230.287 120.714 230.653 120.492 231.076C120.27 231.5 120.149 231.969 120.14 232.447V235.367C120.14 236.347 120.72 236.787 121.42 236.377Z" fill="#E9EAF2"/>
<path d="M121.42 247.447L240.48 178.717C240.87 178.437 241.189 178.07 241.411 177.644C241.634 177.219 241.753 176.747 241.76 176.267V173.347C241.76 172.407 241.19 171.977 240.48 172.347L121.42 241.077C121.032 241.359 120.714 241.727 120.492 242.152C120.27 242.577 120.149 243.048 120.14 243.527V246.447C120.14 247.427 120.72 247.857 121.42 247.447Z" fill="#E9EAF2"/>
<path d="M81.28 284.309L169.9 233.139C170.29 232.861 170.609 232.496 170.831 232.072C171.054 231.648 171.173 231.178 171.18 230.699V227.779C171.18 226.839 170.61 226.399 169.9 226.779L81.28 277.979C80.8872 278.254 80.566 278.619 80.3433 279.044C80.1206 279.468 80.0028 279.94 80 280.419V283.339C80 284.279 80.56 284.709 81.28 284.309Z" fill="#E9EAF2"/>
<path d="M162.28 247.309L250.9 196.139C251.29 195.861 251.609 195.496 251.831 195.072C252.054 194.648 252.173 194.178 252.18 193.699V190.779C252.18 189.839 251.61 189.399 250.9 189.779L162.28 240.979C161.887 241.254 161.566 241.619 161.343 242.043C161.121 242.468 161.003 242.94 161 243.419V246.339C161 247.279 161.56 247.709 162.28 247.309Z" fill="#E9EAF2"/>
<path opacity="0.05" d="M210 98.0329V187.633C210 190.973 212 192.513 214.54 191.063L239.07 176.933V75.2329L214.54 89.3829C212.04 90.8329 210 94.7229 210 98.0329Z" fill="black"/>
<path d="M233.42 67.6827L308.78 24.1727C309.165 23.9071 309.607 23.7352 310.071 23.671C310.535 23.6067 311.007 23.6519 311.45 23.8027C311.655 23.8854 311.846 23.9965 312.02 24.1327L314.38 25.5027L313.28 26.9727C313.28 27.1727 313.28 27.3827 313.28 27.6027V117.203C313.28 120.543 311.28 124.423 308.74 125.873L234.81 168.563L233.87 171.563L230.64 169.753C230.477 169.68 230.323 169.59 230.18 169.483C229.705 169.036 229.338 168.487 229.107 167.877C228.877 167.267 228.789 166.612 228.85 165.963V76.3627C228.88 73.0327 230.91 69.1327 233.42 67.6827Z" fill="#D6D8E5"/>
<path d="M236.56 171.163L311.93 127.653C314.43 126.203 316.47 122.323 316.47 118.973V29.3829C316.47 26.0429 314.47 24.5029 311.93 25.9529L236.56 69.4629C234.05 70.9129 232.02 74.7929 232.02 78.1429V167.733C232.02 171.033 234.05 172.613 236.56 171.163Z" fill="#F5F7FC"/>
<path d="M304.66 122.413L302.85 123.463V43.7727L304.66 42.7227V122.413Z" fill="#DADCE5"/>
<path d="M303.75 80.6427C304.719 79.9512 305.512 79.0415 306.064 77.987C306.616 76.9326 306.913 75.763 306.93 74.5727V65.2227C306.93 62.8827 305.51 61.8127 303.75 62.8227C302.784 63.5164 301.994 64.4269 301.444 65.481C300.893 66.5351 300.597 67.7036 300.58 68.8927V78.2427C300.58 80.5827 302 81.6627 303.75 80.6427Z" fill="#7CA277"/>
<path d="M285.22 133.353L283.4 134.403V54.7229L285.22 53.6729V133.353Z" fill="#DADCE5"/>
<path d="M284.31 117.803C285.277 117.107 286.068 116.195 286.62 115.139C287.172 114.084 287.47 112.914 287.49 111.723V102.373C287.49 100.033 286.06 98.9626 284.31 99.9726C283.342 100.665 282.55 101.575 281.998 102.629C281.446 103.684 281.148 104.853 281.13 106.043V115.393C281.13 117.733 282.55 118.813 284.31 117.803Z" fill="#7CA277"/>
<path d="M265.77 144.583L263.95 145.633V65.9426L265.77 64.8926V144.583Z" fill="#DADCE5"/>
<path d="M264.86 92.3327C265.828 91.6401 266.62 90.7301 267.172 89.6759C267.724 88.6217 268.021 87.4527 268.04 86.2627V76.9127C268.04 74.5727 266.62 73.4927 264.86 74.5027C263.893 75.1986 263.102 76.1107 262.55 77.1662C261.998 78.2218 261.7 79.3917 261.68 80.5827V89.9327C261.68 92.2727 263.11 93.3427 264.86 92.3327Z" fill="#7CA277"/>
<path d="M246.32 155.813L244.51 156.853V77.1728L246.32 76.1228V155.813Z" fill="#DADCE5"/>
<path d="M245.41 124.523C246.379 123.831 247.172 122.921 247.724 121.867C248.276 120.812 248.573 119.643 248.59 118.453V109.103C248.59 106.763 247.17 105.693 245.41 106.703C244.444 107.396 243.654 108.307 243.104 109.361C242.553 110.415 242.257 111.583 242.24 112.773V122.123C242.24 124.463 243.66 125.543 245.41 124.523Z" fill="#7CA277"/>
<path opacity="0.3" d="M340.4 321.033L360.66 309.333L340.4 297.633L320.14 309.333L340.4 321.033Z" fill="#D6D8E5"/>
<path opacity="0.3" d="M308.29 302.283L328.55 290.593L308.29 278.893L288.03 290.593L308.29 302.283Z" fill="#D6D8E5"/>
<path d="M296.26 220.043L316.52 208.343L296.26 196.643L276 208.343L296.26 220.043Z" fill="#A7B9B1"/>
<path d="M296.26 295.513L316.52 283.813V208.343L296.26 220.043V295.513Z" fill="#7C968A"/>
<path d="M276 283.813L296.26 295.513V220.043L276 208.343V283.813Z" fill="#9BC4B1"/>
<path d="M326.65 258.463L346.91 246.763L326.65 235.073L306.39 246.763L326.65 258.463Z" fill="#A7B9B1"/>
<path d="M326.65 312.963L346.91 301.263V246.763L326.65 258.463V312.963Z" fill="#7C968A"/>
<path d="M306.39 301.263L326.65 312.963V258.463L306.39 246.763V301.263Z" fill="#9BC3B1"/>
<path d="M359.01 298.412L379.27 286.712L359.01 275.022L338.75 286.712L359.01 298.412Z" fill="#A7B9B1"/>
<path d="M359.01 331.943L379.27 320.253V286.713L359.01 298.413V331.943Z" fill="#7C968A"/>
<path d="M338.75 320.253L359.01 331.943V298.413L338.75 286.713V320.253Z" fill="#9BC3B1"/>
<path opacity="0.4" d="M214.546 383.172L222.38 371.892L226.176 370.192C229.057 369.526 232.005 369.187 234.962 369.18C238.499 372.747 260.807 373.699 269.665 369.301C279.71 364.311 284.977 358.219 286.616 354.489C289.533 347.86 283.971 340.069 283.971 340.069C299.168 348.843 299.168 363.124 283.971 371.898C269.725 380.123 247.104 380.635 231.81 373.44L214.546 383.172Z" fill="#D6D8E5"/>
<path opacity="0.4" d="M171.612 411.048L224.218 380.677L215.281 375.519L162.675 405.89L171.612 411.048Z" fill="#D6D8E5"/>
<path d="M282.091 369.12C297.288 360.346 297.288 346.071 282.091 337.297C266.893 328.523 242.163 328.523 226.966 337.297C211.768 346.071 211.768 360.346 226.966 369.12C242.163 377.894 266.893 377.906 282.091 369.12ZM233.69 341.178C245.182 334.549 263.88 334.549 275.366 341.178C286.851 347.806 286.857 358.623 275.366 365.251C263.874 371.88 245.182 371.88 233.69 365.251C222.199 358.623 222.199 347.812 233.69 341.178Z" fill="#B1B4C4"/>
<path d="M293.468 353.88V347.137L286.634 350.506L293.468 353.88Z" fill="#B1B4C4"/>
<path d="M274.118 364.998C273.841 365.341 272.865 371.946 253.401 371.946C233.938 371.946 234.769 364.142 234.769 364.142C234.769 364.142 253.124 366.667 253.401 366.667C253.678 366.667 274.118 364.998 274.118 364.998Z" fill="#B1B4C4"/>
<path d="M215.571 347.137V353.206L221.175 349.632L215.571 347.137Z" fill="#B1B4C4"/>
<path d="M272.244 332.458C266.594 330.26 260.591 329.107 254.528 329.053C248.63 329.072 242.799 330.318 237.408 332.711L238.644 334.766H271.184L272.244 332.458Z" fill="#B1B4C4"/>
<path opacity="0.1" d="M254.522 366.221C238.498 366.221 225.507 358.721 225.507 349.469C225.507 340.217 238.498 332.717 254.522 332.717C270.547 332.717 283.537 340.217 283.537 349.469C283.537 358.721 270.547 366.221 254.522 366.221Z" fill="#3E7EFF"/>
<path d="M282.091 363.052C297.288 354.278 297.288 339.997 282.091 331.223C266.893 322.449 242.163 322.449 226.966 331.223C211.768 339.997 211.768 354.278 226.966 363.052C242.163 371.825 266.893 371.825 282.091 363.052ZM233.69 335.122C245.182 328.493 263.88 328.493 275.366 335.122C286.851 341.75 286.857 352.555 275.366 359.189C263.874 365.824 245.182 365.818 233.69 359.189C222.199 352.561 222.199 341.75 233.69 335.122Z" fill="#D6D8E5"/>
<path d="M217.866 372.669L231.051 364.998L223.392 360.581L210.208 368.246L217.866 372.669Z" fill="#D6D8E5"/>
<path d="M217.866 378.779L231.039 371.157V365.004L217.866 372.627V378.779Z" fill="#B1B4C4"/>
<path d="M169.942 409.987L222.543 379.617V369.301L169.942 399.671V409.987Z" fill="#2B303F"/>
<path d="M169.936 399.677L222.543 369.307L213.606 364.148L161 394.513L169.936 399.677Z" fill="#394051"/>
<path d="M169.942 409.987C169.4 409.927 161 404.956 161 404.956V394.513L169.936 399.677L169.942 409.987Z" fill="#232733"/>
<path d="M196.636 128.423C196.636 128.423 189.246 134.623 178.586 126.153C170.966 119.903 164.156 123.473 160.366 125.633C156.576 127.793 151.056 129.083 140.656 147.923C138.406 151.627 135.325 154.756 131.656 157.063C126.046 160.293 123.356 158.723 118.946 152.063C114.536 145.403 111.656 138.063 103.556 142.863V209.663L197.356 155.513V127.983L196.636 128.423Z" fill="#F5F6FF"/>
<path d="M197.366 126.863V155.543L103.566 209.693V142.883" stroke="#E9EAF2" stroke-width="0.22" stroke-miterlimit="10"/>
<path d="M160.496 125.953V176.753" stroke="#E9EAF2" stroke-width="0.22" stroke-miterlimit="10"/>
<path d="M131.806 158.083V193.323" stroke="#E9EAF2" stroke-width="0.22" stroke-miterlimit="10"/>
<path d="M197.366 127.983C180.726 138.303 178.366 114.983 160.236 125.443C142.106 135.903 144.606 149.553 131.236 157.283C117.866 165.013 117.536 134.823 103.576 142.883" stroke="#E9EAF2" stroke-width="1.09" stroke-miterlimit="10"/>
<path d="M102.575 146.502C101.705 146.002 101.701 144.378 102.565 142.874C103.429 141.37 104.835 140.556 105.705 141.056C106.574 141.556 106.579 143.18 105.714 144.684C104.85 146.188 103.444 147.002 102.575 146.502Z" fill="#7CA277"/>
<path d="M128.918 161.128C128.049 160.628 128.044 159.004 128.909 157.5C129.773 155.996 131.179 155.182 132.048 155.682C132.918 156.182 132.922 157.806 132.058 159.31C131.194 160.814 129.788 161.628 128.918 161.128Z" fill="#7CA277"/>
<path d="M159.575 127.994C158.705 127.494 158.701 125.87 159.565 124.366C160.429 122.862 161.835 122.048 162.705 122.548C163.574 123.047 163.579 124.672 162.714 126.176C161.85 127.68 160.444 128.494 159.575 127.994Z" fill="#7CA277"/>
<path d="M195.575 130.994C194.705 130.494 194.701 128.87 195.565 127.366C196.429 125.862 197.835 125.048 198.705 125.548C199.574 126.047 199.579 127.672 198.714 129.176C197.85 130.68 196.444 131.494 195.575 130.994Z" fill="#7CA277"/>
<path d="M24.1271 235.518L64.7168 212.079C66.4319 211.085 67.8382 208.415 67.8382 206.111V160.376C67.8382 158.089 66.4433 157.02 64.7168 158.015L24.1271 181.454C22.4121 182.449 21.0057 185.119 21.0057 187.417V233.152C21.0057 235.456 22.4007 236.513 24.1271 235.518Z" fill="#E9EAF2"/>
<path d="M24.1271 296.718L64.7168 273.278C66.4319 272.284 67.8382 269.614 67.8382 267.316V221.581C67.8382 219.294 66.4433 218.225 64.7168 219.22L24.1271 242.659C22.4121 243.654 21.0057 246.323 21.0057 248.627V294.362C21.0057 296.655 22.4007 297.712 24.1271 296.718Z" fill="#E9EAF2"/>
<path d="M21 309.809V333.643L35.0006 325.553L36.4869 324.69L36.9843 324.398L40.6145 322.312L51.1621 316.229L55.5355 313.708L57.2963 312.69L67.8153 306.619V282.78C67.8153 280.493 66.4147 279.43 64.6939 280.424L24.1042 303.863C22.4006 304.841 21 307.511 21 309.809Z" fill="#E9EAF2"/>
<path d="M32.2051 197.764L37.7561 188.143C37.9671 187.76 38.272 187.437 38.6423 187.205C38.6914 187.176 38.743 187.151 38.7966 187.131C38.8473 187.093 38.9008 187.058 38.9567 187.028L40.5002 186.136C40.9233 185.89 41.3178 185.907 41.5464 186.188C42.0381 186.759 43.1471 186.708 44.3706 185.999C45.6024 185.287 46.5876 184.216 47.1947 182.929C47.4027 182.407 47.771 181.965 48.2466 181.666L49.7615 180.779C49.8106 180.748 49.8622 180.721 49.9159 180.699C50.053 180.571 50.2239 180.486 50.4084 180.452C50.5929 180.419 50.7831 180.439 50.9564 180.511L56.5074 183.718C56.9991 184.004 56.9991 184.913 56.5074 185.759L53.4718 191.018C53.2698 191.397 52.9771 191.719 52.62 191.956C52.4927 192.047 52.3439 192.102 52.1884 192.117C52.0329 192.132 51.8761 192.106 51.7339 192.042L51.0364 191.636V204.499C51.0057 204.931 50.8744 205.349 50.6531 205.722C50.4317 206.094 50.1264 206.409 49.7615 206.642L38.9567 212.931C38.265 213.331 37.7104 213.005 37.7104 212.211V199.348L37.0072 200.56C36.7988 200.941 36.4955 201.262 36.1268 201.492C35.9996 201.582 35.8508 201.638 35.6952 201.653C35.5397 201.668 35.383 201.642 35.2407 201.577L32.2051 199.822C31.7192 199.519 31.7192 198.639 32.2051 197.764Z" fill="#D9DAE2"/>
<path d="M34.5546 256.528L54.192 245.191C54.7112 246.876 54.9864 248.626 55.0095 250.388V262.668L46.0112 267.864L44.3705 258.42L42.7355 269.757L33.7543 274.953V262.668C33.798 260.598 34.0663 258.54 34.5546 256.528Z" fill="#D9DAE2"/>
<path d="M34.5546 252.749L54.1921 241.413V244.248L34.5546 255.585V252.749Z" fill="#D9DAE2"/>
<path d="M30.7987 327.989L35.0006 325.553L36.487 324.69L36.9843 324.398L40.6145 322.312L51.1621 316.229L55.507 313.719V307.682C55.507 307.082 55.0896 306.836 54.5637 307.111C54.1586 307.384 53.8583 307.787 53.7119 308.254L53.5346 308.826C52.9382 310.693 51.7142 312.297 50.0702 313.365C47.9721 314.577 46.2571 313.588 46.2571 311.158V310.426C46.2571 309.683 45.7311 309.369 45.1137 309.746C44.8089 309.934 44.5524 310.19 44.3648 310.495L42.6898 313.062L44.5763 314.119L43.5301 315.915L41.5521 314.771L40.6946 316.092L42.4954 317.132L41.4606 318.933L39.5569 317.835L38.6994 319.156L40.4144 320.151L39.3797 321.952L37.556 320.9C36.4931 322.464 35.112 323.787 33.5028 324.781L33.1712 324.964C32.0706 325.685 31.237 326.748 30.7987 327.989Z" fill="#D9DAE2"/>
<path opacity="0.4" d="M37.35 425.753L76.84 402.953L71.89 400.083L32.39 422.873L37.35 425.753Z" fill="#D6D8E5"/>
<path d="M22.0899 417.153L61.7399 394.253L56.7799 349.033L27.0399 366.203L22.0899 417.153Z" fill="#52634F"/>
<path d="M32.3899 422.873L72.0499 399.983L67.0899 354.763L37.3499 371.933L32.3899 422.873Z" fill="#729D6C"/>
<path d="M32.39 422.873L22.09 417.153L27.04 366.203L37.35 371.933L32.39 422.873Z" fill="#60815C"/>
<path d="M67.09 354.763L56.78 349.033L57.99 360.013L67.09 354.763Z" fill="#3C4E39"/>
<path d="M44.79 367.533L46.62 366.473C46.62 362.203 49.13 357.283 52.22 355.473C55.31 353.663 57.81 355.713 57.81 359.983L59.65 358.923C59.65 353.493 56.31 350.993 52.22 353.353C48.13 355.713 44.79 362.103 44.79 367.533Z" fill="#20232D"/>
<path d="M35.1299 361.623L36.9599 360.563C36.9599 356.293 39.4699 351.373 42.5599 349.563C45.6499 347.753 48.1499 349.803 48.1499 354.073L49.9899 353.013C49.9899 347.583 46.6499 345.083 42.5599 347.443C38.4699 349.803 35.1299 356.243 35.1299 361.623Z" fill="#20232D"/>
<path opacity="0.4" d="M72.8701 454.673L129.77 421.843L122.63 417.693L65.7301 450.533L72.8701 454.673Z" fill="#D6D8E5"/>
<path d="M50.8899 442.283L108.01 409.303L100.87 344.163L58.0299 368.903L50.8899 442.283Z" fill="#52634F"/>
<path d="M65.73 450.533L122.86 417.553L115.72 352.413L72.87 377.143L65.73 450.533Z" fill="#729D6C"/>
<path d="M65.73 450.533L50.89 442.283L58.03 368.903L72.87 377.143L65.73 450.533Z" fill="#60815C"/>
<path d="M115.72 352.413L100.87 344.163L102.61 359.983L115.72 352.413Z" fill="#3C4E39"/>
<path d="M83.5901 370.813L86.2301 369.243C86.2301 363.093 89.8501 356.003 94.2901 353.443C98.7301 350.883 102.36 353.783 102.36 359.933L105 358.413C105 350.583 100.2 346.983 94.2901 350.413C88.3801 353.843 83.5901 362.983 83.5901 370.813Z" fill="#20232D"/>
<path d="M69.6599 362.303L72.3 360.773C72.3 354.623 75.92 347.533 80.36 344.963C84.8 342.393 88.4299 345.313 88.4299 351.463L91.0699 349.943C91.0699 342.103 86.26 338.513 80.36 341.943C74.46 345.373 69.6599 354.463 69.6599 362.303Z" fill="#20232D"/>
<path opacity="0.4" d="M28.8801 453.563L48.1801 442.493L26.4601 429.953L7.16006 441.033L28.8801 453.563Z" fill="#D6D8E5"/>
<path d="M25.7 428.103L46.4 416.153L25.7 404.203L5.00003 416.153L25.7 428.103Z" fill="#EFDA86"/>
<path d="M6.40005 440.583L25.7001 451.723V429.433L6.40005 418.293V440.583Z" fill="#D1B66B"/>
<path d="M25.7001 451.723L45.0001 440.583V418.293L25.7001 429.433V451.723Z" fill="#E2C979"/>
<path opacity="0.1" d="M45.0001 418.293V424.123L25.7001 435.143V429.463L45.0001 418.293Z" fill="black"/>
<path opacity="0.1" d="M6.40005 418.293V424.543L25.7001 435.143V429.463L6.40005 418.293Z" fill="black"/>
<path d="M46.4 416.153V422.333L25.7 434.123V428.103L46.4 416.153Z" fill="#E2C979"/>
<path d="M25.7001 434.123L5.00006 422.813V416.153L25.7001 428.103V434.123Z" fill="#D1B66B"/>
<defs>
<linearGradient id="paint0_linear" x1="153.077" y1="270.457" x2="153.077" y2="327.715" gradientUnits="userSpaceOnUse">
<stop stop-color="#D6D8E5"/>
<stop offset="1" stop-color="#B6B7BE"/>
</linearGradient>
<linearGradient id="paint1_linear" x1="130.01" y1="0" x2="130.01" y2="352.55" gradientUnits="userSpaceOnUse">
<stop stop-color="#D6D8E5"/>
<stop offset="1" stop-color="#B6B7BE"/>
</linearGradient>
<linearGradient id="paint2_linear" x1="132.715" y1="1.56421" x2="132.715" y2="354.14" gradientUnits="userSpaceOnUse">
<stop stop-color="#6DC09E"/>
<stop offset="1" stop-color="#567266"/>
</linearGradient>
</defs>
</svg>
