<svg width="962" height="892" viewBox="0 0 962 892" fill="none" xmlns="http://www.w3.org/2000/svg">
<path fill-rule="evenodd" clip-rule="evenodd" d="M-14.2189 -16.6004C190.537 183.628 -67.7025 393.272 162.128 564.535C391.958 735.799 511.369 1117.63 519.175 1265.74C526.011 1395.47 322.787 1343.28 183.235 1358.86C-34.3627 1383.15 -138.643 855.318 -353.77 722.024C-488.474 638.56 -271.892 -268.576 -14.2189 -16.6004Z" fill="#E4F4ED"/>
<path fill-rule="evenodd" clip-rule="evenodd" d="M-14.2189 -16.6004C190.537 183.628 -67.7025 393.272 162.128 564.535C391.958 735.799 511.369 1117.63 519.175 1265.74C526.011 1395.47 322.787 1343.28 183.235 1358.86C-34.3627 1383.15 -138.643 855.318 -353.77 722.024C-488.474 638.56 -271.892 -268.576 -14.2189 -16.6004Z" stroke="#C4F5E0"/>
<path fill-rule="evenodd" clip-rule="evenodd" d="M-14.2189 -16.6004C190.537 183.628 -67.7025 393.272 162.128 564.535C391.958 735.799 511.369 1117.63 519.175 1265.74C526.011 1395.47 322.787 1343.28 183.235 1358.86C-34.3627 1383.15 -138.643 855.318 -353.77 722.024C-488.474 638.56 -271.892 -268.576 -14.2189 -16.6004Z" stroke="url(#paint0_linear)"/>
<defs>
<linearGradient id="paint0_linear" x1="-441.576" y1="363.28" x2="673.232" y2="1043.54" gradientUnits="userSpaceOnUse">
<stop stop-color="white"/>
<stop offset="1" stop-color="white" stop-opacity="0"/>
</linearGradient>
</defs>
</svg>
