<svg width="66" height="66" viewBox="0 0 66 66" fill="none" xmlns="http://www.w3.org/2000/svg">
<path d="M32.9999 63.4438C49.8136 63.4438 63.4437 49.8136 63.4437 33C63.4437 16.1864 49.8136 2.55621 32.9999 2.55621C16.1863 2.55621 2.55615 16.1864 2.55615 33C2.55615 49.8136 16.1863 63.4438 32.9999 63.4438Z" fill="#13CE67"/>
<path d="M33 66C14.8053 66 0 51.1973 0 33C0 14.8053 14.8053 0 33 0C51.1973 0 66 14.8053 66 33C66 51.1973 51.1973 66 33 66ZM33 5.11229C17.6221 5.11229 5.11229 17.6221 5.11229 33C5.11229 48.3779 17.6221 60.8877 33 60.8877C48.3779 60.8877 60.8877 48.3753 60.8877 33C60.8877 17.6221 48.3779 5.11229 33 5.11229Z" fill="#13CE67"/>
<path d="M29.0124 45.1418C28.3274 45.1418 27.6729 44.8683 27.1898 44.3775L17.7576 34.7919C16.7683 33.7848 16.7811 32.1693 17.7882 31.1775C18.7954 30.1909 20.4134 30.201 21.4026 31.2082L28.9382 38.8664L44.5283 21.6967C45.4817 20.6513 47.0973 20.5772 48.1375 21.5229C49.183 22.4713 49.2597 24.0868 48.3113 25.1348L30.9039 44.3058C30.4311 44.8273 29.7665 45.1289 29.0635 45.1442C29.0456 45.1418 29.0303 45.1418 29.0124 45.1418Z" fill="white"/>
</svg>
