<svg width="173" height="127" viewBox="0 0 173 127" fill="none" xmlns="http://www.w3.org/2000/svg">
<path d="M25.2515 112.785C58.9164 130.082 113.504 130.082 147.177 112.785C180.849 95.4873 180.845 67.4429 147.177 50.1454C113.508 32.848 58.924 32.848 25.2515 50.1454C-8.42093 67.4429 -8.41341 95.5021 25.2515 112.785Z" fill="#F5F5F5"/>
<path d="M23.3399 83.8501C28.1159 83.8501 31.9875 82.0354 31.9875 79.7969C31.9875 77.5583 28.1159 75.7437 23.3399 75.7437C18.5639 75.7437 14.6923 77.5583 14.6923 79.7969C14.6923 82.0354 18.5639 83.8501 23.3399 83.8501Z" fill="#EBEBEB"/>
<path d="M122.024 89.2598C128.398 89.2598 133.566 86.8373 133.566 83.8491C133.566 80.8609 128.398 78.4385 122.024 78.4385C115.65 78.4385 110.483 80.8609 110.483 83.8491C110.483 86.8373 115.65 89.2598 122.024 89.2598Z" fill="#EBEBEB"/>
<path d="M156.528 61.5898C156.528 61.5898 157.42 58.8806 160.321 55.9936C161.601 54.7204 162.436 53.8321 162.169 53.0734C161.928 52.4035 161.115 52.0556 159.952 52.596C158.3 53.3658 157.187 54.7945 156.528 57.6629V61.5898Z" fill="#AAD7C2"/>
<path opacity="0.1" d="M156.528 61.5898C156.528 61.5898 157.42 58.8806 160.321 55.9936C161.601 54.7204 162.436 53.8321 162.169 53.0734C161.928 52.4035 161.115 52.0556 159.952 52.596C158.3 53.3658 157.187 54.7945 156.528 57.6629V61.5898Z" fill="black"/>
<path d="M156.344 59.8872H156.31C156.273 59.8776 156.242 59.8544 156.223 59.8225C156.204 59.7907 156.199 59.7528 156.208 59.7169C157.243 55.7864 159.919 53.3511 161.051 52.7886C161.085 52.7728 161.124 52.7706 161.16 52.7823C161.196 52.794 161.226 52.8188 161.243 52.8515C161.259 52.8845 161.261 52.9222 161.249 52.9567C161.237 52.9913 161.212 53.0199 161.179 53.0365C160.084 53.5806 157.491 55.9493 156.483 59.7873C156.474 59.8165 156.455 59.8421 156.43 59.8602C156.405 59.8782 156.375 59.8877 156.344 59.8872Z" fill="white"/>
<path d="M156.528 64.9546C156.528 64.9546 157.766 62.5672 159.26 61.2977C160.754 60.0281 162.673 58.7327 161.048 57.7407C159.422 56.7488 156.746 58.6957 156.532 60.6166L156.528 64.9546Z" fill="#AAD7C2"/>
<path d="M156.344 63.2554H156.313C156.277 63.2466 156.246 63.2242 156.226 63.1931C156.207 63.162 156.2 63.1246 156.208 63.0888C156.912 60.1278 159.437 58.4548 160.276 58.1773C160.311 58.1702 160.347 58.176 160.377 58.1935C160.408 58.211 160.431 58.2391 160.441 58.2722C160.452 58.3053 160.45 58.3411 160.435 58.3728C160.421 58.4045 160.395 58.4298 160.363 58.4437C159.61 58.6954 157.149 60.3425 156.483 63.1517C156.475 63.1817 156.456 63.2081 156.431 63.2269C156.406 63.2456 156.375 63.2556 156.344 63.2554V63.2554Z" fill="white"/>
<path d="M46.4718 88.9463C46.4718 88.9463 45.8998 87.695 43.5102 87.1657C41.1846 86.6511 40.0293 87.1657 38.4601 86.8991C36.8909 86.6326 37.301 83.7488 41.5233 84.0487C45.388 84.3226 46.4718 87.3138 46.4718 87.3138V88.9463Z" fill="#AAD7C2"/>
<path d="M46.7013 88.2563C46.6739 88.2557 46.6473 88.2473 46.6246 88.2322C46.6019 88.2172 46.5841 88.196 46.5733 88.1712C46.197 87.2869 44.8047 85.8438 42.8441 85.4035C40.4093 84.8595 39.1148 85.4035 39.1035 85.4035C39.0698 85.4146 39.0332 85.4131 39.0006 85.3991C38.968 85.3851 38.9419 85.3597 38.9274 85.3279C38.9128 85.296 38.9108 85.2599 38.9218 85.2267C38.9328 85.1935 38.956 85.1655 38.9869 85.1482C39.0433 85.126 40.383 84.5524 42.9043 85.1185C45.0831 85.607 46.4717 87.1759 46.833 88.0528C46.8404 88.0696 46.8443 88.0876 46.8445 88.1058C46.8447 88.1241 46.8412 88.1422 46.8342 88.1591C46.8271 88.176 46.8168 88.1913 46.8036 88.2042C46.7905 88.2171 46.7749 88.2273 46.7577 88.2341L46.7013 88.2563Z" fill="white"/>
<path d="M46.4718 87.5215C45.9954 86.6826 45.3856 85.9241 44.6655 85.2749C42.4076 83.1208 39.397 82.4434 37.8918 81.2664C36.236 79.9969 38.2418 78.5313 40.3717 78.6238C41.591 78.6793 42.878 79.4714 43.5854 80.0414C46.0766 82.0437 46.4868 85.2749 46.4868 85.2749L46.4718 87.5215Z" fill="#AAD7C2"/>
<path opacity="0.5" d="M46.4718 87.5215C45.9954 86.6826 45.3856 85.9241 44.6655 85.2749C42.4076 83.1208 39.397 82.4434 37.8918 81.2664C36.236 79.9969 38.2418 78.5313 40.3717 78.6238C41.591 78.6793 42.878 79.4714 43.5854 80.0414C46.0766 82.0437 46.4868 85.2749 46.4868 85.2749L46.4718 87.5215Z" fill="white"/>
<path d="M46.7012 87.3027C46.6675 87.3023 46.6351 87.2901 46.6096 87.2685C46.5842 87.2468 46.5673 87.217 46.562 87.1843C46.2655 85.6282 45.5478 84.1796 44.4847 82.9909C42.7085 81.0034 39.6717 79.9375 39.6378 79.9264C39.6035 79.9138 39.5753 79.8887 39.5592 79.8564C39.5431 79.824 39.5403 79.7868 39.5512 79.7524C39.5571 79.735 39.5666 79.7189 39.5789 79.7051C39.5913 79.6913 39.6063 79.6801 39.6232 79.6721C39.6401 79.6642 39.6584 79.6597 39.677 79.6588C39.6957 79.658 39.7144 79.6609 39.7319 79.6673C39.8598 79.708 42.8703 80.7776 44.6955 82.8058C45.8023 84.0322 46.5455 85.534 46.8442 87.1473C46.8468 87.1656 46.8457 87.1842 46.8408 87.202C46.8359 87.2199 46.8274 87.2365 46.8158 87.2511C46.8042 87.2656 46.7898 87.2776 46.7733 87.2865C46.7568 87.2954 46.7387 87.3009 46.72 87.3027H46.7012Z" fill="white"/>
<path d="M98.1168 110.521C98.1168 110.521 98.7566 109.299 101.172 108.896C103.521 108.504 104.646 109.062 106.23 108.896C107.814 108.729 107.559 105.81 103.325 105.887C99.4527 105.958 98.2071 108.885 98.2071 108.885L98.1168 110.521Z" fill="#AAD7C2"/>
<path opacity="0.1" d="M98.1168 110.521C98.1168 110.521 98.7566 109.299 101.172 108.896C103.521 108.504 104.646 109.062 106.23 108.896C107.814 108.729 107.559 105.81 103.325 105.887C99.4527 105.958 98.2071 108.885 98.2071 108.885L98.1168 110.521Z" fill="black"/>
<path d="M97.9325 109.937C97.903 109.936 97.8744 109.927 97.8497 109.911C97.8345 109.901 97.8215 109.887 97.8116 109.872C97.8016 109.857 97.7949 109.84 97.7917 109.822C97.7886 109.804 97.7891 109.785 97.7932 109.768C97.7973 109.75 97.805 109.733 97.8158 109.718C98.7152 108.453 100.352 107.498 102.2 107.179C104.574 106.761 105.963 107.501 106.023 107.549C106.039 107.558 106.053 107.57 106.065 107.584C106.076 107.598 106.085 107.614 106.09 107.632C106.095 107.649 106.096 107.667 106.094 107.685C106.092 107.703 106.087 107.721 106.078 107.736C106.069 107.752 106.057 107.766 106.042 107.777C106.028 107.789 106.012 107.797 105.994 107.802C105.976 107.807 105.958 107.808 105.94 107.806C105.921 107.804 105.904 107.799 105.888 107.79C105.888 107.79 104.522 107.068 102.249 107.468C100.476 107.779 98.9033 108.686 98.0491 109.892C98.034 109.908 98.0158 109.919 97.9957 109.927C97.9756 109.935 97.954 109.938 97.9325 109.937V109.937Z" fill="white"/>
<path d="M98.2862 108.808C98.8326 108.132 99.4536 107.517 100.138 106.976C102.52 104.948 105.534 104.618 107.13 103.523C108.853 102.342 106.93 100.773 104.796 100.754C103.577 100.754 102.249 101.469 101.507 102.002C99.9277 103.166 98.7463 104.775 98.1206 106.617L98.2862 108.808Z" fill="#AAD7C2"/>
<path opacity="0.5" d="M98.2862 108.808C98.8326 108.132 99.4536 107.517 100.138 106.976C102.52 104.948 105.534 104.618 107.13 103.523C108.853 102.342 106.93 100.773 104.796 100.754C103.577 100.754 102.249 101.469 101.507 102.002C99.9277 103.166 98.7463 104.775 98.1206 106.617L98.2862 108.808Z" fill="white"/>
<path d="M97.9325 108.779H97.8798C97.8454 108.766 97.817 108.741 97.8002 108.709C97.7835 108.677 97.7797 108.64 97.7895 108.605C98.3777 107.016 99.3069 105.57 100.514 104.366C101.823 103.038 103.524 102.148 105.376 101.823C105.394 101.821 105.413 101.822 105.43 101.826C105.448 101.831 105.464 101.839 105.479 101.85C105.493 101.861 105.505 101.875 105.514 101.891C105.523 101.906 105.528 101.924 105.53 101.942C105.533 101.96 105.532 101.979 105.527 101.996C105.522 102.014 105.513 102.031 105.502 102.045C105.49 102.06 105.476 102.072 105.459 102.081C105.443 102.09 105.425 102.095 105.406 102.097C103.623 102.43 101.986 103.29 100.713 104.563C99.5444 105.734 98.6459 107.139 98.0793 108.683C98.0693 108.713 98.0494 108.738 98.0228 108.756C97.9962 108.773 97.9644 108.781 97.9325 108.779V108.779Z" fill="white"/>
<path d="M61.7539 89.2564V61.2964H46.4719V89.2601C46.4719 90.3704 47.2245 91.4807 48.7298 92.3245C51.7139 94.0195 56.5533 94.0195 59.5374 92.3245C61.0427 91.477 61.7727 90.3704 61.7765 89.2601L61.7539 89.2564Z" fill="#37474F"/>
<path d="M48.7109 64.5542C45.723 62.8589 45.723 60.1125 48.7109 58.4135C51.6988 56.7145 56.5344 56.7182 59.5186 58.4135C62.5028 60.1087 62.5028 62.8552 59.5186 64.5542C56.5344 66.2532 51.6951 66.2458 48.7109 64.5542Z" fill="#485350"/>
<path d="M80.0992 99.6738V79.3193H64.8134V99.6738C64.8134 100.784 65.566 101.894 67.0712 102.738C70.0554 104.433 74.8948 104.433 77.879 102.738C79.3842 101.894 80.118 100.784 80.118 99.6738H80.0992Z" fill="#37474F"/>
<path d="M67.0524 82.5806C64.0683 80.8854 64.0683 78.1391 67.0524 76.4402C70.0366 74.7414 74.8759 74.7451 77.8601 76.4402C80.8442 78.1354 80.848 80.8817 77.8601 82.5806C74.8722 84.2794 70.0328 84.2905 67.0524 82.5806Z" fill="#485350"/>
<path d="M98.4443 110.087V94.2812H83.1586V110.091C83.1586 111.201 83.9112 112.311 85.4164 113.158C88.4006 114.853 93.2399 114.853 96.2241 113.158C97.7293 112.311 98.4594 111.201 98.4631 110.091L98.4443 110.087Z" fill="#37474F"/>
<path d="M90.8015 98.8047C95.0225 98.8047 98.4443 96.861 98.4443 94.4634C98.4443 92.0657 95.0225 90.1221 90.8015 90.1221C86.5804 90.1221 83.1586 92.0657 83.1586 94.4634C83.1586 96.861 86.5804 98.8047 90.8015 98.8047Z" fill="#485350"/>
<path d="M45.4934 99.1156L41.8845 97.0689L43.8828 94.5225C44.1386 94.1968 44.0182 94.0192 43.6156 94.1191L38.8289 95.3331L35.22 93.2827C34.9169 93.1312 34.5816 93.0522 34.2416 93.0522C33.9016 93.0522 33.5663 93.1312 33.2632 93.2827L27.5771 96.5026C27.0352 96.8098 27.0352 97.3058 27.5771 97.6129L37.8504 103.446C38.1536 103.597 38.4888 103.676 38.8289 103.676C39.1689 103.676 39.5041 103.597 39.8073 103.446L45.4934 100.215C46.0315 99.9187 46.0315 99.4228 45.4934 99.1156Z" fill="#AAD7C2"/>
<path d="M39.7208 97.8602C39.7796 97.8545 39.8389 97.8545 39.8977 97.8602C39.9561 97.8674 40.0125 97.8863 40.0632 97.9157L40.5788 98.2081C40.6136 98.2247 40.6405 98.2538 40.6541 98.2895C40.6541 98.3191 40.6541 98.345 40.6014 98.3635C40.5891 98.3668 40.5761 98.3668 40.5637 98.3635C40.5452 98.3678 40.5259 98.3678 40.5073 98.3635L33.3573 98.9186H33.1541C33.0954 98.91 33.0391 98.8898 32.9885 98.8594L32.473 98.567C32.4382 98.5504 32.4112 98.5213 32.3977 98.4856C32.3977 98.456 32.3977 98.4301 32.4504 98.4116C32.4627 98.4083 32.4757 98.4083 32.488 98.4116H32.5445L39.7208 97.8602ZM37.4177 97.3902C37.2648 97.4907 37.1051 97.5809 36.9398 97.6604C36.8064 97.727 36.6664 97.7803 36.5221 97.8195C36.3708 97.8571 36.2153 97.8757 36.0593 97.875C35.7109 97.8758 35.3689 97.7837 35.0695 97.6085C34.9267 97.5397 34.7989 97.4442 34.6932 97.3273C34.6246 97.2504 34.586 97.152 34.5841 97.0497C34.5855 96.9531 34.6215 96.8601 34.6857 96.787C34.7606 96.6914 34.8524 96.6099 34.9566 96.5464C35.028 96.4957 35.1021 96.4487 35.1787 96.4058C35.2502 96.3651 35.3367 96.3207 35.4308 96.2763C35.5663 96.2092 35.7089 96.157 35.856 96.1208C36.1686 96.0444 36.4955 96.0444 36.8081 96.1208C36.982 96.1672 37.1489 96.2356 37.3049 96.3244C37.4406 96.3941 37.5609 96.4897 37.6586 96.6056C37.728 96.6824 37.7679 96.7806 37.7715 96.8832C37.7667 96.9791 37.7311 97.0711 37.6699 97.1459C37.601 97.2412 37.5156 97.3239 37.4177 97.3902V97.3902ZM38.129 100.284C37.9832 100.391 37.8298 100.488 37.6699 100.573C37.5354 100.639 37.3941 100.691 37.2484 100.728C37.0977 100.769 36.9419 100.789 36.7855 100.788C36.6189 100.787 36.4532 100.764 36.2926 100.721C36.1183 100.677 35.9511 100.61 35.7958 100.521C35.6615 100.449 35.5417 100.354 35.4421 100.24C35.3727 100.162 35.334 100.062 35.333 99.9585C35.3359 99.8629 35.3703 99.7707 35.4308 99.6958C35.5074 99.6015 35.6004 99.5213 35.7055 99.4589C35.7754 99.4061 35.8497 99.359 35.9275 99.3183C36.0087 99.2698 36.0929 99.2266 36.1797 99.1888C36.3139 99.1217 36.4552 99.0696 36.6011 99.0333C36.7527 98.9968 36.908 98.977 37.064 98.9741C37.4111 98.974 37.7517 99.0661 38.05 99.2406C38.1935 99.3083 38.3215 99.404 38.4263 99.5219C38.4927 99.5967 38.5293 99.6927 38.5293 99.792C38.5293 99.8914 38.4927 99.9873 38.4263 100.062C38.3407 100.152 38.2402 100.227 38.129 100.284ZM35.7319 96.9535C35.657 96.9951 35.5957 97.0567 35.555 97.1312C35.555 97.183 35.555 97.2348 35.6641 97.2866C35.7454 97.3351 35.8403 97.3571 35.9351 97.3495C36.0444 97.3325 36.15 97.2975 36.2474 97.2459C36.39 97.1786 36.5272 97.1007 36.6576 97.0127C36.7342 96.9722 36.797 96.9104 36.8382 96.8351C36.8382 96.7833 36.8194 96.7315 36.7291 96.6797C36.6467 96.6307 36.5501 96.6098 36.4544 96.6204C36.3463 96.6354 36.2418 96.6693 36.1458 96.7204C36.0021 96.782 35.8636 96.8551 35.7319 96.9387V96.9535ZM36.4469 99.8475C36.3703 99.8881 36.3074 99.9498 36.2662 100.025C36.2662 100.073 36.2662 100.125 36.3754 100.177C36.4567 100.229 36.5538 100.251 36.6501 100.24C36.7577 100.223 36.8619 100.189 36.9586 100.14C37.1029 100.073 37.2413 99.9955 37.3726 99.9067C37.4484 99.8663 37.51 99.8044 37.5495 99.7291C37.5495 99.6773 37.5495 99.6255 37.4403 99.5737C37.359 99.5251 37.2642 99.5031 37.1694 99.5107C37.0612 99.5273 36.9567 99.5624 36.8608 99.6144C36.7171 99.676 36.5786 99.7491 36.4469 99.8327V99.8475Z" fill="white"/>
<path d="M65.3702 110.395L61.7538 108.344L63.7521 105.802C64.0042 105.476 63.8838 105.295 63.4811 105.398L58.6944 106.609L55.0856 104.562C54.7831 104.41 54.4485 104.332 54.1091 104.332C53.7696 104.332 53.435 104.41 53.1325 104.562L47.454 107.789C46.9159 108.096 46.9159 108.596 47.454 108.9L57.7273 114.736C58.031 114.886 58.366 114.964 58.7057 114.964C59.0454 114.964 59.3805 114.886 59.6841 114.736L65.3702 111.505C65.9121 111.198 65.9121 110.702 65.3702 110.395Z" fill="#AAD7C2"/>
<path d="M59.5976 109.14H59.7783C59.8368 109.149 59.893 109.169 59.9438 109.199L60.4556 109.491C60.5008 109.517 60.5271 109.543 60.5309 109.573C60.5347 109.602 60.5309 109.625 60.482 109.647C60.4696 109.649 60.4567 109.649 60.4443 109.647H60.3879L53.2379 110.202C53.1779 110.208 53.1174 110.208 53.0573 110.202C52.9985 110.194 52.9421 110.174 52.8917 110.143L52.3799 109.854C52.3348 109.828 52.3084 109.798 52.3047 109.773C52.3034 109.756 52.3075 109.74 52.3163 109.726C52.3251 109.712 52.3381 109.701 52.3536 109.695H52.3912H52.4477L59.5976 109.14ZM57.2946 108.67C57.1434 108.771 56.985 108.861 56.8204 108.94C56.686 109.006 56.5447 109.058 56.399 109.095C56.2482 109.136 56.0924 109.156 55.9361 109.155C55.7695 109.154 55.6037 109.131 55.4431 109.088C55.2689 109.044 55.1017 108.977 54.9464 108.888C54.8111 108.816 54.69 108.721 54.5889 108.607C54.5207 108.532 54.4829 108.435 54.4829 108.335C54.4829 108.234 54.5207 108.137 54.5889 108.063C54.665 107.969 54.7566 107.889 54.8598 107.826C54.9309 107.775 55.005 107.728 55.0819 107.685C55.1647 107.638 55.2502 107.594 55.3378 107.556C55.4719 107.489 55.6133 107.437 55.7592 107.4C56.0027 107.339 56.256 107.326 56.5047 107.362C56.7533 107.397 56.9923 107.481 57.208 107.608C57.3441 107.678 57.4654 107.774 57.5655 107.889C57.6347 107.965 57.6734 108.064 57.6747 108.166C57.6718 108.263 57.636 108.355 57.5731 108.429C57.496 108.525 57.4016 108.607 57.2946 108.67ZM58.0096 111.564C57.8568 111.664 57.6971 111.755 57.5317 111.834C57.3988 111.901 57.2587 111.953 57.114 111.989C56.9627 112.027 56.8071 112.046 56.6511 112.045C56.3028 112.046 55.9607 111.954 55.6614 111.778C55.5256 111.709 55.4043 111.615 55.3039 111.501C55.2345 111.423 55.1958 111.323 55.1948 111.22C55.1991 111.124 55.2347 111.031 55.2964 110.957C55.3723 110.862 55.4639 110.781 55.5673 110.716C55.6426 110.664 55.7178 110.62 55.7893 110.576C55.8608 110.531 55.9474 110.491 56.0415 110.446C56.1769 110.379 56.3196 110.327 56.4667 110.291C56.6187 110.257 56.7738 110.238 56.9296 110.235C57.0948 110.235 57.2593 110.256 57.4188 110.298C57.5934 110.342 57.7607 110.411 57.9155 110.502C58.0516 110.572 58.1729 110.668 58.273 110.783C58.341 110.857 58.3786 110.953 58.3786 111.053C58.3786 111.153 58.341 111.249 58.273 111.323C58.1994 111.417 58.1104 111.499 58.0096 111.564V111.564ZM55.6125 108.233C55.5359 108.274 55.4731 108.335 55.4318 108.411C55.4318 108.459 55.4507 108.511 55.541 108.562C55.6224 108.614 55.7195 108.636 55.8157 108.625C55.9232 108.608 56.0273 108.574 56.1243 108.525C56.2694 108.459 56.4079 108.38 56.5382 108.289C56.6134 108.249 56.675 108.189 56.7151 108.115C56.7151 108.063 56.6963 108.011 56.6059 107.959C56.5254 107.909 56.4299 107.887 56.335 107.896C56.2255 107.913 56.1198 107.948 56.0227 108C55.8801 108.062 55.7429 108.135 55.6125 108.218V108.233ZM56.3237 111.127C56.2501 111.169 56.189 111.229 56.1468 111.301C56.1468 111.353 56.1656 111.405 56.256 111.456C56.3365 111.507 56.432 111.529 56.5269 111.519C56.6358 111.503 56.7412 111.469 56.8393 111.419C56.9816 111.35 57.1187 111.271 57.2494 111.183C57.3248 111.142 57.3873 111.082 57.4301 111.009C57.4489 110.957 57.4301 110.905 57.3209 110.853C57.2389 110.803 57.1423 110.781 57.0462 110.79C56.9387 110.808 56.8346 110.841 56.7376 110.89C56.5949 110.955 56.4566 111.03 56.3237 111.112V111.127Z" fill="white"/>
<path d="M85.2321 121.668L81.6233 119.622L83.6253 117.071C83.8774 116.749 83.757 116.568 83.3543 116.671L78.5676 117.882L74.9588 115.835C74.6556 115.683 74.3204 115.604 73.9803 115.604C73.6403 115.604 73.3051 115.683 73.0019 115.835L67.3158 119.077C66.7777 119.385 66.7777 119.884 67.3158 120.188L77.5892 126.025C77.8929 126.175 78.2279 126.253 78.5676 126.253C78.9073 126.253 79.2424 126.175 79.546 126.025L85.2321 122.779C85.774 122.483 85.774 121.987 85.2321 121.668Z" fill="#AAD7C2"/>
<path d="M79.4593 120.425H79.6362C79.6949 120.433 79.7512 120.453 79.8018 120.484L80.3173 120.776C80.3625 120.802 80.3888 120.828 80.3926 120.858C80.3964 120.887 80.3926 120.909 80.3437 120.932H80.306H80.2496L73.0996 121.487C73.0408 121.493 72.9816 121.493 72.9228 121.487C72.8638 121.479 72.8073 121.459 72.7572 121.428L72.2454 121.139C72.2002 121.113 72.1739 121.083 72.1701 121.058C72.1689 121.041 72.173 121.025 72.1818 121.011C72.1905 120.997 72.2036 120.986 72.2191 120.98H72.2567C72.2753 120.976 72.2946 120.976 72.3131 120.98L79.4593 120.425ZM77.1563 119.955C77.0043 120.057 76.8445 120.147 76.6784 120.225C76.5455 120.292 76.4054 120.344 76.2607 120.38C76.1099 120.421 75.9541 120.441 75.7978 120.439C75.63 120.439 75.463 120.416 75.3011 120.373C75.1279 120.33 74.9619 120.262 74.8081 120.173C74.6728 120.101 74.5517 120.006 74.4506 119.892C74.3812 119.814 74.3425 119.714 74.3415 119.61C74.3458 119.514 74.3814 119.422 74.4431 119.348C74.52 119.254 74.6114 119.173 74.714 119.107C74.7893 119.055 74.8645 119.011 74.936 118.97C75.0075 118.929 75.0941 118.885 75.1882 118.837C75.465 118.704 75.7681 118.632 76.0763 118.626C76.4232 118.627 76.7635 118.719 77.0622 118.892C77.1983 118.963 77.3196 119.059 77.4197 119.174C77.4877 119.251 77.5263 119.349 77.5288 119.451C77.524 119.547 77.4885 119.639 77.4272 119.714C77.3524 119.81 77.2606 119.891 77.1563 119.955V119.955ZM77.8675 122.849C77.7155 122.949 77.5571 123.039 77.3934 123.119C77.2602 123.185 77.1202 123.238 76.9757 123.274C76.6608 123.353 76.3309 123.353 76.0161 123.274C75.8429 123.23 75.6769 123.161 75.5231 123.071C75.3796 123.003 75.2515 122.907 75.1468 122.79C75.077 122.713 75.0382 122.615 75.0377 122.512C75.0398 122.416 75.0742 122.324 75.1355 122.249C75.2138 122.155 75.3065 122.074 75.4102 122.009C75.4816 121.958 75.5557 121.911 75.6322 121.868C75.7037 121.827 75.7903 121.783 75.8844 121.738C76.159 121.599 76.4635 121.527 76.7725 121.528C76.9376 121.527 77.1022 121.548 77.2617 121.59C77.4349 121.635 77.6008 121.704 77.7546 121.794C77.8982 121.862 78.0262 121.957 78.131 122.075C78.2007 122.152 78.2395 122.25 78.2401 122.353C78.2379 122.449 78.2035 122.541 78.1422 122.616C78.0652 122.708 77.9722 122.787 77.8675 122.849V122.849ZM75.4704 119.518C75.3956 119.56 75.3343 119.621 75.2935 119.696C75.2935 119.744 75.3124 119.795 75.4027 119.847C75.4835 119.897 75.5787 119.919 75.6736 119.91C75.7825 119.894 75.8879 119.86 75.986 119.81C76.1306 119.743 76.2691 119.664 76.3999 119.573C76.4751 119.534 76.5367 119.473 76.5768 119.399C76.5956 119.348 76.5768 119.296 76.4676 119.244C76.3856 119.194 76.289 119.172 76.1929 119.181C76.0849 119.198 75.9805 119.233 75.8844 119.285C75.741 119.347 75.6026 119.42 75.4704 119.503V119.518ZM76.1854 122.412C76.111 122.454 76.0487 122.514 76.0048 122.586C76.0048 122.638 76.0048 122.69 76.1177 122.741C76.1983 122.792 76.2937 122.814 76.3886 122.804C76.4963 122.788 76.6005 122.754 76.6972 122.704C76.8408 122.635 76.9791 122.556 77.1111 122.468C77.1865 122.427 77.249 122.367 77.2918 122.294C77.3118 122.242 77.2742 122.19 77.1789 122.138C77.0983 122.088 77.0029 122.066 76.9079 122.075C76.8003 122.092 76.6961 122.126 76.5994 122.175C76.4559 122.243 76.3175 122.321 76.1854 122.408V122.412Z" fill="white"/>
<path d="M136.659 60.6157L130.544 57.1445V39.7847L136.659 43.2559V60.6157Z" fill="#37474F"/>
<path d="M136.659 60.6157L142.774 57.1445V39.7847L136.659 43.2559V60.6157Z" fill="#485350"/>
<path d="M130.544 39.7847L136.659 43.2568L142.774 39.7847L136.659 36.3125L130.544 39.7847Z" fill="#485350"/>
<path d="M122.901 52.8032L116.786 49.3319V14.6147L122.901 18.0861V52.8032Z" fill="#37474F"/>
<path d="M122.901 52.8032L129.016 49.3319V14.6147L122.901 18.0861V52.8032Z" fill="#485350"/>
<path d="M116.786 14.6152L122.901 18.0869L129.016 14.6152L122.901 11.1436L116.786 14.6152Z" fill="#485350"/>
<path d="M109.143 44.9912L103.028 41.5197V29.3696L109.143 32.8411V44.9912Z" fill="#37474F"/>
<path d="M109.143 44.9912L115.258 41.5197V29.3696L109.143 32.8411V44.9912Z" fill="#485350"/>
<path d="M103.028 29.3709L109.143 32.8423L115.258 29.3709L109.143 25.8994L103.028 29.3709Z" fill="#485350"/>
<path d="M150.417 68.4282L144.302 64.9532V31.9756L150.413 35.4469L150.417 68.4282Z" fill="#37474F"/>
<path d="M150.413 68.4282L156.528 64.9532V31.9756L150.413 35.4469V68.4282Z" fill="#485350"/>
<path d="M144.302 31.9755L150.413 35.4473L156.528 31.9755L150.417 28.5L144.302 31.9755Z" fill="#485350"/>
<g opacity="0.3">
<path opacity="0.3" d="M107.664 65.9081L107.6 27.4641C107.587 27.2416 107.52 27.0252 107.407 26.8324C107.293 26.6396 107.135 26.4757 106.945 26.3539L60.8242 0.281696C60.4479 0.0781513 60.1732 0.244688 60.1732 0.651776L60.2485 39.0809C60.2608 39.3037 60.3266 39.5204 60.4404 39.7134C60.5542 39.9063 60.7128 40.0701 60.9033 40.1912L107.028 66.2819C107.378 66.4854 107.664 66.3189 107.664 65.9081Z" fill="white"/>
</g>
<path d="M107.31 66.5522C107.177 66.5471 107.048 66.5089 106.934 66.4412L60.8095 40.3504C60.5894 40.2141 60.4059 40.0275 60.2749 39.8065C60.1439 39.5855 60.0691 39.3366 60.0569 39.081L59.9854 0.651696C59.9697 0.538994 59.9883 0.424233 60.0391 0.322002C60.0898 0.21977 60.1703 0.134686 60.2704 0.0775625C60.3704 0.0204391 60.4855 -0.00614392 60.6009 0.00119518C60.7163 0.00853428 60.8269 0.0494622 60.9187 0.118777L107.043 26.1874C107.263 26.3241 107.446 26.5108 107.577 26.7318C107.708 26.9527 107.783 27.2013 107.796 27.4567L107.86 65.9009C107.869 66.0131 107.847 66.1256 107.798 66.227C107.748 66.3284 107.672 66.4151 107.578 66.4782C107.497 66.5259 107.405 66.5515 107.31 66.5522V66.5522ZM60.5348 0.363033C60.5102 0.356599 60.4842 0.356599 60.4596 0.363033C60.4228 0.39415 60.3946 0.433831 60.3775 0.478443C60.3604 0.523056 60.355 0.571175 60.3617 0.61839L60.4257 39.0625C60.4364 39.257 60.4942 39.4462 60.5944 39.6142C60.6945 39.7822 60.8341 39.9243 61.0014 40.0284L107.126 66.1192C107.239 66.1822 107.337 66.2007 107.397 66.1637C107.457 66.1266 107.495 66.0378 107.495 65.9083L107.431 27.4642C107.419 27.2747 107.362 27.0905 107.266 26.9261C107.169 26.7617 107.035 26.6216 106.874 26.5167L60.7305 0.425946C60.6718 0.388956 60.6044 0.367303 60.5348 0.363033Z" fill="#AAD7C2"/>
<path d="M103.284 57.4258C102.061 56.5709 101.346 55.7975 100.86 49.8541L100.819 49.3471C100.363 43.7627 100.066 40.0768 97.4771 38.5558C96.2353 37.8156 95.2418 38.5558 94.1919 39.3588C93.2398 40.0731 92.2614 40.8058 91.1588 40.1878C89.2208 39.0776 88.9009 36.8793 88.2988 32.8678C88.2236 32.3719 88.1483 31.8501 88.0618 31.3024C87.9301 30.4475 87.8172 29.6518 87.7118 28.9043C87.1172 24.6929 86.756 22.1468 84.5658 20.8478C84.3501 20.6975 84.1017 20.5988 83.8404 20.5596C83.5791 20.5204 83.312 20.5418 83.0606 20.6221C81.401 21.192 80.1028 24.6447 78.7292 28.3048C78.6239 28.5749 78.5222 28.8599 78.4131 29.1448C77.4159 31.8427 76.2869 34.9032 74.7253 35.4694C74.5044 35.5489 74.2682 35.5782 74.0342 35.5551C73.8003 35.532 73.5747 35.4572 73.3743 35.3361C71.8201 34.4702 71.5416 32.1017 71.2745 29.8073C71.0073 27.5128 70.7476 25.2073 69.28 24.3376C69.1556 24.2585 69.0132 24.2107 68.8656 24.1984C68.7179 24.1861 68.5695 24.2098 68.4333 24.2673C66.6119 24.963 64.9976 30.2624 64.9825 30.3143L64.6062 30.2106C64.6739 29.9849 66.2883 24.6854 68.279 23.9194C68.4691 23.842 68.6753 23.8106 68.8803 23.828C69.0853 23.8454 69.2831 23.911 69.4569 24.0193C71.0788 24.9741 71.361 27.4055 71.6357 29.7554C71.9104 32.1054 72.1588 34.2333 73.5512 35.0068C73.703 35.1016 73.875 35.1607 74.0539 35.1793C74.2328 35.1979 74.4136 35.1756 74.5822 35.1141C75.9784 34.6071 77.1261 31.5059 78.0481 29.0116C78.1572 28.7229 78.2588 28.4417 78.3642 28.1678C79.8318 24.2636 81.1 20.8922 82.9251 20.2631C83.2276 20.1666 83.5487 20.1402 83.8633 20.1858C84.1779 20.2313 84.4776 20.3477 84.7389 20.5258C87.0796 21.9173 87.4521 24.5263 88.0618 28.8488C88.1671 29.5889 88.28 30.3883 88.4117 31.2394C88.4983 31.7908 88.5736 32.3127 88.6488 32.8048C89.2246 36.7054 89.5444 38.8518 91.3244 39.8584C92.2087 40.358 93.0103 39.7548 93.9398 39.0591C94.9935 38.2671 96.1977 37.3752 97.6465 38.2301C100.397 39.851 100.706 43.6147 101.169 49.3101L101.21 49.8171C101.707 55.8789 102.452 56.397 103.468 57.1186L103.284 57.4258Z" fill="#AAD7C2"/>
<g opacity="0.4">
<path opacity="0.4" d="M103.284 57.4258C102.061 56.5709 101.346 55.7975 100.86 49.8541L100.819 49.3471C100.363 43.7627 100.066 40.0768 97.4771 38.5558C96.2353 37.8156 95.2418 38.5558 94.1919 39.3588C93.2398 40.0731 92.2614 40.8058 91.1588 40.1878C89.2208 39.0776 88.9009 36.8793 88.2988 32.8678C88.2236 32.3719 88.1483 31.8501 88.0618 31.3024C87.9301 30.4475 87.8172 29.6518 87.7118 28.9043C87.1172 24.6929 86.756 22.1468 84.5658 20.8478C84.3501 20.6975 84.1017 20.5988 83.8404 20.5596C83.5791 20.5204 83.312 20.5418 83.0606 20.6221C81.401 21.192 80.1028 24.6447 78.7292 28.3048C78.6239 28.5749 78.5222 28.8599 78.4131 29.1448C77.4159 31.8427 76.2869 34.9032 74.7253 35.4694C74.5044 35.5489 74.2682 35.5782 74.0342 35.5551C73.8003 35.532 73.5747 35.4572 73.3743 35.3361C71.8201 34.4702 71.5416 32.1017 71.2745 29.8073C71.0073 27.5128 70.7476 25.2073 69.28 24.3376C69.1556 24.2585 69.0132 24.2107 68.8656 24.1984C68.7179 24.1861 68.5695 24.2098 68.4333 24.2673C66.6119 24.963 64.9976 30.2624 64.9825 30.3143L64.6062 30.2106C64.6739 29.9849 66.2883 24.6854 68.279 23.9194C68.4691 23.842 68.6753 23.8106 68.8803 23.828C69.0853 23.8454 69.2831 23.911 69.4569 24.0193C71.0788 24.9741 71.361 27.4055 71.6357 29.7554C71.9104 32.1054 72.1588 34.2333 73.5512 35.0068C73.703 35.1016 73.875 35.1607 74.0539 35.1793C74.2328 35.1979 74.4136 35.1756 74.5822 35.1141C75.9784 34.6071 77.1261 31.5059 78.0481 29.0116C78.1572 28.7229 78.2588 28.4417 78.3642 28.1678C79.8318 24.2636 81.1 20.8922 82.9251 20.2631C83.2276 20.1666 83.5487 20.1402 83.8633 20.1858C84.1779 20.2313 84.4776 20.3477 84.7389 20.5258C87.0796 21.9173 87.4521 24.5263 88.0618 28.8488C88.1671 29.5889 88.28 30.3883 88.4117 31.2394C88.4983 31.7908 88.5736 32.3127 88.6488 32.8048C89.2246 36.7054 89.5444 38.8518 91.3244 39.8584C92.2087 40.358 93.0103 39.7548 93.9398 39.0591C94.9935 38.2671 96.1977 37.3752 97.6465 38.2301C100.397 39.851 100.706 43.6147 101.169 49.3101L101.21 49.8171C101.707 55.8789 102.452 56.397 103.468 57.1186L103.284 57.4258Z" fill="black"/>
</g>
<path d="M96.9201 36.9193C97.2 37.0996 97.4331 37.3417 97.601 37.6263C97.7689 37.911 97.8669 38.2302 97.8872 38.5586C97.8872 39.1618 97.4545 39.4061 96.9239 39.1063C96.6428 38.9273 96.4087 38.6855 96.2406 38.4006C96.0725 38.1157 95.9753 37.7958 95.9568 37.467C95.9568 36.8786 96.3745 36.6343 96.9201 36.9193Z" fill="#AAD7C2"/>
<g opacity="0.2">
<path opacity="0.2" d="M96.9201 36.9193C97.2 37.0996 97.4331 37.3417 97.601 37.6263C97.7689 37.911 97.8669 38.2302 97.8872 38.5586C97.8872 39.1618 97.4545 39.4061 96.9239 39.1063C96.6428 38.9273 96.4087 38.6855 96.2406 38.4006C96.0725 38.1157 95.9753 37.7958 95.9568 37.467C95.9568 36.8786 96.3745 36.6343 96.9201 36.9193Z" fill="black"/>
</g>
<path d="M84.6636 19.5965C84.9438 19.7762 85.177 20.0181 85.3444 20.3029C85.5118 20.5876 85.6086 20.9072 85.627 21.2355C85.627 21.8386 85.1979 22.0828 84.6673 21.7831C84.386 21.6043 84.1517 21.3626 83.9836 21.0778C83.8155 20.7929 83.7184 20.4729 83.7002 20.1441C83.7002 19.5262 84.1292 19.2968 84.6636 19.5965Z" fill="#AAD7C2"/>
<g opacity="0.5">
<path opacity="0.5" d="M84.6636 19.5965C84.9438 19.7762 85.177 20.0181 85.3444 20.3029C85.5118 20.5876 85.6086 20.9072 85.627 21.2355C85.627 21.8386 85.1979 22.0828 84.6673 21.7831C84.386 21.6043 84.1517 21.3626 83.9836 21.0778C83.8155 20.7929 83.7184 20.4729 83.7002 20.1441C83.7002 19.5262 84.1292 19.2968 84.6636 19.5965Z" fill="white"/>
</g>
<path d="M69.3816 23.0926C69.6629 23.2707 69.8972 23.5119 70.0653 23.7964C70.2334 24.0808 70.3306 24.4005 70.3488 24.729C70.3488 25.3362 69.9198 25.5806 69.3854 25.2807C69.1054 25.1007 68.8723 24.8585 68.705 24.5736C68.5376 24.2887 68.4407 23.9691 68.422 23.6406C68.4183 23.0371 68.851 22.789 69.3816 23.0926Z" fill="#AAD7C2"/>
<path opacity="0.65" d="M83.1545 64.2126V25.7688C83.142 25.5465 83.0766 25.3302 82.9635 25.1374C82.8504 24.9446 82.6929 24.7805 82.5035 24.6586L42.5354 1.96529C42.1591 1.76175 41.8844 1.92828 41.8844 2.33537V40.7792C41.8966 41.0015 41.9619 41.2179 42.075 41.4108C42.1881 41.6037 42.3459 41.7677 42.5354 41.8894L82.5035 64.5827C82.8648 64.79 83.1545 64.6234 83.1545 64.2126Z" fill="white"/>
<path d="M82.797 64.8564C82.6641 64.8513 82.5346 64.8131 82.4207 64.7454L42.4413 42.0521C42.2217 41.9143 42.0388 41.7268 41.9079 41.5054C41.777 41.2839 41.7018 41.0348 41.6887 40.779V2.33507C41.6738 2.22267 41.6932 2.10846 41.7443 2.00685C41.7954 1.90525 41.8759 1.82081 41.9758 1.76419C42.0756 1.70757 42.1903 1.68131 42.3053 1.68873C42.4203 1.69614 42.5305 1.7369 42.622 1.80586L82.5901 24.4992C82.8096 24.6362 82.9925 24.8229 83.1235 25.0438C83.2544 25.2647 83.3296 25.5132 83.3427 25.7685V64.2125C83.3517 64.3247 83.3304 64.4372 83.2808 64.5386C83.2312 64.64 83.1552 64.7267 83.0605 64.7898C82.9801 64.8343 82.8893 64.8573 82.797 64.8564V64.8564ZM42.2457 2.06491C42.221 2.05864 42.1951 2.05864 42.1704 2.06491C42.1337 2.09603 42.1055 2.13571 42.0884 2.18032C42.0713 2.22493 42.0658 2.27305 42.0725 2.32027V40.779C42.0843 40.9691 42.1408 41.1539 42.2374 41.3189C42.334 41.4839 42.4682 41.6247 42.6295 41.7301L82.5976 64.4234C82.6359 64.4529 82.6812 64.4724 82.7292 64.4802C82.7772 64.488 82.8264 64.4837 82.8723 64.4678C82.9325 64.4345 82.9664 64.342 82.9664 64.2125V25.7685C82.9549 25.5789 82.8985 25.3945 82.8019 25.2301C82.7052 25.0656 82.5708 24.9256 82.4094 24.8211L42.4413 2.13153C42.3837 2.09176 42.3159 2.06868 42.2457 2.06491Z" fill="#AAD7C2"/>
<path d="M76.2794 55.4745V30.1769C76.273 30.0656 76.2399 29.9573 76.1831 29.8609C76.1262 29.7645 76.047 29.6825 75.952 29.6218L72.0195 27.4014C71.8389 27.2977 71.6921 27.3792 71.6921 27.5864V52.8693C71.6977 52.9808 71.7303 53.0893 71.7873 53.1859C71.8442 53.2825 71.9239 53.3642 72.0195 53.4244L75.952 55.6447C76.1327 55.7632 76.2794 55.678 76.2794 55.4745Z" fill="#AAD7C2"/>
<g opacity="0.3">
<path opacity="0.3" d="M76.2794 55.4745V30.1769C76.273 30.0656 76.2399 29.9573 76.1831 29.8609C76.1262 29.7645 76.047 29.6825 75.952 29.6218L72.0195 27.4014C71.8389 27.2977 71.6921 27.3792 71.6921 27.5864V52.8693C71.6977 52.9808 71.7303 53.0893 71.7873 53.1859C71.8442 53.2825 71.9239 53.3642 72.0195 53.4244L75.952 55.6447C76.1327 55.7632 76.2794 55.678 76.2794 55.4745Z" fill="black"/>
</g>
<path d="M68.6365 51.1339V37.9889C68.63 37.8776 68.597 37.7693 68.5401 37.6729C68.4833 37.5765 68.4041 37.4945 68.3091 37.4338L64.3729 35.2133C64.1961 35.1134 64.0493 35.2133 64.0493 35.3984V48.5471C64.0559 48.6579 64.0886 48.7657 64.1448 48.862C64.2009 48.9584 64.279 49.0406 64.3729 49.1022L68.3091 51.3226C68.4897 51.4225 68.6365 51.3522 68.6365 51.1339Z" fill="#AAD7C2"/>
<g opacity="0.2">
<path opacity="0.2" d="M68.6365 51.1339V37.9889C68.63 37.8776 68.597 37.7693 68.5401 37.6729C68.4833 37.5765 68.4041 37.4945 68.3091 37.4338L64.3729 35.2133C64.1961 35.1134 64.0493 35.2133 64.0493 35.3984V48.5471C64.0559 48.6579 64.0886 48.7657 64.1448 48.862C64.2009 48.9584 64.279 49.0406 64.3729 49.1022L68.3091 51.3226C68.4897 51.4225 68.6365 51.3522 68.6365 51.1339Z" fill="white"/>
</g>
<path d="M61.0011 46.7961V26.7052C60.9946 26.5939 60.9616 26.4857 60.9048 26.3892C60.8479 26.2928 60.7687 26.2109 60.6737 26.1501L56.7374 23.9297C56.5606 23.8261 56.4138 23.9075 56.4138 24.1147V44.2019C56.4199 44.3129 56.4523 44.4209 56.5085 44.5174C56.5647 44.6138 56.6431 44.6959 56.7374 44.757L60.6737 46.9775C60.8468 47.0811 61.0011 46.9997 61.0011 46.7961Z" fill="#AAD7C2"/>
<g opacity="0.2">
<path opacity="0.2" d="M61.0011 46.7961V26.7052C60.9946 26.5939 60.9616 26.4857 60.9048 26.3892C60.8479 26.2928 60.7687 26.2109 60.6737 26.1501L56.7374 23.9297C56.5606 23.8261 56.4138 23.9075 56.4138 24.1147V44.2019C56.4199 44.3129 56.4523 44.4209 56.5085 44.5174C56.5647 44.6138 56.6431 44.6959 56.7374 44.757L60.6737 46.9775C60.8468 47.0811 61.0011 46.9997 61.0011 46.7961Z" fill="black"/>
</g>
<path d="M53.3469 42.4712V13.6863C53.3412 13.5753 53.3089 13.4671 53.2526 13.3707C53.1964 13.2742 53.1178 13.1922 53.0233 13.1312L49.0871 10.9107C48.9102 10.8071 48.7634 10.9107 48.7634 11.0958V39.8658C48.7701 39.9767 48.8027 40.0845 48.8589 40.1808C48.915 40.2771 48.9931 40.3593 49.0871 40.4209L53.0233 42.6414C53.2039 42.745 53.3469 42.6599 53.3469 42.4712Z" fill="#AAD7C2"/>
<path d="M134.619 47.0719C134.567 46.7943 133.186 43.6333 132.617 42.3896L129.739 43.7147L130.841 46.1984L133.822 48.4673C134.112 48.3804 134.356 48.1868 134.505 47.9269C134.654 47.667 134.695 47.3607 134.619 47.0719V47.0719Z" fill="#FFA8A7"/>
<path d="M128.884 80.1738H126.664V83.3569H128.884V80.1738Z" fill="#FFA8A7"/>
<path d="M121.063 76.2433L118.844 76.3184L118.955 79.4996L121.174 79.4246L121.063 76.2433Z" fill="#FFA8A7"/>
<path d="M121.618 34.5967C120.814 34.615 120.028 34.833 119.334 35.2303C118.639 35.6276 118.058 36.1913 117.644 36.8689C116.417 38.6638 114.257 41.7317 114.257 41.7317L118.302 42.9937L121.618 34.5967Z" fill="#AAD7C2"/>
<g opacity="0.7">
<path opacity="0.7" d="M121.618 34.5967C120.814 34.615 120.028 34.833 119.334 35.2303C118.639 35.6276 118.058 36.1913 117.644 36.8689C116.417 38.6638 114.257 41.7317 114.257 41.7317L118.302 42.9937L121.618 34.5967Z" fill="white"/>
</g>
<path d="M128.737 49.1323C128.737 51.2196 129.012 64.7166 129.012 64.7166C129.065 65.3162 129.637 66.4227 129.513 68.7284C129.343 71.863 129.069 80.5711 129.069 80.5711C129.069 80.5711 128.026 81.5888 126.555 80.5711C126.555 80.5711 124.542 68.7469 124.146 65.6418C123.797 62.9328 123.209 55.5755 123.209 55.5755L121.151 64.2392C121.151 64.2392 121.527 66.2747 121.591 67.7106C121.655 69.1466 121.215 77.4513 121.215 77.4513C120.855 77.6726 120.442 77.7976 120.018 77.8138C119.593 77.83 119.172 77.737 118.795 77.5438C118.795 77.5438 117.012 65.4124 116.782 64.1134C116.553 62.8144 118.348 49.1323 118.348 49.1323H128.737Z" fill="#AAD7C2"/>
<path opacity="0.2" d="M128.737 49.1323C128.737 51.2196 129.012 64.7166 129.012 64.7166C129.065 65.3162 129.637 66.4227 129.513 68.7284C129.343 71.863 129.069 80.5711 129.069 80.5711C129.069 80.5711 128.026 81.5888 126.555 80.5711C126.555 80.5711 124.542 68.7469 124.146 65.6418C123.797 62.9328 123.209 55.5755 123.209 55.5755L121.151 64.2392C121.151 64.2392 121.527 66.2747 121.591 67.7106C121.655 69.1466 121.215 77.4513 121.215 77.4513C120.855 77.6726 120.442 77.7976 120.018 77.8138C119.593 77.83 119.172 77.737 118.795 77.5438C118.795 77.5438 117.012 65.4124 116.782 64.1134C116.553 62.8144 118.348 49.1323 118.348 49.1323H128.737Z" fill="black"/>
<path d="M125.396 34.6619C127.387 35.132 129.912 35.9241 130.8 37.7304C131.688 39.5366 133.058 42.4644 133.058 42.4644L129.761 44.3817L128.738 42.6495V49.1342C127.18 50.7998 121.746 51.5771 118.344 49.1342V38.4595C118.344 36.7606 119.307 34.7138 121.96 34.562L125.396 34.6619Z" fill="#AAD7C2"/>
<path opacity="0.7" d="M125.396 34.6619C127.387 35.132 129.912 35.9241 130.8 37.7304C131.688 39.5366 133.058 42.4644 133.058 42.4644L129.761 44.3817L128.738 42.6495V49.1342C127.18 50.7998 121.746 51.5771 118.344 49.1342V38.4595C118.344 36.7606 119.307 34.7138 121.96 34.562L125.396 34.6619Z" fill="white"/>
<path d="M126.145 25.9505C126.323 25.9303 126.504 25.9504 126.674 26.0094C126.844 26.0684 126.997 26.1647 127.123 26.291C127.545 26.7129 127.458 27.4976 127.123 29.2963L125.821 29.4443L126.145 25.9505Z" fill="#263238"/>
<path d="M118.577 25.447C118.298 25.4504 118.021 25.3962 117.764 25.2877C117.365 25.0618 117.26 25.5063 117.478 25.8952C117.623 26.1727 117.837 26.4091 118.1 26.5822C118.364 26.7553 118.668 26.8593 118.983 26.8843C118.983 26.8287 119.36 25.8841 119.36 25.8841L118.577 25.447Z" fill="#263238"/>
<path d="M125.535 29.4437C125.727 29.5585 126.002 29.1921 126.239 28.9478C126.332 28.8428 126.452 28.7628 126.585 28.7155C126.719 28.6681 126.863 28.6549 127.003 28.6771C127.143 28.6993 127.276 28.7561 127.387 28.8423C127.499 28.9285 127.587 29.0412 127.642 29.1699C128.038 29.9878 127.142 31.0795 126.615 31.4385C126.468 31.5636 126.284 31.6399 126.09 31.6565C125.896 31.6731 125.702 31.6292 125.535 31.531L125.396 34.6619C125.163 35.1636 124.808 35.6007 124.361 35.934C123.915 36.2673 123.391 36.4864 122.837 36.5715C120.955 36.8195 121.351 35.3058 121.964 34.562V33.4221C121.497 33.5216 121.017 33.5466 120.541 33.4961C120.297 33.4332 119.717 32.756 119.341 31.9677C118.92 31.098 118.212 29.5548 118.844 26.9457C119.514 24.1442 122.574 24.0591 124.402 25.1878C126.231 26.3166 125.535 29.4437 125.535 29.4437Z" fill="#FFA8A7"/>
<path d="M125.535 29.7637C125.629 29.7637 126.002 29.164 126.239 28.9493C126.574 28.6495 126.145 25.9511 126.145 25.9511C126.145 25.9511 126.48 24.9295 125.821 24.2484C125.163 23.5673 123.891 23.6858 122.957 23.6525C121.812 23.6581 120.678 23.4339 119.623 22.9936C118.299 22.4273 118.201 22.3606 118.035 22.9344C117.87 23.5081 117.809 24.8147 118.6 25.692L119.258 25.9326C119.258 25.9326 119.612 26.2398 120.846 26.3879C121.987 26.4731 123.134 26.4521 124.271 26.325C124.628 26.2768 124.703 26.6174 124.895 27.5502C125.069 28.3719 125.208 29.76 125.535 29.7637Z" fill="#263238"/>
<path d="M126.141 26.1621L127.307 25.5433C127.27 25.4661 127.218 25.3972 127.153 25.3407C127.088 25.2842 127.012 25.2414 126.929 25.2147C126.847 25.188 126.76 25.1781 126.674 25.1855C126.587 25.1929 126.503 25.2176 126.427 25.258C126.27 25.3435 126.153 25.4852 126.1 25.6536C126.047 25.822 126.061 26.0041 126.141 26.1621V26.1621Z" fill="#263238"/>
<path d="M121.964 33.4229C122.762 33.2751 123.544 33.0547 124.301 32.7645C124.657 32.5833 124.949 32.2993 125.136 31.9507C125.045 32.2993 124.884 32.6264 124.662 32.9125C124.218 33.4673 121.964 33.8779 121.964 33.8779V33.4229Z" fill="#F28F8F"/>
<path d="M122.385 29.0178C122.384 29.0635 122.392 29.109 122.408 29.1516C122.425 29.1942 122.45 29.233 122.483 29.2658C122.515 29.2986 122.554 29.3247 122.596 29.3425C122.639 29.3603 122.685 29.3695 122.732 29.3695C122.808 29.3754 122.884 29.3583 122.95 29.3206C123.016 29.2829 123.069 29.2262 123.102 29.1582C123.134 29.0902 123.145 29.014 123.132 28.9399C123.12 28.8657 123.085 28.797 123.032 28.743C122.978 28.689 122.91 28.6522 122.835 28.6375C122.76 28.6228 122.682 28.6309 122.612 28.6608C122.542 28.6906 122.482 28.7408 122.442 28.8046C122.401 28.8683 122.382 28.9427 122.385 29.0178V29.0178Z" fill="#263238"/>
<path d="M122.75 27.7299L123.503 28.1328C123.555 28.0327 123.566 27.9167 123.534 27.8088C123.502 27.7008 123.429 27.6091 123.33 27.5525C123.28 27.5246 123.226 27.5071 123.169 27.501C123.112 27.4949 123.055 27.5003 123.001 27.517C122.946 27.5336 122.896 27.5611 122.853 27.5978C122.81 27.6344 122.775 27.6794 122.75 27.7299V27.7299Z" fill="#263238"/>
<path d="M122.412 31.3301L121.618 31.6225C121.635 31.6745 121.664 31.7224 121.7 31.7636C121.737 31.8048 121.782 31.8385 121.832 31.8626C121.882 31.8867 121.936 31.9008 121.992 31.904C122.047 31.9073 122.103 31.8997 122.156 31.8817C122.262 31.8395 122.348 31.7587 122.395 31.6561C122.443 31.5535 122.449 31.4368 122.412 31.3301V31.3301Z" fill="#F28F8F"/>
<path d="M119.292 28.0156L119.966 27.5003C119.934 27.4554 119.893 27.4173 119.846 27.3883C119.799 27.3594 119.746 27.3402 119.692 27.3318C119.637 27.3235 119.581 27.3263 119.527 27.3399C119.473 27.3536 119.423 27.3779 119.379 27.4113C119.288 27.4816 119.228 27.5837 119.212 27.6963C119.196 27.8089 119.225 27.9233 119.292 28.0156V28.0156Z" fill="#263238"/>
<path d="M119.499 28.9233C119.499 28.9681 119.508 29.0125 119.525 29.0539C119.543 29.0953 119.568 29.133 119.6 29.1647C119.633 29.1964 119.671 29.2215 119.713 29.2387C119.755 29.2558 119.8 29.2646 119.845 29.2646C119.891 29.2646 119.936 29.2558 119.978 29.2387C120.02 29.2215 120.058 29.1964 120.09 29.1647C120.122 29.133 120.148 29.0953 120.165 29.0539C120.183 29.0125 120.191 28.9681 120.191 28.9233C120.193 28.8775 120.185 28.8319 120.168 28.7892C120.152 28.7465 120.126 28.7076 120.094 28.6747C120.062 28.6418 120.023 28.6157 119.98 28.5978C119.938 28.58 119.892 28.5708 119.845 28.5708C119.752 28.5728 119.663 28.6109 119.599 28.6769C119.534 28.7429 119.498 28.8314 119.499 28.9233V28.9233Z" fill="#263238"/>
<path d="M121.264 28.5962L121.151 30.6519L120.063 30.2852L121.264 28.5962Z" fill="#F28F8F"/>
<path d="M112.202 40.957L121.076 43.2553L123.695 54.0879L115.258 51.6786L112.202 40.957Z" fill="#AAD7C2"/>
<path d="M116.071 48.126C115.915 48.4002 115.678 48.622 115.393 48.7625C115.107 48.9031 114.785 48.956 114.468 48.9144L114.34 48.4665L116.071 48.126Z" fill="#AAD7C2"/>
<path d="M118.054 48.4668C118.092 48.7555 118.697 49.2885 119.717 49.6216C120.876 49.9917 122.656 49.8029 122.656 49.8029L122.498 49.2626L118.054 48.4668Z" fill="#AAD7C2"/>
<path opacity="0.43" d="M114.814 42.5264L114.739 42.193C114.701 42.0078 115.22 42.0004 115.905 42.1745L117.211 42.5079C117.896 42.6857 118.479 42.9746 118.521 43.1598L118.596 43.4932L114.814 42.5264Z" fill="#485350"/>
<path d="M114.182 41.2722C114.159 41.1574 114.37 41.1278 114.656 41.2056L115.19 41.3611C115.19 41.3611 115.036 40.6206 116.188 40.8909C116.495 40.9355 116.785 41.0574 117.03 41.2449C117.276 41.4323 117.468 41.6789 117.587 41.9608L118.141 42.1163C118.445 42.2015 118.72 42.3606 118.758 42.4865L118.822 42.6938L114.25 41.5092L114.182 41.2722Z" fill="#37474F"/>
<path d="M114.814 41.6297C115.232 41.7297 115.405 41.7853 115.469 42.0668C115.533 42.3483 115.57 42.6298 115.57 42.6298L117.591 43.1558C117.591 43.1558 117.493 42.7446 117.463 42.5853C117.433 42.4261 117.501 42.3298 117.84 42.4113L117.866 42.2853L114.694 41.4927L114.814 41.6297Z" fill="#37474F"/>
<path d="M114.743 42.5597L114.671 42.2262C114.63 42.041 115.149 42.0336 115.834 42.2077L117.14 42.5412C117.824 42.7153 118.412 43.0043 118.453 43.1895L118.524 43.5229L114.743 42.5597Z" fill="#37474F"/>
<path d="M133.822 48.4656L130.841 46.1972C130.841 46.1972 124.594 47.3518 123.891 47.4073C123.187 47.4628 122.63 46.7782 122.363 46.0973C122.096 45.4163 121.554 45.5015 121.554 45.5015C121.554 45.5015 121.761 46.3674 121.828 46.6412C121.896 46.9151 120.267 47.1408 119.33 46.83C118.393 46.5191 117.034 46.9706 117.873 48.2288C118.713 49.487 120.353 49.6276 121.49 49.6313C121.965 49.6268 122.44 49.5946 122.912 49.5351C123.289 49.4907 123.665 49.4537 124.015 49.4278C126.34 49.265 132.764 48.7913 133.822 48.4656Z" fill="#FFA8A7"/>
<path d="M113.102 44.1246L113.497 45.5053C113.572 45.7719 114.603 46.2457 115.258 46.4308C115.913 46.6158 116.624 46.8009 116.315 47.7152C116.029 48.5407 114.957 48.7295 114.411 48.7073C114.044 48.6462 113.7 48.4863 113.419 48.2452C113.139 48.0041 112.931 47.6913 112.819 47.3414C112.443 46.2864 112.646 45.1574 112.496 44.5392C112.345 43.921 112.778 43.7582 113.102 44.1246Z" fill="#F28F8F"/>
<path d="M126.664 82.2803V81.9657C126.453 82.0582 125.956 83.9124 125.076 84.7006C124.376 85.3298 123.42 86.0589 123.194 86.7583C122.969 87.4578 124.526 87.8908 125.181 87.7761C125.934 87.6428 127.262 87.1173 127.593 86.6288C127.925 86.1403 128.079 85.4186 128.346 85.0596C128.613 84.7006 129.234 84.3195 129.381 83.8902C129.425 83.5031 129.381 83.1114 129.253 82.7429C129.151 82.3543 129.038 81.9324 128.907 81.9657C128.907 82.0138 128.907 82.2063 128.907 82.2063C128.584 82.452 128.186 82.5825 127.778 82.5764C127.45 82.5875 126.66 82.5246 126.664 82.2803Z" fill="#37474F"/>
<path d="M118.953 78.8199C118.837 78.8199 118.743 78.9828 118.491 79.253C118.11 79.6313 117.667 79.9441 117.181 80.1783C116.349 80.5891 114.735 81.2183 114.001 81.544C113.542 81.7476 113.565 82.2842 114.039 82.5988C114.513 82.9134 115.653 83.1318 117.023 82.8283C117.776 82.6655 118.743 81.9881 119.356 82.0215C119.969 82.0548 121.121 82.0511 121.576 81.7439C122.032 81.4367 121.847 80.7779 121.719 80.2116C121.591 79.6453 121.381 78.6534 121.174 78.6941V78.8902C120.906 79.2863 119.544 79.4491 118.957 79.1567L118.953 78.8199Z" fill="#37474F"/>
<path d="M22.7342 77.4909L24.1228 79.3908C23.4898 79.6785 22.7992 79.8228 22.102 79.8131C20.8602 79.8612 20.5177 79.4427 20.4726 79.3612C20.2618 78.9205 20.5892 78.1205 20.6795 77.4316L22.7342 77.4909Z" fill="#37474F"/>
<path d="M20.4725 75.5821C20.4725 75.5821 20.6833 77.3065 20.6983 77.6765C20.7134 78.0465 22.4105 78.1686 22.7342 77.4915L22.7831 75.3823L20.4725 75.5821Z" fill="#F28F8F"/>
<path d="M20.4724 41.6045C19.3134 43.3809 18.2146 44.9352 17.9737 46.941C17.477 51.1562 19.1027 55.9746 19.4526 59.0906C18.7946 59.9797 18.4141 61.038 18.3576 62.1363C18.3576 63.4242 20.4724 75.5812 20.4724 75.5812C20.4724 75.5812 22.0078 76.0438 22.783 75.3813L24.2356 53.0176L23.483 50.2939L20.4724 41.6045Z" fill="#AAD7C2"/>
<path opacity="0.5" d="M20.4724 41.6045C19.3134 43.3809 18.2146 44.9352 17.9737 46.941C17.477 51.1562 19.1027 55.9746 19.4526 59.0906C18.7946 59.9797 18.4141 61.038 18.3576 62.1363C18.3576 63.4242 20.4724 75.5812 20.4724 75.5812C20.4724 75.5812 22.0078 76.0438 22.783 75.3813L24.2356 53.0176L23.483 50.2939L20.4724 41.6045Z" fill="white"/>
<path d="M31.1861 33.2749L38.829 36.883L34.2417 47.0264L27.1144 42.9816L31.1861 33.2749Z" fill="#AAD7C2"/>
<path d="M37.9297 37.0686L33.9709 45.7144L28.4843 42.6055L31.5964 34.0967L37.9297 37.0686Z" fill="#AAD7C2"/>
<path d="M31.5963 34.0967L37.9296 37.0688L33.6547 45.8076L27.6638 42.4431L31.5963 34.0967Z" fill="white"/>
<path d="M32.9736 35.3482L33.1204 35.0374C33.2032 34.8672 33.7263 34.9375 34.2907 35.2002L35.3708 35.7033C35.9352 35.9623 36.3228 36.3174 36.2438 36.4876L36.0933 36.7983L32.9736 35.3482Z" fill="#E0E0E0"/>
<path d="M17.8796 36.9206C17.3227 38.4823 16.2201 40.9619 16.5738 41.4615C16.9276 41.9611 19.05 41.8538 20.2316 41.8094C21.7368 41.7539 22.9862 41.6946 22.9862 41.6946L22.7341 39.1041H20.5966L21.5374 36.4839L17.8796 36.9206Z" fill="#F28F8F"/>
<path d="M20.021 31.3682C19.242 32.6266 17.6691 37.0684 17.6691 37.0684C18.1061 37.5559 18.6858 37.8985 19.3286 38.0492C19.8899 38.2187 20.4865 38.2416 21.0596 38.1159L22.7981 33.8592L20.021 31.3682Z" fill="#AAD7C2"/>
<path opacity="0.4" d="M20.021 31.3682C19.242 32.6266 17.6691 37.0684 17.6691 37.0684C18.1061 37.5559 18.6858 37.8985 19.3286 38.0492C19.8899 38.2187 20.4865 38.2416 21.0596 38.1159L22.7981 33.8592L20.021 31.3682Z" fill="black"/>
<path d="M27.7993 32.1616C29.1653 32.565 29.997 32.6353 31.506 34.9188C33.015 37.2022 36.319 41.7321 36.6464 42.2762C37.1017 43.0163 37.2974 43.9342 36.9061 44.6299C36.5147 45.3257 35.4723 45 33.9746 43.701C32.4769 42.402 29.6545 38.9195 29.6545 38.9195C29.6545 38.9195 26.7118 35.659 27.7993 32.1616Z" fill="#FFA8A7"/>
<path d="M26.708 29.2L26.3392 32.4094L23.1179 32.7759L23.5846 28.5151L26.708 29.2Z" fill="#FFA8A7"/>
<path d="M19.8177 24.5119C20.0849 21.5515 21.6993 20.3267 22.9825 20.0344C25.5302 19.4423 27.8031 20.3526 28.8342 22.1103C29.1051 22.5729 29.5605 24.3047 28.6535 25.326C27.7466 26.3473 19.8177 24.5119 19.8177 24.5119" fill="#263238"/>
<path d="M29.0864 25.5527C29.0864 25.5527 29.7561 26.663 29.6545 26.7888C29.4765 26.8906 29.2816 26.9607 29.0789 26.9961L29.0864 25.5527Z" fill="#F28F8F"/>
<path d="M27.0543 21.9843C27.7467 22.3877 28.9358 23.1243 29.0976 25.7154C29.267 28.3768 28.7514 29.1948 28.345 29.5206C28.0854 29.7426 26.7532 29.6686 26.0872 29.428C25.2706 29.1245 23.453 28.2991 22.6703 26.8851C21.7671 25.2231 21.6881 23.0725 22.8848 22.2989C23.4949 21.9013 24.1982 21.6636 24.9279 21.6086C25.6577 21.5535 26.3896 21.6828 27.0543 21.9843V21.9843Z" fill="#FFA8A7"/>
<path d="M27.2574 22.1174C27.2574 22.1174 27.7353 24.5638 26.9074 26.0443C26.9074 26.0443 26.5311 25.0783 25.6882 25.3041C24.8452 25.5298 24.8565 26.618 25.4775 27.2102C25.6347 27.3787 25.8372 27.5 26.0616 27.5603C26.286 27.6205 26.5231 27.6172 26.7456 27.5507C26.6286 28.3126 26.2674 29.018 25.7145 29.5641C24.8369 29.7638 23.9198 29.7155 23.0689 29.4247C22.218 29.134 21.4679 28.6126 20.9052 27.9208C19.0237 25.7223 19.5166 21.9989 22.5008 21.1995C25.485 20.4 27.2574 22.1174 27.2574 22.1174Z" fill="#263238"/>
<path d="M24.0438 78.4793C24.0438 78.4793 25.7297 78.372 26.8925 78.2277C28.0552 78.0834 28.9772 78.6421 28.7025 79.1158C28.4278 79.5894 27.7881 79.9779 26.7908 80.3072C25.9366 80.5921 24.9093 80.7956 24.0212 81.0472C23.1331 81.2988 22.516 81.6244 22.0005 81.4505C21.4247 81.2544 21.1763 81.0287 21.2253 80.6143C21.3509 80.0248 21.5067 79.4419 21.6919 78.8679L24.0438 78.4793Z" fill="#37474F"/>
<path d="M22.181 76.644L21.5751 79.2604C21.5751 79.2604 21.5187 79.5786 22.9035 79.7821C24.2884 79.9857 26.4634 79.0716 26.836 78.8829C27.2085 78.6942 27.2499 78.3278 25.8877 78.4018C24.5254 78.4758 24.0438 78.4795 24.0438 78.4795L24.4991 77.3176L22.181 76.644Z" fill="#FFA8A7"/>
<path d="M24.2356 53.0185L23.483 50.2946C22.0419 49.9215 20.652 49.3784 19.3435 48.6772C19.3435 48.6772 20.1262 50.0799 22.354 50.846L23.5244 54.3471L23.626 62.356L24.2356 53.0185Z" fill="#AAD7C2"/>
<path d="M20.4725 41.6045C19.8516 42.6 18.3689 44.306 18.6813 45.9418C19.0576 47.9291 20.1526 49.3206 23.4717 50.2939L26.5876 61.3961C26.5876 61.3961 24.9657 62.8764 24.4689 64.3086C23.9722 65.7408 22.1809 76.6543 22.1809 76.6543C22.1809 76.6543 22.7341 77.5425 24.484 77.3279C24.484 77.3279 30.584 63.6351 31.0167 62.7432C31.533 61.8452 31.7153 60.7984 31.5323 59.7826C31.3404 58.343 29.2744 42.6259 29.2744 42.6259L20.4725 41.6045Z" fill="#AAD7C2"/>
<path opacity="0.5" d="M20.4725 41.6045C19.8516 42.6 18.3689 44.306 18.6813 45.9418C19.0576 47.9291 20.1526 49.3206 23.4717 50.2939L26.5876 61.3961C26.5876 61.3961 24.9657 62.8764 24.4689 64.3086C23.9722 65.7408 22.1809 76.6543 22.1809 76.6543C22.1809 76.6543 22.7341 77.5425 24.484 77.3279C24.484 77.3279 30.584 63.6351 31.0167 62.7432C31.533 61.8452 31.7153 60.7984 31.5323 59.7826C31.3404 58.343 29.2744 42.6259 29.2744 42.6259L20.4725 41.6045Z" fill="white"/>
<path d="M19.908 31.5985C20.1488 30.9694 20.9165 30.4439 21.6089 30.6289C23.7802 31.2099 27.1558 31.976 27.7992 32.161C27.7992 32.161 27.5133 36.972 30.012 38.4079C29.8953 39.322 29.2593 42.6008 29.2593 42.6008C29.2593 42.6008 26.2488 44.0367 23.7802 43.341C21.3116 42.6452 20.4725 41.6164 20.4725 41.6164L21.7105 39.6328C21.4471 38.9852 20.4235 36.798 19.765 34.7626C19.5228 33.7144 19.5722 32.6214 19.908 31.5985V31.5985Z" fill="#AAD7C2"/>
<path opacity="0.2" d="M19.908 31.5985C20.1488 30.9694 20.9165 30.4439 21.6089 30.6289C23.7802 31.2099 27.1558 31.976 27.7992 32.161C27.7992 32.161 27.5133 36.972 30.012 38.4079C29.8953 39.322 29.2593 42.6008 29.2593 42.6008C29.2593 42.6008 26.2488 44.0367 23.7802 43.341C21.3116 42.6452 20.4725 41.6164 20.4725 41.6164L21.7105 39.6328C21.4471 38.9852 20.4235 36.798 19.765 34.7626C19.5228 33.7144 19.5722 32.6214 19.908 31.5985V31.5985Z" fill="black"/>
<path opacity="0.25" d="M21.3719 38.8398C22.401 39.4486 23.4797 39.9722 24.5969 40.4053C23.5831 40.386 22.5906 40.1162 21.7106 39.6207L21.3719 38.8398Z" fill="#AAD7C2"/>
<path d="M22.0116 20.6911C22.0116 20.6911 20.9805 18.9627 18.4554 19.4105C15.9303 19.8584 14.9067 22.4935 14.9444 24.1627C14.982 25.8319 15.5502 26.9978 14.0299 28.9742C13.7303 29.3639 13.5191 29.8124 13.4107 30.2892C13.3023 30.7661 13.2992 31.2603 13.4016 31.7384C13.5039 32.2166 13.7094 32.6675 14.0041 33.0609C14.2988 33.4543 14.6759 33.7809 15.1099 34.0188C17.1383 35.1291 17.6313 33.1971 17.1609 31.5464C16.619 29.6552 18.6323 29.3258 19.1704 27.8934C19.7085 26.4611 18.6511 23.4521 19.3285 22.4306C20.0811 21.3203 21.0971 21.4757 21.5864 21.8532L22.0116 20.6911Z" fill="#263238"/>
<path d="M27.7994 32.1616C28.4742 32.3027 29.1334 32.5084 29.7675 32.776C30.5953 33.1756 33.8241 38.1606 33.8241 38.1606C33.8241 38.1606 33.5945 40.0369 30.9528 40.7808L29.3912 38.8416C29.3912 38.8416 27.0957 35.4701 27.7994 32.1616Z" fill="#AAD7C2"/>
<path opacity="0.1" d="M27.7994 32.1616C28.4742 32.3027 29.1334 32.5084 29.7675 32.776C30.5953 33.1756 33.8241 38.1606 33.8241 38.1606C33.8241 38.1606 33.5945 40.0369 30.9528 40.7808L29.3912 38.8416C29.3912 38.8416 27.0957 35.4701 27.7994 32.1616Z" fill="black"/>
<path d="M29.8502 39.4267C29.1563 38.6325 28.6328 37.7086 28.311 36.7104C28.311 36.7104 28.311 38.8642 29.7524 39.978L29.8502 39.4267Z" fill="#AAD7C2"/>
<path opacity="0.4" d="M29.8502 39.4267C29.1563 38.6325 28.6328 37.7086 28.311 36.7104C28.311 36.7104 28.311 38.8642 29.7524 39.978L29.8502 39.4267Z" fill="black"/>
<path d="M33.2484 34.0081C33.2973 33.9008 33.5268 33.9082 33.7601 34.0081L34.1816 34.2117C34.1816 34.2117 34.509 33.5417 35.4874 33.9452C36.4659 34.3487 36.1648 35.1223 36.1648 35.1223L36.6126 35.3481C36.861 35.4703 37.0266 35.6591 36.9889 35.7701L36.9137 35.9663L33.1505 34.1895L33.2484 34.0081Z" fill="#485350"/>
<path d="M33.6322 34.43C33.9859 34.5855 34.1214 34.6595 34.0085 34.9261C33.8956 35.1926 33.7338 35.4481 33.7338 35.4481L35.397 36.2329C35.397 36.2329 35.5739 35.8627 35.6492 35.6998C35.7244 35.5369 35.8599 35.474 36.1233 35.5999L36.2362 35.4888L33.6021 34.2856L33.6322 34.43Z" fill="#485350"/>
<path d="M32.9435 35.2547L33.094 34.9439C33.1768 34.7699 33.6999 34.8439 34.2644 35.1067L35.3444 35.6101C35.9051 35.8691 36.2965 36.2207 36.2137 36.3947L36.0632 36.7056L32.9435 35.2547Z" fill="#485350"/>
</svg>
