<svg width="224" height="189" viewBox="0 0 224 189" fill="none" xmlns="http://www.w3.org/2000/svg">
<path d="M112.233 121.659C112.233 121.659 111.093 116.707 106.496 116.956C101.9 117.204 100.784 117.204 98.8006 116.956C96.8169 116.707 93.7366 114.319 92.8691 115.06C92.0015 115.801 92.4841 117.424 94.0973 118.857C95.7106 120.29 98.4838 121.294 98.4838 121.294L92.6108 122.303C92.6108 122.303 87.3177 119.476 86.0749 119.973C85.7166 120.131 85.4153 120.395 85.2114 120.73C85.0076 121.064 84.9109 121.453 84.9344 121.844C84.9344 121.844 82.7363 120.87 82.1173 121.727C81.4983 122.585 81.3423 123.19 81.9662 123.677C81.9662 123.677 81.5568 123.272 80.4163 123.609C79.4415 123.896 79.5244 125.695 80.4163 126.177L80.7185 126.353C80.7185 126.353 89.0431 131.144 89.2965 131.178C90.7587 131.373 99.7364 130.993 104.357 130.778C105.191 130.739 106.02 130.923 106.76 131.31C107.5 131.697 108.124 132.274 108.568 132.981L116.005 144.776L124.408 135.077L112.233 121.659Z" fill="#EFCCBE"/>
<path d="M97.1435 124.368C96.6983 124.502 96.2438 124.603 95.7836 124.67C94.921 124.831 93.7122 125.045 92.2988 125.284H92.2647H92.2306L90.3493 124.421L85.8604 122.355L84.5055 121.711C84.3323 121.641 84.1686 121.549 84.0181 121.438C84.1985 121.477 84.3737 121.538 84.5396 121.619L85.9286 122.189L87.9708 123.071L90.4516 124.202L92.328 125.074H92.2549C93.6684 124.85 94.8868 124.67 95.7544 124.548C96.2119 124.451 96.6764 124.391 97.1435 124.368Z" fill="#AA6550"/>
<path d="M95.0819 126.575C93.7175 127.097 92.5467 128.026 91.7286 129.236C91.9995 128.534 92.4533 127.917 93.0428 127.449C93.6324 126.981 94.3364 126.679 95.0819 126.575Z" fill="#AA6550"/>
<path d="M104.61 119.635C104.64 119.635 104.664 119.937 104.825 120.424C105.047 121.093 105.437 121.693 105.955 122.169L106.126 122.32L105.902 122.364C105.121 122.513 104.357 122.74 103.621 123.042C102.458 123.52 101.378 124.178 100.419 124.991C99.6828 125.62 99.2929 126.083 99.2588 126.054C99.2246 126.024 99.3319 125.917 99.5025 125.703C99.7492 125.405 100.015 125.124 100.297 124.86C101.24 123.983 102.333 123.283 103.523 122.793C104.276 122.485 105.061 122.261 105.863 122.125L105.804 122.32C105.266 121.813 104.881 121.164 104.693 120.449C104.608 120.186 104.58 119.909 104.61 119.635Z" fill="#AA6550"/>
<path d="M99.1077 121.039C98.0787 121.454 97.0036 121.743 95.9056 121.902C95.0039 122.067 94.1802 122.184 93.5856 122.243C93.2639 122.299 92.9361 122.312 92.6108 122.282C92.6108 122.204 94.073 121.989 95.8569 121.653L98.1476 121.2C98.4605 121.11 98.7826 121.056 99.1077 121.039Z" fill="#AA6550"/>
<path d="M91.29 127.541C90.816 127.383 90.3521 127.195 89.9009 126.98C89.048 126.629 87.8539 126.176 86.5233 125.703C85.1927 125.231 83.9938 124.777 83.1408 124.412C82.6692 124.24 82.2167 124.02 81.7908 123.754C82.2722 123.885 82.7444 124.048 83.2042 124.241L86.6159 125.46C87.9465 125.947 89.1357 126.435 89.974 126.815C90.4389 127.006 90.8804 127.249 91.29 127.541Z" fill="#AA6550"/>
<path d="M93.4053 127.342C92.2826 127.857 91.0201 127.982 89.8181 127.698C89.8181 127.625 90.6369 127.669 91.6166 127.566C92.5962 127.464 93.3858 127.269 93.4053 127.342Z" fill="#AA6550"/>
<path d="M139.722 98.8682C139.722 98.8682 132.289 103.143 130.734 116.205C129.925 123.028 126.957 135.676 126.957 135.676L120.85 128.823L111.624 139.38C111.624 139.38 121.591 160.654 127.22 166.454C132.85 172.254 144.016 174.043 144.016 174.043L146.263 138.488L139.722 98.8682Z" fill="#13CE67"/>
<path d="M196.079 93.8187L178.908 90.8115L157.019 91.8984C157.019 91.8984 138.791 99.4237 139.722 99.6966L136.169 134.876L144.971 151.876L142.783 188.094H203.219L200.065 162.916L196.113 132.576L203.614 156.063L204.749 188.094H221.564C223.343 174.145 223.899 154.767 223.899 154.767L210.174 109.927C208.293 103.683 204.147 98.3675 198.55 95.0226C197.767 94.5416 196.94 94.1384 196.079 93.8187Z" fill="#13CE67"/>
<path d="M139.527 117.441L139.566 117.622C139.59 117.753 139.624 117.929 139.663 118.153C139.746 118.64 139.868 119.313 140.019 120.19C140.316 121.959 140.745 124.523 141.233 127.696C141.72 130.869 142.295 134.656 142.783 138.867C143.27 143.078 143.801 147.728 144.084 152.621C144.108 153.079 144.133 153.533 144.157 153.952C143.904 163.451 143.611 171.985 143.343 178.146C143.207 181.221 143.085 183.707 142.978 185.422C142.922 186.27 142.878 186.92 142.846 187.372C142.846 187.586 142.817 187.757 142.807 187.884C142.811 187.942 142.811 188.001 142.807 188.059C142.802 188.001 142.802 187.942 142.807 187.884C142.807 187.752 142.807 187.586 142.807 187.367C142.807 186.904 142.856 186.241 142.895 185.418C142.958 183.687 143.056 181.207 143.177 178.136C143.397 171.975 143.665 163.441 143.913 153.947C143.913 153.528 143.865 153.074 143.84 152.616C143.558 147.742 143.065 143.088 142.558 138.877C142.052 134.666 141.515 130.879 141.048 127.706C140.58 124.533 140.18 121.974 139.912 120.185L139.605 118.138C139.576 117.914 139.551 117.739 139.532 117.607C139.525 117.552 139.523 117.497 139.527 117.441Z" fill="#263238"/>
<path d="M192.209 118.528C192.179 118.457 192.161 118.381 192.155 118.304C192.126 118.124 192.087 117.909 192.043 117.651C192.043 117.505 191.999 117.349 191.975 117.163C191.95 116.978 191.946 116.803 191.931 116.598C191.89 116.138 191.876 115.676 191.887 115.214C191.887 114.956 191.887 114.687 191.887 114.41C191.887 114.132 191.936 113.839 191.965 113.537C192.027 112.897 192.124 112.261 192.257 111.632C192.573 110.189 193.04 108.784 193.651 107.44C194.291 106.109 195.067 104.848 195.967 103.677C196.366 103.168 196.792 102.68 197.243 102.215C197.453 102.001 197.648 101.786 197.858 101.596L198.467 101.065C198.813 100.761 199.176 100.476 199.554 100.212C199.719 100.09 199.87 99.9732 200.041 99.8806L200.446 99.632L201.016 99.2957C201.081 99.2552 201.149 99.2209 201.221 99.1934C201.221 99.1934 201.167 99.2518 201.04 99.3396L200.504 99.7149L200.109 99.978C199.968 100.08 199.822 100.202 199.666 100.324C199.298 100.598 198.945 100.891 198.608 101.201L198.018 101.738C197.814 101.928 197.624 102.147 197.419 102.361C196.978 102.825 196.563 103.313 196.176 103.824C194.378 106.14 193.12 108.829 192.496 111.695C192.359 112.316 192.255 112.944 192.184 113.576C192.15 113.874 192.106 114.156 192.092 114.434C192.077 114.712 192.067 114.975 192.058 115.233C192.019 115.721 192.058 116.208 192.058 116.603C192.058 116.808 192.058 116.993 192.058 117.168C192.058 117.344 192.092 117.495 192.111 117.656C192.136 117.914 192.155 118.143 192.17 118.309C192.192 118.38 192.205 118.454 192.209 118.528Z" fill="#263238"/>
<path d="M203.594 155.24C203.545 155.148 203.507 155.049 203.482 154.948C203.409 154.728 203.316 154.46 203.204 154.1C202.965 153.334 202.634 152.277 202.229 150.98C201.406 148.344 200.28 144.698 198.969 140.692C197.658 136.685 196.454 133.059 195.479 130.481C194.992 129.199 194.48 128.195 194.178 127.483C194.027 127.127 193.91 126.85 193.837 126.66C193.797 126.563 193.764 126.464 193.739 126.362C193.798 126.449 193.847 126.543 193.885 126.64L194.266 127.444C194.597 128.141 195.114 129.131 195.645 130.413C196.668 132.991 197.901 136.602 199.208 140.614C200.514 144.625 201.62 148.275 202.405 150.927C202.795 152.252 203.102 153.33 203.307 154.075C203.399 154.426 203.477 154.709 203.536 154.933C203.566 155.033 203.586 155.136 203.594 155.24Z" fill="#263238"/>
<path d="M216.262 154.118C216.262 154.162 215.608 153.977 214.551 153.811C213.175 153.603 211.778 153.57 210.393 153.714C209.01 153.864 207.652 154.192 206.353 154.689C205.378 155.079 204.774 155.4 204.749 155.361C204.867 155.256 204.998 155.168 205.139 155.098C205.509 154.883 205.892 154.691 206.285 154.523C207.584 153.966 208.959 153.605 210.364 153.451C211.77 153.296 213.191 153.354 214.58 153.621C215.001 153.698 215.416 153.802 215.823 153.933C215.977 153.974 216.125 154.037 216.262 154.118Z" fill="#263238"/>
<path d="M140.238 151.638C140.073 151.422 139.921 151.196 139.785 150.96C139.488 150.527 139.049 149.908 138.46 149.181C137.295 147.719 135.584 145.77 133.683 143.611C131.782 141.451 130.062 139.516 128.848 138.079C128.244 137.362 127.756 136.777 127.43 136.363C127.25 136.159 127.087 135.941 126.943 135.71C127.147 135.889 127.335 136.086 127.503 136.3L128.965 137.962L133.839 143.44C135.74 145.589 137.431 147.563 138.567 149.069C139.022 149.659 139.445 150.272 139.834 150.907C139.97 151.131 140.058 151.316 140.122 151.443C140.185 151.57 140.248 151.633 140.238 151.638Z" fill="#263238"/>
<g opacity="0.3">
<path opacity="0.3" d="M143.597 174.043C143.869 164.198 144.381 155.123 143.489 145.404C143.09 154.031 139.951 164.125 136.788 172.162L143.597 174.043Z" fill="black"/>
</g>
<g opacity="0.3">
<path opacity="0.3" d="M196.093 131.752C196.093 131.752 193.291 125.484 193.481 125.484C193.203 137.211 195.591 150.673 199.978 161.551L196.093 131.752Z" fill="black"/>
</g>
<path d="M188.388 164.991C188.28 165.069 188.168 165.141 188.051 165.206L187.077 165.776C186.224 166.263 184.991 167.004 183.485 167.935C181.979 168.866 180.18 169.963 178.123 171.118C175.918 172.387 173.613 173.476 171.232 174.373C168.842 175.29 166.317 175.804 163.76 175.894C162.639 175.898 161.523 175.733 160.451 175.407C159.514 175.12 158.64 174.66 157.872 174.052C156.741 173.183 155.926 171.968 155.552 170.591C155.46 170.219 155.41 169.839 155.401 169.456C155.399 169.324 155.407 169.192 155.426 169.061C155.448 169.569 155.523 170.074 155.65 170.567C156.053 171.901 156.868 173.074 157.98 173.915C158.738 174.498 159.597 174.935 160.514 175.207C161.569 175.511 162.663 175.657 163.76 175.641C166.288 175.534 168.781 175.019 171.144 174.115C173.513 173.22 175.809 172.143 178.011 170.893C180.049 169.753 181.852 168.661 183.373 167.76C184.893 166.858 186.141 166.146 187.008 165.669L188.017 165.137C188.136 165.077 188.26 165.028 188.388 164.991Z" fill="#263238"/>
<path d="M188.314 150.716C188.273 151.003 188.21 151.287 188.124 151.564C188.048 151.894 187.954 152.219 187.842 152.539C187.715 152.914 187.588 153.353 187.393 153.816C187.198 154.279 187.008 154.79 186.75 155.322C186.492 155.853 186.204 156.413 185.892 156.998C184.471 159.508 182.628 161.754 180.443 163.637C179.956 164.061 179.468 164.47 178.981 164.806C178.494 165.143 178.05 165.464 177.626 165.732C177.202 166 176.812 166.22 176.466 166.424C176.12 166.629 175.813 166.775 175.559 166.912C175.303 167.046 175.037 167.163 174.765 167.263C175.003 167.097 175.254 166.951 175.516 166.824C175.759 166.692 176.061 166.532 176.393 166.337C176.724 166.142 177.124 165.913 177.529 165.62C177.933 165.328 178.396 165.04 178.854 164.68C179.312 164.319 179.8 163.924 180.316 163.5C182.449 161.601 184.258 159.367 185.673 156.886C185.99 156.311 186.302 155.77 186.545 155.234C186.789 154.698 187.033 154.21 187.213 153.772C187.393 153.333 187.554 152.89 187.7 152.519C187.847 152.149 187.949 151.822 188.027 151.544C188.099 151.261 188.195 150.983 188.314 150.716Z" fill="#263238"/>
<path d="M140.39 128.238C140.39 128.306 137.836 127.804 134.721 127.117C131.607 126.43 129.087 125.821 129.107 125.752C129.126 125.684 131.656 126.181 134.775 126.868C137.894 127.556 140.404 128.17 140.39 128.238Z" fill="#FAFAFA"/>
<path d="M140.39 125.381C139.851 125.368 139.314 125.308 138.786 125.201C137.811 125.05 136.447 124.806 134.95 124.523L131.134 123.778C130.602 123.693 130.076 123.572 129.56 123.417C130.099 123.43 130.635 123.49 131.163 123.597C132.138 123.748 133.508 123.992 134.999 124.275L138.815 125.025C139.348 125.107 139.874 125.226 140.39 125.381Z" fill="#FAFAFA"/>
<path d="M192.301 125.766C192.301 125.835 181.33 125.81 167.795 125.708C154.261 125.605 143.294 125.464 143.294 125.396C143.294 125.328 154.266 125.352 167.8 125.454C181.335 125.557 192.301 125.679 192.301 125.766Z" fill="#FAFAFA"/>
<path d="M193.11 128.239C193.11 128.307 181.823 128.366 167.898 128.366C153.973 128.366 142.685 128.307 142.685 128.239C142.685 128.171 153.973 128.112 167.898 128.112C181.823 128.112 193.11 128.166 193.11 128.239Z" fill="#FAFAFA"/>
<path d="M213.659 122.448C213.659 122.448 213.659 122.448 213.717 122.448C213.776 122.448 213.673 122.448 213.644 122.477H213.6V122.429H213.815L213.664 122.482C212.767 122.814 208.994 124.091 204.545 125.787L197.984 128.307L195.996 129.067C195.756 129.172 195.508 129.256 195.255 129.32C195.477 129.185 195.712 129.07 195.957 128.979C196.42 128.775 197.087 128.492 197.906 128.141C199.568 127.449 201.874 126.518 204.442 125.548C208.902 123.852 212.728 122.653 213.639 122.429V122.482H213.581V122.434H213.625C213.654 122.434 213.678 122.434 213.698 122.473L213.659 122.448Z" fill="#FAFAFA"/>
<path d="M213.259 119.298C213.259 119.367 209.004 120.863 203.701 122.642C198.399 124.421 194.085 125.815 194.066 125.751C194.046 125.688 198.321 124.187 203.623 122.403C208.926 120.619 213.235 119.23 213.259 119.298Z" fill="#FAFAFA"/>
<path d="M180.658 90.3535C180.685 90.4834 180.7 90.6156 180.701 90.7483C180.734 91.1243 180.744 91.5019 180.731 91.879C180.679 93.2782 180.387 94.658 179.868 95.9585C179.095 97.8976 177.852 99.6143 176.252 100.954C174.251 102.558 171.802 103.504 169.243 103.66C166.683 103.816 164.138 103.176 161.957 101.827C160.203 100.693 158.761 99.1404 157.76 97.3085C157.086 96.0814 156.628 94.7477 156.405 93.3656C156.346 92.9913 156.31 92.6136 156.298 92.2348C156.284 92.1036 156.284 91.9713 156.298 91.8401C156.329 91.9695 156.347 92.1018 156.352 92.2348C156.352 92.4932 156.425 92.8684 156.508 93.351C156.767 94.7088 157.244 96.0156 157.921 97.2208C158.931 98.9999 160.36 100.506 162.083 101.607C164.228 102.919 166.723 103.539 169.232 103.386C171.741 103.233 174.142 102.312 176.11 100.75C177.432 99.6539 178.515 98.2996 179.293 96.77C180.072 95.2403 180.53 93.5677 180.638 91.8547C180.638 91.3673 180.667 90.9871 180.638 90.7288C180.634 90.6034 180.641 90.4778 180.658 90.3535Z" fill="#FAFAFA"/>
<path d="M121.279 129.832C121.215 130.005 121.128 130.169 121.021 130.319C120.845 130.612 120.572 131.031 120.226 131.543C119.529 132.557 118.515 133.926 117.302 135.364C116.264 136.589 115.164 137.76 114.007 138.873C113.564 139.302 113.198 139.638 112.935 139.848C112.809 139.976 112.667 140.086 112.511 140.174C112.616 140.03 112.735 139.896 112.867 139.775L113.88 138.732C114.738 137.85 115.898 136.612 117.107 135.184C118.316 133.756 119.349 132.41 120.08 131.421L120.938 130.251C121.034 130.098 121.149 129.957 121.279 129.832Z" fill="#FAFAFA"/>
<g opacity="0.3">
<path opacity="0.3" d="M176.339 166.366C173.878 167.765 170.559 167.989 167.596 168.067C167.037 168.117 166.474 168.042 165.948 167.848C165.687 167.746 165.463 167.567 165.305 167.336C165.147 167.105 165.062 166.831 165.061 166.551C165.125 165.879 165.792 165.45 166.411 165.191C168.804 164.217 171.49 164.256 174.005 163.627C178.284 162.55 182.656 159.494 185.99 156.599C183.701 160.651 180.369 164.017 176.339 166.346" fill="black"/>
</g>
<path d="M167.123 101.884C164.35 101.664 161.764 100.4 159.886 98.3475C158.008 96.2952 156.979 93.6072 157.005 90.8256C157.005 88.0865 157.053 85.8933 157.053 85.8933C157.053 85.8933 148.232 84.5237 148.124 75.702C148.017 66.8802 149.543 46.6195 149.543 46.6195C154.558 44.4631 160.059 43.6853 165.476 44.3665C170.893 45.0477 176.03 47.1631 180.355 50.4942L181.662 51.4982L178.971 91.6493C178.875 93.1029 178.491 94.5229 177.842 95.8268C177.192 97.1307 176.29 98.2925 175.188 99.2448C174.085 100.197 172.805 100.921 171.42 101.374C170.036 101.827 168.575 102.001 167.123 101.884Z" fill="#EFCCBE"/>
<path d="M157.039 85.7567C161.112 85.8334 165.116 84.6966 168.541 82.4912C168.541 82.4912 165.826 88.8273 157.019 88.0426L157.039 85.7567Z" fill="#AA6550"/>
<path d="M180.575 60.6278C180.726 60.5644 186.638 58.8342 186.423 64.8681C186.209 70.902 180.214 69.4593 180.209 69.2887C180.204 69.1181 180.575 60.6278 180.575 60.6278Z" fill="#B78876"/>
<path d="M182.144 67.0603C182.173 67.0603 182.246 67.1382 182.422 67.226C182.669 67.3387 182.95 67.3527 183.207 67.265C183.85 67.0505 184.42 66.0562 184.484 64.9694C184.516 64.4538 184.433 63.9375 184.24 63.4585C184.189 63.2682 184.093 63.0931 183.959 62.948C183.826 62.8029 183.66 62.6921 183.475 62.625C183.355 62.5896 183.227 62.5969 183.112 62.6459C182.997 62.6948 182.903 62.7822 182.846 62.8931C182.758 63.0588 182.792 63.1806 182.763 63.1904C182.734 63.2001 182.636 63.088 182.69 62.8395C182.729 62.6918 182.817 62.5615 182.939 62.4691C183.111 62.3499 183.322 62.3011 183.528 62.3326C183.775 62.3886 184.004 62.508 184.191 62.6788C184.378 62.8497 184.518 63.0663 184.596 63.3074C184.835 63.8374 184.941 64.4182 184.903 64.9986C184.83 66.2171 184.167 67.3332 183.289 67.5574C183.123 67.6024 182.949 67.6086 182.78 67.5756C182.611 67.5427 182.452 67.4714 182.315 67.3673C182.149 67.2065 182.125 67.07 182.144 67.0603Z" fill="#AA6550"/>
<path d="M152.745 60.753C152.741 61.0815 152.866 61.3986 153.092 61.6364C153.319 61.8741 153.63 62.0136 153.958 62.0251C154.119 62.0383 154.28 62.0193 154.433 61.969C154.586 61.9187 154.728 61.8382 154.849 61.7324C154.971 61.6265 155.069 61.4973 155.14 61.3525C155.21 61.2077 155.251 61.0503 155.26 60.8895C155.263 60.5613 155.137 60.2449 154.911 60.0074C154.684 59.7699 154.374 59.63 154.046 59.6174C153.886 59.6041 153.724 59.6232 153.571 59.6735C153.418 59.7237 153.277 59.8042 153.155 59.9101C153.034 60.016 152.935 60.1451 152.865 60.2899C152.794 60.4347 152.753 60.5922 152.745 60.753Z" fill="#263238"/>
<path d="M151.215 59.0192C151.37 59.1849 152.321 58.4782 153.681 58.4831C155.041 58.4879 156.03 59.1654 156.176 58.9997C156.249 58.9266 156.088 58.6293 155.655 58.3125C155.068 57.9067 154.37 57.6922 153.656 57.6984C152.956 57.6979 152.273 57.9198 151.707 58.332C151.278 58.6488 151.137 58.9461 151.215 59.0192Z" fill="#263238"/>
<path d="M165.763 61.0518C165.76 61.38 165.885 61.6964 166.112 61.9339C166.338 62.1713 166.649 62.3112 166.977 62.3239C167.137 62.3365 167.298 62.3169 167.451 62.2664C167.604 62.2159 167.745 62.1354 167.866 62.0296C167.987 61.9238 168.086 61.7949 168.157 61.6505C168.227 61.506 168.269 61.3489 168.278 61.1883C168.282 60.8597 168.157 60.5426 167.93 60.3049C167.704 60.0672 167.393 59.9276 167.064 59.9162C166.904 59.9029 166.742 59.922 166.589 59.9723C166.436 60.0226 166.295 60.103 166.174 60.2089C166.052 60.3148 165.953 60.444 165.883 60.5887C165.812 60.7335 165.772 60.891 165.763 61.0518Z" fill="#263238"/>
<path d="M164.54 59.2711C164.696 59.4368 165.651 58.7301 167.006 58.735C168.361 58.7399 169.355 59.4173 169.501 59.2516C169.574 59.1785 169.418 58.8812 168.985 58.5644C168.398 58.1592 167.7 57.9447 166.986 57.9503C166.286 57.9488 165.603 58.1708 165.037 58.5839C164.603 58.9007 164.462 59.198 164.54 59.2711Z" fill="#263238"/>
<path d="M159.617 69.3262C159.617 69.2482 158.784 69.1068 157.419 68.9314C157.073 68.8924 156.741 68.8242 156.683 68.5902C156.656 68.2317 156.737 67.8733 156.917 67.5618C157.243 66.7235 157.58 65.8462 157.94 64.925C159.364 61.1722 160.377 58.1016 160.241 58.0334C160.104 57.9651 158.813 60.9577 157.39 64.7252L156.415 67.3766C156.197 67.7948 156.134 68.276 156.235 68.7364C156.287 68.8554 156.365 68.961 156.464 69.0454C156.563 69.1297 156.679 69.1908 156.805 69.2238C156.995 69.2767 157.192 69.3046 157.39 69.3067C158.759 69.3993 159.612 69.4042 159.617 69.3262Z" fill="#263238"/>
<path d="M164.189 53.9596C164.325 54.33 165.675 54.1546 167.269 54.3447C168.863 54.5347 170.145 54.9734 170.354 54.642C170.452 54.4811 170.228 54.1546 169.706 53.7793C169.013 53.3426 168.23 53.0691 167.416 52.9796C166.602 52.8901 165.779 52.9869 165.008 53.2627C164.428 53.4966 164.13 53.7842 164.189 53.9596Z" fill="#263238"/>
<path d="M151.712 55.0952C151.95 55.4071 152.881 55.0952 154.007 55.0708C155.133 55.0464 156.079 55.2755 156.298 54.9538C156.395 54.7979 156.244 54.4664 155.811 54.1984C155.255 53.8446 154.602 53.6741 153.944 53.711C153.284 53.7222 152.643 53.9385 152.111 54.33C151.736 54.6078 151.604 54.949 151.712 55.0952Z" fill="#263238"/>
<path d="M145.244 41.0398C145.18 40.4903 145.257 39.9335 145.468 39.4219C145.678 38.9103 146.016 38.4607 146.448 38.1155C146.892 37.7904 147.437 37.6344 147.985 37.6755C148.534 37.7166 149.05 37.9521 149.44 38.3396C149.357 37.9711 149.352 37.5892 149.426 37.2186C149.5 36.8481 149.651 36.4973 149.87 36.1889C150.088 35.8805 150.369 35.6215 150.694 35.4286C151.018 35.2357 151.38 35.1133 151.756 35.0693C153.218 34.9815 154.422 36.0684 155.815 36.4486C157.209 36.8287 158.628 36.4973 159.934 35.9612C161.24 35.4251 162.459 34.7086 163.779 34.2261C166.573 33.2073 169.656 33.3321 172.358 34.5732C175.06 35.8143 177.164 38.0716 178.211 40.8546C180.161 40.2502 182.334 41.2299 183.524 42.8626C184.713 44.4954 185.02 46.6448 184.781 48.6528C184.597 50.022 184.258 51.3659 183.772 52.6591C183.772 52.7712 183.772 52.8833 183.772 53.0003C183.679 57.8498 183.134 63.5474 181.062 63.5766C177.456 63.6351 178.313 56.8361 178.313 56.8361C173.888 55.1253 175.535 48.492 174.414 47.4879C173.293 46.4839 171.003 44.1445 161.742 48.8819C158.145 50.7193 153.359 50.6608 150.747 50.0711L150.513 50.0224H150.459C150.436 50.0105 150.411 50.0008 150.386 49.9931C149.546 49.7808 148.744 49.4405 148.007 48.9842C147.143 48.483 146.46 47.7201 146.058 46.8056C145.862 46.3473 145.804 45.8421 145.891 45.3514C145.977 44.8607 146.205 44.4058 146.545 44.0421C145.825 43.1918 145.372 42.1471 145.244 41.0398Z" fill="#263238"/>
<path d="M158.467 73.5C158.656 74.0481 158.922 74.5667 159.256 75.0402C159.426 75.2773 159.644 75.4755 159.896 75.6218C160.148 75.768 160.428 75.8588 160.718 75.8882C161.028 75.8893 161.333 75.8121 161.605 75.6639C161.877 75.5156 162.106 75.3011 162.273 75.0402C162.602 74.5117 162.754 73.8918 162.707 73.271C162.683 72.7153 162.424 72.0525 161.874 71.9842C161.64 71.976 161.408 72.028 161.201 72.1353L158.277 73.3148" fill="#AA6550"/>
<path d="M159.632 75.8919C160.156 75.9292 160.682 75.8647 161.182 75.7019C161.691 75.5024 162.109 75.1224 162.356 74.6345C162.495 74.338 162.571 74.0156 162.577 73.6882C162.584 73.3608 162.522 73.0356 162.395 72.7337C162.328 72.578 162.243 72.4307 162.142 72.295C162.025 72.178 162.044 72.1829 161.922 72.1975C161.801 72.2121 161.61 72.3243 161.435 72.3827L160.948 72.5777C160.324 72.8311 159.758 73.0651 159.286 73.2259C158.311 73.5817 157.726 73.7718 157.702 73.7133C157.677 73.6548 158.223 73.3429 159.139 72.8994C159.598 72.68 160.148 72.412 160.758 72.1488L161.245 71.9343C161.418 71.8521 161.595 71.7789 161.776 71.715C161.917 71.6692 162.069 71.6692 162.21 71.715C162.336 71.7716 162.447 71.8587 162.532 71.9685C162.845 72.3748 163.033 72.863 163.075 73.3741C163.116 73.8852 163.009 74.3975 162.766 74.8489C162.455 75.4248 161.93 75.8542 161.303 76.043C160.897 76.1736 160.462 76.1904 160.046 76.0918C159.754 76.0187 159.617 75.9212 159.632 75.8919Z" fill="#263238"/>
<path d="M174.731 46.639C174.768 46.2841 174.768 45.9264 174.731 45.5716C174.577 44.6097 174.089 43.7329 173.352 43.0957C172.247 42.1606 170.823 41.6906 169.379 41.7846C167.747 41.7846 166.012 42.3305 164.218 42.9348C163.341 43.2376 162.45 43.4962 161.547 43.7098C160.699 43.896 159.836 44.002 158.969 44.0266C157.498 44.0637 156.031 43.8696 154.621 43.4515C153.675 43.1696 152.763 42.7838 151.902 42.3012C151.667 42.1724 151.439 42.0308 151.219 41.8772C151.139 41.8297 151.064 41.7742 150.995 41.7115C150.995 41.7115 151.331 41.8967 151.97 42.1989C152.841 42.6415 153.754 42.9974 154.694 43.2614C156.918 43.8872 159.263 43.9509 161.518 43.4466C162.381 43.2516 163.263 42.9592 164.164 42.6765C165.953 42.0721 167.722 41.5311 169.404 41.5263C170.9 41.4538 172.365 41.9679 173.488 42.9592C174.239 43.6352 174.72 44.5594 174.843 45.5618C174.886 45.9248 174.848 46.2927 174.731 46.639Z" fill="#455A64"/>
<path d="M181.593 61.549C181.593 61.549 181.545 61.4905 181.476 61.3638C181.374 61.1827 181.283 60.9955 181.204 60.8033C180.894 60.0983 180.657 59.3633 180.497 58.61C180.26 57.4892 180.185 56.3404 180.273 55.1983C180.438 53.8153 180.7 52.4457 181.057 51.0993C181.406 49.7701 181.406 48.3735 181.057 47.0443C180.889 46.4772 180.6 45.9534 180.209 45.509C179.863 45.1296 179.428 44.843 178.942 44.6756C178.237 44.4149 177.458 44.4359 176.768 44.734C176.525 44.8712 176.298 45.0346 176.091 45.2214C176.248 44.9816 176.464 44.7868 176.72 44.6561C177.071 44.4814 177.454 44.3793 177.846 44.3558C178.238 44.3324 178.631 44.3881 179.001 44.5196C179.523 44.6837 179.994 44.9791 180.37 45.3774C180.788 45.8409 181.101 46.3897 181.286 46.9858C181.653 48.3557 181.653 49.7977 181.286 51.1676C180.932 52.5037 180.665 53.8615 180.487 55.2324C180.39 56.3541 180.446 57.4838 180.653 58.5905C180.796 59.3365 181.003 60.0687 181.272 60.7789C181.486 61.2711 181.613 61.5392 181.593 61.549Z" fill="#455A64"/>
<path d="M175.579 45.9262C175.568 45.8078 175.568 45.6887 175.579 45.5704C175.579 45.3121 175.579 44.9806 175.613 44.5615C175.673 43.3261 175.536 42.089 175.209 40.8963C174.964 40.084 174.564 39.3274 174.029 38.6689C173.426 37.9117 172.599 37.3656 171.665 37.1093C170.62 36.8675 169.529 36.9113 168.507 37.236C167.401 37.5862 166.341 38.0673 165.349 38.6689C164.343 39.275 163.298 39.8123 162.22 40.2773C161.19 40.6797 160.098 40.899 158.993 40.9256C157.995 40.9496 156.998 40.8281 156.035 40.5649C155.203 40.3312 154.4 40.0042 153.642 39.5901C152.547 38.968 151.582 38.1406 150.8 37.1532C150.588 36.8886 150.395 36.6084 150.225 36.3149C150.161 36.2152 150.104 36.1109 150.054 36.0029C150.136 36.0887 150.208 36.1835 150.269 36.2856C150.456 36.5655 150.659 36.834 150.878 37.0898C151.679 38.0319 152.645 38.8198 153.729 39.4147C154.481 39.8135 155.273 40.1289 156.093 40.3553C157.035 40.6053 158.009 40.717 158.983 40.6867C160.059 40.6554 161.121 40.4377 162.122 40.0434C163.19 39.5777 164.225 39.042 165.222 38.4399C166.231 37.8237 167.311 37.3327 168.439 36.9777C169.503 36.6436 170.638 36.6032 171.724 36.8607C172.703 37.1347 173.57 37.7155 174.195 38.5179C174.74 39.2018 175.144 39.987 175.384 40.8281C175.7 42.0406 175.812 43.2975 175.715 44.5469C175.691 44.9904 175.657 45.3316 175.628 45.5606C175.626 45.6839 175.609 45.8066 175.579 45.9262Z" fill="#455A64"/>
<path d="M100.443 111.376L79.7629 110.493V89.8184H100.443V111.376Z" fill="#13CE67"/>
<path d="M108.641 83.9004H87.9608V104.58H108.641V83.9004Z" fill="#13CE67"/>
<path d="M100.443 110.492L108.641 104.58V83.9004L100.443 89.8173V110.492Z" fill="#13CE67"/>
<path d="M79.7629 89.8173L87.9608 83.9004H108.641L100.443 89.8173H79.7629Z" fill="#13CE67"/>
<path d="M100.443 111.375L108.641 104.58V83.9004L100.443 89.8173V111.375Z" fill="#13CE67"/>
<path opacity="0.3" d="M79.7629 89.8173L87.9608 83.9004H108.641L100.443 89.8173H79.7629Z" fill="white"/>
<path opacity="0.4" d="M100.443 111.375L108.641 104.58V83.9004L100.443 89.8173V111.375Z" fill="black"/>
<path d="M111.531 105.37C111.655 105.764 111.698 106.178 111.658 106.589C111.555 106.793 111.628 106.647 111.609 106.691H111.58L111.531 106.725L111.434 106.798L111.248 106.93C111.126 107.013 111.019 107.086 110.922 107.139C110.732 107.256 110.605 107.315 110.585 107.286C110.566 107.256 110.654 107.149 110.815 106.998L111.107 106.745L111.282 106.598L111.38 106.525L111.429 106.486C111.429 106.535 111.482 106.389 111.38 106.589C111.348 106.176 111.399 105.762 111.531 105.37Z" fill="#13CE67"/>
<path d="M111.531 100.145C111.7 101.007 111.7 101.894 111.531 102.757C111.362 101.894 111.362 101.007 111.531 100.145Z" fill="#13CE67"/>
<path d="M111.531 94.9199C111.7 95.7825 111.7 96.6697 111.531 97.5323C111.362 96.6697 111.362 95.7825 111.531 94.9199Z" fill="#13CE67"/>
<path d="M111.531 89.7002C111.7 90.5628 111.7 91.45 111.531 92.3126C111.362 91.45 111.362 90.5628 111.531 89.7002Z" fill="#13CE67"/>
<path d="M111.531 84.4707C111.7 85.3333 111.7 86.2205 111.531 87.0831C111.362 86.2205 111.362 85.3333 111.531 84.4707Z" fill="#13CE67"/>
<path d="M110.313 80.6407C110.706 80.5145 111.121 80.4713 111.531 80.514L111.658 80.6407V80.8795V81.1086C111.658 81.2548 111.658 81.3864 111.629 81.4985C111.629 81.7178 111.575 81.8543 111.541 81.8543C111.507 81.8543 111.473 81.7178 111.453 81.4985C111.453 81.3864 111.453 81.2548 111.424 81.1086V80.6212L111.551 80.7479C111.135 80.7968 110.714 80.7603 110.313 80.6407Z" fill="#13CE67"/>
<path d="M105.639 80.6394C106.409 80.4705 107.207 80.4705 107.978 80.6394C107.207 80.8083 106.409 80.8083 105.639 80.6394Z" fill="#13CE67"/>
<path d="M100.964 80.6394C101.733 80.4705 102.53 80.4705 103.299 80.6394C102.53 80.8084 101.733 80.8084 100.964 80.6394Z" fill="#13CE67"/>
<path d="M96.2905 80.6394C97.0596 80.4705 97.8561 80.4705 98.6251 80.6394C97.8561 80.8084 97.0596 80.8084 96.2905 80.6394Z" fill="#13CE67"/>
<path d="M91.6066 80.6394C92.3756 80.4705 93.1721 80.4705 93.9412 80.6394C93.1721 80.8084 92.3756 80.8084 91.6066 80.6394Z" fill="#13CE67"/>
<path d="M87.0394 80.9263C87.0394 80.8922 87.1174 80.7606 87.3026 80.5754H87.3465C87.5463 80.5754 87.8046 80.5462 88.0922 80.5462C88.4851 80.5036 88.8825 80.5468 89.257 80.6729C88.8819 80.7962 88.4851 80.8393 88.0922 80.7996C87.8046 80.7996 87.5463 80.7996 87.3465 80.7704L87.4098 80.746C87.2198 80.863 87.0638 80.9263 87.0394 80.9263Z" fill="#13CE67"/>
<path d="M83.4428 83.8952C83.3989 83.8416 83.7645 83.4614 84.2616 83.052C84.7587 82.6426 85.1974 82.3502 85.2364 82.4038C85.2754 82.4574 84.9147 82.8327 84.4176 83.247C83.9204 83.6613 83.4866 83.9488 83.4428 83.8952Z" fill="#13CE67"/>
<path d="M79.8457 86.8787C79.8019 86.8251 80.1674 86.4498 80.6645 86.0355C81.1617 85.6212 81.6003 85.3337 81.6393 85.3873C81.6783 85.4409 81.3176 85.8211 80.8205 86.2305C80.3234 86.6399 79.9091 86.9372 79.8457 86.8787Z" fill="#13CE67"/>
<path d="M77.097 90.3678C76.9769 89.9735 76.9371 89.5592 76.98 89.1493L77.0287 89.0518H77.0531L77.1019 89.0128L77.1944 88.9397L77.3748 88.7984L77.6916 88.5693C77.8768 88.4474 77.9986 88.3841 78.023 88.4133C78.0474 88.4426 77.9596 88.5498 77.8037 88.7106C77.7257 88.7886 77.6331 88.8812 77.5259 88.9787L77.3553 89.1298L77.2627 89.2078L77.2139 89.2468H77.1896C77.1896 89.2078 77.1457 89.3442 77.2383 89.1542C77.2723 89.5641 77.2243 89.9766 77.097 90.3678Z" fill="#13CE67"/>
<path d="M77.0483 95.2026C76.9283 94.8117 76.8901 94.4002 76.9362 93.9939C76.8994 93.5859 76.9458 93.1747 77.0726 92.7852C77.2396 93.5898 77.2313 94.421 77.0483 95.2221V95.2026Z" fill="#13CE67"/>
<path d="M76.9849 100.039C76.8617 99.6483 76.8219 99.2365 76.8679 98.8298C76.8311 98.4218 76.8776 98.0106 77.0044 97.6211C77.1275 98.0114 77.1674 98.4232 77.1214 98.8298C77.1581 99.2378 77.1117 99.649 76.9849 100.039Z" fill="#13CE67"/>
<path d="M76.9558 104.873C76.8356 104.482 76.7958 104.07 76.8388 103.664C76.8022 103.255 76.8503 102.844 76.9801 102.455C77.1001 102.846 77.1382 103.257 77.0922 103.664C77.129 104.072 77.0826 104.483 76.9558 104.873Z" fill="#13CE67"/>
<path d="M76.9071 109.707C76.7872 109.317 76.749 108.905 76.795 108.499C76.7583 108.091 76.8047 107.68 76.9315 107.29C77.0516 107.681 77.0914 108.092 77.0485 108.499C77.0851 108.907 77.037 109.319 76.9071 109.707Z" fill="#13CE67"/>
<path d="M78.0914 113.363C77.6948 113.48 77.2789 113.516 76.868 113.47C76.6194 113.212 76.7998 113.397 76.7462 113.339V113.095V112.866C76.7462 112.72 76.7462 112.588 76.7754 112.481C76.7998 112.261 76.8339 112.125 76.868 112.125C76.9021 112.125 76.9363 112.261 76.9557 112.481C76.9557 112.593 76.9557 112.724 76.9801 112.871C77.0045 113.017 76.9801 113.027 76.9801 113.1V113.329L76.8534 113.202C77.2727 113.171 77.694 113.225 78.0914 113.363Z" fill="#13CE67"/>
<path d="M82.7068 113.437C82.3349 113.559 81.9403 113.597 81.5517 113.549C81.1623 113.58 80.7706 113.53 80.4015 113.402C80.7735 113.28 81.1684 113.243 81.5566 113.295C81.9457 113.261 82.3376 113.309 82.7068 113.437Z" fill="#13CE67"/>
<path d="M87.3223 113.514C86.9491 113.631 86.5555 113.667 86.1672 113.621C85.7777 113.658 85.3849 113.608 85.017 113.475C85.3902 113.358 85.7838 113.322 86.1721 113.368C86.5616 113.333 86.9539 113.383 87.3223 113.514Z" fill="#13CE67"/>
<path d="M91.9429 113.583C91.1792 113.739 90.3907 113.726 89.6327 113.544C90.3964 113.388 91.1849 113.402 91.9429 113.583Z" fill="#13CE67"/>
<path d="M96.5584 113.665C95.7947 113.821 95.0061 113.808 94.2482 113.626C94.6232 113.51 95.0182 113.474 95.4082 113.519C95.7976 113.485 96.1897 113.535 96.5584 113.665Z" fill="#13CE67"/>
<path d="M101.174 113.744C100.801 113.86 100.407 113.897 100.019 113.851C99.6295 113.885 99.2372 113.835 98.8688 113.705C99.242 113.588 99.6356 113.551 100.024 113.597C100.413 113.56 100.806 113.61 101.174 113.744Z" fill="#13CE67"/>
<path d="M105.039 111.506C105.078 111.56 104.703 111.915 104.191 112.301C103.911 112.565 103.579 112.77 103.216 112.9C103.172 112.842 103.553 112.486 104.059 112.101C104.566 111.716 104.995 111.448 105.039 111.506Z" fill="#13CE67"/>
<path d="M108.719 108.708C108.763 108.762 108.383 109.122 107.876 109.507C107.595 109.77 107.263 109.972 106.901 110.102C106.862 110.043 107.237 109.688 107.744 109.303C108.251 108.918 108.665 108.659 108.719 108.708Z" fill="#13CE67"/>
<path d="M105.916 78.9782C105.985 78.9782 105.985 79.2755 105.916 79.6021C105.848 79.9286 105.726 80.1821 105.658 80.1674C105.59 80.1528 105.595 79.875 105.658 79.5485C105.721 79.2219 105.848 78.9392 105.916 78.9782Z" fill="#13CE67"/>
<path d="M107.037 74.002C107.069 74.4305 107.016 74.8612 106.881 75.2692C106.826 75.6945 106.688 76.105 106.477 76.4779C106.496 75.6233 106.686 74.7813 107.037 74.002Z" fill="#13CE67"/>
<path d="M108.178 69.0439C108.157 69.8978 107.968 70.7392 107.622 71.5199C107.642 70.666 107.831 69.8246 108.178 69.0439Z" fill="#13CE67"/>
<path d="M109.274 64.0869C109.255 64.9429 109.064 65.7864 108.714 66.5677C108.682 66.1392 108.735 65.7085 108.87 65.3005C108.925 64.8736 109.062 64.4614 109.274 64.0869Z" fill="#13CE67"/>
<path d="M110.391 59.1309C110.423 59.5594 110.37 59.9901 110.235 60.3981C110.182 60.8256 110.045 61.2383 109.83 61.6117C109.85 60.7556 110.04 59.9122 110.391 59.1309Z" fill="#13CE67"/>
<path d="M111.512 54.1797C111.541 54.6082 111.488 55.0383 111.356 55.4469C111.3 55.8722 111.163 56.2827 110.951 56.6556C110.919 56.2271 110.972 55.7964 111.107 55.3884C111.16 54.9625 111.297 54.5515 111.512 54.1797Z" fill="#13CE67"/>
<path d="M112.335 50.5137C112.404 50.5137 112.399 50.8062 112.335 51.1327C112.272 51.4593 112.145 51.7176 112.077 51.6981C112.009 51.6786 112.014 51.4056 112.077 51.0791C112.14 50.7525 112.267 50.4942 112.335 50.5137Z" fill="#13CE67"/>
<path d="M86.8205 79.5485C86.8838 79.5193 87.0544 79.7386 87.2055 80.0359C87.3566 80.3332 87.4297 80.6062 87.3663 80.6403C87.303 80.6744 87.1324 80.4502 86.9813 80.1529C86.8302 79.8556 86.7571 79.5826 86.8205 79.5485Z" fill="#13CE67"/>
<path d="M84.6809 75.3075C84.7443 75.2734 85.0367 75.7266 85.3291 76.3115C85.5446 76.651 85.6889 77.0307 85.7532 77.4276C85.6898 77.4617 85.3974 77.0085 85.1049 76.4236C84.8895 76.0841 84.7452 75.7044 84.6809 75.3075Z" fill="#13CE67"/>
<path d="M82.546 71.0625C82.8283 71.3495 83.0488 71.6912 83.1942 72.0665C83.4098 72.4073 83.5525 72.789 83.6134 73.1875C83.3312 72.9005 83.1106 72.5588 82.9652 72.1835C82.7488 71.8432 82.606 71.4613 82.546 71.0625Z" fill="#13CE67"/>
<path d="M80.3967 66.8221C80.4601 66.788 80.7476 67.2413 81.045 67.8261C81.2598 68.1654 81.4025 68.5454 81.4641 68.9423C81.4008 68.9764 81.1132 68.5231 80.8159 67.9382C80.601 67.5989 80.4583 67.219 80.3967 66.8221Z" fill="#13CE67"/>
<path d="M78.2717 62.5771C78.5557 62.8627 78.7766 63.2048 78.92 63.5812C79.1372 63.9216 79.2815 64.3032 79.344 64.7022C79.06 64.4166 78.8391 64.0745 78.6958 63.6981C78.4799 63.3571 78.3356 62.9757 78.2717 62.5771Z" fill="#13CE67"/>
<path d="M76.1368 58.3368C76.2002 58.3027 76.4878 58.7559 76.7851 59.3408C76.9999 59.6801 77.1426 60.06 77.2042 60.4569C76.922 60.1699 76.7014 59.8282 76.556 59.4529C76.3411 59.1136 76.1984 58.7336 76.1368 58.3368Z" fill="#13CE67"/>
<path d="M74.002 54.0918C74.2842 54.3788 74.5048 54.7205 74.6502 55.0958C74.8651 55.4351 75.0077 55.8151 75.0693 56.2119C75.006 56.2461 74.7184 55.7977 74.4211 55.2372C74.2024 54.8891 74.0596 54.4988 74.002 54.0918Z" fill="#13CE67"/>
<path d="M71.8625 49.8524C71.9259 49.8183 72.2183 50.2667 72.5108 50.8564C72.7274 51.1954 72.8717 51.5753 72.9348 51.9725C72.6508 51.687 72.43 51.3449 72.2866 50.9685C72.0711 50.629 71.9268 50.2493 71.8625 49.8524Z" fill="#13CE67"/>
<path d="M70.2493 46.6394C70.3127 46.6101 70.4832 46.8246 70.6343 47.1268C70.7854 47.429 70.8585 47.697 70.7952 47.7263C70.7318 47.7555 70.5612 47.5411 70.4101 47.2389C70.259 46.9367 70.1859 46.6735 70.2493 46.6394Z" fill="#13CE67"/>
<path d="M48.653 86.922C48.653 86.9902 48.3703 87.0292 48.034 87C47.6977 86.9707 47.4296 86.8976 47.4345 86.8294C47.4394 86.7612 47.7172 86.7222 48.0535 86.7466C48.3898 86.7709 48.6579 86.8538 48.653 86.922Z" fill="#13CE67"/>
<path d="M53.5902 87.3114C53.1803 87.4032 52.7562 87.4132 52.3425 87.3406C51.9222 87.3482 51.5047 87.272 51.1143 87.1164C51.5241 87.0243 51.9482 87.0143 52.362 87.0872C52.7824 87.0774 53.2003 87.1537 53.5902 87.3114Z" fill="#13CE67"/>
<path d="M58.5567 87.6972C57.7268 87.8018 56.8842 87.7354 56.0808 87.5022C56.9108 87.3976 57.7534 87.464 58.5567 87.6972Z" fill="#13CE67"/>
<path d="M63.5085 88.0875C62.6786 88.1921 61.836 88.1258 61.0326 87.8926C61.4425 87.8007 61.8665 87.7908 62.2803 87.8633C62.7008 87.8521 63.1191 87.9284 63.5085 88.0875Z" fill="#13CE67"/>
<path d="M68.4652 88.4714C68.0556 88.5661 67.631 88.5761 67.2175 88.5006C66.7976 88.5091 66.3802 88.4346 65.9893 88.2813C66.3978 88.1814 66.8225 88.1664 67.237 88.2374C67.6577 88.2349 68.0749 88.3144 68.4652 88.4714Z" fill="#13CE67"/>
<path d="M73.4171 88.8612C73.0072 88.9531 72.5831 88.963 72.1694 88.8905C71.749 88.9002 71.331 88.8239 70.9412 88.6663C71.7711 88.5617 72.6137 88.628 73.4171 88.8612Z" fill="#13CE67"/>
<path d="M77.1069 89.1492C77.1069 89.2223 76.829 89.2564 76.4927 89.232C76.1564 89.2077 75.8884 89.1248 75.8933 89.0566C75.8981 88.9883 76.1759 88.9493 76.5122 88.9786C76.8485 89.0078 77.1166 89.0809 77.1069 89.1492Z" fill="#13CE67"/>
<path d="M81.0671 33.3227C83.7394 21.776 76.5452 10.2495 64.9985 7.57751C53.4517 4.90553 41.9249 12.0999 39.2526 23.6466C36.5803 35.1933 43.7744 46.7198 55.3212 49.3918C66.868 52.0637 78.3948 44.8694 81.0671 33.3227Z" fill="white"/>
<path d="M81.62 28.4888C81.62 28.4888 81.62 28.3719 81.5907 28.1379C81.5615 27.904 81.5517 27.5628 81.5225 27.1193C81.5225 26.8951 81.5079 26.6465 81.4786 26.3736C81.4543 26.0958 81.3958 25.7984 81.347 25.4768C81.2983 25.1551 81.2398 24.8042 81.1813 24.4289C81.1081 24.0342 81.0137 23.6437 80.8986 23.2591C80.401 21.2521 79.6006 19.3325 78.5251 17.5664C77.1194 15.2139 75.2725 13.1552 73.0858 11.5033L72.1598 10.8112C71.8332 10.6017 71.492 10.4067 71.1557 10.1971C70.8194 9.98754 70.4831 9.76334 70.1127 9.59276L69.0064 9.0615L68.4459 8.79344L67.8512 8.57899L66.6523 8.14034C66.2429 8.00387 65.814 7.92101 65.3948 7.80404C64.9693 7.67906 64.5363 7.58139 64.0983 7.51161C63.2082 7.34541 62.3076 7.24119 61.4031 7.19968C60.9401 7.19968 60.477 7.13632 60.0091 7.14607L58.5957 7.21917C58.3618 7.21917 58.1083 7.21917 57.8841 7.26304L57.1725 7.37514C56.6852 7.45312 56.1978 7.50673 55.7347 7.60908C54.7682 7.82235 53.8173 8.1008 52.8884 8.44252C51.9343 8.78727 51.0045 9.19598 50.1054 9.66587C49.657 9.90956 49.2232 10.1922 48.7748 10.4603C48.5604 10.5968 48.3264 10.7186 48.1169 10.8746L47.4881 11.362C46.6311 11.9927 45.817 12.6799 45.0512 13.4188L43.9643 14.6129L43.6914 14.915L43.4477 15.2367L42.9603 15.8898L42.4729 16.5478L42.044 17.2496L41.6151 17.9564L41.4006 18.3121L41.2154 18.6826L40.4941 20.1886L39.9433 21.7531C38.4781 26.1224 38.4781 30.8504 39.9433 35.2197C40.1383 35.7461 40.3333 36.2724 40.5233 36.7988C40.7134 37.3252 41.0107 37.8028 41.2495 38.3048L41.4299 38.6753L41.6443 39.031L42.0781 39.7378L42.507 40.4396L42.9944 41.0976L43.4818 41.7507L43.7255 42.0772L43.9984 42.3745L45.0804 43.5686C45.8463 44.309 46.6604 44.9977 47.5174 45.6303L48.1461 46.1177C48.3557 46.2785 48.5896 46.3955 48.8041 46.5368C49.2525 46.8 49.6863 47.0827 50.1347 47.3313C51.0338 47.8012 51.9635 48.2099 52.9176 48.5546C53.848 48.8918 54.7987 49.1702 55.764 49.3881C56.2514 49.4855 56.7388 49.544 57.2018 49.622L57.9134 49.7292C58.1522 49.7634 58.4008 49.7585 58.625 49.778L60.0384 49.8511C60.5258 49.8511 60.9693 49.8121 61.4323 49.7975C62.3386 49.7544 63.2408 49.6485 64.1325 49.4807C64.5687 49.4104 65.0001 49.3127 65.424 49.1882C65.8481 49.0761 66.2721 48.9884 66.6815 48.8519L67.8854 48.4133L68.4751 48.1988L69.0405 47.9308L70.1468 47.3995C70.5047 47.2163 70.8529 47.0145 71.1899 46.7952C71.531 46.5905 71.8722 46.3955 72.1939 46.1811L73.1199 45.4938C75.3026 43.8391 77.1474 41.7808 78.5543 39.4307C79.6154 37.6538 80.4009 35.7261 80.884 33.7136C80.9991 33.3291 81.0934 32.9386 81.1667 32.5439C81.2252 32.1735 81.2788 31.8226 81.3324 31.5009C81.386 31.1792 81.4396 30.877 81.464 30.6041C81.4884 30.3312 81.4981 30.0777 81.5079 29.8535C81.5371 29.41 81.5615 29.0737 81.5761 28.8349C81.5907 28.5961 81.6054 28.4888 81.6054 28.4888C81.6054 28.4888 81.6054 28.6058 81.6054 28.8349C81.6054 29.0639 81.581 29.4149 81.5664 29.8584C81.5664 30.0826 81.5664 30.3458 81.5322 30.609C81.4981 30.8722 81.4543 31.1841 81.4104 31.5106C81.3665 31.8372 81.3129 32.1881 81.2544 32.5585C81.187 32.9563 81.0975 33.3501 80.9864 33.738C80.506 35.7667 79.717 37.7097 78.6469 39.4989C77.245 41.8779 75.3944 43.9619 73.1979 45.6352L72.2719 46.3321C71.9453 46.5466 71.5993 46.7464 71.2581 46.956C70.9169 47.1656 70.5806 47.3995 70.2102 47.5701L69.0941 48.1111L68.5238 48.384L67.9243 48.6034L66.7156 49.0469C66.3013 49.1834 65.8724 49.276 65.4435 49.3929C65.0159 49.5172 64.5814 49.6165 64.1422 49.6903C63.2405 49.8576 62.3287 49.9651 61.4128 50.0119C60.9254 50.0119 60.4819 50.0753 60.0091 50.0704L58.5811 49.9973C58.3423 49.9973 58.0937 49.9973 57.8598 49.9534L57.1384 49.8462C56.651 49.7682 56.1637 49.7097 55.6763 49.6123C53.6975 49.1696 51.7841 48.4734 49.9836 47.5409C49.5254 47.2923 49.0916 47.0047 48.6384 46.7367C48.419 46.5953 48.1802 46.4784 47.9706 46.3175L47.3322 45.8301C46.4754 45.1902 45.6614 44.495 44.8952 43.749L43.7937 42.5403L43.5208 42.2381L43.2722 41.9115L42.7848 41.2487L42.2974 40.5858L41.8637 39.8742L41.4055 39.1529L41.1862 38.7971L41.001 38.4169C40.7573 37.9166 40.5136 37.4097 40.2699 36.8963C40.0749 36.365 39.88 35.8338 39.6802 35.2977C38.1953 30.8782 38.1953 26.0946 39.6802 21.6751L40.265 20.0765C40.5087 19.5647 40.7524 19.0578 41.001 18.551L41.1813 18.1757L41.4006 17.8199L41.8344 17.1034L42.2731 16.3918L42.7605 15.729L43.2478 15.0661L43.4964 14.7396L43.7742 14.4374L44.8708 13.2287C45.6359 12.483 46.45 11.7893 47.3078 11.1524L47.9414 10.665C48.151 10.509 48.3898 10.3872 48.6091 10.2459C49.0624 9.9778 49.4962 9.69023 49.9543 9.44654C51.7548 8.51398 53.6682 7.81776 55.647 7.37514C56.1344 7.27278 56.6218 7.21917 57.1092 7.14119L57.8305 7.03396C58.0693 6.99985 58.3179 7.00472 58.5519 6.98523L59.9799 6.91699C60.4673 6.91699 60.9206 6.95598 61.3836 6.97061C62.2982 7.01637 63.2086 7.12549 64.1081 7.29716C64.5494 7.36803 64.9857 7.46734 65.4143 7.59446C65.8432 7.71144 66.2721 7.79916 66.6815 7.93563L67.8951 8.38403L68.4946 8.60336L69.06 8.87629L70.181 9.4173C70.5514 9.58788 70.8828 9.8267 71.2288 10.0265C71.5749 10.2264 71.9112 10.4359 72.2377 10.6504L73.1687 11.3474C75.3641 13.0218 77.2145 15.1056 78.6177 17.4836C79.6885 19.2666 80.4807 21.2027 80.9669 23.225C81.0775 23.6131 81.167 24.0068 81.2349 24.4045C81.2934 24.7798 81.3422 25.1307 81.3909 25.4524C81.4396 25.7741 81.4884 26.0811 81.5127 26.3541C81.5371 26.627 81.5371 26.8853 81.5469 27.1095C81.5469 27.553 81.5761 27.8942 81.5859 28.1282C81.5956 28.3621 81.62 28.4888 81.62 28.4888Z" fill="#13CE67"/>
<path d="M61.174 20.6171C61.174 20.6171 61.2374 20.5927 61.369 20.5732C61.5616 20.5498 61.7563 20.5498 61.9489 20.5732C62.6824 20.6286 63.3728 20.941 63.8985 21.4554C64.2078 21.7569 64.4537 22.1173 64.6216 22.5153C64.7894 22.9134 64.8759 23.341 64.8759 23.7729C64.8759 24.2049 64.7894 24.6325 64.6216 25.0305C64.4537 25.4286 64.2078 25.789 63.8985 26.0905C63.4001 26.5766 62.7585 26.8894 62.0685 26.9824C61.3786 27.0754 60.677 26.9439 60.0676 26.6071C59.6886 26.4005 59.3549 26.12 59.0861 25.7823C58.8173 25.4445 58.6189 25.0563 58.5026 24.6406C58.3863 24.2249 58.3544 23.7902 58.4089 23.3619C58.4634 22.9337 58.6032 22.5208 58.8199 22.1475C59.1834 21.5176 59.7559 21.0348 60.438 20.7828C60.6202 20.7124 60.81 20.6634 61.0034 20.6366C61.0712 20.625 61.1404 20.625 61.2081 20.6366C61.2081 20.6366 60.9303 20.6902 60.477 20.8803C59.84 21.1574 59.3123 21.6371 58.9759 22.245C58.7319 22.6937 58.604 23.1964 58.604 23.7071C58.604 24.2179 58.7319 24.7206 58.9759 25.1693C59.2558 25.6987 59.6867 26.133 60.2138 26.417C60.779 26.7202 61.4253 26.8378 62.0611 26.7533C62.6744 26.6673 63.2469 26.3964 63.7023 25.9767C64.1577 25.5569 64.4744 25.0084 64.6101 24.4041C64.7186 23.9081 64.7023 23.3929 64.5628 22.9046C64.4233 22.4164 64.1649 21.9704 63.8108 21.6065C63.3242 21.11 62.6864 20.7894 61.9977 20.6951C61.4518 20.5927 61.174 20.6415 61.174 20.6171Z" fill="#263238"/>
<path d="M62.3633 16.5916L62.3194 16.4893L62.1927 16.1822L61.7053 14.9442H61.7492L58.8248 15.3634L58.8784 15.3049C58.8346 15.841 58.7858 16.4356 58.7371 17.0693V17.1131H58.6932C58.1092 17.3632 57.5616 17.6911 57.0653 18.0879L57.0264 18.1171H56.9825L55.3644 17.3909L55.4765 17.3617L53.7072 19.6963V19.5744L54.8477 20.9294L54.8867 20.9781V21.0366C54.6449 21.6185 54.481 22.2298 54.3993 22.8546V22.9277H54.336L52.6788 23.5515L52.752 23.4297C52.8787 24.3411 53.0103 25.3256 53.1516 26.354L53.0444 26.2565L54.8087 26.4076H54.8818V26.4759C55.135 27.0568 55.4627 27.6024 55.8566 28.0989L55.9005 28.1574L55.8712 28.2256L55.1353 29.834L55.1012 29.6878L57.4309 31.457H57.2749L58.6347 30.3214L58.6932 30.2726L58.7615 30.3019C59.3419 30.5429 59.9515 30.7068 60.5745 30.7893L60.6818 30.8721V30.8965V30.9501L60.7208 31.0524L60.7987 31.262L60.9498 31.6763C61.0571 31.9541 61.1594 32.2319 61.2618 32.5049L61.1253 32.422L64.0496 32.0321L63.9424 32.1442C63.9911 31.5496 64.0448 30.9598 64.0984 30.3798V30.3067L64.1666 30.2775C64.7478 30.0369 65.2937 29.7189 65.7896 29.332L65.8481 29.2881L65.9163 29.3173L67.5296 30.0533L67.3834 30.0923C67.9877 29.293 68.5807 28.5164 69.1623 27.7626V27.9088C68.7773 27.4214 68.402 26.9925 68.0267 26.549L67.9829 26.4954L68.0121 26.432C68.2532 25.8499 68.417 25.2387 68.4995 24.614V24.5458L68.558 24.5214L70.22 23.9073L70.1517 24.0194C70.0153 23.0008 69.8885 22.0357 69.7667 21.0951L69.8544 21.1779L68.0901 21.0171H68.0365V20.9684C67.7949 20.3847 67.4769 19.8356 67.0909 19.3356L67.0617 19.2917V19.2479L67.8025 17.6395L67.8269 17.7321L65.5069 15.9385H65.5752L64.2105 17.0644H64.1861C63.7441 16.8787 63.2855 16.7351 62.8165 16.6355L62.4705 16.5672L62.3633 16.5916C62.4035 16.5843 62.4448 16.5843 62.4851 16.5916C62.6029 16.601 62.7201 16.6173 62.836 16.6403C63.3121 16.7205 63.778 16.8529 64.2251 17.0351H64.1861L65.5313 15.8849L65.5654 15.8557L65.6044 15.8849L67.9439 17.6444L67.9926 17.6785L67.9682 17.737L67.2372 19.3551V19.2723C67.6345 19.7805 67.9623 20.3394 68.2119 20.9342L68.1388 20.8806L69.9032 21.0317H69.9763V21.1097L70.3759 24.0097V24.0974L70.298 24.1266L68.6408 24.7505L68.7139 24.6579C68.6349 25.3021 68.471 25.9331 68.2266 26.5343V26.4222C68.6018 26.8658 68.982 27.3142 69.367 27.7772L69.4255 27.8454L69.3719 27.9234L67.5978 30.258L67.5393 30.3311L67.4516 30.2921L65.8383 29.561H65.9651C65.4522 29.9594 64.8883 30.2872 64.2884 30.5358L64.3664 30.4335C64.3128 31.0134 64.2641 31.6032 64.2105 32.1929V32.2953H64.113L61.1887 32.6901H61.0863L61.0522 32.5926L60.7451 31.764L60.5892 31.3498L60.5112 31.1402L60.4722 31.0378V30.9842V30.9598L60.5745 31.0427C59.9289 30.9629 59.2964 30.799 58.6932 30.5553H58.8248L57.465 31.6909L57.387 31.7543L57.309 31.6958L54.9793 29.9168L54.9013 29.8583L54.9403 29.7657L55.6763 28.1574V28.2841C55.2771 27.77 54.9492 27.2044 54.7015 26.6026L54.799 26.6757L53.0395 26.5197H52.942V26.4271C52.8056 25.4182 52.674 24.4337 52.5521 23.5028V23.4151L52.6399 23.3809L54.297 22.7668L54.2287 22.8546C54.3084 22.2104 54.4722 21.5796 54.7161 20.9781V21.0853C54.3165 20.5979 53.9314 20.1496 53.5805 19.7255L53.5318 19.667L53.5756 19.6037L55.3595 17.274L55.4033 17.2203L55.4716 17.2496L57.08 17.9904H56.9922C57.5027 17.5912 58.0651 17.2633 58.664 17.0156L58.6201 17.079C58.6786 16.4405 58.7371 15.8508 58.7858 15.3147V15.261H58.8346L61.7589 14.8906H61.793V14.9199C61.9782 15.4511 62.1244 15.8654 62.2317 16.1578C62.2755 16.2894 62.3145 16.3967 62.3389 16.4795C62.3519 16.5156 62.3601 16.5533 62.3633 16.5916Z" fill="#263238"/>
<path fill-rule="evenodd" clip-rule="evenodd" d="M57.2215 33.8264C57.5714 33.8702 57.914 33.9603 58.2401 34.0945L58.9907 33.4707L60.2774 34.4454L59.8729 35.3325C60.09 35.6112 60.2686 35.9177 60.4041 36.2439L61.3789 36.3316L61.5934 37.9351L60.682 38.2763C60.6359 38.6263 60.5442 38.9688 60.409 39.295L61.0378 40.0455L60.063 41.3322L59.1759 40.9277C58.8952 41.1405 58.5891 41.3173 58.2645 41.4541L58.1768 42.4289L56.5733 42.6482L56.2321 41.7319C55.8822 41.6882 55.5396 41.598 55.2135 41.4638L54.4629 42.0926L53.1762 41.1178L53.5807 40.2259C53.3626 39.9479 53.1839 39.6412 53.0494 39.3144L52.0747 39.2316L51.8553 37.6281L52.7716 37.2869C52.816 36.9355 52.9061 36.5914 53.0397 36.2634L52.411 35.5177L53.3857 34.231L54.2777 34.6355C54.5557 34.4175 54.8623 34.2387 55.1891 34.1043L55.2719 33.1295L56.8755 32.9102L57.2166 33.8264H57.2215ZM56.5635 36.0538C56.2225 36.1002 55.9029 36.2469 55.6455 36.4753C55.388 36.7038 55.2044 37.0036 55.1178 37.3367C55.0312 37.6699 55.0457 38.0212 55.1594 38.3461C55.273 38.671 55.4807 38.9547 55.7561 39.1612C56.0314 39.3677 56.362 39.4877 56.7057 39.5058C57.0494 39.524 57.3907 39.4395 57.6863 39.2631C57.9818 39.0867 58.2183 38.8264 58.3655 38.5153C58.5127 38.2042 58.5641 37.8564 58.5131 37.516C58.4455 37.065 58.203 36.6587 57.8382 36.385C57.4733 36.1114 57.0154 35.9924 56.5635 36.0538Z" fill="#13CE67"/>
<path d="M133.992 45.7896C142.372 37.409 142.372 23.8215 133.992 15.4409C125.611 7.06038 112.023 7.06037 103.643 15.4409C95.2624 23.8215 95.2624 37.409 103.643 45.7896C112.024 54.1701 125.611 54.1701 133.992 45.7896Z" fill="white"/>
<path d="M140.277 30.6138C140.277 30.6138 140.277 30.4968 140.248 30.2678C140.219 30.0387 140.209 29.6878 140.185 29.2491C140.185 29.0249 140.156 28.7617 140.141 28.4985C140.126 28.2353 140.053 27.9234 140.004 27.6017C139.956 27.2801 139.897 26.9291 139.839 26.5539C139.78 26.1786 139.654 25.7984 139.561 25.3841C139.059 23.3777 138.257 21.4585 137.182 19.6914C135.777 17.3404 133.932 15.2819 131.748 13.6283L130.822 12.9362C130.5 12.7266 130.159 12.5317 129.818 12.3221C129.477 12.1125 129.145 11.8883 128.78 11.7177L127.673 11.1865L127.108 10.9184L126.518 10.704L125.315 10.2653C124.905 10.1337 124.481 10.046 124.057 9.92901C123.632 9.80686 123.201 9.70923 122.765 9.63658C121.874 9.4701 120.972 9.36587 120.065 9.32465C119.602 9.32465 119.139 9.26616 118.671 9.27104L117.258 9.34414C117.024 9.34414 116.771 9.34415 116.546 9.38801L115.835 9.50011C115.347 9.57809 114.86 9.63658 114.397 9.73406C112.44 10.1759 110.548 10.8672 108.768 11.7908C108.319 12.0345 107.885 12.3221 107.442 12.5853C107.223 12.7266 106.989 12.8436 106.779 12.9996L106.155 13.4869C105.298 14.1178 104.484 14.8049 103.718 15.5437L102.631 16.7378L102.358 17.04L102.115 17.3617L101.627 18.0148L101.14 18.6728L100.711 19.3746L100.282 20.0813L100.068 20.4371L99.8874 20.8075L99.1612 22.3136L98.5861 23.9025C97.1173 28.2712 97.1173 33.0003 98.5861 37.369L99.1661 38.9482L99.8874 40.4542L100.073 40.8246L100.287 41.1804L100.716 41.8871L101.145 42.5889L101.632 43.2469L102.12 43.9L102.363 44.2266L102.636 44.5239L103.723 45.7229C104.489 46.4618 105.303 47.1489 106.16 47.7796L106.789 48.267C106.998 48.4279 107.232 48.5448 107.452 48.6862C107.895 48.9494 108.329 49.2369 108.777 49.4806C109.678 49.9514 110.609 50.3602 111.565 50.704C112.495 51.0425 113.446 51.3209 114.412 51.5374C114.899 51.6349 115.386 51.6934 115.845 51.7714L116.556 51.8786C116.795 51.9127 117.044 51.9078 117.273 51.9273L118.686 52.0004C119.173 52.0004 119.617 51.9614 120.075 51.9468C120.981 51.9032 121.883 51.799 122.775 51.6349C123.211 51.5604 123.642 51.4628 124.067 51.3425C124.491 51.2255 124.92 51.1378 125.324 51.0013L126.528 50.5675L127.123 50.3482L127.683 50.0801L128.794 49.5489C129.165 49.3831 129.491 49.1443 129.837 48.9494C130.184 48.7544 130.515 48.5448 130.842 48.3304L131.763 47.6432C133.948 45.9911 135.793 43.9323 137.197 41.5801C138.271 39.8109 139.073 37.8902 139.576 35.8825C139.668 35.4682 139.809 35.088 139.853 34.7127C139.897 34.3375 139.965 33.9914 140.019 33.6697C140.073 33.348 140.126 33.0459 140.156 32.7729C140.185 32.5 140.185 32.2466 140.199 32.0224C140.224 31.5788 140.248 31.2425 140.263 31.0037C140.277 30.7649 140.292 30.6577 140.292 30.6577C140.292 30.6577 140.292 30.7746 140.292 31.0037C140.292 31.2328 140.292 31.5837 140.253 32.0272C140.253 32.2514 140.253 32.5146 140.224 32.7778C140.194 33.041 140.141 33.3529 140.097 33.6795C140.053 34.006 140 34.3569 139.946 34.7322C139.892 35.1075 139.766 35.4926 139.673 35.9068C139.191 37.9321 138.399 39.8705 137.324 41.6532C135.922 44.0295 134.073 46.1116 131.88 47.7845L130.949 48.4815C130.622 48.7008 130.276 48.8958 129.94 49.1102C129.604 49.3247 129.262 49.5489 128.887 49.7195L127.751 50.2215L127.181 50.4944L126.587 50.7137L125.373 51.1572C124.964 51.2937 124.53 51.3863 124.106 51.5033C123.676 51.6271 123.24 51.7263 122.8 51.8006C121.9 51.9725 120.99 52.0799 120.075 52.1223C119.588 52.1223 119.139 52.1856 118.667 52.1808L117.238 52.1077C117 52.1077 116.751 52.1077 116.517 52.0638L115.801 51.9566C115.313 51.8786 114.826 51.8201 114.339 51.7226C113.361 51.5061 112.399 51.2261 111.458 50.8843C110.492 50.5373 109.551 50.1253 108.641 49.6512C108.188 49.4026 107.749 49.1151 107.296 48.847C107.076 48.7106 106.842 48.5887 106.628 48.4279L105.994 47.9405C105.138 47.3004 104.324 46.6052 103.557 45.8593L102.461 44.6506L102.183 44.3484L101.934 44.0219L101.447 43.359L100.96 42.6962L100.521 41.9846L100.087 41.273L99.8679 40.9123L99.6876 40.537C99.4439 40.0497 99.2002 39.5233 98.9516 39.0115L98.3668 37.4129C96.8787 32.9939 96.8787 28.2093 98.3668 23.7904L98.9516 22.1917L99.6876 20.6711L99.8728 20.2909L100.087 19.9351L100.526 19.2186L100.96 18.5071L101.447 17.8442L101.934 17.1862L102.183 16.8548L102.461 16.5526C102.826 16.1481 103.197 15.7484 103.557 15.3439C104.324 14.5995 105.138 13.906 105.994 13.2676L106.628 12.7802C106.842 12.6194 107.076 12.4976 107.296 12.3562C107.749 12.0881 108.188 11.8055 108.641 11.5569C109.55 11.0808 110.491 10.6688 111.458 10.3238C112.399 9.98204 113.361 9.70201 114.339 9.48549C114.826 9.38801 115.313 9.32952 115.801 9.25154L116.517 9.14432C116.756 9.1102 117.005 9.11507 117.238 9.09558L118.667 9.02734C119.154 9.02734 119.607 9.06633 120.07 9.08583C120.986 9.12786 121.899 9.23536 122.8 9.40751C123.239 9.47892 123.674 9.57822 124.101 9.70481C124.53 9.82179 124.959 9.90952 125.373 10.0509L126.582 10.4944L127.186 10.743L127.756 11.0159L128.872 11.5569C129.243 11.7275 129.574 11.9663 129.92 12.1661C130.266 12.366 130.608 12.5755 130.934 12.79L131.86 13.4869C134.056 15.1614 135.906 17.2452 137.309 19.6232C138.382 21.4044 139.173 23.3412 139.653 25.3646C139.746 25.7838 139.883 26.1688 139.926 26.5441C139.97 26.9194 140.029 27.2703 140.078 27.5969C140.126 27.9234 140.18 28.2207 140.204 28.4937C140.229 28.7666 140.204 29.0249 140.233 29.2491C140.233 29.6926 140.263 30.0338 140.272 30.2726C140.282 30.5115 140.277 30.6138 140.277 30.6138Z" fill="#13CE67"/>
<path d="M128.035 35.1864C130.493 29.7516 128.081 23.3529 122.646 20.8944C117.211 18.4359 110.812 20.8487 108.354 26.2835C105.895 31.7183 108.308 38.117 113.743 40.5755C119.178 43.0339 125.576 40.6212 128.035 35.1864Z" fill="#F5F5F5"/>
<path d="M107.412 30.0188C107.417 30.0772 107.417 30.1359 107.412 30.1943C107.412 30.321 107.412 30.4916 107.412 30.7061V31.0862C107.412 31.2227 107.412 31.3738 107.451 31.5395C107.478 31.9162 107.53 32.2908 107.607 32.6605C107.799 33.68 108.141 34.6654 108.621 35.5848C109.762 37.7974 111.638 39.5439 113.926 40.5248C116.214 41.5056 118.772 41.6598 121.162 40.9607C121.649 40.8188 122.126 40.6445 122.59 40.4392C123.061 40.2208 123.515 39.9683 123.95 39.6838C124.396 39.3976 124.823 39.0817 125.226 38.7382C125.626 38.3726 126.002 37.9819 126.352 37.5685C127.071 36.722 127.651 35.7661 128.068 34.7368C128.488 33.673 128.747 32.5528 128.838 31.4128C128.9 30.2653 128.788 29.1152 128.507 28.001C128.232 26.9239 127.784 25.8985 127.181 24.9646C126.884 24.5091 126.558 24.0728 126.206 23.6584C125.852 23.264 125.471 22.8944 125.066 22.552C124.671 22.214 124.252 21.9045 123.813 21.626C121.476 20.1748 118.671 19.6772 115.978 20.236C113.285 20.7948 110.909 22.3673 109.342 24.6283C108.744 25.4761 108.278 26.4095 107.958 27.3967C107.831 27.7528 107.73 28.1177 107.656 28.4884C107.622 28.6493 107.583 28.7955 107.559 28.932C107.534 29.0684 107.52 29.1951 107.505 29.3072C107.476 29.5217 107.451 29.6874 107.437 29.7946C107.431 29.854 107.419 29.9127 107.403 29.9701C107.395 29.9119 107.395 29.8529 107.403 29.7946C107.403 29.663 107.432 29.4973 107.451 29.2829C107.451 29.1659 107.476 29.0392 107.49 28.9027C107.505 28.7662 107.544 28.6152 107.578 28.4543C107.645 28.0776 107.74 27.7062 107.861 27.3431C108.168 26.3402 108.626 25.3901 109.221 24.526C110.077 23.2629 111.19 22.1953 112.488 21.393C113.786 20.5907 115.239 20.0719 116.751 19.8708C118.263 19.6697 119.801 19.7907 121.264 20.2259C122.726 20.6611 124.08 21.4007 125.236 22.3961C125.652 22.7452 126.043 23.123 126.406 23.5268C126.759 23.9488 127.085 24.3932 127.381 24.8574C127.999 25.8136 128.458 26.8637 128.741 27.9669C129.028 29.1016 129.143 30.2731 129.082 31.442C128.989 32.6121 128.723 33.7618 128.292 34.8537C127.866 35.9162 127.272 36.9035 126.533 37.7781C126.174 38.2008 125.788 38.5997 125.378 38.9722C124.964 39.3255 124.528 39.6511 124.071 39.9469C123.625 40.2357 123.159 40.493 122.677 40.717C120.41 41.6983 117.881 41.8972 115.488 41.2824C113.994 40.8924 112.599 40.1888 111.398 39.2181C110.196 38.2475 109.214 37.0322 108.519 35.6531C108.045 34.7171 107.717 33.7146 107.544 32.68C107.474 32.3049 107.43 31.9255 107.412 31.5444C107.412 31.3786 107.383 31.2276 107.383 31.0862C107.383 30.9449 107.383 30.823 107.383 30.7061C107.383 30.4916 107.383 30.321 107.408 30.1943C107.403 30.1358 107.404 30.077 107.412 30.0188Z" fill="#263238"/>
<path d="M123.092 31.0576C122.964 31.0709 122.835 31.0709 122.707 31.0576L121.659 31.082C120.767 31.082 119.529 31.082 118.125 31.082H118.057V30.3119C118.057 28.7474 118.057 27.334 118.057 26.3104C118.057 25.823 118.057 25.4039 118.082 25.0968C118.076 24.9469 118.085 24.7969 118.106 24.6484C118.128 24.7969 118.138 24.9468 118.135 25.0968C118.135 25.4039 118.135 25.8133 118.135 26.3104C118.135 27.334 118.16 28.7474 118.16 30.3119V31.0137L118.086 30.9455C119.49 30.9455 120.728 30.9455 121.62 30.9699H122.668C122.812 30.9825 122.955 31.0119 123.092 31.0576Z" fill="#263238"/>
<path d="M118.16 21.7002C118.251 22.3011 118.251 22.9123 118.16 23.5133C118.069 22.9123 118.069 22.3011 118.16 21.7002Z" fill="#263238"/>
<path d="M123.082 23.1572C122.727 23.6422 122.3 24.0696 121.815 24.4244C121.973 24.1678 122.17 23.9375 122.4 23.7421C122.595 23.5122 122.825 23.3148 123.082 23.1572Z" fill="#263238"/>
<path d="M125.958 26.3008C125.728 26.4909 125.478 26.6544 125.212 26.7882C124.97 26.9619 124.708 27.1059 124.432 27.2171C124.63 26.99 124.87 26.8031 125.139 26.6663C125.387 26.4949 125.665 26.3709 125.958 26.3008Z" fill="#263238"/>
<path d="M127.644 30.9647C126.821 31.0557 125.991 31.0557 125.168 30.9647C125.991 30.8737 126.821 30.8737 127.644 30.9647Z" fill="#263238"/>
<path d="M110.493 30.7997C109.716 30.8907 108.931 30.8907 108.153 30.7997C108.931 30.7087 109.716 30.7087 110.493 30.7997Z" fill="#263238"/>
<path d="M111.702 34.2695C111.443 34.5737 111.146 34.8439 110.82 35.0737C110.523 35.3421 110.196 35.5744 109.845 35.7658C110.108 35.466 110.404 35.1963 110.727 34.9616C111.025 34.6953 111.352 34.4632 111.702 34.2695Z" fill="#263238"/>
<path d="M114.699 36.9551C114.523 37.3171 114.321 37.6657 114.095 37.9981C113.91 38.3545 113.696 38.6952 113.456 39.0167C113.574 38.6285 113.749 38.2604 113.978 37.925C114.166 37.5662 114.409 37.2389 114.699 36.9551Z" fill="#263238"/>
<path d="M118.16 40.4203C118.069 39.5975 118.069 38.7671 118.16 37.9443C118.251 38.7671 118.251 39.5975 118.16 40.4203Z" fill="#263238"/>
<path d="M123.491 38.7724C123.116 38.5981 122.771 38.3626 122.473 38.0755C122.147 37.8173 121.866 37.5078 121.639 37.1592C121.964 37.4097 122.274 37.6799 122.565 37.9682C122.889 38.2183 123.199 38.4868 123.491 38.7724Z" fill="#263238"/>
<path d="M125.997 36.087C125.695 35.8816 125.42 35.6393 125.178 35.3657C124.901 35.127 124.658 34.8515 124.457 34.5469C124.758 34.7523 125.034 34.9946 125.275 35.2682C125.549 35.5101 125.791 35.7851 125.997 36.087Z" fill="#263238"/>
<path d="M111.59 27.4751C111.322 27.3009 111.079 27.091 110.868 26.8512C110.626 26.6408 110.416 26.3962 110.244 26.125C110.512 26.2992 110.755 26.5091 110.966 26.7489C111.208 26.9593 111.418 27.2039 111.59 27.4751Z" fill="#263238"/>
<path d="M114.68 24.2193C114.412 24.0545 114.172 23.8489 113.968 23.61C113.73 23.4059 113.523 23.1678 113.354 22.9033C113.621 23.0681 113.861 23.2737 114.065 23.5126C114.304 23.7167 114.511 23.9548 114.68 24.2193Z" fill="#263238"/>
<path d="M128.559 26.9459C131.453 25.7574 132.835 22.4485 131.646 19.5552C130.458 16.6619 127.149 15.2798 124.256 16.4683C121.363 17.6567 119.98 20.9656 121.169 23.8589C122.357 26.7522 125.666 28.1343 128.559 26.9459Z" fill="#13CE67"/>
<path d="M129.135 19.9355C128.934 20.2605 128.701 20.5642 128.438 20.8421C127.99 21.3782 127.352 22.1142 126.635 22.9135C126.435 23.1328 126.24 23.3424 126.055 23.552L125.972 23.6397L125.885 23.5617C125.236 22.9817 124.681 22.4651 124.291 22.0996C124.068 21.9164 123.87 21.7051 123.701 21.4708C123.954 21.6108 124.189 21.7828 124.398 21.9826C124.817 22.3238 125.373 22.816 126.045 23.3863H125.875C126.057 23.1783 126.247 22.9639 126.445 22.7429C127.162 21.9436 127.819 21.232 128.307 20.7202C128.551 20.4271 128.829 20.1638 129.135 19.9355Z" fill="#FAFAFA"/>
<path d="M75.0598 114.972C75.016 114.923 75.3815 114.513 75.8835 114.065C76.3855 113.617 76.8242 113.29 76.8583 113.344C76.8924 113.397 76.5366 113.802 76.0346 114.25C75.5326 114.699 75.1086 115.045 75.0598 114.972Z" fill="#13CE67"/>
<path d="M71.4384 118.232C71.3897 118.179 71.7552 117.774 72.2573 117.321C72.7593 116.868 73.2028 116.551 73.232 116.605C73.2613 116.658 72.9152 117.063 72.4132 117.511C71.9112 117.959 71.4823 118.286 71.4384 118.232Z" fill="#13CE67"/>
<path d="M67.8122 121.492C67.7634 121.439 68.1338 121.005 68.6359 120.581C68.9099 120.278 69.2412 120.033 69.6106 119.859C69.6545 119.913 69.289 120.318 68.7869 120.771C68.5129 121.073 68.1816 121.319 67.8122 121.492Z" fill="#13CE67"/>
<path d="M64.1909 124.749C64.1421 124.7 64.5077 124.291 65.0097 123.842C65.5117 123.394 65.9552 123.067 65.9845 123.121C66.0137 123.175 65.6677 123.579 65.1657 124.032C64.6636 124.486 64.2347 124.793 64.1909 124.749Z" fill="#13CE67"/>
<path d="M60.5647 128.009C60.516 127.955 60.8864 127.55 61.3884 127.102C61.8904 126.654 62.3291 126.327 62.3632 126.381C62.3973 126.434 62.0415 126.839 61.5395 127.287C61.0375 127.736 60.6135 128.062 60.5647 128.009Z" fill="#13CE67"/>
<path d="M68.3163 150.343C71.0468 138.81 63.9109 127.247 52.3779 124.516C40.8448 121.786 29.282 128.921 26.5514 140.454C23.8209 151.988 30.9568 163.55 42.4898 166.281C54.0229 169.012 65.5858 161.876 68.3163 150.343Z" fill="white"/>
<path d="M68.8941 145.403C68.8941 145.403 68.8941 145.286 68.8648 145.057C68.8356 144.828 68.8307 144.482 68.8015 144.038C68.8015 143.814 68.7722 143.551 68.7576 143.288C68.743 143.024 68.6699 142.713 68.6211 142.391C68.5724 142.069 68.5139 141.718 68.4554 141.348C68.3844 140.953 68.2917 140.563 68.1776 140.178C67.6768 138.17 66.8749 136.249 65.7991 134.481C64.3935 132.129 62.5485 130.071 60.3648 128.417L59.4387 127.716C59.1122 127.501 58.771 127.306 58.4298 127.097C58.0886 126.887 57.7621 126.663 57.3917 126.497L56.2804 125.966L55.7151 125.698L55.1253 125.478L53.9215 125.045C53.5121 124.908 53.088 124.82 52.664 124.704C52.2389 124.584 51.8077 124.486 51.3724 124.411C50.4803 124.247 49.5783 124.143 48.6723 124.099C48.2141 124.099 47.7463 124.041 47.2784 124.046L45.8698 124.119C45.631 124.119 45.3824 124.119 45.1533 124.167L44.4418 124.275C43.9544 124.353 43.467 124.411 43.0088 124.509C42.0432 124.725 41.0924 125.003 40.1625 125.342C39.2076 125.685 38.2777 126.094 37.3795 126.565C36.9262 126.809 36.4924 127.097 36.0489 127.36C35.8296 127.501 35.5956 127.618 35.3909 127.779L34.7622 128.266C33.9053 128.897 33.0912 129.584 32.3253 130.323L31.2433 131.517L30.9703 131.819L30.7218 132.146L30.2344 132.799L29.747 133.452L29.3181 134.154L28.8892 134.861L28.6747 135.216L28.4944 135.592C28.2507 136.079 28.007 136.591 27.7682 137.093C27.5294 137.595 27.3831 138.146 27.1882 138.677C25.7194 143.044 25.7194 147.772 27.1882 152.139C27.3831 152.665 27.5732 153.196 27.7682 153.718C27.9631 154.239 28.2556 154.727 28.4895 155.224L28.6747 155.599L28.8892 155.95L29.3181 156.657L29.747 157.363L30.2344 158.017L30.7218 158.67L30.9655 158.996L31.2384 159.298L32.3253 160.492C33.0912 161.231 33.9053 161.918 34.7622 162.549L35.3861 163.037C35.5956 163.193 35.8296 163.31 36.0489 163.451C36.4924 163.714 36.9262 164.002 37.3746 164.245C38.275 164.716 39.2064 165.125 40.1625 165.469C41.091 165.812 42.042 166.09 43.0088 166.302C43.4962 166.405 43.9836 166.458 44.4418 166.536L45.1533 166.648C45.3922 166.677 45.6407 166.677 45.8698 166.692L47.2832 166.765C47.7706 166.765 48.2141 166.726 48.6723 166.712C49.5785 166.67 50.4807 166.566 51.3724 166.4C51.8089 166.33 52.2403 166.233 52.664 166.107C53.088 165.99 53.5169 165.902 53.9215 165.771L55.1253 165.332L55.7199 165.118L56.2804 164.85L57.3917 164.314C57.7621 164.148 58.0886 163.909 58.4347 163.714C58.7807 163.519 59.1122 163.31 59.4387 163.095L60.3599 162.408C62.5463 160.756 64.3932 158.697 65.7991 156.345C66.875 154.568 67.6769 152.639 68.1776 150.623C68.2911 150.238 68.3839 149.848 68.4554 149.453C68.5139 149.078 68.5724 148.732 68.6211 148.405C68.6699 148.079 68.7283 147.786 68.7576 147.508C68.7868 147.231 68.7868 146.982 68.8015 146.758C68.8307 146.319 68.8502 145.978 68.8648 145.739C68.8794 145.5 68.8941 145.393 68.8941 145.393C68.8941 145.393 68.8941 145.51 68.8941 145.744C68.8941 145.978 68.8941 146.319 68.8551 146.763C68.8551 146.987 68.8551 147.25 68.8258 147.518C68.7966 147.786 68.7478 148.093 68.6991 148.415C68.6504 148.737 68.6016 149.092 68.548 149.468C68.4778 149.865 68.3867 150.259 68.2751 150.647C67.7922 152.67 67.0016 154.606 65.9307 156.389C64.5258 158.764 62.6757 160.846 60.4817 162.52L59.5508 163.222C59.2243 163.436 58.8782 163.631 58.5419 163.846C58.2056 164.06 57.8645 164.284 57.4892 164.455L56.373 164.996L55.8028 165.269L55.2082 165.488L53.9946 165.932C53.5852 166.073 53.1514 166.161 52.7274 166.278C52.2985 166.404 51.8623 166.503 51.4212 166.575C50.5218 166.747 49.6113 166.854 48.6967 166.897C48.2093 166.897 47.7609 166.96 47.2881 166.955L45.8601 166.887C45.6212 166.887 45.3727 166.887 45.1436 166.838L44.4223 166.731C43.9349 166.653 43.4475 166.599 42.9601 166.497C41.9822 166.283 41.0198 166.003 40.0796 165.659C39.1137 165.312 38.1725 164.9 37.2625 164.426C36.8092 164.182 36.3706 163.894 35.9173 163.626C35.698 163.485 35.4641 163.363 35.2496 163.202L34.616 162.715C33.7582 162.076 32.944 161.381 32.179 160.634L31.0824 159.43L30.8046 159.123L30.556 158.796L30.0687 158.134L29.5813 157.471L29.1426 156.764L28.7088 156.047L28.4944 155.687L28.3092 155.312L27.5732 153.786L26.9884 152.187C25.5003 147.768 25.5003 142.984 26.9884 138.565L27.5732 136.966C27.8218 136.479 28.0606 135.952 28.3092 135.446L28.4944 135.065L28.7137 134.71L29.1475 133.993L29.5813 133.286L30.0687 132.619L30.556 131.961L30.8046 131.634L31.0824 131.327L32.1693 130.153C32.9355 129.407 33.7496 128.711 34.6062 128.071L35.2447 127.584C35.4543 127.423 35.6883 127.301 35.9124 127.16C36.3608 126.897 36.7995 126.609 37.2528 126.361C38.1637 125.888 39.1048 125.476 40.0699 125.128C41.0159 124.79 41.983 124.515 42.965 124.304C43.4524 124.206 43.9397 124.148 44.4271 124.07L45.1436 123.963C45.3873 123.933 45.631 123.933 45.8649 123.919L47.293 123.846C47.7804 123.846 48.2336 123.885 48.7015 123.904C49.6162 123.947 50.5267 124.054 51.426 124.226C51.8652 124.3 52.2997 124.399 52.7274 124.523C53.1563 124.64 53.5852 124.733 53.9995 124.869L55.2131 125.313L55.8077 125.532L56.3779 125.805L57.494 126.346C57.8693 126.517 58.1959 126.755 58.5419 126.955C58.888 127.155 59.2291 127.365 59.5557 127.584L60.4817 128.281C62.6769 129.954 64.5273 132.036 65.9307 134.412C67.0058 136.195 67.7983 138.133 68.28 140.159C68.392 140.545 68.4831 140.937 68.5529 141.333C68.6065 141.709 68.6601 142.059 68.704 142.386C68.7478 142.713 68.8063 143.01 68.8307 143.288C68.8551 143.565 68.8307 143.814 68.8599 144.038C68.8599 144.482 68.8941 144.823 68.8989 145.062C68.9038 145.301 68.8941 145.403 68.8941 145.403Z" fill="#13CE67"/>
<path d="M58.2009 155.01C58.0637 155.029 57.9252 155.037 57.7867 155.035L56.6023 155.059L52.2158 155.103L37.8135 155.147H36.6681V155.01C36.6681 149.649 36.6973 144.805 36.7071 141.29C36.7071 139.57 36.7412 138.171 36.7509 137.172C36.7509 136.685 36.7509 136.334 36.7753 136.056C36.7679 135.926 36.7679 135.796 36.7753 135.666C36.7978 135.795 36.8076 135.925 36.8046 136.056C36.8046 136.334 36.8046 136.704 36.8046 137.172C36.8046 138.171 36.8046 139.57 36.8484 141.29C36.8484 144.805 36.8484 149.63 36.8874 155.01L36.7509 154.874H37.7793L52.1817 154.913L56.5682 154.957L57.7525 154.981C57.9026 154.976 58.0528 154.986 58.2009 155.01Z" fill="#263238"/>
<path d="M55.8224 140.359C55.6272 140.58 55.4136 140.784 55.1839 140.969L53.3806 142.553C51.8453 143.883 49.7154 145.706 47.3564 147.704L46.9958 148.011L46.9032 148.089L46.8154 148.007L44.1348 145.516H44.3298L40.3917 148.762L39.2512 149.673C39.1192 149.79 38.9754 149.893 38.8223 149.98C38.9338 149.844 39.0596 149.72 39.1976 149.61L40.2942 148.635L44.1641 145.316L44.2518 145.243L44.3346 145.321L47.025 147.797H46.8447L47.2005 147.495C49.5643 145.492 51.7137 143.693 53.2782 142.402L55.14 140.881C55.3544 140.691 55.5825 140.516 55.8224 140.359Z" fill="#263238"/>
<path d="M55.8225 144.839C55.7494 144.399 55.7183 143.954 55.7299 143.508C55.7299 142.68 55.6909 141.53 55.6909 140.253L55.8225 140.389H55.5935C54.2629 140.389 53.059 140.389 52.1817 140.35C51.7085 140.365 51.235 140.332 50.7683 140.253C51.2357 140.179 51.7087 140.147 52.1817 140.155C53.0542 140.155 54.258 140.116 55.5935 140.116H55.959V140.253C55.959 141.53 55.959 142.69 55.92 143.508C55.9349 143.954 55.9023 144.4 55.8225 144.839Z" fill="#263238"/>
<path d="M46.8122 90.4519C49.6532 78.9456 42.6287 67.3146 31.1224 64.4734C19.6161 61.6322 7.98526 68.6567 5.1442 80.163C2.30314 91.6694 9.32769 103.3 20.834 106.142C32.3403 108.983 43.9711 101.958 46.8122 90.4519Z" fill="white"/>
<path d="M47.4347 85.313C47.4347 85.313 47.4347 85.1912 47.4054 84.9621C47.3762 84.733 47.3713 84.387 47.3421 83.9435C47.3421 83.7193 47.3128 83.4561 47.2982 83.1929C47.2836 82.9297 47.2105 82.6226 47.1617 82.2961C47.113 81.9695 47.0545 81.6235 46.996 81.2531C46.9375 80.8827 46.8108 80.4976 46.7182 80.0833C46.2143 78.073 45.4091 76.1504 44.33 74.3809C42.9247 72.0282 41.0797 69.9681 38.8956 68.3129L37.9939 67.6257C37.6674 67.4161 37.3262 67.2211 36.985 67.0116C36.6439 66.802 36.3173 66.5778 35.9469 66.4072L34.8357 65.876L34.2703 65.6079L33.6805 65.3934L32.4767 64.9548C32.0673 64.8183 31.6433 64.7306 31.2192 64.6185C30.7953 64.494 30.3639 64.3964 29.9276 64.3261C29.0359 64.1596 28.1337 64.0554 27.2275 64.0141C26.7694 64.0141 26.3015 63.9508 25.8336 63.9605L24.425 64.0336C24.1862 64.0336 23.9376 64.0336 23.7086 64.0775L22.997 64.1896C22.5096 64.2676 22.0222 64.3212 21.5641 64.4187C20.5977 64.6346 19.6468 64.9147 18.7177 65.257C17.7629 65.5999 16.833 66.0087 15.9347 66.4803C15.4814 66.724 15.0477 67.0067 14.6041 67.2748C14.3848 67.4112 14.1509 67.5331 13.9462 67.689L13.3174 68.1764C12.4605 68.8073 11.6464 69.4944 10.8805 70.2332L9.79849 71.4273L9.52555 71.7246L9.27698 72.0512L8.78959 72.7043L8.3022 73.3622L7.8733 74.0641L7.4444 74.7708L7.22995 75.1217L7.04961 75.497L6.31366 76.9884L5.73366 78.5676C4.26486 82.9346 4.26486 87.6622 5.73366 92.0292C5.92862 92.5605 6.1187 93.0869 6.31366 93.6133C6.50861 94.1396 6.80105 94.6173 7.03499 95.1144L7.2202 95.4897L7.43465 95.8455L7.86355 96.5522L8.29246 97.2541L8.77985 97.912L9.26723 98.5651L9.51093 98.8868L9.78387 99.189L10.8707 100.383C11.6366 101.122 12.4507 101.809 13.3077 102.44L13.9315 102.927C14.1411 103.083 14.3751 103.205 14.5944 103.342C15.0379 103.61 15.4717 103.892 15.9201 104.136C17.7031 105.059 19.5964 105.752 21.5543 106.198C22.0417 106.295 22.5291 106.349 22.9872 106.432L23.6988 106.539C23.9376 106.568 24.1862 106.568 24.4153 106.583L25.8287 106.656C26.3161 106.656 26.7596 106.622 27.2178 106.602C28.124 106.561 29.0262 106.457 29.9179 106.29C30.3543 106.221 30.7858 106.123 31.2095 105.998C31.6335 105.886 32.0624 105.798 32.4669 105.662L33.6708 105.223L34.2654 105.008L34.8259 104.74L35.9372 104.209C36.3076 104.039 36.6341 103.8 36.9802 103.605C37.3262 103.41 37.6576 103.205 37.9842 102.991L38.9054 102.303C41.0882 100.644 42.9301 98.5785 44.33 96.2208C45.4015 94.4526 46.2016 92.5337 46.7036 90.5281C46.8171 90.1435 46.9099 89.753 46.9814 89.3583C47.0399 88.9879 47.0984 88.637 47.1471 88.3153C47.1958 87.9937 47.2543 87.6915 47.2836 87.4186C47.3128 87.1456 47.3128 86.8922 47.3274 86.668C47.3567 86.2244 47.3762 85.8881 47.3908 85.6493C47.4054 85.4105 47.42 85.3033 47.42 85.3033C47.42 85.3033 47.42 85.4203 47.42 85.6493C47.42 85.8784 47.42 86.2293 47.381 86.668C47.381 86.897 47.381 87.1553 47.3518 87.4234C47.3226 87.6915 47.2738 87.9985 47.2251 88.3251C47.1763 88.6516 47.1276 88.9977 47.074 89.373C47.0043 89.7707 46.9131 90.1645 46.8011 90.5525C46.319 92.5753 45.5283 94.5118 44.4567 96.2939C43.0552 98.6701 41.2084 100.754 39.0175 102.43L38.0865 103.127C37.76 103.342 37.4139 103.541 37.0776 103.751C36.7413 103.961 36.4002 104.194 36.0249 104.365L34.9088 104.906L34.3385 105.174L33.7439 105.393L32.5303 105.842C32.1209 105.978 31.6871 106.066 31.2631 106.183C30.8344 106.311 30.3981 106.412 29.9569 106.485C29.0568 106.652 28.1466 106.76 27.2324 106.807C26.745 106.807 26.2966 106.87 25.8238 106.865L24.3958 106.792C24.157 106.792 23.9084 106.792 23.6793 106.748L22.958 106.636C22.4706 106.558 21.9832 106.505 21.4958 106.407C20.5184 106.189 19.5562 105.907 18.6154 105.564C17.6525 105.214 16.7146 104.798 15.808 104.321C15.3547 104.077 14.9161 103.79 14.4628 103.522C14.2435 103.381 14.0095 103.264 13.7951 103.103L13.1615 102.615C12.3037 101.978 11.4896 101.285 10.7245 100.539L9.6279 99.3303L9.35009 99.0282L9.10152 98.7016L8.61413 98.0387L8.12674 97.3759L7.68809 96.6643L7.25432 95.9479L7.03987 95.5921L6.85466 95.2119C6.61096 94.7245 6.36727 94.1981 6.1187 93.6912L5.50459 92.1365C4.01654 87.7175 4.01654 82.9329 5.50459 78.514L6.08946 76.9153L6.82541 75.3898L7.01062 75.0145L7.22995 74.6538L7.66372 73.9422L8.0975 73.2307L8.58489 72.5678L9.07228 71.905L9.32085 71.5784L9.59866 71.2762L10.7002 70.0431C11.4652 69.2974 12.2793 68.6038 13.1371 67.9669L13.7756 67.4795C13.9852 67.3235 14.2191 67.2017 14.4433 67.0603C14.8917 66.7922 15.3304 66.5047 15.7836 66.261C16.6937 65.7866 17.6349 65.3747 18.6007 65.0279C19.5409 64.6839 20.5033 64.4038 21.4812 64.1896C21.9686 64.0872 22.456 64.0336 22.9434 63.9556L23.6598 63.8435C23.9035 63.8143 24.1472 63.8143 24.3812 63.7997L25.8092 63.7314C26.2966 63.7314 26.7499 63.7704 27.2178 63.7851C28.132 63.8322 29.0422 63.9397 29.9423 64.1067C30.382 64.1798 30.8167 64.2807 31.2436 64.4089C31.6725 64.5259 32.1014 64.6136 32.5157 64.7501L33.7293 65.1985L34.3239 65.4178L34.8941 65.6859L36.0444 66.2366C36.4197 66.4072 36.7462 66.6509 37.0923 66.8507C37.4383 67.0506 37.7795 67.2601 38.106 67.4746L39.0321 68.1716C41.2275 69.846 43.0779 71.9298 44.4811 74.3078C45.5561 76.0887 46.3485 78.0255 46.8303 80.0492C46.9229 80.4684 47.0594 80.8485 47.1032 81.2287C47.1471 81.6089 47.2105 81.95 47.2543 82.2766C47.2982 82.6031 47.3567 82.9004 47.381 83.1783C47.4054 83.4561 47.381 83.7046 47.4103 83.9337C47.4103 84.3772 47.4395 84.7135 47.4493 84.9524C47.459 85.1912 47.4347 85.313 47.4347 85.313Z" fill="#13CE67"/>
<path d="M26.5304 75.9707L28.8553 80.6838C28.9001 80.7708 28.965 80.8458 29.0447 80.9026C29.1244 80.9594 29.2165 80.9963 29.3134 81.0103L34.5138 81.7658C34.6257 81.7822 34.7306 81.8296 34.8168 81.9027C34.903 81.9758 34.967 82.0715 35.0015 82.1791C35.036 82.2867 35.0397 82.4019 35.0121 82.5114C34.9845 82.621 34.9267 82.7206 34.8453 82.799L31.0826 86.4642C31.0132 86.5333 30.9614 86.6181 30.9317 86.7114C30.902 86.8047 30.8953 86.9038 30.912 87.0003L31.7991 92.1764C31.8185 92.2877 31.8064 92.4022 31.764 92.507C31.7216 92.6117 31.6507 92.7025 31.5594 92.769C31.468 92.8354 31.3598 92.875 31.2471 92.8831C31.1344 92.8912 31.0217 92.8676 30.9218 92.8149L26.2721 90.3779C26.1857 90.3323 26.0895 90.3084 25.9919 90.3084C25.8942 90.3084 25.798 90.3323 25.7116 90.3779L21.057 92.8149C20.9574 92.8683 20.8447 92.8924 20.732 92.8845C20.6193 92.8766 20.5111 92.837 20.4199 92.7702C20.3287 92.7035 20.2582 92.6123 20.2166 92.5073C20.1749 92.4022 20.1639 92.2875 20.1846 92.1764L21.0717 87.0003C21.0874 86.9034 21.0797 86.8042 21.0491 86.7109C21.0186 86.6176 20.9662 86.533 20.8962 86.4642L17.1336 82.799C17.0539 82.7196 16.9978 82.6196 16.9715 82.5102C16.9452 82.4007 16.9497 82.2862 16.9845 82.1792C17.0193 82.0722 17.0831 81.9769 17.1688 81.9039C17.2545 81.8309 17.3587 81.7831 17.4699 81.7658L22.6703 81.0103C22.7664 80.996 22.8577 80.9589 22.9366 80.9021C23.0154 80.8453 23.0795 80.7704 23.1236 80.6838L25.4484 75.9707C25.4985 75.8701 25.5757 75.7854 25.6713 75.7263C25.7668 75.6671 25.877 75.6357 25.9894 75.6357C26.1018 75.6357 26.212 75.6671 26.3076 75.7263C26.4031 75.7854 26.4803 75.8701 26.5304 75.9707Z" fill="#FAFAFA"/>
<path d="M26.5303 75.9708C26.5303 75.9708 26.5303 75.9221 26.4328 75.8441C26.3645 75.7726 26.2793 75.7194 26.185 75.6894C26.0908 75.6594 25.9905 75.6537 25.8934 75.6726C25.7964 75.6915 25.7056 75.7346 25.6295 75.7977C25.5534 75.8609 25.4945 75.9423 25.458 76.0342L25.0048 76.9797C24.6636 77.6913 24.2444 78.554 23.757 79.558L23.3769 80.3378C23.3135 80.4743 23.2453 80.6108 23.177 80.7473C23.0898 80.9045 22.9447 81.0217 22.7725 81.0738C22.1243 81.181 21.4761 81.2688 20.7791 81.376L18.5956 81.7025L17.4405 81.878C17.3564 81.8945 17.2782 81.9328 17.2137 81.9891C17.1492 82.0454 17.1007 82.1177 17.073 82.1988C17.0453 82.2798 17.0395 82.3667 17.0561 82.4507C17.0727 82.5347 17.1111 82.6129 17.1675 82.6773L20.9351 86.3522C21.0375 86.4417 21.1132 86.5579 21.1536 86.6878C21.1941 86.8177 21.1977 86.9563 21.1641 87.0882L21.0472 87.79C20.9643 88.2774 20.8863 88.7356 20.8035 89.2132C20.6426 90.188 20.472 91.1628 20.3161 92.1375C20.29 92.2381 20.2968 92.3443 20.3354 92.4408C20.3739 92.5372 20.4423 92.6188 20.5305 92.6737C20.6151 92.7302 20.7171 92.7544 20.8181 92.7419C20.9283 92.7281 21.0337 92.688 21.1251 92.6249L22.5044 91.9036L25.3167 90.4414L25.6774 90.2513C25.8293 90.1798 26.0008 90.1609 26.1647 90.1977C26.303 90.2399 26.4356 90.2988 26.5595 90.3732L26.9104 90.5584L28.3092 91.2943L31.0338 92.7273C31.103 92.7555 31.1777 92.7675 31.2523 92.7622C31.3268 92.7569 31.3992 92.7346 31.4637 92.6969C31.5283 92.6592 31.5833 92.6072 31.6245 92.5449C31.6657 92.4825 31.6921 92.4115 31.7015 92.3374C31.7011 92.2242 31.688 92.1114 31.6625 92.0011C31.5796 91.5137 31.4968 91.0263 31.4139 90.5389C31.2531 89.5641 31.0922 88.643 30.9265 87.7218L30.8096 87.0394C30.7857 86.9081 30.7976 86.7728 30.8439 86.6477C30.8902 86.5225 30.9692 86.4121 31.0727 86.3278C31.3944 86.011 31.7161 85.704 32.0475 85.3969C32.6811 84.7828 33.2936 84.1866 33.885 83.6082L34.7623 82.7602C34.831 82.7115 34.8859 82.6459 34.9217 82.5697C34.9574 82.4936 34.9729 82.4094 34.9665 82.3255C34.9601 82.2416 34.9321 82.1608 34.8852 82.0909C34.8384 82.021 34.7742 81.9644 34.6989 81.9267C34.5318 81.863 34.3559 81.8252 34.1774 81.8146L33.6072 81.7318L32.5398 81.5709L30.5561 81.2736L29.6398 81.1372C29.4887 81.1079 29.3571 81.103 29.1963 81.0592C29.0429 81.0094 28.913 80.9054 28.8308 80.7667L27.5733 78.1836L26.7837 76.5411L26.5888 76.1171C26.5449 76.0196 26.5254 75.966 26.5254 75.966C26.5588 76.0077 26.5866 76.0536 26.6083 76.1024C26.6667 76.2097 26.7399 76.3461 26.8276 76.5216C27.0274 76.9066 27.315 77.4476 27.6513 78.1348L28.9429 80.6888C29.0042 80.7988 29.1027 80.8834 29.2207 80.9276C29.3376 80.9617 29.5034 80.9715 29.6447 80.9958L30.5561 81.1225L32.5447 81.4052L33.612 81.5563L34.1677 81.6343C34.3682 81.6443 34.5658 81.6871 34.7525 81.761C34.8511 81.8175 34.9347 81.8968 34.9964 81.9923C35.058 82.0877 35.0959 82.1965 35.1069 82.3096C35.1179 82.4227 35.1016 82.5368 35.0595 82.6423C35.0173 82.7478 34.9505 82.8417 34.8646 82.9161L33.9971 83.7691L32.1645 85.5627L31.1897 86.5033C31.115 86.5581 31.0574 86.633 31.0237 86.7193C30.9901 86.8057 30.9817 86.8998 30.9996 86.9907L31.1166 87.673C31.2758 88.5893 31.4383 89.5284 31.604 90.4902C31.6869 90.9775 31.7697 91.4649 31.8574 91.9523C31.8868 92.0851 31.8999 92.2209 31.8964 92.3569C31.884 92.5097 31.8205 92.6539 31.7161 92.7663C31.6152 92.8806 31.4804 92.9597 31.3314 92.9922C31.1823 93.0246 31.0269 93.0086 30.8875 92.9466L28.1435 91.5137L26.7837 90.7777L26.4328 90.5925C26.3285 90.5296 26.2173 90.4789 26.1014 90.4414C25.998 90.4192 25.8903 90.4312 25.7943 90.4755L25.4385 90.6607L22.6263 92.1229L21.247 92.8491C21.1238 92.9254 20.986 92.9752 20.8425 92.9953C20.6863 93.0078 20.5304 92.9684 20.3989 92.8832C20.27 92.8013 20.1698 92.6813 20.1121 92.5398C20.0545 92.3983 20.0423 92.2424 20.0773 92.0937C20.2495 91.0994 20.4119 90.1246 20.5646 89.1693C20.6475 88.6819 20.7304 88.1946 20.8132 87.7462L20.9302 87.0443C20.9612 86.9504 20.9628 86.8493 20.935 86.7544C20.9071 86.6595 20.851 86.5753 20.7742 86.5131L16.9921 82.804C16.9178 82.7097 16.8685 82.5982 16.8489 82.4797C16.8293 82.3613 16.84 82.2398 16.88 82.1266C16.9174 82.0166 16.9815 81.9176 17.0665 81.8385C17.1516 81.7594 17.255 81.7026 17.3674 81.6733L18.5371 81.5027L20.7206 81.1957L22.6994 80.913C22.8304 80.8741 22.9419 80.787 23.0113 80.6693L23.2112 80.2647L23.6011 79.4898L24.8878 76.931C25.0681 76.5801 25.2241 76.2681 25.3752 75.9952C25.4285 75.8714 25.5192 75.7673 25.6345 75.6974C25.7498 75.6275 25.8841 75.5953 26.0185 75.6053C26.0997 75.6109 26.1789 75.6333 26.2511 75.6711C26.3232 75.7088 26.3867 75.7611 26.4377 75.8246C26.4806 75.8646 26.5125 75.915 26.5303 75.9708Z" fill="#263238"/>
<path d="M46.8122 90.4519C49.6532 78.9456 42.6287 67.3146 31.1224 64.4734C19.6161 61.6322 7.98526 68.6567 5.1442 80.163C2.30314 91.6694 9.32769 103.3 20.834 106.142C32.3403 108.983 43.9711 101.958 46.8122 90.4519Z" fill="white"/>
<path d="M47.4347 85.313C47.4347 85.313 47.4347 85.1912 47.4054 84.9621C47.3762 84.733 47.3713 84.387 47.3421 83.9435C47.3421 83.7193 47.3128 83.4561 47.2982 83.1929C47.2836 82.9297 47.2105 82.6226 47.1617 82.2961C47.113 81.9695 47.0545 81.6235 46.996 81.2531C46.9375 80.8827 46.8108 80.4976 46.7182 80.0833C46.2143 78.073 45.4091 76.1504 44.33 74.3809C42.9247 72.0282 41.0797 69.9681 38.8956 68.3129L37.9939 67.6257C37.6674 67.4161 37.3262 67.2211 36.985 67.0116C36.6439 66.802 36.3173 66.5778 35.9469 66.4072L34.8357 65.876L34.2703 65.6079L33.6805 65.3934L32.4767 64.9548C32.0673 64.8183 31.6433 64.7306 31.2192 64.6185C30.7953 64.494 30.3639 64.3964 29.9276 64.3261C29.0359 64.1596 28.1337 64.0554 27.2275 64.0141C26.7694 64.0141 26.3015 63.9508 25.8336 63.9605L24.425 64.0336C24.1862 64.0336 23.9376 64.0336 23.7086 64.0775L22.997 64.1896C22.5096 64.2676 22.0222 64.3212 21.5641 64.4187C20.5977 64.6346 19.6468 64.9147 18.7177 65.257C17.7629 65.5999 16.833 66.0087 15.9347 66.4803C15.4814 66.724 15.0477 67.0067 14.6041 67.2748C14.3848 67.4112 14.1509 67.5331 13.9462 67.689L13.3174 68.1764C12.4605 68.8073 11.6464 69.4944 10.8805 70.2332L9.79849 71.4273L9.52555 71.7246L9.27698 72.0512L8.78959 72.7043L8.3022 73.3622L7.8733 74.0641L7.4444 74.7708L7.22995 75.1217L7.04961 75.497L6.31366 76.9884L5.73366 78.5676C4.26486 82.9346 4.26486 87.6622 5.73366 92.0292C5.92862 92.5605 6.1187 93.0869 6.31366 93.6133C6.50861 94.1396 6.80105 94.6173 7.03499 95.1144L7.2202 95.4897L7.43465 95.8455L7.86355 96.5522L8.29246 97.2541L8.77985 97.912L9.26723 98.5651L9.51093 98.8868L9.78387 99.189L10.8707 100.383C11.6366 101.122 12.4507 101.809 13.3077 102.44L13.9315 102.927C14.1411 103.083 14.3751 103.205 14.5944 103.342C15.0379 103.61 15.4717 103.892 15.9201 104.136C17.7031 105.059 19.5964 105.752 21.5543 106.198C22.0417 106.295 22.5291 106.349 22.9872 106.432L23.6988 106.539C23.9376 106.568 24.1862 106.568 24.4153 106.583L25.8287 106.656C26.3161 106.656 26.7596 106.622 27.2178 106.602C28.124 106.561 29.0262 106.457 29.9179 106.29C30.3543 106.221 30.7858 106.123 31.2095 105.998C31.6335 105.886 32.0624 105.798 32.4669 105.662L33.6708 105.223L34.2654 105.008L34.8259 104.74L35.9372 104.209C36.3076 104.039 36.6341 103.8 36.9802 103.605C37.3262 103.41 37.6576 103.205 37.9842 102.991L38.9054 102.303C41.0882 100.644 42.9301 98.5785 44.33 96.2208C45.4015 94.4526 46.2016 92.5337 46.7036 90.5281C46.8171 90.1435 46.9099 89.753 46.9814 89.3583C47.0399 88.9879 47.0984 88.637 47.1471 88.3153C47.1958 87.9937 47.2543 87.6915 47.2836 87.4186C47.3128 87.1456 47.3128 86.8922 47.3274 86.668C47.3567 86.2244 47.3762 85.8881 47.3908 85.6493C47.4054 85.4105 47.42 85.3033 47.42 85.3033C47.42 85.3033 47.42 85.4203 47.42 85.6493C47.42 85.8784 47.42 86.2293 47.381 86.668C47.381 86.897 47.381 87.1553 47.3518 87.4234C47.3226 87.6915 47.2738 87.9985 47.2251 88.3251C47.1763 88.6516 47.1276 88.9977 47.074 89.373C47.0043 89.7707 46.9131 90.1645 46.8011 90.5525C46.319 92.5753 45.5283 94.5118 44.4567 96.2939C43.0552 98.6701 41.2084 100.754 39.0175 102.43L38.0865 103.127C37.76 103.342 37.4139 103.541 37.0776 103.751C36.7413 103.961 36.4002 104.194 36.0249 104.365L34.9088 104.906L34.3385 105.174L33.7439 105.393L32.5303 105.842C32.1209 105.978 31.6871 106.066 31.2631 106.183C30.8344 106.311 30.3981 106.412 29.9569 106.485C29.0568 106.652 28.1466 106.76 27.2324 106.807C26.745 106.807 26.2966 106.87 25.8238 106.865L24.3958 106.792C24.157 106.792 23.9084 106.792 23.6793 106.748L22.958 106.636C22.4706 106.558 21.9832 106.505 21.4958 106.407C20.5184 106.189 19.5562 105.907 18.6154 105.564C17.6525 105.214 16.7146 104.798 15.808 104.321C15.3547 104.077 14.9161 103.79 14.4628 103.522C14.2435 103.381 14.0095 103.264 13.7951 103.103L13.1615 102.615C12.3037 101.978 11.4896 101.285 10.7245 100.539L9.6279 99.3303L9.35009 99.0282L9.10152 98.7016L8.61413 98.0387L8.12674 97.3759L7.68809 96.6643L7.25432 95.9479L7.03987 95.5921L6.85466 95.2119C6.61096 94.7245 6.36727 94.1981 6.1187 93.6912L5.50459 92.1365C4.01654 87.7175 4.01654 82.9329 5.50459 78.514L6.08946 76.9153L6.82541 75.3898L7.01062 75.0145L7.22995 74.6538L7.66372 73.9422L8.0975 73.2307L8.58489 72.5678L9.07228 71.905L9.32085 71.5784L9.59866 71.2762L10.7002 70.0431C11.4652 69.2974 12.2793 68.6038 13.1371 67.9669L13.7756 67.4795C13.9852 67.3235 14.2191 67.2017 14.4433 67.0603C14.8917 66.7922 15.3304 66.5047 15.7836 66.261C16.6937 65.7866 17.6349 65.3747 18.6007 65.0279C19.5409 64.6839 20.5033 64.4038 21.4812 64.1896C21.9686 64.0872 22.456 64.0336 22.9434 63.9556L23.6598 63.8435C23.9035 63.8143 24.1472 63.8143 24.3812 63.7997L25.8092 63.7314C26.2966 63.7314 26.7499 63.7704 27.2178 63.7851C28.132 63.8322 29.0422 63.9397 29.9423 64.1067C30.382 64.1798 30.8167 64.2807 31.2436 64.4089C31.6725 64.5259 32.1014 64.6136 32.5157 64.7501L33.7293 65.1985L34.3239 65.4178L34.8941 65.6859L36.0444 66.2366C36.4197 66.4072 36.7462 66.6509 37.0923 66.8507C37.4383 67.0506 37.7795 67.2601 38.106 67.4746L39.0321 68.1716C41.2275 69.846 43.0779 71.9298 44.4811 74.3078C45.5561 76.0887 46.3485 78.0255 46.8303 80.0492C46.9229 80.4684 47.0594 80.8485 47.1032 81.2287C47.1471 81.6089 47.2105 81.95 47.2543 82.2766C47.2982 82.6031 47.3567 82.9004 47.381 83.1783C47.4054 83.4561 47.381 83.7046 47.4103 83.9337C47.4103 84.3772 47.4395 84.7135 47.4493 84.9524C47.459 85.1912 47.4347 85.313 47.4347 85.313Z" fill="#13CE67"/>
<path d="M26.5304 75.9707L28.8553 80.6838C28.9001 80.7708 28.965 80.8458 29.0447 80.9026C29.1244 80.9594 29.2165 80.9963 29.3134 81.0103L34.5138 81.7658C34.6257 81.7822 34.7306 81.8296 34.8168 81.9027C34.903 81.9758 34.967 82.0715 35.0015 82.1791C35.036 82.2867 35.0397 82.4019 35.0121 82.5114C34.9845 82.621 34.9267 82.7206 34.8453 82.799L31.0826 86.4642C31.0132 86.5333 30.9614 86.6181 30.9317 86.7114C30.902 86.8047 30.8953 86.9038 30.912 87.0003L31.7991 92.1764C31.8185 92.2877 31.8064 92.4022 31.764 92.507C31.7216 92.6117 31.6507 92.7025 31.5594 92.769C31.468 92.8354 31.3598 92.875 31.2471 92.8831C31.1344 92.8912 31.0217 92.8676 30.9218 92.8149L26.2721 90.3779C26.1857 90.3323 26.0895 90.3084 25.9919 90.3084C25.8942 90.3084 25.798 90.3323 25.7116 90.3779L21.057 92.8149C20.9574 92.8683 20.8447 92.8924 20.732 92.8845C20.6193 92.8766 20.5111 92.837 20.4199 92.7702C20.3287 92.7035 20.2582 92.6123 20.2166 92.5073C20.1749 92.4022 20.1639 92.2875 20.1846 92.1764L21.0717 87.0003C21.0874 86.9034 21.0797 86.8042 21.0491 86.7109C21.0186 86.6176 20.9662 86.533 20.8962 86.4642L17.1336 82.799C17.0539 82.7196 16.9978 82.6196 16.9715 82.5102C16.9452 82.4007 16.9497 82.2862 16.9845 82.1792C17.0193 82.0722 17.0831 81.9769 17.1688 81.9039C17.2545 81.8309 17.3587 81.7831 17.4699 81.7658L22.6703 81.0103C22.7664 80.996 22.8577 80.9589 22.9366 80.9021C23.0154 80.8453 23.0795 80.7704 23.1236 80.6838L25.4484 75.9707C25.4985 75.8701 25.5757 75.7854 25.6713 75.7263C25.7668 75.6671 25.877 75.6357 25.9894 75.6357C26.1018 75.6357 26.212 75.6671 26.3076 75.7263C26.4031 75.7854 26.4803 75.8701 26.5304 75.9707Z" fill="#FAFAFA"/>
<path d="M26.5303 75.9708C26.5303 75.9708 26.5303 75.9221 26.4328 75.8441C26.3645 75.7726 26.2793 75.7194 26.185 75.6894C26.0908 75.6594 25.9905 75.6537 25.8934 75.6726C25.7964 75.6915 25.7056 75.7346 25.6295 75.7977C25.5534 75.8609 25.4945 75.9423 25.458 76.0342L25.0048 76.9797C24.6636 77.6913 24.2444 78.554 23.757 79.558L23.3769 80.3378C23.3135 80.4743 23.2453 80.6108 23.177 80.7473C23.0898 80.9045 22.9447 81.0217 22.7725 81.0738C22.1243 81.181 21.4761 81.2688 20.7791 81.376L18.5956 81.7025L17.4405 81.878C17.3564 81.8945 17.2782 81.9328 17.2137 81.9891C17.1492 82.0454 17.1007 82.1177 17.073 82.1988C17.0453 82.2798 17.0395 82.3667 17.0561 82.4507C17.0727 82.5347 17.1111 82.6129 17.1675 82.6773L20.9351 86.3522C21.0375 86.4417 21.1132 86.5579 21.1536 86.6878C21.1941 86.8177 21.1977 86.9563 21.1641 87.0882L21.0472 87.79C20.9643 88.2774 20.8863 88.7356 20.8035 89.2132C20.6426 90.188 20.472 91.1628 20.3161 92.1375C20.29 92.2381 20.2968 92.3443 20.3354 92.4408C20.3739 92.5372 20.4423 92.6188 20.5305 92.6737C20.6151 92.7302 20.7171 92.7544 20.8181 92.7419C20.9283 92.7281 21.0337 92.688 21.1251 92.6249L22.5044 91.9036L25.3167 90.4414L25.6774 90.2513C25.8293 90.1798 26.0008 90.1609 26.1647 90.1977C26.303 90.2399 26.4356 90.2988 26.5595 90.3732L26.9104 90.5584L28.3092 91.2943L31.0338 92.7273C31.103 92.7555 31.1777 92.7675 31.2523 92.7622C31.3268 92.7569 31.3992 92.7346 31.4637 92.6969C31.5283 92.6592 31.5833 92.6072 31.6245 92.5449C31.6657 92.4825 31.6921 92.4115 31.7015 92.3374C31.7011 92.2242 31.688 92.1114 31.6625 92.0011C31.5796 91.5137 31.4968 91.0263 31.4139 90.5389C31.2531 89.5641 31.0922 88.643 30.9265 87.7218L30.8096 87.0394C30.7857 86.9081 30.7976 86.7728 30.8439 86.6477C30.8902 86.5225 30.9692 86.4121 31.0727 86.3278C31.3944 86.011 31.7161 85.704 32.0475 85.3969C32.6811 84.7828 33.2936 84.1866 33.885 83.6082L34.7623 82.7602C34.831 82.7115 34.8859 82.6459 34.9217 82.5697C34.9574 82.4936 34.9729 82.4094 34.9665 82.3255C34.9601 82.2416 34.9321 82.1608 34.8852 82.0909C34.8384 82.021 34.7742 81.9644 34.6989 81.9267C34.5318 81.863 34.3559 81.8252 34.1774 81.8146L33.6072 81.7318L32.5398 81.5709L30.5561 81.2736L29.6398 81.1372C29.4887 81.1079 29.3571 81.103 29.1963 81.0592C29.0429 81.0094 28.913 80.9054 28.8308 80.7667L27.5733 78.1836L26.7837 76.5411L26.5888 76.1171C26.5449 76.0196 26.5254 75.966 26.5254 75.966C26.5588 76.0077 26.5866 76.0536 26.6083 76.1024C26.6667 76.2097 26.7399 76.3461 26.8276 76.5216C27.0274 76.9066 27.315 77.4476 27.6513 78.1348L28.9429 80.6888C29.0042 80.7988 29.1027 80.8834 29.2207 80.9276C29.3376 80.9617 29.5034 80.9715 29.6447 80.9958L30.5561 81.1225L32.5447 81.4052L33.612 81.5563L34.1677 81.6343C34.3682 81.6443 34.5658 81.6871 34.7525 81.761C34.8511 81.8175 34.9347 81.8968 34.9964 81.9923C35.058 82.0877 35.0959 82.1965 35.1069 82.3096C35.1179 82.4227 35.1016 82.5368 35.0595 82.6423C35.0173 82.7478 34.9505 82.8417 34.8646 82.9161L33.9971 83.7691L32.1645 85.5627L31.1897 86.5033C31.115 86.5581 31.0574 86.633 31.0237 86.7193C30.9901 86.8057 30.9817 86.8998 30.9996 86.9907L31.1166 87.673C31.2758 88.5893 31.4383 89.5284 31.604 90.4902C31.6869 90.9775 31.7697 91.4649 31.8574 91.9523C31.8868 92.0851 31.8999 92.2209 31.8964 92.3569C31.884 92.5097 31.8205 92.6539 31.7161 92.7663C31.6152 92.8806 31.4804 92.9597 31.3314 92.9922C31.1823 93.0246 31.0269 93.0086 30.8875 92.9466L28.1435 91.5137L26.7837 90.7777L26.4328 90.5925C26.3285 90.5296 26.2173 90.4789 26.1014 90.4414C25.998 90.4192 25.8903 90.4312 25.7943 90.4755L25.4385 90.6607L22.6263 92.1229L21.247 92.8491C21.1238 92.9254 20.986 92.9752 20.8425 92.9953C20.6863 93.0078 20.5304 92.9684 20.3989 92.8832C20.27 92.8013 20.1698 92.6813 20.1121 92.5398C20.0545 92.3983 20.0423 92.2424 20.0773 92.0937C20.2495 91.0994 20.4119 90.1246 20.5646 89.1693C20.6475 88.6819 20.7304 88.1946 20.8132 87.7462L20.9302 87.0443C20.9612 86.9504 20.9628 86.8493 20.935 86.7544C20.9071 86.6595 20.851 86.5753 20.7742 86.5131L16.9921 82.804C16.9178 82.7097 16.8685 82.5982 16.8489 82.4797C16.8293 82.3613 16.84 82.2398 16.88 82.1266C16.9174 82.0166 16.9815 81.9176 17.0665 81.8385C17.1516 81.7594 17.255 81.7026 17.3674 81.6733L18.5371 81.5027L20.7206 81.1957L22.6994 80.913C22.8304 80.8741 22.9419 80.787 23.0113 80.6693L23.2112 80.2647L23.6011 79.4898L24.8878 76.931C25.0681 76.5801 25.2241 76.2681 25.3752 75.9952C25.4285 75.8714 25.5192 75.7673 25.6345 75.6974C25.7498 75.6275 25.8841 75.5953 26.0185 75.6053C26.0997 75.6109 26.1789 75.6333 26.2511 75.6711C26.3232 75.7088 26.3867 75.7611 26.4377 75.8246C26.4806 75.8646 26.5125 75.915 26.5303 75.9708Z" fill="#263238"/>
</svg>
