<svg width="168" height="101" viewBox="0 0 168 101" fill="none" xmlns="http://www.w3.org/2000/svg">
<g filter="url(#filter0_d)">
<path d="M83.7589 91C125.047 91 158.518 74.5152 158.518 54.1802C158.518 33.8452 125.047 17.3605 83.7589 17.3605C42.4707 17.3605 9 33.8452 9 54.1802C9 74.5152 42.4707 91 83.7589 91Z" fill="#F5F5F5"/>
</g>
<path d="M83.0194 27.4347L44.5884 8.0212C60.86 -0.094912 86.4021 -2.523 107.47 2.92147C133.496 9.66616 146.089 26.8539 133.538 40.2571L83.0194 27.4347Z" fill="#199D68"/>
<path d="M83.019 27.4347V54.2224L133.538 67.041V40.2571L83.019 27.4347Z" fill="#199D68"/>
<path opacity="0.15" d="M83.019 27.4347V54.2224L133.538 67.041V40.2571L83.019 27.4347Z" fill="black"/>
<path d="M44.5884 8.02121V34.8051L83.0194 54.2223V27.4347L44.5884 8.02121Z" fill="#199D68"/>
<path opacity="0.2" d="M44.5884 8.02121V34.8051L83.0194 54.2223V27.4347L44.5884 8.02121Z" fill="black"/>
<path d="M133.539 67.041C136.879 63.4738 138.437 59.6368 138.437 55.7998V29.0159C138.437 32.8529 136.879 36.6899 133.539 40.2571V67.041Z" fill="#199D68"/>
<path opacity="0.3" d="M133.539 67.041C136.879 63.4738 138.437 59.6368 138.437 55.7998V29.0159C138.437 32.8529 136.879 36.6899 133.539 40.2571V67.041Z" fill="black"/>
<path d="M122.482 52.2776C118.424 54.305 114.161 56.0008 109.747 57.3436L87.7207 35.4871L130.948 46.6046C128.434 48.8244 125.586 50.7331 122.482 52.2776Z" fill="#455A64"/>
<path d="M87.7207 35.4871V58.5839L109.747 80.4367V57.3436L87.7207 35.4871Z" fill="#263238"/>
<path d="M109.748 80.4368C114.162 79.0955 118.425 77.3996 122.482 75.3708C125.587 73.8228 128.435 71.9103 130.948 69.6865V46.6046C128.435 48.8245 125.586 50.7332 122.482 52.2777C118.424 54.3051 114.161 56.0009 109.748 57.3437V80.4368Z" fill="#37474F"/>
<path d="M53.8459 64.849C49.6838 63.6537 46.2839 61.9038 42.7127 60.1352C24.6255 51.1423 21.7308 32.7106 40.7258 22.0764L77.9536 40.793L53.8459 64.849Z" fill="#199D68"/>
<path opacity="0.3" d="M53.8459 64.849C49.6838 63.6537 46.2839 61.9038 42.7127 60.1352C24.6255 51.1423 21.7308 32.7106 40.7258 22.0764L77.9536 40.793L53.8459 64.849Z" fill="black"/>
<path d="M77.975 40.7929L53.8545 64.849V79.6985L77.975 55.6425V40.7929Z" fill="#199D68"/>
<path opacity="0.5" d="M77.975 40.7929L53.8545 64.849V79.6985L77.975 55.6425V40.7929Z" fill="black"/>
<path d="M53.846 79.6986C49.6839 78.5033 46.284 76.7534 42.7128 74.9848C33.0783 70.1961 27.7515 62.7282 27.7515 55.1891V40.2571C27.7515 47.7962 33.0783 55.2641 42.7128 60.0528C46.2711 61.8214 49.671 63.5713 53.846 64.7666V79.6986Z" fill="#199D68"/>
<path opacity="0.4" d="M53.846 79.6986C49.6839 78.5033 46.284 76.7534 42.7128 74.9848C33.0783 70.1961 27.7515 62.7282 27.7515 55.1891V40.2571C27.7515 47.7962 33.0783 55.2641 42.7128 60.0528C46.2711 61.8214 49.671 63.5713 53.846 64.7666V79.6986Z" fill="black"/>
<path d="M104.776 71.455C90.4485 74.9323 72.948 74.2878 58.5562 70.8105L81.3706 48.2233L104.776 71.455Z" fill="#199D68"/>
<path opacity="0.7" d="M104.776 71.455C90.4485 74.9323 72.948 74.2878 58.5562 70.8105L81.3706 48.2233L104.776 71.455Z" fill="white"/>
<path d="M58.5562 81.0513C72.9522 84.5248 90.4528 85.173 104.802 81.692V71.4551C90.4485 74.9323 72.948 74.2878 58.5562 70.8106V81.0513Z" fill="#199D68"/>
<path opacity="0.5" d="M58.5562 81.0513C72.9522 84.5248 90.4528 85.173 104.802 81.692V71.4551C90.4485 74.9323 72.948 74.2878 58.5562 70.8106V81.0513Z" fill="white"/>
<rect width="31.9006" height="6.81682" rx="2.52564" transform="matrix(0.892282 0.451478 -0.829516 0.558483 61.0171 5.18508)" fill="#F8FDFA"/>
<path d="M61.0551 11.2548L62.8415 10.0466L60.4211 10.5619L60.0862 10.3925L60.583 8.94908L58.8303 10.1291L58.1331 9.77632L61.1182 7.76654L61.7329 8.07756L61.0796 9.93459L64.1182 9.28448L64.7283 9.59317L61.7523 11.6076L61.0551 11.2548ZM67.1185 10.8026C67.4029 10.9465 67.605 11.1007 67.7248 11.2653C67.8477 11.4314 67.8847 11.5976 67.8358 11.764C67.7869 11.9303 67.6516 12.0881 67.4298 12.2374C67.2109 12.3848 66.9624 12.4854 66.6844 12.5392C66.4092 12.591 66.122 12.5932 65.8229 12.5458C65.5296 12.498 65.2408 12.4021 64.9564 12.2582L64.3096 11.931L63.4866 12.4851L62.7435 12.1091L65.7286 10.0993L67.1185 10.8026ZM65.478 11.8584C65.7013 11.9713 65.9151 12.0275 66.1194 12.027C66.3266 12.0245 66.5126 11.9678 66.6775 11.8568C66.8453 11.7439 66.9151 11.6283 66.887 11.5102C66.8618 11.3902 66.7376 11.2736 66.5143 11.1607L65.9088 10.8543L64.8725 11.552L65.478 11.8584ZM67.3364 14.4934C67.0826 14.365 66.8677 14.2194 66.6917 14.0565C66.5216 13.8934 66.4159 13.741 66.3745 13.5993L67.1471 13.3767C67.1909 13.5095 67.2791 13.643 67.4119 13.7772C67.5446 13.9115 67.7058 14.0265 67.8954 14.1225C68.1064 14.2292 68.2908 14.289 68.4486 14.3018C68.6092 14.3127 68.7378 14.2856 68.8345 14.2205C68.9056 14.1726 68.9333 14.1179 68.9176 14.0563C68.9078 13.9944 68.8697 13.9299 68.8034 13.8628C68.7401 13.7972 68.6459 13.7127 68.521 13.6093C68.3304 13.4491 68.1841 13.3114 68.0822 13.1961C67.9802 13.0808 67.9324 12.9544 67.9386 12.8167C67.948 12.6806 68.0521 12.5456 68.2511 12.4116C68.4245 12.2949 68.6314 12.2151 68.8716 12.1724C69.1147 12.1278 69.3783 12.1287 69.6626 12.1754C69.9499 12.2235 70.2404 12.3219 70.534 12.4704C70.7389 12.5741 70.9164 12.6908 71.0667 12.8204C71.2169 12.9501 71.3228 13.0807 71.3843 13.2124L70.6304 13.4495C70.4901 13.1942 70.2716 12.9914 69.975 12.8413C69.7671 12.7361 69.5814 12.679 69.4179 12.6701C69.2575 12.6627 69.1261 12.6934 69.0238 12.7623C68.9214 12.8312 68.9012 12.9115 68.9632 13.0033C69.0311 13.0946 69.1586 13.2161 69.3457 13.3678C69.5364 13.5279 69.6827 13.6657 69.7846 13.7809C69.8866 13.8962 69.9343 14.021 69.9278 14.1551C69.9244 14.2909 69.8232 14.4257 69.6242 14.5597C69.4536 14.6745 69.2453 14.7535 68.9991 14.7966C68.7589 14.8393 68.4951 14.8366 68.2078 14.7885C67.9205 14.7403 67.63 14.6419 67.3364 14.4934ZM72.5297 14.2043L71.5021 13.6844L72.065 13.3055L74.8632 14.7213L74.3003 15.1003L73.2728 14.5803L70.8506 16.2111L70.1074 15.8351L72.5297 14.2043ZM75.1003 17.6071L73.6095 16.8528L72.6854 17.1396L71.924 16.7543L76.3403 15.4686L77.0742 15.84L75.5249 18.5763L74.7451 18.1817L75.1003 17.6071ZM75.3909 17.1356L76.0246 16.1085L74.3726 16.6203L75.3909 17.1356ZM79.0135 17.485L77.9859 16.9651L78.5489 16.5861L81.347 18.002L80.7841 18.3809L79.7566 17.861L77.3344 19.4918L76.5913 19.1158L79.0135 17.485ZM79.9725 20.887C79.7187 20.7586 79.5038 20.613 79.3278 20.4502C79.1577 20.287 79.052 20.1346 79.0106 19.993L79.7832 19.7704C79.827 19.9032 79.9153 20.0367 80.048 20.1709C80.1807 20.3051 80.3419 20.4202 80.5315 20.5161C80.7425 20.6229 80.9269 20.6827 81.0847 20.6954C81.2453 20.7063 81.3739 20.6792 81.4706 20.6141C81.5417 20.5663 81.5694 20.5116 81.5537 20.45C81.5439 20.388 81.5059 20.3235 81.4395 20.2564C81.3762 20.1908 81.2821 20.1064 81.1572 20.0029C80.9665 19.8428 80.8202 19.7051 80.7183 19.5898C80.6164 19.4745 80.5685 19.348 80.5748 19.2104C80.5841 19.0743 80.6882 18.9392 80.8872 18.8053C81.0607 18.6885 81.2675 18.6088 81.5077 18.566C81.7508 18.5214 82.0144 18.5224 82.2987 18.569C82.5861 18.6172 82.8765 18.7155 83.1701 18.8641C83.375 18.9677 83.5526 19.0844 83.7028 19.214C83.853 19.3437 83.9589 19.4744 84.0204 19.6061L83.2665 19.8432C83.1262 19.5878 82.9078 19.3851 82.6111 19.235C82.4032 19.1298 82.2175 19.0727 82.054 19.0637C81.8936 19.0563 81.7622 19.0871 81.6599 19.156C81.5575 19.2249 81.5374 19.3052 81.5993 19.3969C81.6672 19.4882 81.7947 19.6097 81.9819 19.7614C82.1725 19.9216 82.3188 20.0593 82.4207 20.1746C82.5227 20.2899 82.5704 20.4146 82.5639 20.5488C82.5605 20.6845 82.4593 20.8194 82.2603 20.9533C82.0897 21.0682 81.8814 21.1472 81.6353 21.1903C81.395 21.233 81.1313 21.2303 80.8439 21.1821C80.5566 21.1339 80.2661 21.0356 79.9725 20.887ZM82.1841 21.9658C82.1322 21.9395 82.1033 21.9048 82.0977 21.8618C82.098 21.8183 82.1237 21.7793 82.1749 21.7449C82.226 21.7104 82.287 21.691 82.3578 21.6866C82.4317 21.6838 82.4946 21.6955 82.5466 21.7218C82.5986 21.7481 82.6259 21.782 82.6285 21.8236C82.6341 21.8666 82.6114 21.9054 82.5602 21.9399C82.509 21.9743 82.4451 21.9939 82.3683 21.9987C82.2975 22.0031 82.2361 21.9921 82.1841 21.9658ZM86.4349 20.5763L86.6689 20.6947L83.6837 22.7045L83.4498 22.5861L86.4349 20.5763ZM53.8464 14.4799C53.5314 14.3205 53.3124 14.1326 53.1894 13.9161C53.0692 13.6977 53.0508 13.4739 53.1343 13.2446C53.2208 13.0168 53.4063 12.8072 53.6906 12.6158C53.9749 12.4244 54.304 12.2876 54.678 12.2052C55.0551 12.1245 55.4359 12.1043 55.8205 12.1447C56.208 12.1831 56.5592 12.282 56.8742 12.4414C57.1891 12.6008 57.4082 12.7887 57.5312 13.0052C57.6543 13.2217 57.6725 13.4438 57.5859 13.6716C57.5025 13.9009 57.3171 14.1122 57.03 14.3055C56.7429 14.4988 56.4108 14.6359 56.0337 14.7166C55.6597 14.799 55.2804 14.8199 54.8958 14.7795C54.5112 14.7392 54.1614 14.6393 53.8464 14.4799ZM54.0468 14.345C54.3159 14.4811 54.6159 14.5659 54.9468 14.5992C55.2776 14.6325 55.6052 14.6138 55.9296 14.5433C56.2568 14.4708 56.5441 14.3513 56.7915 14.1848C57.0388 14.0183 57.1993 13.8363 57.2729 13.6389C57.3494 13.4396 57.3359 13.2467 57.2325 13.0603C57.1291 12.8738 56.9428 12.7125 56.6737 12.5764C56.4046 12.4402 56.1031 12.3547 55.7692 12.3199C55.4384 12.2866 55.1093 12.3061 54.7821 12.3786C54.4577 12.4491 54.1718 12.5677 53.9245 12.7342C53.6772 12.9007 53.5153 13.0837 53.4388 13.283C53.3652 13.4804 53.3801 13.6723 53.4835 13.8588C53.5899 14.0467 53.7777 14.2088 54.0468 14.345Z" fill="#474A50"/>
<defs>
<filter id="filter0_d" x="0.461835" y="9.96073" width="166.594" height="90.7158" filterUnits="userSpaceOnUse" color-interpolation-filters="sRGB">
<feFlood flood-opacity="0" result="BackgroundImageFix"/>
<feColorMatrix in="SourceAlpha" type="matrix" values="0 0 0 0 0 0 0 0 0 0 0 0 0 0 0 0 0 0 127 0"/>
<feOffset dy="1.13842"/>
<feGaussianBlur stdDeviation="4.26908"/>
<feColorMatrix type="matrix" values="0 0 0 0 0 0 0 0 0 0 0 0 0 0 0 0 0 0 0.1 0"/>
<feBlend mode="normal" in2="BackgroundImageFix" result="effect1_dropShadow"/>
<feBlend mode="normal" in="SourceGraphic" in2="effect1_dropShadow" result="shape"/>
</filter>
</defs>
</svg>
