<svg width="53" height="76" viewBox="0 0 53 76" fill="none" xmlns="http://www.w3.org/2000/svg">
<path d="M4.18281 74.5091C3.56297 74.8658 2.7893 74.4184 2.7893 73.7032V20.2375C2.7893 19.5147 3.57771 19.0684 4.19743 19.4402L6.98672 21.1138C7.26677 21.2818 7.43813 21.5844 7.43813 21.911V52.3561C7.43813 53.0628 8.19534 53.5112 8.81496 53.1714L35.8096 38.3679C36.0904 38.2139 36.4306 38.2153 36.7102 38.3715L50.6357 46.1534C51.2661 46.5057 51.2718 47.4107 50.6459 47.7709L4.18281 74.5091Z" fill="#418200"/>
<path d="M48.8127 24.2985C49.4326 24.6563 49.4325 25.551 48.8127 25.9089L13.9465 46.0389C13.3266 46.3968 12.5518 45.9494 12.5518 45.2337L12.5518 4.97365C12.5518 4.25792 13.3266 3.81059 13.9465 4.16845L48.8127 24.2985Z" fill="#81C700"/>
</svg>
