<svg width="271" height="219" viewBox="0 0 271 219" fill="none" xmlns="http://www.w3.org/2000/svg">
<path d="M139.493 70.7633L51.9714 20.6894C89.0281 -0.24481 147.197 -6.50766 195.176 7.53546C254.447 24.9323 283.127 69.2652 254.545 103.837L139.493 70.7633Z" fill="url(#paint0_linear)"/>
<path d="M139.493 70.7634V139.858L254.544 172.921V103.837L139.493 70.7634Z" fill="#199D68"/>
<g opacity="0.15" filter="url(#filter0_d)">
<path d="M139.493 70.7634V139.858L254.544 172.921V103.837L139.493 70.7634Z" fill="black"/>
</g>
<path d="M51.9709 20.6893V89.7741L139.493 139.858V70.7632L51.9709 20.6893Z" fill="#199D68"/>
<path opacity="0.2" d="M51.9709 20.6893V89.7741L139.493 139.858V70.7632L51.9709 20.6893Z" fill="black"/>
<path d="M254.544 172.921C262.151 163.72 265.7 153.824 265.7 143.927V74.8419C265.7 84.7388 262.151 94.6357 254.544 103.837V172.921Z" fill="#199D68"/>
<g opacity="0.3" filter="url(#filter1_d)">
<path d="M254.544 172.921C262.151 163.72 265.7 153.824 265.7 143.927V74.8419C265.7 84.7388 262.151 94.6357 254.544 103.837V172.921Z" fill="black"/>
</g>
<rect width="76.4121" height="15.8987" rx="4.42089" transform="matrix(0.849712 0.486944 -0.811292 0.618636 78.5848 12.0284)" fill="#F8FDFA"/>
<path d="M79.897 25.8317L83.1623 23.3309L78.784 24.4235L78.1881 24.082L79.1413 21.1202L75.938 23.5628L74.6972 22.8518L80.1529 18.6916L81.2468 19.3184L79.9951 23.1293L85.4916 21.751L86.5773 22.3732L81.1378 26.5427L79.897 25.8317ZM90.8308 24.8108C91.337 25.1008 91.6945 25.4133 91.9035 25.7482C92.1179 26.0862 92.1777 26.4258 92.0829 26.767C91.9881 27.1083 91.738 27.4334 91.3327 27.7424C90.9327 28.0475 90.4813 28.2573 89.9785 28.3717C89.481 28.4821 88.964 28.4912 88.4274 28.3988C87.9014 28.3056 87.3854 28.114 86.8793 27.8239L85.7283 27.1643L84.2241 28.3114L82.9017 27.5535L88.3574 23.3933L90.8308 24.8108ZM87.8346 26.9973C88.2319 27.225 88.6145 27.3367 88.9824 27.3324C89.3554 27.3241 89.6926 27.205 89.994 26.9752C90.3006 26.7415 90.431 26.5039 90.3853 26.2626C90.3447 26.0173 90.1258 25.7808 89.7286 25.5532L88.6511 24.9357L86.7571 26.3799L87.8346 26.9973ZM91.0726 32.3609C90.6209 32.1021 90.24 31.8075 89.9298 31.477C89.6303 31.1458 89.4462 30.8355 89.3774 30.5463L90.7773 30.0786C90.8507 30.3496 91.0041 30.6215 91.2376 30.8941C91.4711 31.1667 91.7566 31.3997 92.094 31.593C92.4695 31.8082 92.799 31.9276 93.0825 31.9513C93.3712 31.971 93.6039 31.9135 93.7805 31.7788C93.9104 31.6798 93.9625 31.5674 93.9368 31.4416C93.9218 31.315 93.8558 31.1835 93.7391 31.0472C93.6278 30.914 93.4618 30.7426 93.2412 30.5329C92.9046 30.2081 92.6468 29.9286 92.468 29.6942C92.2892 29.4599 92.2082 29.2018 92.2251 28.92C92.2474 28.6413 92.4404 28.3633 92.8041 28.086C93.1211 27.8443 93.4967 27.6778 93.9309 27.5866C94.3702 27.4914 94.8449 27.4893 95.3547 27.5802C95.87 27.6743 96.3889 27.871 96.9113 28.1704C97.2759 28.3793 97.5908 28.6153 97.856 28.8783C98.1211 29.1413 98.3064 29.4071 98.4117 29.6756L97.0449 30.1727C96.8028 29.6523 96.4178 29.2408 95.8899 28.9383C95.5199 28.7263 95.1879 28.6123 94.894 28.5966C94.6056 28.584 94.3678 28.649 94.1807 28.7916C93.9937 28.9342 93.9541 29.0989 94.0619 29.2856C94.1804 29.4715 94.405 29.7182 94.7357 30.0257C95.0723 30.3504 95.33 30.63 95.5089 30.8643C95.6877 31.0986 95.7685 31.3532 95.7514 31.6279C95.7397 31.9057 95.552 32.1833 95.1883 32.4607C94.8765 32.6984 94.4983 32.8633 94.0534 32.9553C93.6192 33.0466 93.1445 33.0452 92.6292 32.9511C92.1139 32.8571 91.595 32.6603 91.0726 32.3609ZM100.433 31.6877L98.6047 30.6398L99.6335 29.8553L104.613 32.7089L103.584 33.4934L101.756 32.4455L97.3286 35.8212L96.0062 35.0633L100.433 31.6877ZM104.922 38.6113L102.269 37.091L100.594 37.6924L99.2389 36.9159L107.241 34.2152L108.548 34.9637L105.647 40.5881L104.259 39.7928L104.922 38.6113ZM105.464 37.6417L106.647 35.5297L103.652 36.6032L105.464 37.6417ZM111.971 38.2999L110.143 37.252L111.172 36.4675L116.151 39.3211L115.122 40.1056L113.294 39.0577L108.867 42.4334L107.545 41.6756L111.971 38.2999ZM113.559 45.2473C113.108 44.9885 112.727 44.6939 112.416 44.3634C112.117 44.0322 111.933 43.7219 111.864 43.4327L113.264 42.965C113.337 43.236 113.491 43.5079 113.724 43.7805C113.958 44.0531 114.243 44.2861 114.581 44.4794C114.956 44.6946 115.286 44.814 115.569 44.8377C115.858 44.8574 116.091 44.7999 116.267 44.6652C116.397 44.5662 116.449 44.4537 116.423 44.328C116.408 44.2014 116.342 44.0699 116.226 43.9336C116.114 43.8004 115.948 43.629 115.728 43.4193C115.391 43.0945 115.133 42.8149 114.955 42.5806C114.776 42.3463 114.695 42.0882 114.712 41.8064C114.734 41.5277 114.927 41.2497 115.291 40.9724C115.608 40.7307 115.983 40.5642 116.417 40.473C116.857 40.3778 117.332 40.3757 117.841 40.4666C118.357 40.5607 118.876 40.7574 119.398 41.0568C119.763 41.2657 120.077 41.5017 120.343 41.7647C120.608 42.0277 120.793 42.2935 120.898 42.562L119.532 43.0591C119.289 42.5387 118.904 42.1272 118.377 41.8247C118.007 41.6126 117.675 41.4987 117.381 41.483C117.092 41.4704 116.854 41.5354 116.667 41.678C116.48 41.8206 116.441 41.9853 116.549 42.172C116.667 42.3579 116.892 42.6046 117.222 42.912C117.559 43.2368 117.817 43.5164 117.995 43.7507C118.174 43.985 118.255 44.2396 118.238 44.5143C118.226 44.7921 118.039 45.0697 117.675 45.347C117.363 45.5848 116.985 45.7497 116.54 45.8417C116.106 45.933 115.631 45.9316 115.116 45.8375C114.601 45.7435 114.082 45.5467 113.559 45.2473ZM117.497 47.4204C117.404 47.3674 117.354 47.2968 117.345 47.2088C117.347 47.1198 117.395 47.0397 117.489 46.9684C117.582 46.8971 117.693 46.8564 117.821 46.8462C117.954 46.8392 118.067 46.8622 118.159 46.9153C118.252 46.9683 118.299 47.0373 118.302 47.1222C118.311 47.2103 118.268 47.29 118.175 47.3613C118.081 47.4327 117.965 47.4738 117.827 47.4848C117.699 47.4949 117.589 47.4734 117.497 47.4204ZM125.205 44.5098L125.622 44.7484L120.166 48.9085L119.75 48.67L125.205 44.5098ZM124.951 51.7026C124.39 51.3814 124.004 51.0002 123.791 50.5591C123.583 50.114 123.56 49.6562 123.719 49.1856C123.884 48.7181 124.227 48.2862 124.746 47.89C125.266 47.4938 125.864 47.2085 126.541 47.0341C127.223 46.8629 127.909 46.8156 128.6 46.8922C129.296 46.9648 129.924 47.1617 130.484 47.483C131.045 47.8042 131.432 48.1854 131.644 48.6265C131.857 49.0676 131.881 49.5219 131.716 49.9894C131.556 50.46 131.214 50.8954 130.689 51.2956C130.164 51.6957 129.561 51.9814 128.879 52.1527C128.202 52.327 127.518 52.3759 126.828 52.2993C126.137 52.2227 125.511 52.0238 124.951 51.7026ZM125.317 51.4233C125.796 51.6977 126.332 51.8664 126.927 51.9293C127.521 51.9923 128.111 51.949 128.698 51.7995C129.29 51.6461 129.812 51.397 130.264 51.0523C130.716 50.7076 131.013 50.3327 131.153 49.9274C131.299 49.5183 131.283 49.1237 131.104 48.7438C130.926 48.3639 130.597 48.0367 130.118 47.7623C129.639 47.4879 129.1 47.3176 128.5 47.2515C127.906 47.1886 127.313 47.2339 126.721 47.3873C126.134 47.5368 125.615 47.7839 125.163 48.1286C124.71 48.4733 124.412 48.8502 124.266 49.2594C124.125 49.6646 124.144 50.0572 124.323 50.4371C124.507 50.8201 124.838 51.1488 125.317 51.4233Z" fill="#474A50"/>
<g filter="url(#filter2_d)">
<path fill-rule="evenodd" clip-rule="evenodd" d="M135.098 107.277L41.6633 48.3808C19.0254 62.037 9.70943 78.3615 10.0069 94.7987C11.2097 161.266 169.611 229.34 240 130.5L135.098 107.277Z" fill="url(#paint1_linear)"/>
<path fill-rule="evenodd" clip-rule="evenodd" d="M135.098 107.277L41.6633 48.3808C19.0254 62.037 9.70943 78.3615 10.0069 94.7987C11.2097 161.266 169.611 229.34 240 130.5L135.098 107.277Z" stroke="white" stroke-width="0.1"/>
</g>
<path d="M240 130.306C169.609 229.113 11.2029 160.826 10 94.3808V137.373C10 145.192 11.6903 153.023 15.9211 159.599C66.085 237.56 195.795 232.305 239.003 177.017C239.663 176.172 240 175.132 240 174.06V130.306Z" fill="url(#paint2_linear)" stroke="white" stroke-width="0.1"/>
<defs>
<filter id="filter0_d" x="134.493" y="70.7634" width="125.051" height="112.158" filterUnits="userSpaceOnUse" color-interpolation-filters="sRGB">
<feFlood flood-opacity="0" result="BackgroundImageFix"/>
<feColorMatrix in="SourceAlpha" type="matrix" values="0 0 0 0 0 0 0 0 0 0 0 0 0 0 0 0 0 0 127 0"/>
<feOffset dy="5"/>
<feGaussianBlur stdDeviation="2.5"/>
<feColorMatrix type="matrix" values="0 0 0 0 0 0 0 0 0 0 0 0 0 0 0 0 0 0 0.1 0"/>
<feBlend mode="normal" in2="BackgroundImageFix" result="effect1_dropShadow"/>
<feBlend mode="normal" in="SourceGraphic" in2="effect1_dropShadow" result="shape"/>
</filter>
<filter id="filter1_d" x="249.544" y="74.8419" width="21.156" height="108.079" filterUnits="userSpaceOnUse" color-interpolation-filters="sRGB">
<feFlood flood-opacity="0" result="BackgroundImageFix"/>
<feColorMatrix in="SourceAlpha" type="matrix" values="0 0 0 0 0 0 0 0 0 0 0 0 0 0 0 0 0 0 127 0"/>
<feOffset dy="5"/>
<feGaussianBlur stdDeviation="2.5"/>
<feColorMatrix type="matrix" values="0 0 0 0 0 0 0 0 0 0 0 0 0 0 0 0 0 0 0.1 0"/>
<feBlend mode="normal" in2="BackgroundImageFix" result="effect1_dropShadow"/>
<feBlend mode="normal" in="SourceGraphic" in2="effect1_dropShadow" result="shape"/>
</filter>
<filter id="filter2_d" x="0.00250506" y="30.4165" width="257.988" height="159.796" filterUnits="userSpaceOnUse" color-interpolation-filters="sRGB">
<feFlood flood-opacity="0" result="BackgroundImageFix"/>
<feColorMatrix in="SourceAlpha" type="matrix" values="0 0 0 0 0 0 0 0 0 0 0 0 0 0 0 0 0 0 127 0"/>
<feOffset dx="3.979" dy="-3.979"/>
<feGaussianBlur stdDeviation="6.96325"/>
<feColorMatrix type="matrix" values="0 0 0 0 0 0 0 0 0 0 0 0 0 0 0 0 0 0 0.25 0"/>
<feBlend mode="normal" in2="BackgroundImageFix" result="effect1_dropShadow"/>
<feBlend mode="normal" in="SourceGraphic" in2="effect1_dropShadow" result="shape"/>
</filter>
<linearGradient id="paint0_linear" x1="116.5" y1="8.5" x2="231" y2="90" gradientUnits="userSpaceOnUse">
<stop stop-color="#0E8F5C"/>
<stop offset="1" stop-color="#1FB177"/>
</linearGradient>
<linearGradient id="paint1_linear" x1="28" y1="48" x2="125" y2="180.381" gradientUnits="userSpaceOnUse">
<stop stop-color="#AAAEAB"/>
<stop offset="1" stop-color="#C7D0C9"/>
</linearGradient>
<linearGradient id="paint2_linear" x1="-11" y1="128" x2="280.5" y2="222.5" gradientUnits="userSpaceOnUse">
<stop stop-color="#96A39A"/>
<stop offset="1" stop-color="#C7D1CA"/>
</linearGradient>
</defs>
</svg>
