<svg width="209" height="190" viewBox="0 0 209 190" fill="none" xmlns="http://www.w3.org/2000/svg">
<path d="M104.334 189.802C161.957 189.802 208.669 163.28 208.669 130.564C208.669 97.8474 161.957 71.3254 104.334 71.3254C46.7121 71.3254 0 97.8474 0 130.564C0 163.28 46.7121 189.802 104.334 189.802Z" fill="#F5F5F5"/>
<path d="M88.4567 163.578L119.537 181.227C119.771 181.343 120.029 181.403 120.29 181.403C120.552 181.403 120.81 181.343 121.043 181.227L162.99 157.409C163.426 157.173 163.426 156.792 162.99 156.552L131.91 138.908C131.676 138.79 131.417 138.728 131.155 138.728C130.892 138.728 130.633 138.79 130.399 138.908L88.4567 162.722C88.3644 162.751 88.2839 162.808 88.2268 162.885C88.1697 162.962 88.1389 163.055 88.1389 163.15C88.1389 163.245 88.1697 163.338 88.2268 163.415C88.2839 163.492 88.3644 163.549 88.4567 163.578Z" fill="#E0E0E0"/>
<path d="M133.503 125.19L157.196 138.634C157.429 138.751 157.687 138.811 157.949 138.811C158.211 138.811 158.469 138.751 158.702 138.634L191.972 119.796C192.408 119.56 192.408 119.179 191.972 118.94L168.284 105.5C168.051 105.382 167.792 105.32 167.529 105.32C167.266 105.32 167.007 105.382 166.774 105.5L133.503 124.334C133.413 124.365 133.335 124.423 133.28 124.5C133.225 124.577 133.195 124.668 133.195 124.762C133.195 124.856 133.225 124.948 133.28 125.025C133.335 125.101 133.413 125.159 133.503 125.19Z" fill="#E0E0E0"/>
<path opacity="0.1" d="M192.534 130.17L190.492 129.01C190.303 128.901 190.088 128.844 189.87 128.844C189.651 128.844 189.436 128.901 189.247 129.01L165.846 142.496L163.073 145.707L168.85 144.2L192.534 130.752C192.586 130.722 192.628 130.68 192.658 130.629C192.687 130.577 192.703 130.52 192.703 130.461C192.703 130.402 192.687 130.344 192.658 130.293C192.628 130.242 192.586 130.2 192.534 130.17Z" fill="#455A64"/>
<path d="M60.7329 167.821C58.647 167.862 56.5864 167.366 54.7554 166.382L54.4768 166.215C54.2702 166.091 54.1079 165.908 54.012 165.689C53.9161 165.47 53.8914 165.228 53.9413 164.995C54.0067 164.735 54.1553 164.501 54.3652 164.329C54.5751 164.158 54.8354 164.056 55.108 164.04L61.1595 163.184L61.4817 162.521L60.032 161.686L54.0849 162.542H53.8716C53.6132 162.541 53.3597 162.472 53.1376 162.342C52.9156 162.212 52.733 162.026 52.609 161.803C52.4849 161.58 52.424 161.328 52.4324 161.074C52.4408 160.82 52.5184 160.573 52.6569 160.358C53.2113 159.546 53.9584 158.879 54.8338 158.415C56.6422 157.472 58.6645 156.996 60.7111 157.032C61.5254 157.03 62.3383 157.099 63.1404 157.237L88.3914 142.903C88.1994 142.277 88.1829 141.611 88.3435 140.976C88.657 139.747 89.593 138.664 91.0514 137.851C92.8904 136.93 94.9261 136.455 96.9896 136.464C99.053 136.473 101.084 136.966 102.915 137.902L103.194 138.069C103.399 138.194 103.56 138.379 103.655 138.597C103.75 138.815 103.774 139.057 103.725 139.289C103.659 139.543 103.514 139.769 103.312 139.938C103.109 140.107 102.858 140.209 102.593 140.231L96.537 141.088L96.2148 141.751L97.6646 142.586L103.612 141.73C103.683 141.724 103.754 141.724 103.825 141.73C104.083 141.731 104.337 141.8 104.559 141.93C104.781 142.06 104.964 142.246 105.088 142.469C105.212 142.692 105.273 142.944 105.264 143.198C105.256 143.452 105.178 143.699 105.04 143.913C104.485 144.727 103.738 145.395 102.863 145.861C101.054 146.803 99.0316 147.277 96.9854 147.24C96.1711 147.241 95.3582 147.173 94.5561 147.035L69.3051 161.369C69.497 161.997 69.5136 162.664 69.353 163.3C69.0396 164.529 68.1036 165.608 66.6451 166.425C64.8268 167.377 62.7922 167.857 60.7329 167.821Z" fill="#E0E0E0"/>
<path d="M112.436 118.631L93.3501 107.795C93.2436 107.758 93.1512 107.69 93.0859 107.599C93.0206 107.509 92.9855 107.401 92.9855 107.29C92.9855 107.179 93.0206 107.07 93.0859 106.98C93.1512 106.889 93.2436 106.821 93.3501 106.784L143.952 78.0471C144.227 77.9098 144.532 77.8383 144.84 77.8383C145.149 77.8383 145.453 77.9098 145.728 78.0471L164.849 88.8835C164.956 88.9201 165.048 88.9884 165.114 89.079C165.179 89.1695 165.214 89.2777 165.214 89.3887C165.214 89.4997 165.179 89.608 165.114 89.6985C165.048 89.789 164.956 89.8573 164.849 89.8939L114.213 118.631C113.937 118.769 113.633 118.84 113.324 118.84C113.016 118.84 112.712 118.769 112.436 118.631Z" fill="#E0E0E0"/>
<path d="M40.8672 161.42L97.0288 129.575C99.1098 128.393 99.1098 126.475 97.0288 125.293L78.0427 114.513C75.9617 113.331 72.5833 113.331 70.5023 114.513L14.3407 146.358C12.2597 147.544 12.2597 149.458 14.3407 150.64L33.3268 161.42C35.4078 162.602 38.7862 162.602 40.8672 161.42Z" fill="#E0E0E0"/>
<path d="M96.4499 108.153C96.3101 108.062 96.2018 107.932 96.1395 107.779C96.0773 107.626 96.0641 107.458 96.1016 107.297L104.469 70.8702C104.572 70.5188 104.799 70.2151 105.109 70.0139L154.915 41.7561C155.068 41.6801 155.237 41.6405 155.409 41.6405C155.58 41.6405 155.75 41.6801 155.903 41.7561C156.042 41.8473 156.151 41.9778 156.214 42.1306C156.277 42.2834 156.291 42.4514 156.255 42.6124L147.87 79.005C147.771 79.3579 147.543 79.6626 147.23 79.8613L97.4381 108.119C97.2876 108.2 97.1198 108.246 96.9482 108.252C96.7765 108.258 96.6058 108.224 96.4499 108.153Z" fill="#6E9569"/>
<path opacity="0.8" d="M96.4499 108.153C96.3101 108.062 96.2018 107.932 96.1395 107.779C96.0773 107.626 96.0641 107.458 96.1016 107.297L104.469 70.8702C104.572 70.5188 104.799 70.2151 105.109 70.0139L154.915 41.7561C155.068 41.6801 155.237 41.6405 155.409 41.6405C155.58 41.6405 155.75 41.6801 155.903 41.7561C156.042 41.8473 156.151 41.9778 156.214 42.1306C156.277 42.2834 156.291 42.4514 156.255 42.6124L147.87 79.005C147.771 79.3579 147.543 79.6626 147.23 79.8613L97.4381 108.119C97.2876 108.2 97.1198 108.246 96.9482 108.252C96.7765 108.258 96.6058 108.224 96.4499 108.153Z" fill="white"/>
<path d="M105.427 71.4244L97.0593 107.86C96.9853 108.172 97.1594 108.288 97.4381 108.138L147.243 79.8632C147.556 79.6645 147.784 79.3598 147.883 79.0069L156.255 42.5714C156.325 42.2588 156.155 42.1432 155.872 42.2974L106.076 70.5681C105.761 70.7669 105.531 71.0712 105.427 71.4244Z" fill="#6E9569"/>
<path opacity="0.6" d="M105.427 71.4244L97.0593 107.86C96.9853 108.172 97.1594 108.288 97.4381 108.138L147.243 79.8632C147.556 79.6645 147.784 79.3598 147.883 79.0069L156.255 42.5714C156.325 42.2588 156.155 42.1432 155.872 42.2974L106.076 70.5681C105.761 70.7669 105.531 71.0712 105.427 71.4244Z" fill="white"/>
<path opacity="0.05" d="M105.427 71.4244L97.0593 107.86C96.9853 108.172 97.1594 108.288 97.4381 108.138L147.243 79.8632C147.556 79.6645 147.784 79.3598 147.883 79.0069L156.255 42.5714C156.325 42.2588 156.155 42.1432 155.872 42.2974L106.076 70.5681C105.761 70.7669 105.531 71.0712 105.427 71.4244Z" fill="black"/>
<path d="M156.865 42.2703C156.71 42.1965 156.539 42.16 156.366 42.1637C156.193 42.1674 156.024 42.2113 155.872 42.2917L106.076 70.5666C105.93 70.6564 105.813 70.7837 105.736 70.9348C105.659 71.0858 105.626 71.2547 105.64 71.4229L112.171 116.554C112.202 116.726 112.268 116.89 112.365 117.037C112.461 117.184 112.586 117.311 112.732 117.41C112.886 117.487 113.056 117.526 113.229 117.526C113.401 117.526 113.571 117.487 113.725 117.41L163.543 89.1141C163.688 89.0236 163.805 88.8962 163.882 88.7453C163.959 88.5945 163.992 88.4259 163.979 88.2578L157.448 43.118C157.413 42.9458 157.343 42.7821 157.243 42.6366C157.143 42.4911 157.014 42.3666 156.865 42.2703Z" fill="#6E9569"/>
<path opacity="0.8" d="M156.865 42.2703C156.71 42.1965 156.539 42.16 156.366 42.1637C156.193 42.1674 156.024 42.2113 155.872 42.2917L106.076 70.5666C105.93 70.6564 105.813 70.7837 105.736 70.9348C105.659 71.0858 105.626 71.2547 105.64 71.4229L112.171 116.554C112.202 116.726 112.268 116.89 112.365 117.037C112.461 117.184 112.586 117.311 112.732 117.41C112.886 117.487 113.056 117.526 113.229 117.526C113.401 117.526 113.571 117.487 113.725 117.41L163.543 89.1141C163.688 89.0236 163.805 88.8962 163.882 88.7453C163.959 88.5945 163.992 88.4259 163.979 88.2578L157.448 43.118C157.413 42.9458 157.343 42.7821 157.243 42.6366C157.143 42.4911 157.014 42.3666 156.865 42.2703Z" fill="white"/>
<path d="M106.602 71.9767L113.133 117.108C113.135 117.175 113.155 117.241 113.192 117.297C113.229 117.354 113.281 117.4 113.343 117.429C113.404 117.459 113.473 117.471 113.541 117.465C113.609 117.459 113.674 117.435 113.729 117.395L163.543 89.1155C163.688 89.0251 163.805 88.8976 163.882 88.7468C163.959 88.5959 163.992 88.4274 163.979 88.2592L157.448 43.1195C157.447 43.0519 157.427 42.9859 157.39 42.929C157.353 42.872 157.301 42.8263 157.239 42.7969C157.177 42.7676 157.108 42.7558 157.04 42.7629C156.971 42.7699 156.906 42.7956 156.852 42.8369L107.051 71.0947C106.899 71.1852 106.777 71.316 106.697 71.4721C106.618 71.6281 106.585 71.8031 106.602 71.9767Z" fill="#6E9569"/>
<path opacity="0.95" d="M106.602 71.9767L113.133 117.108C113.135 117.175 113.155 117.241 113.192 117.297C113.229 117.354 113.281 117.4 113.343 117.429C113.404 117.459 113.473 117.471 113.541 117.465C113.609 117.459 113.674 117.435 113.729 117.395L163.543 89.1155C163.688 89.0251 163.805 88.8976 163.882 88.7468C163.959 88.5959 163.992 88.4274 163.979 88.2592L157.448 43.1195C157.447 43.0519 157.427 42.9859 157.39 42.929C157.353 42.872 157.301 42.8263 157.239 42.7969C157.177 42.7676 157.108 42.7558 157.04 42.7629C156.971 42.7699 156.906 42.7956 156.852 42.8369L107.051 71.0947C106.899 71.1852 106.777 71.316 106.697 71.4721C106.618 71.6281 106.585 71.8031 106.602 71.9767Z" fill="white"/>
<path d="M110.229 103.055L104.382 106.374C104.263 106.349 104.14 106.349 104.021 106.374L97.1202 107.68L109.85 100.413L110.229 103.055Z" fill="#6E9569"/>
<path opacity="0.5" d="M110.229 103.055L104.382 106.374C104.263 106.349 104.14 106.349 104.021 106.374L97.1202 107.68L109.85 100.413L110.229 103.055Z" fill="white"/>
<path opacity="0.2" d="M110.229 103.055L104.382 106.374C104.263 106.349 104.14 106.349 104.021 106.374L97.1202 107.68L109.85 100.413L110.229 103.055Z" fill="black"/>
<path d="M112.136 116.213L104.952 106.69C104.814 106.522 104.622 106.405 104.408 106.356L110.229 103.055L112.136 116.213Z" fill="#6E9569"/>
<path opacity="0.6" d="M112.136 116.213L104.952 106.69C104.814 106.522 104.622 106.405 104.408 106.356L110.229 103.055L112.136 116.213Z" fill="white"/>
<path opacity="0.1" d="M112.136 116.213L104.952 106.69C104.814 106.522 104.622 106.405 104.408 106.356L110.229 103.055L112.136 116.213Z" fill="black"/>
<path d="M111.914 116.658L104.948 107.773C104.832 107.642 104.686 107.54 104.522 107.474C104.357 107.409 104.18 107.382 104.003 107.397L97.4991 108.322C97.134 108.36 96.7652 108.295 96.4368 108.133C96.1712 107.983 96.2148 107.812 96.5369 107.752L104.008 106.335C104.181 106.311 104.358 106.331 104.522 106.394C104.685 106.457 104.829 106.561 104.939 106.694L112.867 117.193C113.059 117.455 113.002 117.54 112.737 117.39C112.424 117.191 112.147 116.944 111.914 116.658Z" fill="#6E9569"/>
<path opacity="0.8" d="M111.914 116.658L104.948 107.773C104.832 107.642 104.686 107.54 104.522 107.474C104.357 107.409 104.18 107.382 104.003 107.397L97.4991 108.322C97.134 108.36 96.7652 108.295 96.4368 108.133C96.1712 107.983 96.2148 107.812 96.5369 107.752L104.008 106.335C104.181 106.311 104.358 106.331 104.522 106.394C104.685 106.457 104.829 106.561 104.939 106.694L112.867 117.193C113.059 117.455 113.002 117.54 112.737 117.39C112.424 117.191 112.147 116.944 111.914 116.658Z" fill="white"/>
<path d="M156.268 42.3866C156.268 42.256 156.235 42.1275 156.171 42.0125C156.108 41.8976 156.018 41.7996 155.907 41.7273C155.753 41.6512 155.583 41.6116 155.411 41.6116C155.238 41.6116 155.068 41.6512 154.914 41.7273L105.109 70.015C104.8 70.2171 104.573 70.5205 104.469 70.8713L103.289 76.0091L104.247 76.5529L155.071 47.6956L156.255 42.5579C156.261 42.4981 156.261 42.4378 156.255 42.378L156.268 42.3866Z" fill="#6E9569"/>
<path opacity="0.6" d="M156.255 42.5671C156.325 42.2545 156.155 42.1389 155.872 42.2931L106.076 70.5679C105.763 70.7676 105.534 71.0717 105.431 71.4242L104.251 76.562L155.076 47.7049L156.255 42.5671Z" fill="black"/>
<path opacity="0.5" d="M105.679 70.927C105.562 71.0738 105.478 71.2429 105.431 71.4237L104.247 76.5618L103.289 76.0094L104.469 70.8713C104.518 70.6907 104.604 70.5218 104.722 70.3746L105.679 70.927Z" fill="black"/>
<path opacity="0.2" d="M156.268 42.3854C156.247 42.2099 156.09 42.1628 155.872 42.2913L106.076 70.5663C105.922 70.659 105.789 70.7813 105.684 70.9259L104.726 70.3822C104.83 70.2387 104.962 70.1166 105.114 70.0225L154.914 41.7561C155.068 41.68 155.238 41.6404 155.411 41.6404C155.583 41.6404 155.753 41.68 155.907 41.7561C156.014 41.8255 156.102 41.9187 156.165 42.0281C156.227 42.1375 156.263 42.2599 156.268 42.3854Z" fill="black"/>
<path d="M157.487 43.5506L157.426 43.1225V43.0583C157.345 42.7468 157.151 42.4748 156.882 42.2919C156.727 42.2181 156.556 42.1816 156.383 42.1853C156.211 42.189 156.042 42.2329 155.89 42.3133L106.076 70.5667C105.924 70.6576 105.804 70.792 105.732 70.952C105.656 71.1002 105.626 71.2668 105.645 71.4315L106.585 77.8966L107.543 78.4446L158.371 49.5875L157.487 43.5506Z" fill="#6E9569"/>
<path opacity="0.4" d="M158.367 49.589L107.538 78.446L106.602 71.9767C106.582 71.8124 106.611 71.6458 106.685 71.4972C106.761 71.3396 106.88 71.2061 107.029 71.1119L156.834 42.8542C156.881 42.8183 156.936 42.7943 156.995 42.7842C157.053 42.7742 157.113 42.7785 157.17 42.7967C157.226 42.8149 157.277 42.8464 157.318 42.8886C157.359 42.9307 157.389 42.9821 157.405 43.0383V43.0426V43.1068L157.466 43.535L158.367 49.589Z" fill="black"/>
<path opacity="0.5" d="M107.539 78.4459L106.581 77.8978L105.64 71.4321C105.622 71.2673 105.652 71.1007 105.727 70.9525L106.69 71.4963C106.614 71.6445 106.584 71.8111 106.603 71.9759L107.539 78.4459Z" fill="black"/>
<path opacity="0.3" d="M157.409 43.0411C157.396 42.9827 157.367 42.9287 157.327 42.884C157.286 42.8392 157.235 42.8052 157.178 42.7852C157.121 42.7651 157.059 42.7596 156.999 42.7691C156.939 42.7787 156.882 42.803 156.834 42.8398L107.029 71.0977C106.879 71.1893 106.76 71.3237 106.689 71.483L105.727 70.9393C105.799 70.7793 105.919 70.6448 106.071 70.5539L155.872 42.2961C156.024 42.2157 156.193 42.1718 156.366 42.1681C156.538 42.1644 156.709 42.2009 156.865 42.2747C157.138 42.4538 157.332 42.7274 157.409 43.0411Z" fill="black"/>
<g opacity="0.2">
<path opacity="0.2" d="M111.169 72.0276C111.148 71.7212 111.212 71.4149 111.355 71.1418C111.498 70.8687 111.714 70.639 111.979 70.4776C112.51 70.1779 113.002 70.3834 113.085 70.94C113.106 71.2469 113.042 71.5536 112.898 71.8269C112.755 72.1001 112.538 72.3295 112.271 72.49C112.176 72.5687 112.061 72.62 111.938 72.6381C111.815 72.6562 111.69 72.6404 111.575 72.5924C111.461 72.5445 111.363 72.4663 111.291 72.3666C111.219 72.2668 111.177 72.1495 111.169 72.0276Z" fill="black"/>
<path opacity="0.2" d="M117.887 68.2169C117.865 67.9099 117.929 67.6028 118.073 67.3294C118.216 67.0559 118.434 66.8267 118.701 66.6669C119.228 66.3629 119.724 66.5727 119.803 67.1251C119.825 67.4321 119.761 67.7393 119.618 68.0133C119.475 68.2873 119.259 68.5176 118.993 68.6793C118.462 68.9791 117.965 68.7735 117.887 68.2169Z" fill="black"/>
<path opacity="0.2" d="M124.596 64.4064C124.574 64.0999 124.637 63.7933 124.78 63.5199C124.923 63.2466 125.139 63.017 125.406 62.8563C125.937 62.5566 126.429 62.7621 126.511 63.3188C126.529 63.6252 126.463 63.9307 126.32 64.2034C126.177 64.4761 125.962 64.706 125.697 64.8689C125.171 65.1687 124.674 64.9631 124.596 64.4064Z" fill="black"/>
<path opacity="0.2" d="M138.018 56.7864C137.996 56.4799 138.06 56.1733 138.202 55.8999C138.345 55.6266 138.562 55.397 138.828 55.2363C139.359 54.9366 139.851 55.1421 139.934 55.6988C139.955 56.0056 139.89 56.3122 139.746 56.5854C139.603 56.8586 139.386 57.088 139.12 57.2489C138.593 57.5487 138.096 57.3431 138.018 56.7864Z" fill="black"/>
<path opacity="0.2" d="M144.736 52.9711C144.713 52.6641 144.778 52.3571 144.921 52.0837C145.065 51.8103 145.282 51.5811 145.55 51.4213C146.077 51.1217 146.573 51.3272 146.651 51.8837C146.673 52.1902 146.61 52.4967 146.467 52.77C146.324 53.0433 146.108 53.2728 145.841 53.4334C145.31 53.746 144.823 53.5276 144.736 52.9711Z" fill="black"/>
<path opacity="0.2" d="M151.445 49.1605C151.423 48.8541 151.487 48.5478 151.63 48.2746C151.773 48.0014 151.989 47.7718 152.254 47.6103C152.785 47.3106 153.277 47.5161 153.36 48.0728C153.381 48.3797 153.317 48.6865 153.173 48.9597C153.03 49.233 152.813 49.4624 152.546 49.6229C152.019 49.9227 151.523 49.7171 151.445 49.1605Z" fill="black"/>
</g>
<path d="M113.203 70.0409C113.203 70.2319 113.186 70.4225 113.15 70.6104C113.131 70.7072 113.106 70.803 113.076 70.8973C112.959 71.3376 112.672 71.7155 112.275 71.9506C112.017 72.097 111.724 72.1724 111.426 72.169H111.191L111.165 72.0448C111.139 71.7856 111.183 71.5243 111.291 71.2869C111.475 71.3139 111.663 71.2824 111.827 71.197C111.956 71.0995 112.062 70.9755 112.137 70.8334C112.212 70.6914 112.255 70.5349 112.262 70.3749C112.264 70.3607 112.264 70.3463 112.262 70.3321C112.267 70.2394 112.267 70.1465 112.262 70.0537C112.222 69.1499 111.91 68.2782 111.365 67.5489C111.178 67.2878 110.965 67.0454 110.73 66.8253C110.535 66.6454 110.32 66.4875 110.09 66.3543C109.913 66.2257 109.707 66.143 109.489 66.1138C109.271 66.0846 109.05 66.1099 108.845 66.1873C108.671 66.3207 108.535 66.4962 108.451 66.6966C108.367 66.897 108.338 67.1155 108.366 67.3305C108.369 67.5932 108.402 67.8547 108.466 68.1098L107.66 68.568V68.5166C107.547 68.131 107.487 67.732 107.482 67.3305C107.448 66.9592 107.517 66.5859 107.681 66.2498C107.845 65.9137 108.098 65.6273 108.414 65.4208C109.01 65.0826 109.768 65.1425 110.56 65.5878C110.926 65.8008 111.259 66.0648 111.548 66.3714C111.772 66.6002 111.974 66.8481 112.153 67.1122C112.782 67.9689 113.147 68.9857 113.203 70.0409Z" fill="#37474F"/>
<path d="M119.92 66.2262C119.921 66.4172 119.903 66.6078 119.868 66.7956C119.852 66.8956 119.829 66.9943 119.798 67.091C119.676 67.5281 119.388 67.9022 118.993 68.1358C118.735 68.2822 118.442 68.3576 118.144 68.3541H117.913C117.9 68.3138 117.891 68.2722 117.887 68.23C117.857 67.9712 117.899 67.7093 118.009 67.4721C118.193 67.4991 118.38 67.4676 118.544 67.3822C118.675 67.2858 118.782 67.1619 118.857 67.0197C118.932 66.8774 118.974 66.7204 118.98 66.5601C118.982 66.5473 118.982 66.5344 118.98 66.5216C118.987 66.4275 118.987 66.3331 118.98 66.239C118.897 65.0124 118.35 63.8607 117.447 63.0106C117.253 62.8298 117.038 62.6718 116.807 62.5397C116.63 62.4118 116.424 62.3299 116.206 62.3014C115.988 62.273 115.767 62.299 115.562 62.377C115.389 62.5097 115.254 62.6844 115.17 62.8841C115.086 63.0838 115.056 63.3015 115.083 63.5159C115.086 63.7785 115.12 64.04 115.183 64.2951L114.378 64.7533V64.7019C114.266 64.3161 114.207 63.9171 114.204 63.5159C114.17 63.145 114.238 62.7719 114.401 62.4359C114.564 62.0998 114.816 61.8133 115.131 61.6063C115.728 61.268 116.49 61.328 117.278 61.7732C117.644 61.9862 117.976 62.2501 118.266 62.5568C118.487 62.7874 118.69 63.0351 118.871 63.2975C119.502 64.1533 119.866 65.1706 119.92 66.2262Z" fill="#37474F"/>
<path d="M126.625 62.4159C126.624 62.6081 126.608 62.8 126.577 62.9897C126.559 63.0883 126.534 63.1856 126.503 63.2809C126.387 63.7197 126.099 64.0954 125.702 64.3257C125.444 64.4734 125.151 64.5503 124.853 64.5483C124.776 64.5547 124.699 64.5547 124.622 64.5483C124.609 64.508 124.6 64.4664 124.596 64.4241C124.566 64.1653 124.608 63.9034 124.718 63.6662C124.9 63.6961 125.087 63.6644 125.249 63.5763C125.38 63.4801 125.486 63.3563 125.562 63.214C125.637 63.0717 125.679 62.9146 125.684 62.7542C125.686 62.7414 125.686 62.7284 125.684 62.7157C125.692 62.6216 125.692 62.5271 125.684 62.433C125.642 61.5309 125.33 60.6611 124.788 59.9324C124.601 59.6704 124.388 59.4279 124.152 59.2088C123.957 59.0276 123.742 58.8682 123.512 58.7335C123.335 58.6056 123.128 58.5237 122.91 58.4952C122.693 58.4668 122.471 58.4928 122.267 58.5707C122.093 58.7039 121.957 58.8793 121.873 59.0798C121.789 59.2803 121.76 59.4989 121.788 59.714C121.791 59.9767 121.824 60.2382 121.888 60.4933L121.078 60.9515V60.8958C120.965 60.5116 120.905 60.1141 120.9 59.714C120.9 58.8191 121.231 58.1426 121.827 57.8043C122.423 57.466 123.185 57.5217 123.973 57.9713C124.34 58.1837 124.674 58.4461 124.966 58.7506C125.188 58.9812 125.39 59.2289 125.571 59.4914C126.201 60.3463 126.567 61.3617 126.625 62.4159Z" fill="#37474F"/>
<path d="M140.034 54.8083C140.036 54.9992 140.02 55.1898 139.986 55.3778C139.966 55.4774 139.942 55.576 139.912 55.6732C139.79 56.1103 139.502 56.4844 139.107 56.7179C138.85 56.8628 138.558 56.9382 138.262 56.9363C138.185 56.9428 138.108 56.9428 138.031 56.9363C138.016 56.8932 138.006 56.8487 138.001 56.8035C137.972 56.548 138.013 56.2895 138.118 56.0543C138.303 56.0835 138.492 56.0534 138.658 55.9686C138.796 55.87 138.909 55.7415 138.988 55.593C139.068 55.4444 139.111 55.28 139.115 55.1123C139.113 55.1024 139.113 55.0922 139.115 55.0823C139.12 54.9896 139.12 54.8967 139.115 54.804C139.073 53.8972 138.76 53.0228 138.214 52.2907C138.027 52.0285 137.812 51.786 137.574 51.5671C137.382 51.3904 137.17 51.2353 136.943 51.1047C136.766 50.9761 136.56 50.8934 136.342 50.8642C136.124 50.835 135.903 50.8603 135.698 50.9377C135.525 51.0721 135.391 51.2479 135.308 51.4481C135.225 51.6484 135.196 51.8663 135.223 52.0809C135.225 52.3391 135.257 52.5964 135.319 52.8473L134.548 53.3183V53.2755C134.435 52.8913 134.375 52.4937 134.37 52.0937C134.37 51.1989 134.701 50.5224 135.297 50.1841C135.637 50.0196 136.016 49.9483 136.394 49.9776C136.771 50.007 137.134 50.136 137.444 50.3511C137.809 50.5597 138.141 50.8209 138.427 51.1261C138.65 51.3568 138.854 51.6045 139.037 51.8668C139.649 52.7332 139.995 53.7542 140.034 54.8083Z" fill="#37474F"/>
<path d="M146.773 50.9933C146.774 51.1857 146.756 51.3777 146.721 51.567C146.699 51.6698 146.678 51.764 146.647 51.8625C146.53 52.2997 146.242 52.6737 145.846 52.9029C145.582 53.0531 145.28 53.1287 144.975 53.1213C144.898 53.1256 144.821 53.1256 144.745 53.1213C144.73 53.0768 144.72 53.0309 144.714 52.9843C144.685 52.7301 144.725 52.4728 144.832 52.2393C145.017 52.2694 145.207 52.2378 145.371 52.1493C145.51 52.0514 145.624 51.923 145.703 51.7744C145.782 51.6257 145.825 51.4609 145.829 51.293C145.831 51.2831 145.831 51.2729 145.829 51.263C145.834 51.1703 145.834 51.0774 145.829 50.9847C145.788 50.0782 145.472 49.2045 144.923 48.4755C144.737 48.2123 144.524 47.9684 144.287 47.7476C144.094 47.5719 143.883 47.4169 143.656 47.2852C143.479 47.1573 143.272 47.0754 143.055 47.047C142.837 47.0185 142.616 47.0445 142.411 47.1225C142.236 47.255 142.1 47.4304 142.016 47.6311C141.932 47.8317 141.903 48.0506 141.932 48.2657C141.936 48.5224 141.968 48.778 142.028 49.0279L141.222 49.4903V49.4475C141.109 49.0633 141.049 48.6658 141.044 48.2657C141.044 47.3708 141.375 46.69 141.976 46.356C142.576 46.0221 143.334 46.0734 144.118 46.5188C144.493 46.7358 144.834 47.0072 145.128 47.3237C145.351 47.5543 145.554 47.802 145.737 48.0645C146.362 48.9225 146.721 49.9394 146.773 50.9933Z" fill="#37474F"/>
<path d="M153.478 47.1841C153.478 47.3765 153.461 47.5686 153.426 47.7579C153.408 47.8546 153.384 47.9504 153.356 48.0447C153.236 48.4852 152.948 48.8628 152.551 49.0981C152.292 49.2416 151.999 49.3155 151.702 49.3121H151.475C151.46 49.2676 151.45 49.2217 151.445 49.1751C151.416 48.9209 151.457 48.6638 151.562 48.4301C151.747 48.458 151.937 48.4265 152.102 48.3402C152.237 48.2398 152.346 48.1104 152.421 47.9619C152.497 47.8134 152.536 47.6498 152.537 47.4838C152.54 47.4754 152.54 47.4666 152.537 47.4581C152.545 47.3641 152.545 47.2696 152.537 47.1755C152.497 46.2696 152.184 45.3961 151.636 44.6664C151.449 44.4043 151.234 44.1618 150.996 43.9428C150.806 43.7645 150.596 43.6079 150.369 43.4761C150.192 43.3482 149.986 43.2663 149.768 43.2379C149.55 43.2094 149.329 43.2354 149.124 43.3134C148.949 43.4459 148.813 43.6213 148.729 43.822C148.645 44.0226 148.616 44.2415 148.645 44.4566C148.647 44.7149 148.679 44.9721 148.741 45.223L147.931 45.6812V45.6384C147.818 45.2542 147.758 44.8566 147.753 44.4566C147.753 43.5617 148.084 42.8852 148.68 42.5469C149.02 42.3827 149.398 42.3112 149.776 42.3398C150.153 42.3684 150.516 42.4961 150.827 42.7096C151.189 42.92 151.519 43.1811 151.806 43.4846C152.031 43.7147 152.235 43.964 152.416 44.2297C153.055 45.0917 153.424 46.1186 153.478 47.1841Z" fill="#37474F"/>
<path d="M108.649 86.0455L159.468 57.214L158.367 49.5886L107.539 78.4245L108.649 86.0455Z" fill="#6E9569"/>
<g opacity="0.65">
<path opacity="0.65" d="M108.649 86.0455L159.468 57.214L158.367 49.5886L107.539 78.4245L108.649 86.0455Z" fill="white"/>
</g>
<path d="M112.654 87.8947C112.719 88.3229 113.115 88.4599 113.525 88.2158L117.338 86.075C117.549 85.9525 117.722 85.7757 117.839 85.5638C117.956 85.3518 118.011 85.1126 118 84.8719C117.939 84.4437 117.543 84.3067 117.129 84.5508L113.316 86.6916C113.105 86.8145 112.932 86.9913 112.816 87.2032C112.699 87.4151 112.643 87.654 112.654 87.8947Z" fill="#6E9569"/>
<path d="M119.089 84.2426C119.15 84.6708 119.546 84.8078 119.959 84.5637L123.773 82.4228C123.985 82.3011 124.159 82.1247 124.277 81.9126C124.394 81.7005 124.45 81.4608 124.439 81.2196C124.378 80.7914 124.004 80.6544 123.569 80.8984L119.755 83.0394C119.543 83.161 119.368 83.3375 119.251 83.5496C119.134 83.7617 119.077 84.0013 119.089 84.2426Z" fill="#6E9569"/>
<path d="M125.523 80.5905C125.584 81.0187 125.98 81.1557 126.394 80.9116L130.208 78.7708C130.419 78.6489 130.593 78.4723 130.71 78.2602C130.826 78.048 130.882 77.8085 130.869 77.5676C130.809 77.1394 130.412 77.0024 129.999 77.2465L126.185 79.3873C125.974 79.5095 125.8 79.6862 125.684 79.8983C125.567 80.1103 125.512 80.3497 125.523 80.5905Z" fill="#6E9569"/>
<path d="M131.954 76.9386C132.015 77.3668 132.411 77.5038 132.824 77.2598L136.638 75.0931C136.849 74.9719 137.023 74.796 137.139 74.5846C137.256 74.3732 137.312 74.1344 137.3 73.8941C137.239 73.4659 136.843 73.3289 136.429 73.5687L132.633 75.7354C132.418 75.855 132.241 76.0306 132.121 76.2429C132.001 76.4553 131.943 76.696 131.954 76.9386Z" fill="#6E9569"/>
<path d="M138.388 73.2817C138.449 73.7099 138.824 73.8469 139.259 73.6071L143.073 71.4407C143.284 71.3193 143.458 71.1436 143.575 70.9323C143.693 70.7211 143.749 70.4823 143.739 70.2418C143.678 69.8137 143.282 69.6767 142.868 69.9164L139.054 72.0829C138.843 72.2039 138.669 72.3795 138.551 72.5909C138.434 72.8022 138.377 73.0411 138.388 73.2817Z" fill="#6E9569"/>
<path d="M144.823 69.63C144.884 70.0582 145.28 70.1952 145.694 69.9554L149.507 67.7887C149.719 67.6665 149.892 67.4898 150.009 67.2777C150.125 67.0656 150.181 66.8263 150.169 66.5854C150.108 66.1572 149.712 66.0202 149.298 66.2643L145.485 68.431C145.274 68.5525 145.1 68.7285 144.984 68.9398C144.867 69.1511 144.812 69.3898 144.823 69.63Z" fill="#6E9569"/>
<path d="M151.253 65.9778C151.314 66.406 151.71 66.543 152.124 66.2989L155.937 64.158C156.15 64.0367 156.324 63.8603 156.442 63.6482C156.559 63.436 156.615 63.1961 156.604 62.9548C156.543 62.5266 156.168 62.3896 155.733 62.6337L151.919 64.8003C151.71 64.9192 151.538 65.0914 151.421 65.2987C151.304 65.506 151.246 65.7407 151.253 65.9778Z" fill="#6E9569"/>
<g opacity="0.17">
<path opacity="0.17" d="M160.844 87.9371C160.795 87.9413 160.747 87.928 160.708 87.8996C160.668 87.8713 160.641 87.8298 160.63 87.783L157.522 66.4442C157.52 66.4216 157.523 66.3988 157.531 66.3775C157.539 66.3562 157.551 66.3367 157.567 66.3205C157.583 66.3042 157.603 66.2916 157.624 66.2834C157.646 66.2752 157.669 66.2716 157.692 66.2729C157.741 66.2702 157.789 66.2841 157.828 66.3121C157.868 66.3402 157.897 66.3807 157.909 66.427L161.014 87.7658C161.016 87.7884 161.012 87.8112 161.005 87.8325C160.997 87.8538 160.985 87.8733 160.968 87.8895C160.952 87.9058 160.933 87.9184 160.911 87.9266C160.89 87.9348 160.867 87.9384 160.844 87.9371Z" fill="#6E9569"/>
<path opacity="0.17" d="M154.401 91.5939C154.352 91.5981 154.304 91.5848 154.264 91.5564C154.225 91.528 154.198 91.4865 154.187 91.4397L151.079 70.1012C151.077 70.0786 151.08 70.0559 151.088 70.0345C151.096 70.0132 151.108 69.9938 151.124 69.9775C151.14 69.9613 151.16 69.9486 151.181 69.9404C151.203 69.9322 151.226 69.9287 151.249 69.93C151.297 69.9257 151.346 69.9391 151.385 69.9674C151.424 69.9958 151.452 70.0373 151.462 70.0841L154.579 91.4226C154.581 91.446 154.578 91.4695 154.57 91.4915C154.561 91.5135 154.548 91.5334 154.531 91.5498C154.514 91.5662 154.494 91.5787 154.471 91.5863C154.448 91.5939 154.424 91.5965 154.401 91.5939Z" fill="#6E9569"/>
<path opacity="0.17" d="M147.975 95.2466C147.926 95.2502 147.877 95.2366 147.837 95.2085C147.798 95.1803 147.769 95.1392 147.757 95.0925L144.653 73.7536C144.651 73.7314 144.654 73.7091 144.662 73.688C144.669 73.667 144.681 73.6478 144.697 73.6316C144.712 73.6154 144.731 73.6027 144.752 73.5942C144.773 73.5857 144.796 73.5817 144.818 73.5824C144.867 73.578 144.916 73.5911 144.956 73.6195C144.996 73.6478 145.025 73.6893 145.036 73.7365L148.145 95.0754C148.146 95.098 148.143 95.1207 148.136 95.1421C148.128 95.1634 148.115 95.1828 148.099 95.1991C148.083 95.2153 148.064 95.228 148.042 95.2362C148.021 95.2444 147.998 95.2479 147.975 95.2466Z" fill="#6E9569"/>
<path opacity="0.17" d="M141.54 98.9033C141.491 98.9066 141.442 98.8925 141.402 98.8635C141.362 98.8345 141.334 98.7924 141.322 98.7449L138.214 77.406C138.213 77.3837 138.216 77.3614 138.224 77.3406C138.232 77.3198 138.245 77.3009 138.261 77.2851C138.277 77.2694 138.296 77.2571 138.317 77.2492C138.338 77.2412 138.361 77.2377 138.384 77.239C138.433 77.2346 138.482 77.2478 138.522 77.2761C138.562 77.3044 138.59 77.346 138.601 77.3931L141.706 98.7321C141.707 98.7543 141.704 98.7767 141.697 98.7977C141.689 98.8187 141.677 98.8379 141.662 98.8541C141.646 98.8703 141.627 98.883 141.606 98.8915C141.585 98.9 141.563 98.904 141.54 98.9033Z" fill="#6E9569"/>
<path opacity="0.17" d="M135.105 102.554C135.056 102.559 135.007 102.546 134.967 102.517C134.927 102.489 134.899 102.447 134.888 102.4L131.762 81.0615C131.76 81.0389 131.763 81.0161 131.771 80.9948C131.779 80.9734 131.791 80.954 131.807 80.9378C131.823 80.9215 131.843 80.9089 131.864 80.9007C131.886 80.8925 131.909 80.8889 131.932 80.8902C131.98 80.8867 132.029 80.9002 132.069 80.9284C132.109 80.9566 132.137 80.9976 132.149 81.0443L135.253 102.383C135.255 102.404 135.253 102.425 135.246 102.445C135.24 102.465 135.229 102.483 135.216 102.499C135.202 102.515 135.185 102.528 135.166 102.538C135.147 102.547 135.127 102.553 135.105 102.554Z" fill="#6E9569"/>
<path opacity="0.17" d="M128.666 106.211C128.617 106.214 128.569 106.2 128.53 106.171C128.491 106.142 128.463 106.1 128.453 106.052L125.345 84.7134C125.345 84.6235 125.406 84.5507 125.514 84.5464C125.563 84.5422 125.611 84.5555 125.651 84.5839C125.69 84.6123 125.717 84.6537 125.728 84.7006L128.836 106.04C128.838 106.062 128.835 106.085 128.827 106.106C128.819 106.128 128.807 106.147 128.791 106.163C128.775 106.18 128.755 106.192 128.734 106.2C128.712 106.209 128.689 106.212 128.666 106.211Z" fill="#6E9569"/>
<path opacity="0.17" d="M122.232 109.863C122.183 109.866 122.134 109.853 122.094 109.825C122.055 109.797 122.026 109.756 122.014 109.709L118.91 88.3697C118.908 88.3471 118.911 88.3243 118.919 88.303C118.927 88.2816 118.939 88.2622 118.955 88.246C118.971 88.2297 118.991 88.2171 119.012 88.2089C119.034 88.2007 119.057 88.1971 119.08 88.1984C119.128 88.1942 119.177 88.2075 119.216 88.2359C119.255 88.2642 119.283 88.3057 119.293 88.3525L122.402 109.692C122.403 109.714 122.4 109.737 122.393 109.758C122.385 109.78 122.372 109.799 122.356 109.815C122.34 109.832 122.321 109.844 122.299 109.853C122.278 109.861 122.255 109.864 122.232 109.863Z" fill="#6E9569"/>
<path opacity="0.17" d="M115.797 113.515C115.748 113.52 115.699 113.506 115.659 113.478C115.619 113.45 115.591 113.408 115.58 113.361L112.471 92.022C112.47 91.9995 112.473 91.9771 112.481 91.956C112.489 91.935 112.502 91.9158 112.518 91.8997C112.534 91.8837 112.553 91.871 112.574 91.8625C112.595 91.8541 112.618 91.8501 112.641 91.8507C112.69 91.8474 112.739 91.8615 112.779 91.8905C112.819 91.9196 112.847 91.9616 112.859 92.0091L115.967 113.348C115.968 113.37 115.965 113.393 115.957 113.414C115.949 113.434 115.936 113.453 115.92 113.469C115.904 113.485 115.885 113.497 115.864 113.505C115.843 113.513 115.82 113.516 115.797 113.515Z" fill="#6E9569"/>
<path opacity="0.17" d="M113.477 97.5111C113.443 97.5144 113.409 97.5094 113.378 97.4967C113.347 97.484 113.32 97.464 113.298 97.4383C113.283 97.4226 113.271 97.4037 113.264 97.3829C113.258 97.3621 113.256 97.3401 113.259 97.3185C113.263 97.2969 113.271 97.2764 113.284 97.2586C113.297 97.2407 113.314 97.2261 113.333 97.2157L158.384 71.6338C158.429 71.6113 158.479 71.6042 158.528 71.6135C158.577 71.6228 158.622 71.6481 158.654 71.6852C158.669 71.7011 158.681 71.7204 158.687 71.7414C158.694 71.7624 158.695 71.7845 158.691 71.8061C158.687 71.8277 158.678 71.8482 158.665 71.8658C158.652 71.8835 158.635 71.8978 158.615 71.9078L113.559 97.4854C113.534 97.5004 113.506 97.5092 113.477 97.5111Z" fill="#6E9569"/>
<path opacity="0.17" d="M114.243 102.846C114.21 102.848 114.176 102.843 114.145 102.83C114.114 102.818 114.087 102.798 114.064 102.773C114.049 102.757 114.038 102.738 114.031 102.717C114.025 102.696 114.024 102.674 114.027 102.652C114.031 102.631 114.04 102.61 114.053 102.593C114.067 102.575 114.084 102.561 114.104 102.551L159.15 76.9691C159.195 76.9463 159.247 76.939 159.297 76.9483C159.346 76.9576 159.391 76.983 159.425 77.0205C159.439 77.0368 159.45 77.0561 159.456 77.0769C159.462 77.0978 159.463 77.1197 159.459 77.141C159.455 77.1623 159.447 77.1825 159.434 77.2002C159.421 77.2179 159.405 77.2325 159.386 77.2431L114.347 102.82C114.316 102.84 114.28 102.849 114.243 102.846Z" fill="#6E9569"/>
<path opacity="0.17" d="M115.018 108.18C114.984 108.183 114.951 108.177 114.92 108.164C114.889 108.152 114.861 108.132 114.839 108.108C114.824 108.091 114.813 108.072 114.806 108.05C114.8 108.029 114.799 108.007 114.802 107.985C114.806 107.963 114.815 107.942 114.828 107.924C114.841 107.906 114.859 107.891 114.879 107.881L159.93 82.3029C159.974 82.2804 160.025 82.2732 160.074 82.2825C160.123 82.2919 160.167 82.3171 160.2 82.3543C160.215 82.3702 160.226 82.3895 160.233 82.4104C160.239 82.4314 160.24 82.4536 160.237 82.4752C160.233 82.4968 160.224 82.5172 160.211 82.5349C160.198 82.5525 160.18 82.5669 160.161 82.5769L115.114 108.155C115.085 108.171 115.052 108.18 115.018 108.18Z" fill="#6E9569"/>
<path opacity="0.17" d="M115.797 113.515C115.764 113.524 115.73 113.524 115.697 113.515C115.667 113.505 115.64 113.487 115.619 113.462C115.598 113.438 115.585 113.409 115.58 113.378L112.471 92.0392C112.469 92.0101 112.475 91.981 112.489 91.9553C112.503 91.9295 112.524 91.9081 112.549 91.8936L157.596 66.3161C157.627 66.3014 157.66 66.2937 157.694 66.2937C157.728 66.2937 157.762 66.3014 157.792 66.3161C157.821 66.3271 157.847 66.345 157.868 66.3681C157.888 66.3913 157.903 66.419 157.91 66.4488L161.014 87.7877C161.018 87.8165 161.013 87.8457 161 87.8716C160.986 87.8975 160.966 87.919 160.94 87.9333L115.889 113.489C115.861 113.507 115.83 113.516 115.797 113.515ZM112.872 92.1077L115.919 113.087L160.613 87.7106L157.566 66.7314L112.872 92.1077Z" fill="#6E9569"/>
</g>
<g opacity="0.17">
<path opacity="0.17" d="M160.844 87.9371C160.795 87.9413 160.747 87.928 160.708 87.8996C160.668 87.8713 160.641 87.8298 160.63 87.783L157.522 66.4442C157.52 66.4216 157.523 66.3988 157.531 66.3775C157.539 66.3562 157.551 66.3367 157.567 66.3205C157.583 66.3042 157.603 66.2916 157.624 66.2834C157.646 66.2752 157.669 66.2716 157.692 66.2729C157.741 66.2702 157.789 66.2841 157.828 66.3121C157.868 66.3402 157.897 66.3807 157.909 66.427L161.014 87.7658C161.016 87.7884 161.012 87.8112 161.005 87.8325C160.997 87.8538 160.985 87.8733 160.968 87.8895C160.952 87.9058 160.933 87.9184 160.911 87.9266C160.89 87.9348 160.867 87.9384 160.844 87.9371Z" fill="black"/>
<path opacity="0.17" d="M154.401 91.5939C154.352 91.5981 154.304 91.5848 154.264 91.5564C154.225 91.528 154.198 91.4865 154.187 91.4397L151.079 70.1012C151.077 70.0786 151.08 70.0559 151.088 70.0345C151.096 70.0132 151.108 69.9938 151.124 69.9775C151.14 69.9613 151.16 69.9486 151.181 69.9404C151.203 69.9322 151.226 69.9287 151.249 69.93C151.297 69.9257 151.346 69.9391 151.385 69.9674C151.424 69.9958 151.452 70.0373 151.462 70.0841L154.579 91.4226C154.581 91.446 154.578 91.4695 154.57 91.4915C154.561 91.5135 154.548 91.5334 154.531 91.5498C154.514 91.5662 154.494 91.5787 154.471 91.5863C154.448 91.5939 154.424 91.5965 154.401 91.5939Z" fill="black"/>
<path opacity="0.17" d="M147.975 95.2466C147.926 95.2502 147.877 95.2366 147.837 95.2085C147.798 95.1803 147.769 95.1392 147.757 95.0925L144.653 73.7536C144.651 73.7314 144.654 73.7091 144.662 73.688C144.669 73.667 144.681 73.6478 144.697 73.6316C144.712 73.6154 144.731 73.6027 144.752 73.5942C144.773 73.5857 144.796 73.5817 144.818 73.5824C144.867 73.578 144.916 73.5911 144.956 73.6195C144.996 73.6478 145.025 73.6893 145.036 73.7365L148.145 95.0754C148.146 95.098 148.143 95.1207 148.136 95.1421C148.128 95.1634 148.115 95.1828 148.099 95.1991C148.083 95.2153 148.064 95.228 148.042 95.2362C148.021 95.2444 147.998 95.2479 147.975 95.2466Z" fill="black"/>
<path opacity="0.17" d="M141.54 98.9033C141.491 98.9066 141.442 98.8925 141.402 98.8635C141.362 98.8345 141.334 98.7924 141.322 98.7449L138.214 77.406C138.213 77.3837 138.216 77.3614 138.224 77.3406C138.232 77.3198 138.245 77.3009 138.261 77.2851C138.277 77.2694 138.296 77.2571 138.317 77.2492C138.338 77.2412 138.361 77.2377 138.384 77.239C138.433 77.2346 138.482 77.2478 138.522 77.2761C138.562 77.3044 138.59 77.346 138.601 77.3931L141.706 98.7321C141.707 98.7543 141.704 98.7767 141.697 98.7977C141.689 98.8187 141.677 98.8379 141.662 98.8541C141.646 98.8703 141.627 98.883 141.606 98.8915C141.585 98.9 141.563 98.904 141.54 98.9033Z" fill="black"/>
<path opacity="0.17" d="M135.105 102.554C135.056 102.559 135.007 102.546 134.967 102.517C134.927 102.489 134.899 102.447 134.888 102.4L131.762 81.0615C131.76 81.0389 131.763 81.0161 131.771 80.9948C131.779 80.9734 131.791 80.954 131.807 80.9378C131.823 80.9215 131.843 80.9089 131.864 80.9007C131.886 80.8925 131.909 80.8889 131.932 80.8902C131.98 80.8867 132.029 80.9002 132.069 80.9284C132.109 80.9566 132.137 80.9976 132.149 81.0443L135.253 102.383C135.255 102.404 135.253 102.425 135.246 102.445C135.24 102.465 135.229 102.483 135.216 102.499C135.202 102.515 135.185 102.528 135.166 102.538C135.147 102.547 135.127 102.553 135.105 102.554Z" fill="black"/>
<path opacity="0.17" d="M128.666 106.211C128.617 106.214 128.569 106.2 128.53 106.171C128.491 106.142 128.463 106.1 128.453 106.052L125.345 84.7134C125.345 84.6235 125.406 84.5507 125.514 84.5464C125.563 84.5422 125.611 84.5555 125.651 84.5839C125.69 84.6123 125.717 84.6537 125.728 84.7006L128.836 106.04C128.838 106.062 128.835 106.085 128.827 106.106C128.819 106.128 128.807 106.147 128.791 106.163C128.775 106.18 128.755 106.192 128.734 106.2C128.712 106.209 128.689 106.212 128.666 106.211Z" fill="black"/>
<path opacity="0.17" d="M122.232 109.863C122.183 109.866 122.134 109.853 122.094 109.825C122.055 109.797 122.026 109.756 122.014 109.709L118.91 88.3697C118.908 88.3471 118.911 88.3243 118.919 88.303C118.927 88.2816 118.939 88.2622 118.955 88.246C118.971 88.2297 118.991 88.2171 119.012 88.2089C119.034 88.2007 119.057 88.1971 119.08 88.1984C119.128 88.1942 119.177 88.2075 119.216 88.2359C119.255 88.2642 119.283 88.3057 119.293 88.3525L122.402 109.692C122.403 109.714 122.4 109.737 122.393 109.758C122.385 109.78 122.372 109.799 122.356 109.815C122.34 109.832 122.321 109.844 122.299 109.853C122.278 109.861 122.255 109.864 122.232 109.863Z" fill="black"/>
<path opacity="0.17" d="M115.797 113.515C115.748 113.52 115.699 113.506 115.659 113.478C115.619 113.45 115.591 113.408 115.58 113.361L112.471 92.022C112.47 91.9995 112.473 91.9771 112.481 91.956C112.489 91.935 112.502 91.9158 112.518 91.8997C112.534 91.8837 112.553 91.871 112.574 91.8625C112.595 91.8541 112.618 91.8501 112.641 91.8507C112.69 91.8474 112.739 91.8615 112.779 91.8905C112.819 91.9196 112.847 91.9616 112.859 92.0091L115.967 113.348C115.968 113.37 115.965 113.393 115.957 113.414C115.949 113.434 115.936 113.453 115.92 113.469C115.904 113.485 115.885 113.497 115.864 113.505C115.843 113.513 115.82 113.516 115.797 113.515Z" fill="black"/>
<path opacity="0.17" d="M113.477 97.5111C113.443 97.5144 113.409 97.5094 113.378 97.4967C113.347 97.484 113.32 97.464 113.298 97.4383C113.283 97.4226 113.271 97.4037 113.264 97.3829C113.258 97.3621 113.256 97.3401 113.259 97.3185C113.263 97.2969 113.271 97.2764 113.284 97.2586C113.297 97.2407 113.314 97.2261 113.333 97.2157L158.384 71.6338C158.429 71.6113 158.479 71.6042 158.528 71.6135C158.577 71.6228 158.622 71.6481 158.654 71.6852C158.669 71.7011 158.681 71.7204 158.687 71.7414C158.694 71.7624 158.695 71.7845 158.691 71.8061C158.687 71.8277 158.678 71.8482 158.665 71.8658C158.652 71.8835 158.635 71.8978 158.615 71.9078L113.559 97.4854C113.534 97.5004 113.506 97.5092 113.477 97.5111Z" fill="black"/>
<path opacity="0.17" d="M114.243 102.846C114.21 102.848 114.176 102.843 114.145 102.83C114.114 102.818 114.087 102.798 114.064 102.773C114.049 102.757 114.038 102.738 114.031 102.717C114.025 102.696 114.024 102.674 114.027 102.652C114.031 102.631 114.04 102.61 114.053 102.593C114.067 102.575 114.084 102.561 114.104 102.551L159.15 76.9691C159.195 76.9463 159.247 76.939 159.297 76.9483C159.346 76.9576 159.391 76.983 159.425 77.0205C159.439 77.0368 159.45 77.0561 159.456 77.0769C159.462 77.0978 159.463 77.1197 159.459 77.141C159.455 77.1623 159.447 77.1825 159.434 77.2002C159.421 77.2179 159.405 77.2325 159.386 77.2431L114.347 102.82C114.316 102.84 114.28 102.849 114.243 102.846Z" fill="black"/>
<path opacity="0.17" d="M115.018 108.18C114.984 108.183 114.951 108.177 114.92 108.164C114.889 108.152 114.861 108.132 114.839 108.108C114.824 108.091 114.813 108.072 114.806 108.05C114.8 108.029 114.799 108.007 114.802 107.985C114.806 107.963 114.815 107.942 114.828 107.924C114.841 107.906 114.859 107.891 114.879 107.881L159.93 82.3029C159.974 82.2804 160.025 82.2732 160.074 82.2825C160.123 82.2919 160.167 82.3171 160.2 82.3543C160.215 82.3702 160.226 82.3895 160.233 82.4104C160.239 82.4314 160.24 82.4536 160.237 82.4752C160.233 82.4968 160.224 82.5172 160.211 82.5349C160.198 82.5525 160.18 82.5669 160.161 82.5769L115.114 108.155C115.085 108.171 115.052 108.18 115.018 108.18Z" fill="black"/>
<path opacity="0.17" d="M115.797 113.515C115.764 113.524 115.73 113.524 115.697 113.515C115.667 113.505 115.64 113.487 115.619 113.462C115.598 113.438 115.585 113.409 115.58 113.378L112.471 92.0392C112.469 92.0101 112.475 91.981 112.489 91.9553C112.503 91.9295 112.524 91.9081 112.549 91.8936L157.596 66.3161C157.627 66.3014 157.66 66.2937 157.694 66.2937C157.728 66.2937 157.762 66.3014 157.792 66.3161C157.821 66.3271 157.847 66.345 157.868 66.3681C157.888 66.3913 157.903 66.419 157.91 66.4488L161.014 87.7877C161.018 87.8165 161.013 87.8457 161 87.8716C160.986 87.8975 160.966 87.919 160.94 87.9333L115.889 113.489C115.861 113.507 115.83 113.516 115.797 113.515ZM112.872 92.1077L115.919 113.087L160.613 87.7106L157.566 66.7314L112.872 92.1077Z" fill="black"/>
</g>
<path d="M127.073 72.1044C127.074 72.3716 127.04 72.6377 126.973 72.8965C126.912 73.1356 126.82 73.3659 126.699 73.5816C126.591 73.7813 126.456 73.9657 126.298 74.1297C126.157 74.2758 125.995 74.4026 125.819 74.5064C125.667 74.5997 125.496 74.6596 125.319 74.682C125.183 74.6981 125.046 74.6711 124.927 74.6049C124.806 74.5276 124.714 74.4132 124.666 74.2795C124.596 74.0991 124.562 73.9073 124.566 73.7143C124.566 73.6744 124.575 73.635 124.592 73.5987C124.604 73.5664 124.627 73.5392 124.657 73.5217L125.197 73.2134C125.249 73.1834 125.284 73.1791 125.301 73.192C125.328 73.2275 125.346 73.2685 125.354 73.3119C125.361 73.3606 125.378 73.4072 125.405 73.4485C125.432 73.4899 125.468 73.5251 125.51 73.5516C125.58 73.5859 125.684 73.5516 125.819 73.4874C125.977 73.3962 126.103 73.2604 126.181 73.0978C126.263 72.9117 126.304 72.71 126.298 72.5069V70.7258L124.862 71.5436C124.85 71.5529 124.835 71.5581 124.82 71.5581C124.805 71.5581 124.791 71.5529 124.779 71.5436C124.755 71.5146 124.744 71.4777 124.748 71.4408V70.7643C124.748 70.717 124.758 70.6701 124.779 70.6273C124.796 70.5869 124.824 70.5526 124.862 70.5288L126.973 69.3299C126.984 69.3209 126.998 69.3159 127.012 69.3159C127.027 69.3159 127.04 69.3209 127.051 69.3299C127.065 69.3434 127.075 69.3596 127.081 69.3774C127.087 69.3952 127.089 69.4141 127.086 69.4327L127.073 72.1044Z" fill="#455A64"/>
<path d="M127.63 72.4727C127.631 72.1869 127.704 71.9057 127.844 71.6549C128.021 71.3489 128.256 71.0787 128.536 70.8586L129.028 70.4518C129.036 70.3748 129.016 70.2973 128.971 70.2335C128.937 70.1864 128.871 70.1907 128.784 70.2335C128.725 70.2643 128.673 70.3065 128.632 70.3577C128.605 70.3961 128.58 70.4361 128.558 70.4775C128.538 70.515 128.513 70.5496 128.484 70.5803C128.46 70.6036 128.434 70.6238 128.405 70.6402L127.87 70.9442C127.859 70.9507 127.847 70.9541 127.835 70.9541C127.823 70.9541 127.811 70.9507 127.8 70.9442C127.794 70.9301 127.79 70.9148 127.79 70.8993C127.79 70.8837 127.794 70.8684 127.8 70.8543C127.809 70.7337 127.836 70.6152 127.883 70.5032C127.939 70.3543 128.008 70.2109 128.092 70.0751C128.183 69.9314 128.288 69.7966 128.405 69.6726C128.523 69.5503 128.658 69.4451 128.806 69.3601C128.937 69.2758 129.086 69.2217 129.241 69.2017C129.353 69.1893 129.465 69.22 129.555 69.2873C129.646 69.3662 129.71 69.4709 129.738 69.587C129.781 69.7432 129.801 69.9046 129.799 70.0665V71.9975C129.798 72.0452 129.786 72.0921 129.764 72.1345C129.748 72.1744 129.721 72.2087 129.685 72.2329L129.154 72.5326C129.143 72.5417 129.129 72.5467 129.115 72.5467C129.101 72.5467 129.087 72.5417 129.076 72.5326C129.063 72.5186 129.054 72.5023 129.048 72.4847C129.042 72.467 129.04 72.4484 129.041 72.4299V72.2543C128.974 72.4062 128.889 72.5499 128.788 72.6825C128.681 72.8174 128.548 72.9308 128.397 73.0164C128.299 73.0768 128.189 73.1135 128.074 73.1235C127.989 73.127 127.905 73.0996 127.839 73.0464C127.769 72.9827 127.718 72.9013 127.691 72.8109C127.657 72.7011 127.636 72.5875 127.63 72.4727ZM128.588 72.0702C128.656 72.0342 128.715 71.9846 128.762 71.9247C128.817 71.8605 128.864 71.7901 128.902 71.7149C128.941 71.6371 128.972 71.5552 128.993 71.4708C129.015 71.3868 129.027 71.3006 129.028 71.2139L128.64 71.5222C128.569 71.5827 128.507 71.6534 128.458 71.732C128.412 71.804 128.388 71.887 128.388 71.9718C128.388 72.0531 128.388 72.0959 128.44 72.1088C128.492 72.1216 128.523 72.1088 128.588 72.0702Z" fill="#455A64"/>
<path d="M132.707 70.3577C132.708 70.4069 132.696 70.4556 132.672 70.499C132.657 70.5389 132.629 70.5732 132.594 70.5974L132.062 70.8972C132.051 70.9062 132.038 70.9112 132.023 70.9112C132.009 70.9112 131.995 70.9062 131.984 70.8972C131.972 70.8832 131.962 70.8668 131.956 70.8492C131.95 70.8316 131.948 70.813 131.949 70.7944V69.1587C131.96 69.0232 131.93 68.8874 131.862 68.769C131.801 68.6919 131.71 68.6919 131.584 68.769C131.456 68.8423 131.359 68.9576 131.309 69.0945C131.247 69.2498 131.218 69.4158 131.222 69.5826V71.1926C131.221 71.2417 131.209 71.2898 131.187 71.334C131.172 71.3739 131.145 71.4082 131.109 71.4324L130.578 71.7322C130.566 71.7416 130.552 71.7467 130.536 71.7467C130.521 71.7467 130.507 71.7416 130.495 71.7322C130.472 71.7032 130.461 71.6663 130.465 71.6294V68.6577C130.464 68.609 130.475 68.5607 130.495 68.5164C130.513 68.478 130.542 68.4454 130.578 68.4222L131.087 68.131C131.098 68.1219 131.112 68.117 131.126 68.117C131.141 68.117 131.155 68.1219 131.166 68.131C131.178 68.1441 131.188 68.1596 131.194 68.1766C131.2 68.1936 131.202 68.2116 131.2 68.2295V68.3794C131.222 68.3237 131.253 68.2637 131.283 68.1952C131.319 68.1282 131.36 68.0638 131.405 68.0025C131.455 67.9371 131.511 67.8756 131.57 67.8184C131.638 67.7575 131.713 67.7043 131.793 67.66C131.904 67.5902 132.031 67.5477 132.163 67.5358C132.216 67.5309 132.269 67.5371 132.319 67.5541C132.37 67.5711 132.416 67.5984 132.454 67.6343C132.546 67.7322 132.61 67.8516 132.641 67.9811C132.69 68.1816 132.712 68.3874 132.707 68.5935V70.3577Z" fill="#455A64"/>
<path d="M133.364 67.0183C133.366 66.9707 133.378 66.9241 133.399 66.8813C133.414 66.8414 133.442 66.8071 133.477 66.7828L134.008 66.4831C134.019 66.4741 134.033 66.4691 134.048 66.4691C134.062 66.4691 134.076 66.4741 134.087 66.4831C134.099 66.4971 134.109 66.5134 134.115 66.5311C134.121 66.5487 134.123 66.5673 134.122 66.5859V68.2001C134.112 68.3359 134.139 68.4718 134.2 68.594C134.257 68.6753 134.344 68.6796 134.466 68.594C134.59 68.5252 134.684 68.414 134.731 68.2814C134.786 68.1258 134.812 67.9621 134.809 67.7976V66.1834C134.809 66.1347 134.819 66.0865 134.84 66.0421C134.857 66.0029 134.886 65.9699 134.923 65.9479L135.454 65.6439C135.465 65.6348 135.479 65.6299 135.493 65.6299C135.507 65.6299 135.521 65.6348 135.532 65.6439C135.556 65.6709 135.569 65.7063 135.567 65.7424V68.731C135.566 68.78 135.554 68.8282 135.532 68.8723C135.516 68.9116 135.489 68.9456 135.454 68.9707L134.962 69.2448C134.951 69.2538 134.937 69.2588 134.923 69.2588C134.908 69.2588 134.894 69.2538 134.883 69.2448C134.871 69.2307 134.862 69.2144 134.856 69.1968C134.85 69.1792 134.847 69.1606 134.849 69.142V68.9964C134.826 69.0597 134.798 69.1213 134.766 69.1806C134.733 69.247 134.694 69.3101 134.648 69.3689C134.598 69.4343 134.543 69.4959 134.483 69.5531C134.414 69.6151 134.338 69.6697 134.257 69.7158C133.982 69.8699 133.769 69.8785 133.608 69.7158C133.402 69.4381 133.315 69.0925 133.364 68.7524V67.0183Z" fill="#455A64"/>
<path d="M136.116 67.6476C136.118 67.3634 136.191 67.0841 136.329 66.8341C136.508 66.5291 136.743 66.2592 137.021 66.0376L137.513 65.6094C137.52 65.533 137.502 65.4564 137.461 65.3911C137.422 65.344 137.361 65.3482 137.269 65.3911C137.211 65.4209 137.161 65.4634 137.121 65.5152C137.093 65.5537 137.067 65.5938 137.043 65.6351C137.024 65.6723 137.001 65.7068 136.973 65.7379C136.948 65.7612 136.921 65.7814 136.891 65.7978L136.355 66.1019C136.345 66.1083 136.333 66.1118 136.32 66.1118C136.308 66.1118 136.296 66.1083 136.285 66.1019C136.274 66.0729 136.274 66.0409 136.285 66.0119C136.295 65.8897 136.325 65.7698 136.372 65.6565C136.425 65.5072 136.494 65.3637 136.577 65.2284C136.671 65.0856 136.778 64.9509 136.895 64.8259C137.01 64.7027 137.144 64.5973 137.291 64.5133C137.423 64.4301 137.571 64.376 137.727 64.3549C137.838 64.3425 137.951 64.3732 138.04 64.4405C138.131 64.5194 138.195 64.6241 138.223 64.7402C138.266 64.8964 138.287 65.0579 138.284 65.2198V67.1509C138.283 67.1986 138.271 67.2455 138.249 67.2879C138.234 67.3291 138.204 67.3638 138.166 67.3864L137.639 67.6861C137.605 67.6861 137.578 67.6861 137.557 67.6861C137.544 67.6721 137.535 67.6558 137.529 67.6382C137.523 67.6205 137.521 67.6019 137.522 67.5834V67.4464C137.458 67.5989 137.375 67.7427 137.274 67.8745C137.166 68.0109 137.031 68.1245 136.878 68.2085C136.781 68.2695 136.67 68.3063 136.555 68.3156C136.47 68.3176 136.387 68.2903 136.32 68.2385C136.253 68.1733 136.203 68.0922 136.177 68.003C136.139 67.8881 136.118 67.7684 136.116 67.6476ZM137.078 67.2494C137.143 67.212 137.201 67.1626 137.248 67.1038C137.304 67.0407 137.351 66.9701 137.387 66.894C137.426 66.8155 137.458 66.7338 137.483 66.6499C137.503 66.5644 137.514 66.4767 137.513 66.3887L137.126 66.7013C137.054 66.7618 136.993 66.8325 136.943 66.9111C136.899 66.9839 136.875 67.0665 136.873 67.1509C136.873 67.228 136.873 67.2751 136.925 67.2879C136.953 67.2931 136.981 67.2924 137.008 67.2857C137.035 67.279 137.06 67.2667 137.082 67.2494H137.078Z" fill="#455A64"/>
<path d="M140.469 62.8008C140.48 62.7917 140.494 62.7867 140.508 62.7867C140.523 62.7867 140.537 62.7917 140.548 62.8008C140.574 62.8008 140.582 62.8522 140.582 62.8993V63.5458C140.584 63.5938 140.572 63.6412 140.548 63.6828C140.532 63.7227 140.505 63.7571 140.469 63.7813L140.086 63.9997C139.953 64.086 139.846 64.2068 139.778 64.3488C139.709 64.4907 139.682 64.6485 139.699 64.8047V66.3719C139.699 66.4206 139.689 66.4688 139.668 66.5132C139.65 66.5526 139.621 66.5866 139.585 66.6117L139.054 66.9114C139.043 66.9204 139.03 66.9254 139.015 66.9254C139.001 66.9254 138.987 66.9204 138.976 66.9114C138.964 66.8974 138.954 66.8811 138.948 66.8634C138.942 66.8458 138.94 66.8272 138.941 66.8086V63.837C138.942 63.788 138.954 63.7398 138.976 63.6957C138.991 63.6569 139.019 63.624 139.054 63.6015L139.542 63.3232C139.577 63.3232 139.603 63.3232 139.625 63.3232C139.637 63.3372 139.646 63.3535 139.652 63.3711C139.658 63.3888 139.661 63.4074 139.659 63.4259V63.5929C139.721 63.4643 139.799 63.3435 139.89 63.2332C139.98 63.122 140.091 63.0289 140.217 62.9592L140.469 62.8008Z" fill="#455A64"/>
<path d="M142.237 66.1623C142.227 66.2046 142.214 66.2462 142.198 66.2865C142.181 66.3269 142.152 66.3614 142.115 66.3849L141.566 66.6975C141.556 66.7063 141.543 66.7111 141.529 66.7111C141.516 66.7111 141.503 66.7063 141.492 66.6975C141.471 66.6709 141.46 66.6374 141.462 66.6033C141.462 66.6033 141.462 66.5733 141.462 66.5562L141.784 65.2331L140.939 62.7368C140.937 62.7226 140.937 62.7082 140.939 62.694C140.94 62.6513 140.949 62.6091 140.966 62.5698C140.982 62.5352 141.007 62.5056 141.04 62.4842L141.588 62.1716C141.599 62.1614 141.614 62.1557 141.629 62.1557C141.645 62.1557 141.66 62.1614 141.671 62.1716C141.69 62.1963 141.704 62.2238 141.714 62.253L142.18 63.6446L142.642 61.722C142.651 61.679 142.666 61.6373 142.685 61.5978C142.7 61.5578 142.728 61.5234 142.764 61.4994L143.321 61.1868C143.33 61.1784 143.343 61.1737 143.356 61.1737C143.369 61.1737 143.381 61.1784 143.391 61.1868C143.402 61.1996 143.41 61.2146 143.416 61.2308C143.421 61.247 143.423 61.2641 143.421 61.281C143.423 61.2966 143.423 61.3125 143.421 61.3281L142.237 66.1623Z" fill="#455A64"/>
<path d="M155.668 74.9854L156.046 75.5121C156.057 75.5277 156.073 75.5392 156.091 75.5447C156.109 75.5502 156.129 75.5493 156.146 75.5421L156.786 75.298C156.887 75.2595 156.948 75.3837 156.891 75.5079L156.516 76.2958C156.498 76.344 156.498 76.3974 156.516 76.4457L156.734 77.1351C156.769 77.2464 156.678 77.3963 156.582 77.392L155.972 77.3535C155.949 77.3535 155.927 77.3594 155.907 77.3707C155.887 77.382 155.871 77.3982 155.859 77.4177L155.354 78.0858C155.271 78.1928 155.158 78.1628 155.154 78.0344V77.2208C155.156 77.1989 155.151 77.1769 155.141 77.1573C155.131 77.1377 155.116 77.1211 155.097 77.1094L154.57 76.8354C154.488 76.7925 154.505 76.6212 154.601 76.5484L155.21 76.0817C155.25 76.048 155.277 76.0031 155.289 75.9532L155.467 75.0968C155.476 74.9769 155.607 74.9041 155.668 74.9854Z" fill="#F28F8F"/>
<path d="M159.381 74.7804C159.319 74.3567 159.13 73.9605 158.84 73.6415C158.55 73.3224 158.17 73.0945 157.749 72.9863C156.53 72.6822 155.668 73.5044 155.037 74.1895C154.871 74.3736 155.228 74.4421 155.363 74.3137C156.025 73.6842 157.327 73.0291 158.249 73.7998C159.172 74.5706 158.924 75.7567 158.641 76.643C158.371 77.4799 157.838 78.2106 157.118 78.7295C156.398 79.2483 155.529 79.5283 154.636 79.5291C150.239 79.4306 154.009 72.7764 156.534 72.3054C156.739 72.2669 156.843 71.9886 156.56 71.9629C155.254 71.8344 154.453 72.8492 153.748 73.62C152.972 74.4422 152.397 75.4278 152.067 76.5017C151.488 78.4886 153.117 80.8308 155.825 79.9573C158.197 79.1908 159.856 77.037 159.381 74.7804Z" fill="#F28F8F"/>
<path d="M128.24 98.2989C128.177 97.8751 127.989 97.479 127.698 97.16C127.408 96.8409 127.029 96.613 126.607 96.5048C125.388 96.2008 124.526 97.0186 123.895 97.708C123.73 97.8878 124.087 97.9563 124.222 97.8321C124.883 97.2027 126.185 96.5476 127.108 97.3183C128.031 98.089 127.783 99.2751 127.5 100.161C127.23 100.998 126.696 101.729 125.976 102.248C125.256 102.767 124.387 103.047 123.495 103.047C119.097 102.949 122.868 96.295 125.393 95.824C125.597 95.7855 125.702 95.5072 125.419 95.4772C124.113 95.353 123.312 96.3678 122.606 97.1385C121.83 97.96 121.255 98.9458 120.926 100.02C120.347 102.003 121.975 104.349 124.683 103.475C127.056 102.709 128.714 100.551 128.24 98.2989Z" fill="#F28F8F"/>
<path d="M142.363 18.3L141.806 15.1146L138.919 16.9856C138.654 16.4749 138.278 16.0277 137.818 15.6755L139.202 11.9978L136.629 11.4326L134.727 14.9948C134.038 15.1104 133.372 15.3284 132.75 15.6413L131.927 12.9568L128.845 15.3373L129.05 18.5013C128.42 19.1921 127.85 19.9324 127.343 20.7148L124.796 20.5778L123.011 24.5124L125.188 25.4286C124.96 26.2445 124.814 27.0806 124.753 27.9247L121.975 30.4336L122.532 33.6147L125.423 31.748C125.685 32.2595 126.06 32.707 126.52 33.0581L125.136 36.7316L127.709 37.2968L130.43 34.6894C131.057 34.5952 130.904 33.4306 131.588 33.1052L132.411 35.7854L135.493 33.4049L135.415 32.159C136.037 31.4783 138.393 29.9755 138.898 29.1877L139.533 28.1516L141.34 24.2041L140.508 22.7228L139.598 20.809L142.363 18.3ZM132.951 28.7853C130.591 30.6134 129.868 31.0116 129.442 28.5712C129.015 26.1308 130.395 22.4059 132.759 20.5778C135.123 18.7496 136.029 18.6169 136.455 21.0573C136.882 23.4977 135.315 26.9571 132.951 28.7853Z" fill="#E0E0E0"/>
<path d="M136.629 11.4326L139.995 13.3422L138.097 16.9045L134.727 14.9949L136.629 11.4326Z" fill="#F5F5F5"/>
<path d="M145.171 17.0232L142.285 18.8944L138.919 16.9847L141.806 15.1135L145.171 17.0232Z" fill="#F5F5F5"/>
<path d="M144.705 26.1255L142.52 25.2093L139.154 23.2998L141.34 24.216L144.705 26.1255Z" fill="#E0E0E0"/>
<path d="M125.153 36.7311L128.519 38.6409L129.903 34.967L126.538 33.0573L125.153 36.7311Z" fill="#E0E0E0"/>
<path d="M135.793 37.6943L132.428 35.7847L131.605 33.1001L134.971 35.0097L135.793 37.6943Z" fill="#E0E0E0"/>
<path d="M145.728 20.2043L145.171 17.0231L142.285 18.8941C142.02 18.3822 141.644 17.9335 141.183 17.5797L142.568 13.9276L139.995 13.3624L138.097 16.9246C137.408 17.0287 136.741 17.2352 136.116 17.5369L135.293 14.8524L132.197 17.2329L132.402 20.3969C131.772 21.0869 131.201 21.8273 130.695 22.6105L128.166 22.4906L126.381 26.4253L128.558 27.3415C128.329 28.1574 128.184 28.9935 128.122 29.8377L125.358 32.338L125.915 35.5192L128.806 33.6482C129.068 34.1612 129.442 34.6103 129.903 34.9626L128.519 38.6361L131.092 39.2013L132.994 35.6391C133.682 35.5275 134.348 35.3138 134.971 35.0054L135.793 37.6899L138.876 35.3094L138.676 32.1454C139.303 31.4542 139.872 30.7139 140.378 29.9318L142.92 30.056L144.705 26.1213L142.529 25.2051C142.757 24.3892 142.903 23.5531 142.964 22.7089L145.728 20.2043ZM136.316 30.694C133.956 32.5222 131.692 32.0212 131.266 29.5808C130.839 27.1403 132.406 23.6808 134.77 21.8741C137.134 20.0673 139.394 20.5468 139.825 22.9872C140.256 25.4277 138.68 28.8657 136.316 30.694Z" fill="#EBEBEB"/>
<path d="M135.293 14.8536L131.928 12.9438L128.845 15.3246L132.211 17.2344L135.293 14.8536Z" fill="#F5F5F5"/>
<path d="M128.845 15.3234L129.05 18.4876L132.415 20.3972L132.211 17.233L128.845 15.3234Z" fill="#E0E0E0"/>
<path d="M130.708 22.6105L127.343 20.7008L124.801 20.5767L128.166 22.4863L130.708 22.6105Z" fill="#F5F5F5"/>
<path d="M124.801 20.5767L123.016 24.5116L126.381 26.4213L128.166 22.4863L124.801 20.5767Z" fill="#E0E0E0"/>
<path d="M128.135 29.8334L124.77 27.9237L121.993 30.4329L125.362 32.3427L128.135 29.8334Z" fill="#F5F5F5"/>
<path d="M125.915 35.5238L122.55 33.6141L121.993 30.4326L125.362 32.3423L125.915 35.5238Z" fill="#E0E0E0"/>
<path d="M139.995 13.3421L136.629 11.4326L139.202 11.9978L142.568 13.9072L139.995 13.3421Z" fill="#F5F5F5"/>
<path d="M115.654 11.7873V7.03056L111.805 8.74316C111.604 7.93727 111.253 7.17508 110.769 6.49538L113.19 1.68726L110.234 0.00891113L107.195 4.46595C106.352 4.39339 105.504 4.47468 104.691 4.70571L104.256 0.578349L100.072 2.95458L99.6368 7.56147C98.7267 8.3527 97.8903 9.22246 97.1378 10.1603L94.1164 9.12421L91.156 14.1635L93.5809 16.2187C93.1344 17.3288 92.7863 18.4748 92.5404 19.6439L88.6962 22.3069V27.0594L92.5404 25.3468C92.7447 26.1536 93.0973 26.9169 93.5809 27.5989L91.156 32.4027L94.1164 34.0811L97.1378 29.6155C97.9787 29.6879 98.826 29.6066 99.6368 29.3757L100.072 33.5031L104.256 31.1268L104.691 26.5199C105.999 26.0557 107.157 25.2578 108.048 24.2079L110.225 24.9572L113.172 19.9221L111.357 18.3808C111.792 17.2462 111.857 15.4309 111.792 14.4376L115.654 11.7873ZM102.179 23.647C98.9664 25.471 96.955 24.178 96.955 20.5344C96.955 16.8908 99.6064 12.3996 102.819 10.597C106.032 8.79454 107.974 10.1004 107.974 13.7482C107.974 17.3961 105.388 21.8274 102.179 23.647Z" fill="#E0E0E0"/>
<path d="M113.581 1.90969L110.212 0L107.195 4.46592L110.56 6.37561L113.581 1.90969Z" fill="#F5F5F5"/>
<path d="M119.002 8.94047L115.636 7.03076L111.788 8.73494L115.153 10.6447L119.002 8.94047Z" fill="#F5F5F5"/>
<path d="M103.45 35.4253L100.085 33.5157L99.6628 29.3883L103.028 31.2979L103.45 35.4253Z" fill="#E0E0E0"/>
<path d="M91.182 32.4152L94.5474 34.3248L96.9724 29.5165L93.607 27.6111L91.182 32.4152Z" fill="#E0E0E0"/>
<path d="M119.002 13.6924V8.93998L115.153 10.6526C114.952 9.84539 114.601 9.08181 114.117 8.40052L116.524 3.58813L113.568 1.90979L110.56 6.37538C109.718 6.30282 108.869 6.38411 108.057 6.61514L107.621 2.48779L103.464 4.86401L103.028 9.47089C102.118 10.2621 101.282 11.1319 100.529 12.0697L97.5079 11.0336L94.5474 16.0686L96.9724 18.1238C96.5259 19.2339 96.1778 20.3799 95.9319 21.5489L92.0876 24.2035V28.9559L95.9319 27.2433C96.1361 28.0488 96.4888 28.8107 96.9724 29.4911L94.5474 34.2992L97.5079 35.9775L100.529 31.512C101.37 31.5844 102.217 31.5031 103.028 31.2722L103.464 35.3995L107.647 33.0233L108.083 28.4164C108.993 27.6242 109.831 26.7545 110.586 25.8176L113.608 26.8537L116.524 21.8401L114.104 19.785C114.551 18.6754 114.898 17.5293 115.14 16.3598L119.002 13.6924ZM105.545 25.5564C102.332 27.3803 99.7326 25.9032 99.7326 22.2554C99.7326 18.6076 102.345 14.1762 105.545 12.3523C108.745 10.5284 111.357 12.0098 111.357 15.6533C111.357 19.2969 108.753 23.7325 105.545 25.5564Z" fill="#EBEBEB"/>
<path d="M97.1639 10.1606L100.529 12.0703L97.5078 11.0341L94.1425 9.12439L97.1639 10.1606Z" fill="#F5F5F5"/>
<path d="M94.1356 9.1212L91.1798 14.162L94.544 16.0698L97.4998 11.029L94.1356 9.1212Z" fill="#F5F5F5"/>
<path d="M91.182 14.1632L94.5474 16.0728L96.9724 18.1281L93.607 16.2184L91.182 14.1632Z" fill="#E0E0E0"/>
<path d="M92.5664 19.6476L95.9318 21.5572L92.0875 24.2205L88.7222 22.3108L92.5664 19.6476Z" fill="#F5F5F5"/>
<path d="M88.7222 22.3108L92.0875 24.2205V28.9733L88.7222 27.0636V22.3108Z" fill="#E0E0E0"/>
<path d="M107.634 2.48734L104.269 0.577637L100.085 2.95406L103.45 4.86377L107.634 2.48734Z" fill="#F5F5F5"/>
<path d="M104.165 142.801C104.165 142.913 104.134 143.023 104.073 143.118C103.614 143.761 103.007 144.29 102.301 144.659C100.124 145.871 97.0159 146.192 94.3384 145.639L67.8859 160.659L67.9337 160.74L68.3691 160.672V162.149C68.3691 163.262 67.6159 164.379 66.1009 165.223C63.1056 166.901 58.2644 166.88 55.3257 165.176L55.1341 165.06C55.1015 165.038 55.0747 165.009 55.0558 164.974C55.0369 164.94 55.0264 164.902 55.0253 164.863V163.472L61.9127 163.861L62.9184 161.798L62.3568 161.472L60.2757 160.273L53.8324 161.177C53.7919 161.182 53.7506 161.179 53.7114 161.168C53.6722 161.156 53.6359 161.137 53.605 161.11C53.5741 161.084 53.5493 161.051 53.5322 161.015C53.5151 160.978 53.5061 160.939 53.5059 160.898V159.349L55.3692 159.045C55.3692 159.045 60.6545 157.508 63.3363 158.064L89.7845 143.045C89.4788 142.586 89.3195 142.048 89.3274 141.499V140.035L89.7279 140.176C90.1854 139.453 90.8299 138.862 91.5957 138.464C94.5953 136.785 102.667 137.265 102.667 137.265V138.712C102.667 138.746 102.655 138.778 102.632 138.803C102.61 138.829 102.579 138.845 102.545 138.849L95.7838 139.825L95.3485 140.733L94.7825 141.889L97.4295 143.413L104.003 141.088L104.165 141.366V142.801Z" fill="#37474F"/>
<path d="M62.8966 160.303L62.335 161.459L60.254 160.26L53.8324 161.176C53.7919 161.182 53.7506 161.179 53.7114 161.167C53.6722 161.156 53.6359 161.136 53.605 161.11C53.5741 161.084 53.5493 161.051 53.5322 161.014C53.5151 160.978 53.5061 160.938 53.5059 160.898V159.348L60.2409 158.779L62.8966 160.303Z" fill="#263238"/>
<path d="M95.7924 138.361L102.675 137.269V138.729C102.676 138.763 102.663 138.795 102.641 138.82C102.618 138.846 102.587 138.862 102.554 138.866L95.7924 139.842L95.357 140.75L94.7954 140.425L95.7924 138.361Z" fill="#263238"/>
<path d="M94.3384 145.627V144.145L67.8857 159.165V160.646L94.3384 145.627Z" fill="#37474F"/>
<path d="M55.3867 157.563C54.6605 157.941 54.0388 158.488 53.5756 159.156C53.5395 159.212 53.5205 159.277 53.5208 159.344C53.521 159.411 53.5405 159.476 53.5771 159.532C53.6136 159.588 53.6656 159.633 53.727 159.661C53.7884 159.689 53.8567 159.699 53.9239 159.691L60.2541 158.779L62.8967 160.303L61.891 162.371L55.2648 163.326C55.0167 163.36 54.934 163.458 55.0646 163.54L55.304 163.685C58.2601 165.398 63.0839 165.398 66.0792 163.732C68.2778 162.504 68.8786 160.705 67.886 159.164L94.3211 144.145C96.9985 144.701 100.116 144.38 102.284 143.169C103.007 142.788 103.627 142.242 104.091 141.576C104.127 141.519 104.146 141.453 104.146 141.386C104.145 141.319 104.126 141.254 104.088 141.197C104.051 141.141 103.999 141.096 103.937 141.068C103.874 141.041 103.805 141.031 103.738 141.041L97.4339 141.944L94.7913 140.42L95.7926 138.352L102.423 137.397C102.658 137.363 102.741 137.26 102.619 137.183L102.38 137.037C99.4279 135.325 94.6041 135.325 91.6044 136.99C89.4276 138.219 88.8094 140.017 89.7977 141.559L63.3495 156.587C60.6677 156.03 57.5548 156.351 55.3867 157.563Z" fill="#455A64"/>
<path d="M136.024 123.671L158.336 136.276L190.279 118.14L167.967 105.535L136.024 123.671Z" fill="#455A64"/>
<path d="M158.541 135.522L136.856 123.2C137.3 121.947 137.268 120.481 136.76 118.803L158.319 131.013C158.319 131.013 158.663 132.096 158.541 135.522Z" fill="#F5F5F5"/>
<path d="M157.448 129.639C157.927 129.947 158.325 130.361 158.611 130.848C158.896 131.336 159.062 131.882 159.094 132.443V135.719C159.094 136.751 158.354 137.17 157.448 136.656L136.007 124.484V123.67L157.217 135.659C157.766 135.967 158.206 135.719 158.206 135.098V132.062C158.188 131.725 158.089 131.397 157.917 131.104C157.745 130.812 157.505 130.564 157.217 130.38L136.024 118.391V117.471L157.448 129.639Z" fill="#263238"/>
<path d="M136.024 117.472L167.967 99.3352L189.404 111.503C189.883 111.811 190.282 112.225 190.568 112.712C190.853 113.199 191.019 113.746 191.05 114.308V117.587C191.071 117.788 191.038 117.991 190.953 118.174C190.868 118.358 190.734 118.516 190.566 118.632L158.628 136.768C158.795 136.651 158.927 136.493 159.011 136.309C159.095 136.126 159.128 135.924 159.107 135.724V132.444C159.076 131.882 158.911 131.335 158.626 130.848C158.34 130.361 157.941 129.947 157.461 129.64L136.024 117.472Z" fill="#455A64"/>
<path d="M158.628 130.846C158.926 131.329 159.092 131.879 159.111 132.443V135.723C159.132 135.923 159.099 136.125 159.015 136.309C158.931 136.492 158.799 136.65 158.632 136.767L190.57 118.631C190.738 118.515 190.872 118.357 190.957 118.174C191.042 117.99 191.075 117.787 191.054 117.586V114.307C191.035 113.744 190.868 113.195 190.57 112.714L158.628 130.846Z" fill="#37474F"/>
<path d="M143.238 116.106L161.001 126.124L190.344 109.465L172.582 99.4463L143.238 116.106Z" fill="#6E9569"/>
<path opacity="0.35" d="M143.238 116.106L161.001 126.124L190.344 109.465L172.582 99.4463L143.238 116.106Z" fill="black"/>
<path d="M161.201 125.362L144.065 115.634C144.515 114.378 144.485 112.913 143.974 111.237L161.001 120.862C161.001 120.862 161.323 121.924 161.201 125.362Z" fill="#EBEBEB"/>
<path d="M161.201 125.362L144.065 115.634C144.515 114.378 144.485 112.913 143.974 111.237L161.001 120.862C161.001 120.862 161.323 121.924 161.201 125.362Z" fill="#F5F5F5"/>
<path d="M160.126 119.492C160.606 119.798 161.005 120.212 161.291 120.7C161.577 121.187 161.742 121.734 161.771 122.296V125.571C161.771 126.603 161.036 127.023 160.126 126.505L143.238 116.919V116.105L159.899 125.524C160.444 125.833 160.883 125.58 160.883 124.964V121.928C160.865 121.591 160.766 121.262 160.595 120.97C160.423 120.678 160.183 120.429 159.895 120.245L143.251 110.826V109.906L160.126 119.492Z" fill="#6E9569"/>
<path opacity="0.25" d="M160.126 119.492C160.606 119.798 161.005 120.212 161.291 120.7C161.577 121.187 161.742 121.734 161.771 122.296V125.571C161.771 126.603 161.036 127.023 160.126 126.505L143.238 116.919V116.105L159.899 125.524C160.444 125.833 160.883 125.58 160.883 124.964V121.928C160.865 121.591 160.766 121.262 160.595 120.97C160.423 120.678 160.183 120.429 159.895 120.245L143.251 110.826V109.906L160.126 119.492Z" fill="black"/>
<path d="M143.238 109.906L172.582 93.2423L189.469 102.829C189.948 103.137 190.346 103.551 190.632 104.038C190.917 104.525 191.083 105.072 191.115 105.633V108.913C191.136 109.113 191.103 109.316 191.018 109.5C190.933 109.684 190.8 109.841 190.632 109.957L161.288 126.621C161.456 126.504 161.589 126.345 161.673 126.16C161.758 125.976 161.792 125.773 161.771 125.572V122.292C161.741 121.731 161.575 121.184 161.29 120.697C161.004 120.209 160.605 119.795 160.126 119.488L143.238 109.906Z" fill="#6E9569"/>
<path opacity="0.15" d="M161.292 120.7C161.587 121.182 161.752 121.731 161.771 122.293V125.572C161.792 125.774 161.758 125.977 161.673 126.161C161.588 126.345 161.455 126.504 161.288 126.621L190.631 109.958C190.8 109.842 190.933 109.684 191.018 109.5C191.103 109.317 191.136 109.114 191.115 108.913V105.634C191.093 105.071 190.927 104.523 190.631 104.041L161.292 120.7Z" fill="black"/>
<path d="M162.055 154.844V155.572C162.049 155.697 162.012 155.819 161.949 155.928C161.885 156.036 161.796 156.129 161.689 156.197L120.617 179.518C120.504 179.573 120.378 179.602 120.252 179.602C120.125 179.602 120 179.573 119.886 179.518L90.4643 162.82C90.3574 162.752 90.2685 162.66 90.2049 162.551C90.1414 162.442 90.1049 162.321 90.0986 162.195V161.472C90.1049 161.347 90.1414 161.225 90.2049 161.116C90.2685 161.007 90.3574 160.915 90.4643 160.847L131.536 137.525C131.649 137.468 131.775 137.438 131.902 137.438C132.029 137.438 132.155 137.468 132.268 137.525L161.689 154.223C161.796 154.291 161.885 154.382 161.948 154.49C162.012 154.598 162.048 154.719 162.055 154.844Z" fill="#6E9569"/>
<path opacity="0.4" d="M90.4027 160.873C90.2547 160.988 90.2677 161.151 90.4549 161.254L119.877 177.951C119.988 178.012 120.115 178.041 120.242 178.037V179.621C120.115 179.622 119.989 179.593 119.877 179.535L90.4549 162.838C90.348 162.769 90.2591 162.677 90.1955 162.568C90.132 162.46 90.0955 162.338 90.0892 162.213V161.489C90.0915 161.37 90.1208 161.253 90.175 161.146C90.2293 161.039 90.3071 160.946 90.4027 160.873Z" fill="white"/>
<path opacity="0.15" d="M161.75 154.266L161.78 154.292L161.832 154.343C161.929 154.454 161.993 154.589 162.015 154.733C162.019 154.761 162.019 154.79 162.015 154.818V155.546C162.007 155.671 161.97 155.792 161.907 155.901C161.843 156.009 161.755 156.102 161.65 156.171L120.617 179.518C120.504 179.576 120.378 179.605 120.251 179.604V178.045C120.379 178.051 120.506 178.022 120.617 177.96L161.693 154.639C161.754 154.609 161.802 154.559 161.828 154.497C161.841 154.464 161.844 154.427 161.836 154.392C161.828 154.357 161.81 154.325 161.784 154.3C161.775 154.287 161.763 154.275 161.75 154.266Z" fill="black"/>
<path d="M150.918 143.97C150.918 143.7 150.752 143.43 150.308 143.178C149.909 142.957 149.46 142.84 149.002 142.835H148.889C147.744 142.835 146.551 143.357 145.537 143.503H145.493C144.07 143.696 143.317 143.259 142.62 143.19C142.507 143.184 142.393 143.184 142.28 143.19C142.124 143.19 141.971 143.19 141.801 143.19C141.183 143.235 140.562 143.222 139.947 143.152C139.455 143.1 139.076 143.075 138.819 143.07H138.728C138.441 143.043 138.152 143.098 137.896 143.229L136.251 144.167V144.702L148.58 151.707L150.226 150.769C150.319 150.727 150.397 150.656 150.447 150.568C150.497 150.479 150.517 150.377 150.504 150.277V149.746C150.495 149.512 150.45 149.281 150.369 149.061C150.327 148.929 150.295 148.794 150.274 148.658C150.3 148.532 150.317 148.405 150.326 148.277C150.326 148.213 150.326 147.849 150.326 147.729C150.326 147.665 150.316 147.601 150.295 147.541C150.217 147.267 149.829 146.98 149.703 146.569C149.717 146.519 149.735 146.47 149.755 146.423C150.012 145.841 150.935 145.139 150.935 144.509C150.918 144.428 150.918 144.085 150.918 143.97ZM148.384 145.52C148.106 145.676 147.805 145.79 147.492 145.858C146.935 146.009 146.342 145.963 145.815 145.729C145.693 145.663 145.591 145.565 145.519 145.447C145.672 145.175 145.904 144.954 146.186 144.813C146.868 144.426 147.673 144.307 148.441 144.479C148.549 144.507 148.653 144.549 148.75 144.603C148.872 144.67 148.975 144.767 149.046 144.886C148.901 145.156 148.676 145.377 148.402 145.52H148.384Z" fill="#263238"/>
<path d="M137.896 143.229L136.251 144.167L148.58 151.168L150.226 150.234C150.435 150.114 150.661 149.952 150.369 149.061C150.078 148.17 150.426 147.948 150.295 147.541C150.165 147.134 149.394 146.706 149.755 145.884C150.117 145.061 151.832 144.03 150.326 143.173C149.927 142.953 149.477 142.835 149.02 142.831H148.907C147.762 142.831 146.569 143.353 145.554 143.499H145.511C144.087 143.691 143.334 143.254 142.637 143.186C142.524 143.18 142.411 143.18 142.298 143.186C142.141 143.186 141.989 143.186 141.819 143.186C141.201 143.23 140.58 143.217 139.964 143.147C139.472 143.096 139.094 143.07 138.837 143.066H138.728C138.44 143.04 138.151 143.096 137.896 143.229ZM148.066 149.506C148.167 149.445 148.281 149.408 148.399 149.398C148.517 149.387 148.635 149.404 148.745 149.446C148.907 149.54 148.859 149.712 148.645 149.836C148.545 149.895 148.431 149.931 148.314 149.941C148.198 149.95 148.08 149.933 147.971 149.892C147.805 149.802 147.87 149.652 148.066 149.51V149.506ZM146.203 144.269C146.886 143.885 147.69 143.765 148.458 143.935C148.566 143.964 148.67 144.005 148.767 144.059C149.372 144.406 149.203 145.057 148.402 145.52C148.122 145.673 147.821 145.786 147.509 145.854C146.952 146.005 146.359 145.959 145.833 145.725C145.228 145.37 145.393 144.732 146.203 144.274V144.269ZM138.554 144.102C138.654 144.043 138.768 144.007 138.885 143.998C139.001 143.988 139.119 144.005 139.228 144.047C139.394 144.141 139.35 144.312 139.133 144.432C139.032 144.493 138.918 144.529 138.8 144.539C138.682 144.548 138.563 144.531 138.454 144.488C138.292 144.402 138.34 144.226 138.554 144.107V144.102Z" fill="#37474F"/>
<path d="M121.392 175.421L95.7882 160.886C95.7239 160.845 95.6703 160.79 95.6317 160.726C95.5931 160.661 95.5706 160.588 95.5662 160.513V160.231C95.5706 160.156 95.5931 160.083 95.6317 160.018C95.6703 159.953 95.7239 159.899 95.7882 159.858L129.616 140.66C129.683 140.627 129.758 140.609 129.833 140.609C129.909 140.609 129.984 140.627 130.051 140.66L155.655 155.196C155.718 155.237 155.771 155.293 155.809 155.359C155.847 155.424 155.868 155.497 155.872 155.572V155.851C155.868 155.925 155.846 155.997 155.808 156.062C155.77 156.127 155.718 156.182 155.655 156.223L121.827 175.43C121.759 175.464 121.684 175.481 121.608 175.479C121.532 175.478 121.458 175.458 121.392 175.421Z" fill="#F5F5F5"/>
<path d="M95.7315 159.896C95.6706 159.965 95.688 160.051 95.7881 160.106L121.392 174.663C121.459 174.698 121.534 174.716 121.609 174.714V175.489C121.533 175.493 121.458 175.475 121.392 175.438L95.7881 160.902C95.7239 160.862 95.6705 160.807 95.6326 160.743C95.5947 160.678 95.5734 160.605 95.5704 160.53V160.247C95.5763 160.114 95.6339 159.989 95.7315 159.896Z" fill="#FAFAFA"/>
<path d="M155.707 155.216L155.768 155.276L155.794 155.311C155.818 155.347 155.838 155.386 155.855 155.426C155.864 155.451 155.871 155.477 155.877 155.503C155.879 155.522 155.879 155.54 155.877 155.559V155.837C155.873 155.912 155.851 155.985 155.814 156.049C155.776 156.114 155.723 156.169 155.659 156.21L121.831 175.416C121.763 175.453 121.687 175.47 121.609 175.468V174.697C121.687 174.698 121.763 174.681 121.831 174.646L155.659 155.439C155.759 155.379 155.777 155.289 155.707 155.216Z" fill="#E0E0E0"/>
<path d="M127.487 144.972L131.601 147.275L127.487 149.609L123.373 147.309L127.487 144.972Z" fill="#FAFAFA"/>
<path d="M127.487 145.164L123.712 147.305L127.487 149.416L131.261 147.275L127.487 145.164ZM123.229 147.391C123.223 147.364 123.223 147.336 123.229 147.309C123.229 147.28 123.236 147.251 123.251 147.226C123.265 147.2 123.286 147.179 123.312 147.164L127.426 144.83C127.451 144.815 127.479 144.808 127.509 144.808C127.538 144.808 127.566 144.815 127.591 144.83L131.705 147.13C131.731 147.145 131.751 147.166 131.766 147.192C131.78 147.217 131.788 147.246 131.788 147.275C131.788 147.304 131.78 147.333 131.766 147.358C131.751 147.384 131.731 147.405 131.705 147.421L127.591 149.754C127.566 149.769 127.538 149.777 127.509 149.777C127.479 149.777 127.451 149.769 127.426 149.754L123.312 147.451C123.277 147.442 123.248 147.42 123.229 147.391Z" fill="#455A64"/>
<path d="M133.503 148.525L133.207 148.692C133.172 148.704 133.14 148.726 133.118 148.756C133.096 148.786 133.084 148.822 133.084 148.859C133.084 148.896 133.096 148.933 133.118 148.963C133.14 148.993 133.172 149.015 133.207 149.026L147.701 157.256C147.791 157.3 147.891 157.324 147.992 157.324C148.093 157.324 148.193 157.3 148.284 157.256L148.584 157.085C148.619 157.072 148.648 157.05 148.669 157.02C148.69 156.991 148.701 156.956 148.701 156.92C148.701 156.884 148.69 156.849 148.669 156.819C148.648 156.79 148.619 156.767 148.584 156.755L134.091 148.525C134 148.479 133.9 148.455 133.797 148.455C133.695 148.455 133.594 148.479 133.503 148.525Z" fill="#E0E0E0"/>
<path d="M131.714 149.545L131.418 149.712C131.257 149.806 131.257 149.956 131.418 150.046L145.907 158.275C145.998 158.319 146.099 158.342 146.201 158.342C146.303 158.342 146.403 158.319 146.495 158.275L146.791 158.104C146.825 158.091 146.855 158.069 146.876 158.04C146.897 158.01 146.908 157.975 146.908 157.939C146.908 157.903 146.897 157.868 146.876 157.838C146.855 157.809 146.825 157.786 146.791 157.774L132.297 149.545C132.207 149.5 132.107 149.477 132.006 149.477C131.905 149.477 131.805 149.5 131.714 149.545Z" fill="#E0E0E0"/>
<path d="M129.929 150.559L129.629 150.726C129.593 150.738 129.562 150.76 129.539 150.79C129.517 150.82 129.505 150.856 129.505 150.893C129.505 150.93 129.517 150.967 129.539 150.997C129.562 151.027 129.593 151.049 129.629 151.06L144.122 159.29C144.212 159.334 144.312 159.357 144.414 159.357C144.515 159.357 144.615 159.334 144.705 159.29L145.006 159.118C145.04 159.106 145.07 159.084 145.091 159.054C145.112 159.025 145.123 158.99 145.123 158.954C145.123 158.918 145.112 158.883 145.091 158.853C145.07 158.824 145.04 158.801 145.006 158.789L130.512 150.559C130.423 150.513 130.322 150.489 130.221 150.489C130.119 150.489 130.019 150.513 129.929 150.559Z" fill="#E0E0E0"/>
<path d="M126.438 147.965L126.755 146.706L127.709 146.629L127.53 147.344L132.776 146.92L132.642 147.46L126.438 147.965Z" fill="#6E9569"/>
<path d="M119.946 149.254L124.061 151.557L119.946 153.891L115.837 151.587L119.946 149.254Z" fill="#FAFAFA"/>
<path d="M119.946 149.446L116.176 151.587L119.946 153.698L123.721 151.557L119.946 149.446ZM115.688 151.673C115.675 151.648 115.667 151.62 115.667 151.591C115.666 151.562 115.674 151.533 115.688 151.508C115.703 151.482 115.724 151.461 115.749 151.446L119.864 149.112C119.889 149.097 119.917 149.09 119.946 149.09C119.975 149.09 120.004 149.097 120.029 149.112L124.143 151.411C124.169 151.426 124.191 151.447 124.206 151.473C124.221 151.499 124.23 151.527 124.23 151.557C124.23 151.586 124.222 151.615 124.207 151.64C124.192 151.665 124.169 151.685 124.143 151.698L120.033 154.036C120.008 154.051 119.978 154.059 119.948 154.059C119.919 154.059 119.889 154.051 119.864 154.036L115.754 151.733C115.727 151.719 115.705 151.698 115.688 151.673Z" fill="#455A64"/>
<path d="M125.972 152.806L125.676 152.973C125.51 153.063 125.51 153.213 125.676 153.307L140.164 161.536C140.255 161.581 140.355 161.604 140.456 161.604C140.557 161.604 140.657 161.581 140.748 161.536L141.048 161.365C141.083 161.353 141.112 161.33 141.133 161.301C141.154 161.271 141.165 161.236 141.165 161.2C141.165 161.164 141.154 161.129 141.133 161.1C141.112 161.07 141.083 161.048 141.048 161.035L126.538 152.806C126.45 152.762 126.353 152.74 126.255 152.74C126.156 152.74 126.059 152.762 125.972 152.806Z" fill="#E0E0E0"/>
<path d="M124.174 153.825L123.878 153.992C123.842 154.004 123.811 154.026 123.788 154.056C123.766 154.086 123.754 154.122 123.754 154.159C123.754 154.196 123.766 154.232 123.788 154.262C123.811 154.292 123.842 154.315 123.878 154.326L138.371 162.556C138.461 162.6 138.561 162.623 138.663 162.623C138.764 162.623 138.864 162.6 138.954 162.556L139.25 162.385C139.416 162.295 139.416 162.145 139.25 162.055L124.761 153.825C124.671 153.779 124.57 153.754 124.468 153.754C124.365 153.754 124.264 153.779 124.174 153.825Z" fill="#E0E0E0"/>
<path d="M122.389 154.84L122.093 155.007C122.057 155.018 122.026 155.04 122.003 155.07C121.981 155.1 121.969 155.137 121.969 155.174C121.969 155.211 121.981 155.247 122.003 155.277C122.026 155.307 122.057 155.329 122.093 155.341L136.581 163.57C136.673 163.614 136.773 163.637 136.875 163.637C136.977 163.637 137.078 163.614 137.169 163.57L137.465 163.399C137.5 163.387 137.529 163.364 137.55 163.335C137.571 163.305 137.582 163.27 137.582 163.234C137.582 163.198 137.571 163.163 137.55 163.134C137.529 163.104 137.5 163.082 137.465 163.069L122.972 154.84C122.882 154.793 122.782 154.769 122.68 154.769C122.579 154.769 122.479 154.793 122.389 154.84Z" fill="#E0E0E0"/>
<path d="M118.901 152.247L119.219 150.988L120.173 150.911L119.99 151.626L125.24 151.202L125.101 151.742L118.901 152.247Z" fill="#6E9569"/>
<path d="M112.41 153.727L108.636 155.868L112.41 157.979L116.181 155.838L112.41 153.727ZM108.152 155.953C108.135 155.928 108.126 155.898 108.126 155.868C108.127 155.838 108.135 155.81 108.15 155.785C108.166 155.76 108.187 155.74 108.213 155.726L112.323 153.388C112.349 153.374 112.379 153.367 112.408 153.367C112.438 153.367 112.467 153.374 112.493 153.388L116.603 155.692C116.629 155.707 116.651 155.728 116.666 155.753C116.681 155.779 116.689 155.808 116.69 155.838C116.69 155.866 116.682 155.894 116.667 155.919C116.653 155.944 116.632 155.964 116.607 155.979L112.493 158.313C112.467 158.326 112.438 158.334 112.408 158.334C112.379 158.334 112.349 158.326 112.323 158.313L108.213 156.009C108.189 155.996 108.168 155.977 108.152 155.953Z" fill="#455A64"/>
<path d="M118.431 157.083L118.135 157.255C118.101 157.267 118.071 157.289 118.05 157.319C118.029 157.348 118.018 157.383 118.018 157.419C118.018 157.455 118.029 157.49 118.05 157.52C118.071 157.549 118.101 157.572 118.135 157.584L132.633 165.814C132.723 165.861 132.823 165.885 132.924 165.885C133.026 165.885 133.126 165.861 133.216 165.814L133.512 165.647C133.548 165.636 133.579 165.613 133.602 165.583C133.624 165.553 133.636 165.517 133.636 165.48C133.636 165.443 133.624 165.407 133.602 165.377C133.579 165.347 133.548 165.325 133.512 165.313L119.019 157.083C118.928 157.038 118.827 157.015 118.725 157.015C118.623 157.015 118.522 157.038 118.431 157.083Z" fill="#E0E0E0"/>
<path d="M116.638 158.107L116.337 158.274C116.303 158.286 116.273 158.308 116.252 158.338C116.231 158.367 116.22 158.402 116.22 158.438C116.22 158.474 116.231 158.509 116.252 158.539C116.273 158.568 116.303 158.591 116.337 158.603L130.83 166.837C130.921 166.882 131.021 166.905 131.122 166.905C131.223 166.905 131.323 166.882 131.414 166.837L131.714 166.666C131.749 166.654 131.778 166.631 131.799 166.602C131.82 166.572 131.831 166.537 131.831 166.501C131.831 166.465 131.82 166.43 131.799 166.401C131.778 166.371 131.749 166.349 131.714 166.336L117.221 158.107C117.131 158.06 117.031 158.036 116.929 158.036C116.828 158.036 116.728 158.06 116.638 158.107Z" fill="#E0E0E0"/>
<path d="M114.848 159.117L114.552 159.288C114.518 159.301 114.488 159.323 114.467 159.352C114.446 159.382 114.435 159.417 114.435 159.453C114.435 159.489 114.446 159.524 114.467 159.554C114.488 159.583 114.518 159.605 114.552 159.618L129.045 167.848C129.135 167.894 129.235 167.918 129.337 167.918C129.439 167.918 129.539 167.894 129.629 167.848L129.929 167.681C129.965 167.669 129.996 167.647 130.018 167.617C130.041 167.587 130.053 167.551 130.053 167.514C130.053 167.476 130.041 167.44 130.018 167.41C129.996 167.38 129.965 167.358 129.929 167.347L115.436 159.117C115.345 159.073 115.244 159.05 115.142 159.05C115.04 159.05 114.94 159.073 114.848 159.117Z" fill="#E0E0E0"/>
<path d="M111.261 156.699L111.579 155.439L112.532 155.362L112.354 156.082L117.6 155.653L117.465 156.197L111.261 156.699Z" fill="#6E9569"/>
<path d="M104.87 158.004L101.095 160.145L104.87 162.256L108.644 160.115L104.87 158.004ZM100.612 160.23C100.605 160.204 100.605 160.176 100.612 160.149C100.612 160.12 100.619 160.091 100.633 160.065C100.648 160.04 100.669 160.018 100.695 160.003L104.809 157.67C104.834 157.655 104.862 157.647 104.892 157.647C104.921 157.647 104.949 157.655 104.974 157.67L109.088 159.973C109.114 159.987 109.135 160.008 109.15 160.033C109.164 160.058 109.172 160.086 109.171 160.115C109.172 160.144 109.164 160.173 109.15 160.198C109.135 160.224 109.114 160.245 109.088 160.26L104.974 162.594C104.949 162.609 104.921 162.616 104.892 162.616C104.862 162.616 104.834 162.609 104.809 162.594L100.695 160.295C100.661 160.282 100.632 160.26 100.612 160.23Z" fill="#455A64"/>
<path d="M110.895 161.365L110.595 161.536C110.561 161.549 110.531 161.571 110.51 161.6C110.489 161.63 110.478 161.665 110.478 161.701C110.478 161.737 110.489 161.772 110.51 161.802C110.531 161.831 110.561 161.853 110.595 161.866L125.088 170.095C125.178 170.142 125.278 170.166 125.38 170.166C125.481 170.166 125.581 170.142 125.671 170.095L125.972 169.928C126.133 169.834 126.133 169.684 125.972 169.594L111.479 161.365C111.388 161.32 111.288 161.297 111.187 161.297C111.086 161.297 110.986 161.32 110.895 161.365Z" fill="#E0E0E0"/>
<path d="M109.097 162.384L108.801 162.555C108.767 162.568 108.737 162.59 108.716 162.619C108.695 162.649 108.684 162.684 108.684 162.72C108.684 162.756 108.695 162.791 108.716 162.821C108.737 162.85 108.767 162.873 108.801 162.885L123.29 171.114C123.381 171.161 123.482 171.185 123.584 171.185C123.686 171.185 123.787 171.161 123.878 171.114L124.174 170.947C124.21 170.936 124.241 170.914 124.263 170.884C124.285 170.854 124.297 170.817 124.297 170.78C124.297 170.743 124.285 170.707 124.263 170.677C124.241 170.647 124.21 170.625 124.174 170.613L109.681 162.384C109.59 162.339 109.49 162.316 109.389 162.316C109.288 162.316 109.188 162.339 109.097 162.384Z" fill="#E0E0E0"/>
<path d="M107.312 163.398L107.012 163.57C106.977 163.582 106.948 163.605 106.927 163.634C106.906 163.663 106.895 163.699 106.895 163.735C106.895 163.771 106.906 163.806 106.927 163.835C106.948 163.865 106.977 163.887 107.012 163.899L121.505 172.129C121.595 172.176 121.695 172.2 121.797 172.2C121.898 172.2 121.998 172.176 122.088 172.129L122.389 171.962C122.425 171.951 122.456 171.928 122.478 171.898C122.5 171.868 122.512 171.832 122.512 171.795C122.512 171.758 122.5 171.722 122.478 171.692C122.456 171.662 122.425 171.64 122.389 171.628L107.896 163.398C107.805 163.354 107.705 163.331 107.604 163.331C107.503 163.331 107.403 163.354 107.312 163.398Z" fill="#E0E0E0"/>
<path d="M103.625 161.156L103.943 159.896L104.896 159.819L104.713 160.535L109.964 160.11L109.824 160.65L103.625 161.156Z" fill="#6E9569"/>
<path d="M146.355 150.636L144.531 149.224C144.493 149.178 144.458 149.129 144.427 149.078L144.479 149.027L144.914 148.62L146.329 147.335C146.371 147.303 146.405 147.262 146.428 147.216C146.451 147.169 146.464 147.118 146.464 147.065V146.526C146.456 146.391 146.398 146.264 146.303 146.166C146.143 145.967 146.041 145.729 146.007 145.477C146.045 145.235 146.163 145.013 146.342 144.843C146.548 144.68 146.706 144.466 146.799 144.223C146.891 143.979 146.916 143.716 146.869 143.46C146.924 143.131 146.864 142.793 146.698 142.502C146.532 142.211 146.27 141.984 145.955 141.859C145.523 141.645 145.046 141.532 144.562 141.529H144.501C143.734 141.514 142.988 141.774 142.402 142.261C142.003 142.548 141.532 142.724 141.04 142.771C140.624 142.837 140.201 142.837 139.786 142.771C139.691 142.755 139.595 142.745 139.498 142.741H139.468C139.364 142.73 139.258 142.74 139.158 142.772C139.059 142.804 138.967 142.856 138.889 142.925L137.67 144.038L137.235 144.445H137.213C137.066 144.549 136.896 144.617 136.717 144.643C136.538 144.668 136.356 144.65 136.185 144.591C135.515 144.312 135.197 144.162 134.104 143.67C133.787 143.534 133.444 143.466 133.099 143.469C132.586 143.477 132.082 143.601 131.627 143.833V144.372L146.712 152.936C146.885 152.725 146.986 152.466 147 152.195V151.707C146.977 151.493 146.908 151.287 146.796 151.102C146.685 150.918 146.535 150.759 146.355 150.636ZM143.242 143.156C143.514 142.938 143.838 142.793 144.183 142.733C144.528 142.673 144.884 142.701 145.215 142.814C145.287 142.838 145.356 142.869 145.424 142.904C145.665 143.017 145.856 143.213 145.959 143.456C145.9 143.621 145.8 143.768 145.667 143.884C145.491 144.037 145.285 144.154 145.062 144.227C144.542 144.401 143.973 144.367 143.478 144.132C143.359 144.137 143.242 144.101 143.148 144.03C143.053 143.96 142.986 143.859 142.959 143.746C142.931 143.632 142.944 143.513 142.996 143.407C143.048 143.302 143.135 143.218 143.242 143.169V143.156Z" fill="#37474F"/>
<path d="M131.605 143.888L146.691 152.452C147.1 151.904 147.126 151.335 146.355 150.637L144.531 149.224C144.531 149.224 144.135 148.795 144.479 148.487L144.914 148.08L146.329 146.796C146.329 146.796 146.651 146.573 146.303 146.166C145.955 145.76 145.789 144.801 146.342 144.304C147.213 143.516 147.043 142.424 145.955 141.859C145.523 141.645 145.046 141.532 144.562 141.529H144.501C143.734 141.514 142.988 141.774 142.402 142.261C142.003 142.548 141.532 142.724 141.04 142.771C140.624 142.837 140.201 142.837 139.786 142.771C139.691 142.755 139.595 142.745 139.498 142.741H139.468C139.364 142.73 139.258 142.74 139.158 142.772C139.059 142.804 138.967 142.856 138.889 142.925L137.67 144.038L137.235 144.445H137.213C137.066 144.55 136.896 144.617 136.717 144.643C136.538 144.668 136.356 144.65 136.185 144.591C135.515 144.312 135.197 144.163 134.104 143.67C133.787 143.534 133.445 143.466 133.099 143.469C132.574 143.491 132.062 143.634 131.605 143.888ZM145.215 142.274C145.287 142.3 145.357 142.332 145.424 142.368C145.575 142.418 145.711 142.507 145.814 142.627C145.918 142.746 145.986 142.892 146.011 143.047C146.036 143.202 146.017 143.361 145.957 143.507C145.896 143.652 145.796 143.778 145.668 143.871C145.491 144.025 145.286 144.141 145.062 144.214C144.542 144.388 143.973 144.354 143.478 144.12C143.326 144.07 143.192 143.979 143.09 143.859C142.987 143.739 142.92 143.594 142.896 143.439C142.871 143.283 142.891 143.125 142.952 142.98C143.013 142.835 143.114 142.709 143.243 142.617C143.514 142.399 143.838 142.253 144.183 142.193C144.529 142.133 144.884 142.161 145.215 142.274Z" fill="#455A64"/>
<path d="M187.488 131.622L187.053 131.87L186.552 132.174L168.437 142.981C168.585 142.63 168.437 141.932 168.067 141.269C167.632 140.494 166.961 139.894 166.491 139.881L184.471 129.151L185.433 128.577C184.833 128.988 186.861 132.02 187.488 131.622Z" fill="#6E9569"/>
<path d="M185.372 128.62C185.638 128.449 186.117 128.933 186.578 129.554C187.197 130.371 187.71 131.468 187.358 131.694L186.67 132.123L186.422 132.264C186.774 132.041 186.261 130.945 185.647 130.123C185.211 129.528 184.698 129.078 184.428 129.198L185.372 128.62Z" fill="#EBEBEB"/>
<path d="M184.628 129.057C185.246 128.663 187.271 131.712 186.657 132.11L185.725 132.667C186.339 132.273 184.315 129.219 183.696 129.618L184.628 129.057Z" fill="#6E9569"/>
<path d="M182.808 130.149L183.731 129.596C184.332 129.202 186.317 132.131 185.808 132.594C185.8 132.604 185.789 132.613 185.777 132.619L184.846 133.167C185.451 132.782 183.418 129.75 182.808 130.149Z" fill="#EBEBEB"/>
<path d="M166.491 139.88V139.884L166.495 139.88H166.491L163.757 143.083H163.761L166.491 139.88Z" fill="#FAFAFA"/>
<path d="M163.757 143.083L163.095 143.859L163.757 143.083Z" fill="#E0E0E0"/>
<path d="M167.958 140.685C167.789 140.454 167.57 140.262 167.317 140.123C167.065 139.984 166.784 139.901 166.495 139.88L163.761 143.083C163.875 143.096 163.98 143.15 164.057 143.233C164.392 143.661 164.366 143.871 164.366 143.871L168.441 142.98C168.829 142.372 168.537 141.379 167.958 140.685Z" fill="#FFA8A7"/>
<path d="M164.053 143.228C164.019 143.182 163.974 143.145 163.923 143.119C163.872 143.093 163.815 143.079 163.757 143.078L163.108 143.858C163.094 143.873 163.082 143.89 163.074 143.909C163.066 143.927 163.062 143.947 163.062 143.968C163.062 143.988 163.066 144.008 163.074 144.027C163.082 144.046 163.094 144.063 163.108 144.077C163.127 144.095 163.15 144.108 163.175 144.115C163.2 144.121 163.226 144.122 163.252 144.116L164.358 143.871C164.358 143.871 164.414 143.657 164.053 143.228Z" fill="#37474F"/>
<path d="M191.141 129.429L187.488 131.626C187.468 131.638 187.446 131.647 187.423 131.651C187.671 131.356 187.183 130.333 186.596 129.553C186.16 128.984 185.668 128.547 185.39 128.62L189.212 126.329C190.048 125.734 191.193 127.284 191.437 128.406C191.499 128.586 191.504 128.78 191.451 128.963C191.398 129.146 191.29 129.308 191.141 129.429Z" fill="#F28F8F"/>
<path opacity="0.15" d="M191.141 129.429C191.287 129.306 191.392 129.143 191.441 128.96C191.491 128.777 191.483 128.584 191.42 128.406C191.42 128.355 191.393 128.299 191.376 128.243L168.546 141.803L163.108 144.085C163.127 144.103 163.15 144.116 163.175 144.122C163.2 144.129 163.226 144.129 163.252 144.123L164.358 143.879L168.433 142.989L191.141 129.429Z" fill="black"/>
<path d="M28.9471 139.469L23.3223 150.263C23.1263 150.596 23.0005 150.964 22.9524 151.346C22.9043 151.727 22.9348 152.115 23.0422 152.484C23.1496 152.854 23.3316 153.199 23.5774 153.498C23.8232 153.797 24.1277 154.045 24.4728 154.226C24.8179 154.407 25.1965 154.517 25.5861 154.551C25.9757 154.585 26.3682 154.542 26.7402 154.423C27.1123 154.305 27.4563 154.114 27.7517 153.861C28.047 153.609 28.2878 153.301 28.4595 152.956L34.1192 142.102C34.6677 141.062 33.9538 139.628 32.5214 138.904C31.0891 138.18 29.4913 138.429 28.9471 139.469Z" fill="#455A64"/>
<path d="M72.8969 116.876L83.8723 122.408C84.5504 122.734 85.3307 122.789 86.0488 122.56C86.7668 122.331 87.3666 121.837 87.7216 121.182C88.0766 120.527 88.1593 119.762 87.952 119.048C87.7448 118.335 87.264 117.728 86.6108 117.356L75.5744 111.789C74.5164 111.25 73.058 111.956 72.3179 113.361C71.5777 114.765 71.8389 116.341 72.8969 116.876Z" fill="#455A64"/>
<path d="M82.3791 68.996L82.3268 68.9703L62.4961 58.9645L62.4221 58.9303C56.5578 56.0103 48.7213 56.8666 40.284 62.2099C23.3354 72.9435 10.3877 97.699 11.3629 117.501C11.8505 127.374 15.7166 134.147 21.5504 137.131L21.6026 137.157L41.442 147.163L41.503 147.193C47.3717 150.126 55.2125 149.269 63.6585 143.922C80.6071 133.184 93.5548 108.433 92.5752 88.6266C92.0789 78.7578 88.2259 71.9845 82.3791 68.996Z" fill="#6E9569"/>
<path opacity="0.1" d="M40.9979 146.932L21.6156 137.149L21.559 137.114C15.7208 134.117 11.8635 127.344 11.3759 117.488C10.9406 108.655 13.2784 98.8465 17.4971 89.7355L37.2886 99.7456C33.0787 108.857 30.7582 118.665 31.1936 127.498C31.6638 137.157 35.3643 143.849 40.9979 146.932Z" fill="black"/>
<path opacity="0.4" d="M84.8331 119.68C96.1271 98.0871 95.0057 75.384 82.3286 68.9713C69.6515 62.5585 50.2191 74.8646 38.9252 96.4575C27.6312 118.05 28.7526 140.754 41.4297 147.166C54.1068 153.579 73.5392 141.273 84.8331 119.68Z" fill="white"/>
<path d="M49.4439 142.539C39.4306 143.019 37.8285 131.968 37.5891 127.194C36.7183 109.73 48.6298 86.9739 63.5758 77.529C67.3808 75.1185 71.0944 73.7656 74.3118 73.6114C84.3251 73.1319 85.9316 84.1824 86.1667 88.9563C87.0374 106.42 75.1302 129.177 60.18 138.643C56.3749 141.053 52.6613 142.406 49.4483 142.56L49.4439 142.539Z" fill="#FAFAFA"/>
<path d="M57.7028 131.137C57.6512 131.138 57.5997 131.131 57.5504 131.116C57.4346 131.082 57.337 131.005 57.2791 130.901C57.2212 130.796 57.2076 130.674 57.2413 130.559L63.271 110.574C63.2879 110.517 63.3158 110.465 63.3533 110.419C63.3908 110.374 63.437 110.336 63.4893 110.308C63.5417 110.28 63.5991 110.262 63.6584 110.256C63.7177 110.25 63.7776 110.255 63.8348 110.272C63.892 110.288 63.9453 110.316 63.9916 110.353C64.038 110.389 64.0765 110.435 64.105 110.486C64.1335 110.538 64.1514 110.594 64.1577 110.653C64.164 110.711 64.1586 110.77 64.1417 110.826L58.1208 130.812C58.0928 130.902 58.0378 130.981 57.9632 131.039C57.8886 131.097 57.7978 131.131 57.7028 131.137Z" fill="#6E9569"/>
<path d="M74.7297 105.256C74.6317 105.415 74.5012 105.552 74.3466 105.659L64.2811 112.642L48.0421 102.88C47.8883 102.787 47.7545 102.666 47.6484 102.523C47.5423 102.379 47.466 102.217 47.4237 102.044C47.3815 101.872 47.3742 101.693 47.4022 101.518C47.4302 101.343 47.4931 101.175 47.5871 101.024C47.6812 100.872 47.8046 100.741 47.9503 100.636C48.0961 100.532 48.2613 100.457 48.4365 100.415C48.6118 100.374 48.7937 100.367 48.9717 100.394C49.1498 100.422 49.3206 100.484 49.4744 100.576L64.1592 109.405L72.775 103.436C73.0337 103.259 73.3466 103.174 73.6612 103.197C73.9758 103.219 74.2731 103.347 74.5031 103.559C74.7332 103.772 74.8822 104.055 74.925 104.362C74.9678 104.67 74.902 104.982 74.7384 105.248L74.7297 105.256Z" fill="#37474F"/>
<path d="M63.493 106.352C65.487 105.089 67.198 105.954 67.3155 108.283C67.4331 110.612 65.905 113.524 63.911 114.787C61.917 116.05 60.206 115.185 60.0928 112.856C59.9797 110.527 61.4991 107.615 63.493 106.352Z" fill="#6E9569"/>
</svg>
