<svg width="326" height="254" viewBox="0 0 326 254" fill="none" xmlns="http://www.w3.org/2000/svg">
<path opacity="0.2" d="M4.16231 192.039L30.6326 21.954C31.4483 16.725 34.3422 12.0286 38.6779 8.89734C43.0136 5.76605 48.4363 4.45615 53.7537 5.25562L307.921 43.5207C310.554 43.9156 313.082 44.8169 315.361 46.1729C317.64 47.529 319.625 49.3133 321.203 51.4239C322.781 53.5346 323.92 55.9302 324.556 58.4739C325.192 61.0177 325.313 63.6597 324.91 66.2492L298.43 236.334C298.031 238.925 297.116 241.413 295.738 243.656C294.36 245.899 292.546 247.853 290.399 249.406C288.253 250.958 285.816 252.08 283.228 252.705C280.641 253.331 277.953 253.449 275.319 253.052L21.1419 214.777C15.8249 213.975 11.0494 211.129 7.86538 206.865C4.68134 202.601 3.34938 197.268 4.16231 192.039Z" fill="black" fill-opacity="0.7"/>
<path d="M24.5611 28.3514L26.5711 15.4343C26.6103 15.1826 26.7496 14.9565 26.9583 14.8057C27.167 14.655 27.428 14.5919 27.684 14.6304L33.2241 15.4641L30.9201 30.2699L25.38 29.4362C25.1257 29.398 24.897 29.2626 24.7437 29.0594C24.5903 28.8563 24.5247 28.6019 24.5611 28.3514Z" fill="#AAD7C3" stroke="#263238" stroke-linecap="round" stroke-linejoin="round"/>
<path d="M58.9744 1.14343L72.111 3.11515C72.367 3.15357 72.5969 3.29043 72.7502 3.49563C72.9034 3.70082 72.9674 3.95754 72.9282 4.20931L72.0781 9.6582L57.0207 7.39818L57.8708 1.94929C57.9098 1.69915 58.0476 1.47419 58.2543 1.32329C58.4609 1.17239 58.7197 1.10776 58.9744 1.14343Z" fill="#AAD7C3" stroke="#263238" stroke-linecap="round" stroke-linejoin="round"/>
<path d="M76.8771 3.83374L90.013 5.81059C90.269 5.84911 90.4989 5.98606 90.6522 6.19131C90.8056 6.39656 90.8697 6.6533 90.8305 6.90505L89.9828 12.3535L74.9262 10.0876L75.7739 4.63915C75.8128 4.38904 75.9505 4.16414 76.1571 4.01332C76.3637 3.86251 76.6225 3.79797 76.8771 3.83374Z" fill="#AAD7C3" stroke="#263238" stroke-linecap="round" stroke-linejoin="round"/>
<path d="M1.23311 188.196L27.7034 18.1121C28.5191 12.8832 31.413 8.18681 35.7487 5.05553C40.0844 1.92425 45.5071 0.614359 50.8246 1.41382L304.992 39.6787C307.625 40.0737 310.153 40.9749 312.432 42.331C314.711 43.687 316.696 45.4713 318.274 47.582C319.852 49.6926 320.991 52.0882 321.627 54.6319C322.263 57.1757 322.383 59.8177 321.981 62.4072L295.501 232.492C295.102 235.083 294.187 237.571 292.809 239.814C291.431 242.057 289.617 244.01 287.47 245.563C285.324 247.116 282.887 248.237 280.299 248.863C277.711 249.488 275.024 249.606 272.39 249.209L18.2127 210.935C12.8957 210.132 8.12022 207.286 4.93618 203.023C1.75214 198.759 0.420181 193.426 1.23311 188.196Z" fill="#AAD7C3" stroke="#263238" stroke-opacity="0.76" stroke-linecap="round" stroke-linejoin="round"/>
<path d="M273.386 247.087L17.9003 208.63C15.6476 208.293 13.4846 207.522 11.535 206.362C9.58534 205.202 7.88733 203.675 6.538 201.869C5.18868 200.063 4.21451 198.014 3.67117 195.837C3.12784 193.661 3.026 191.401 3.37147 189.186L30.0468 17.7955C30.7423 13.3224 33.2161 9.30415 36.924 6.62465C40.632 3.94516 45.2703 2.82386 49.8189 3.50738L305.314 41.9643C309.862 42.653 313.946 45.0884 316.67 48.7358C319.394 52.3831 320.535 56.9445 319.843 61.4184L293.167 232.799C292.823 235.015 292.038 237.142 290.858 239.059C289.677 240.977 288.124 242.647 286.287 243.974C284.45 245.3 282.365 246.258 280.151 246.792C277.937 247.327 275.638 247.427 273.386 247.087Z" fill="#757575" fill-opacity="0.65" stroke="#263238" stroke-linecap="round" stroke-linejoin="round"/>
<path d="M21.0053 104.14C20.9728 104.325 20.8855 104.498 20.7541 104.635C20.6228 104.772 20.4532 104.868 20.2666 104.911C20.08 104.955 19.8846 104.943 19.7048 104.878C19.525 104.812 19.3686 104.696 19.2553 104.544C19.142 104.392 19.0768 104.211 19.0676 104.023C19.0585 103.834 19.106 103.648 19.2041 103.486C19.3022 103.324 19.4466 103.194 19.6193 103.112C19.792 103.03 19.9854 103 20.1753 103.026C20.3051 103.043 20.43 103.086 20.5426 103.152C20.6552 103.218 20.7531 103.306 20.8305 103.41C20.908 103.514 20.9634 103.632 20.9934 103.757C21.0234 103.883 21.0274 104.013 21.0053 104.14Z" fill="#999999" stroke="#263238" stroke-linecap="round" stroke-linejoin="round"/>
<path d="M20.5268 113.079C20.4284 113.549 20.1501 113.964 19.7494 114.239C19.3486 114.513 18.8561 114.625 18.3735 114.553C17.891 114.48 17.4553 114.228 17.1564 113.848C16.8576 113.468 16.7184 112.99 16.7677 112.512C16.8661 112.042 17.1445 111.626 17.5452 111.352C17.9459 111.078 18.4385 110.965 18.921 111.038C19.4036 111.111 19.8393 111.363 20.1381 111.743C20.437 112.123 20.5761 112.601 20.5268 113.079Z" fill="#263238"/>
<path d="M23.8758 91.5601C23.7774 92.0304 23.499 92.4455 23.0983 92.7197C22.6975 92.9939 22.205 93.1063 21.7225 93.0336C21.2399 92.9608 20.8042 92.7086 20.5053 92.3289C20.2065 91.9493 20.0673 91.4712 20.1166 90.9935C20.1427 90.7409 20.2207 90.4961 20.346 90.2741C20.4713 90.052 20.6412 89.8574 20.8453 89.7019C21.0495 89.5465 21.2837 89.4335 21.5336 89.3698C21.7836 89.3062 22.0441 89.2932 22.2993 89.3317C22.5545 89.3701 22.7991 89.4592 23.0182 89.5936C23.2373 89.7279 23.4263 89.9047 23.5738 90.1131C23.7212 90.3216 23.8241 90.5574 23.876 90.8061C23.9279 91.0549 23.9278 91.3114 23.8758 91.5601Z" fill="#263238"/>
<path d="M19.0524 119.118C19.0107 119.385 18.8896 119.633 18.7045 119.832C18.5193 120.031 18.2784 120.171 18.0122 120.235C17.746 120.299 17.4664 120.285 17.2088 120.192C16.9511 120.1 16.727 119.935 16.5647 119.718C16.4025 119.501 16.3093 119.241 16.297 118.972C16.2848 118.702 16.354 118.435 16.4958 118.205C16.6377 117.974 16.8459 117.79 17.0942 117.676C17.3424 117.561 17.6196 117.522 17.8905 117.562C18.0708 117.589 18.2438 117.651 18.3998 117.744C18.5558 117.837 18.6916 117.959 18.7995 118.103C18.9075 118.248 18.9853 118.412 19.0287 118.586C19.0721 118.76 19.0802 118.941 19.0524 119.118Z" fill="#263238"/>
<path d="M313.428 58.4718L286.157 233.732C285.813 235.941 284.591 237.925 282.76 239.248C280.929 240.572 278.639 241.126 276.393 240.79L62.3559 208.574L57.718 207.921L40.2697 205.29L31.8238 204.023L19.6188 202.16L16.9532 201.757C14.7073 201.418 12.6899 200.217 11.3442 198.416C9.99854 196.616 9.43474 194.363 9.77669 192.154L37.0573 16.8364C37.2265 15.7425 37.6134 14.6922 38.196 13.7456C38.7786 12.799 39.5453 11.9748 40.4523 11.32C41.3593 10.6653 42.3888 10.193 43.4817 9.93021C44.5746 9.66738 45.7095 9.61918 46.8214 9.78838L126.72 21.8104L138.808 23.6348L150.359 25.3728L165.2 27.6006L170.57 28.4071L306.29 48.8311C307.403 49.003 308.47 49.3888 309.431 49.9664C310.391 50.544 311.227 51.302 311.89 52.1973C312.553 53.0926 313.03 54.1075 313.293 55.1841C313.557 56.2607 313.603 57.3778 313.428 58.4718Z" fill="white"/>
<g opacity="0.1">
<path opacity="0.1" d="M112.787 206.96L21.9817 193.296C21.3917 193.206 20.8619 192.889 20.5087 192.416C20.1554 191.943 20.0075 191.351 20.0972 190.77L29.1094 132.84C29.2032 132.259 29.5269 131.738 30.0098 131.391C30.4927 131.044 31.0957 130.898 31.6871 130.987L122.492 144.651C122.785 144.694 123.066 144.794 123.32 144.944C123.573 145.095 123.794 145.293 123.969 145.528C124.144 145.763 124.27 146.029 124.34 146.312C124.41 146.595 124.423 146.889 124.377 147.176L115.365 205.106C115.319 205.395 115.217 205.671 115.063 205.921C114.909 206.17 114.706 206.387 114.467 206.559C114.227 206.731 113.956 206.855 113.667 206.924C113.379 206.993 113.08 207.005 112.787 206.96ZM31.5992 131.755C31.4088 131.726 31.2145 131.735 31.0274 131.78C30.8404 131.826 30.6642 131.907 30.5092 132.019C30.3541 132.132 30.223 132.273 30.1236 132.435C30.0241 132.597 29.9582 132.777 29.9296 132.965L20.9174 190.886C20.8883 191.073 20.897 191.264 20.9432 191.448C20.9893 191.632 21.0718 191.805 21.1861 191.958C21.3004 192.11 21.4442 192.239 21.6092 192.337C21.7742 192.435 21.9572 192.499 22.1477 192.528L112.904 206.192C113.095 206.22 113.289 206.212 113.476 206.166C113.663 206.121 113.839 206.04 113.994 205.927C114.149 205.815 114.28 205.673 114.38 205.511C114.479 205.349 114.545 205.169 114.574 204.982L123.596 147.061C123.652 146.682 123.555 146.296 123.324 145.987C123.094 145.678 122.75 145.471 122.365 145.409L31.5992 131.755Z" fill="white"/>
</g>
<path opacity="0.4" d="M58.9874 166.813L79.316 178.153C81.4686 174.271 82.4689 169.872 82.2031 165.458C81.9372 161.044 80.4158 156.792 77.8124 153.187L58.9874 166.813Z" fill="#AAD7C3"/>
<path opacity="0.6" d="M59.1826 165.67L77.3436 152.544C74.8893 149.364 71.6539 146.85 67.9409 145.237L64.3575 153.591L59.1826 165.67Z" fill="#AAD7C3"/>
<path d="M62.2777 143.585L59.1337 163.749L67.2183 144.9C65.6235 144.291 63.9673 143.85 62.2777 143.585Z" fill="#AAD7C3"/>
<path opacity="0.1" d="M57.9132 166.573L61.4966 143.528C57.3811 142.975 53.1901 143.483 49.3344 145.003C45.4787 146.522 42.0907 149.001 39.5025 152.196C36.9143 155.391 35.2147 159.192 34.5704 163.228C33.926 167.263 34.3591 171.394 35.827 175.215L57.9132 166.573Z" fill="white"/>
<path opacity="0.2" d="M54.6325 190.156C59.3704 190.868 64.2167 190.169 68.5465 188.147C72.8764 186.126 76.4914 182.876 78.9255 178.816L58.2355 167.293L36.1102 175.887C37.6897 179.631 40.2241 182.91 43.4687 185.41C46.7132 187.909 50.5583 189.544 54.6325 190.156Z" fill="#AAD7C3"/>
<path d="M95.9547 152.945L93.2619 152.539C92.9261 152.489 92.6121 152.716 92.5608 153.046L92.1486 155.694C92.0972 156.025 92.3278 156.334 92.6636 156.384L95.3565 156.789C95.6923 156.84 96.0062 156.613 96.0576 156.283L96.4697 153.634C96.5211 153.304 96.2906 152.995 95.9547 152.945Z" fill="#AAD7C3"/>
<path d="M110.59 156.596L98.8245 154.82C98.7652 154.811 98.7082 154.792 98.6568 154.761C98.6054 154.731 98.5607 154.691 98.5252 154.644C98.4897 154.596 98.4642 154.543 98.4502 154.485C98.4363 154.428 98.434 154.369 98.4437 154.311C98.452 154.252 98.4721 154.196 98.5028 154.146C98.5335 154.095 98.5741 154.051 98.6223 154.016C98.6705 153.981 98.7254 153.956 98.7836 153.942C98.8418 153.929 98.9022 153.926 98.9612 153.936L110.678 155.713C110.737 155.721 110.794 155.741 110.846 155.771C110.897 155.801 110.942 155.841 110.977 155.888C111.013 155.936 111.038 155.99 111.052 156.047C111.066 156.104 111.069 156.164 111.059 156.222C111.038 156.328 110.98 156.424 110.894 156.493C110.808 156.562 110.701 156.598 110.59 156.596Z" fill="#AAD7C3"/>
<path d="M106.694 157.987L98.5218 156.759C98.4625 156.751 98.4055 156.731 98.3541 156.701C98.3027 156.67 98.2579 156.631 98.2225 156.583C98.187 156.536 98.1615 156.482 98.1475 156.425C98.1335 156.367 98.1313 156.308 98.141 156.25C98.1603 156.133 98.2252 156.029 98.322 155.959C98.4187 155.889 98.5396 155.859 98.6585 155.876L106.831 157.104C106.89 157.112 106.947 157.132 106.999 157.162C107.05 157.192 107.095 157.232 107.13 157.28C107.166 157.327 107.191 157.381 107.205 157.438C107.219 157.496 107.221 157.555 107.212 157.613C107.203 157.671 107.183 157.727 107.153 157.778C107.122 157.828 107.081 157.872 107.033 157.907C106.985 157.942 106.93 157.967 106.872 157.981C106.814 157.995 106.753 157.997 106.694 157.987Z" fill="#AAD7C3"/>
<path opacity="0.6" d="M94.6175 161.547L91.9246 161.142C91.5888 161.091 91.2749 161.318 91.2235 161.648L90.8115 164.297C90.7601 164.628 90.9907 164.936 91.3265 164.987L94.0193 165.392C94.3551 165.443 94.669 165.216 94.7204 164.886L95.1325 162.237C95.1839 161.906 94.9533 161.598 94.6175 161.547Z" fill="#AAD7C3"/>
<path d="M109.252 165.19L97.4771 163.423C97.3596 163.402 97.2548 163.337 97.184 163.243C97.1133 163.148 97.0819 163.03 97.0963 162.914C97.1155 162.797 97.1805 162.693 97.2772 162.623C97.374 162.552 97.4948 162.523 97.6138 162.539L109.389 164.316C109.448 164.325 109.504 164.345 109.554 164.375C109.604 164.405 109.648 164.445 109.683 164.492C109.718 164.538 109.743 164.592 109.757 164.648C109.771 164.704 109.774 164.763 109.765 164.82C109.756 164.878 109.736 164.933 109.705 164.982C109.675 165.032 109.634 165.075 109.587 165.11C109.539 165.144 109.485 165.169 109.428 165.183C109.37 165.196 109.311 165.199 109.252 165.19Z" fill="#AAD7C3"/>
<path d="M105.357 166.573L97.1646 165.344C97.0588 165.312 96.9681 165.244 96.909 165.153C96.85 165.061 96.8267 164.951 96.8433 164.843C96.8599 164.736 96.9154 164.638 96.9995 164.568C97.0837 164.497 97.1908 164.459 97.3013 164.46L105.474 165.689C105.533 165.698 105.59 165.717 105.642 165.747C105.693 165.778 105.738 165.818 105.773 165.865C105.809 165.912 105.834 165.966 105.848 166.024C105.862 166.081 105.864 166.14 105.855 166.198C105.838 166.312 105.776 166.415 105.683 166.485C105.59 166.555 105.473 166.587 105.357 166.573Z" fill="#AAD7C3"/>
<path opacity="0.4" d="M93.8905 170.331L91.1935 169.929C90.8572 169.879 90.5432 170.107 90.4923 170.437L90.0836 173.09C90.0326 173.421 90.2639 173.729 90.6003 173.779L93.2972 174.181C93.6336 174.231 93.9476 174.004 93.9985 173.673L94.4072 171.021C94.4582 170.69 94.2268 170.381 93.8905 170.331Z" fill="#AAD7C3"/>
<path d="M107.905 173.794L96.1883 172.027C96.0825 171.996 95.9918 171.928 95.9327 171.836C95.8737 171.744 95.8504 171.634 95.867 171.527C95.8836 171.419 95.9391 171.321 96.0232 171.251C96.1073 171.18 96.2145 171.142 96.325 171.143L108.042 172.911C108.101 172.919 108.158 172.939 108.21 172.969C108.261 172.999 108.306 173.039 108.341 173.086C108.377 173.134 108.402 173.188 108.416 173.245C108.43 173.302 108.432 173.362 108.423 173.42C108.414 173.478 108.394 173.534 108.364 173.585C108.333 173.635 108.292 173.679 108.244 173.714C108.196 173.749 108.141 173.774 108.083 173.788C108.025 173.802 107.964 173.804 107.905 173.794Z" fill="#AAD7C3"/>
<path d="M103.999 175.176L95.827 173.948C95.7212 173.916 95.6304 173.849 95.5714 173.757C95.5124 173.665 95.489 173.555 95.5057 173.448C95.5223 173.341 95.5777 173.243 95.6619 173.172C95.746 173.102 95.8532 173.064 95.9637 173.065L104.136 174.293C104.242 174.324 104.333 174.392 104.392 174.484C104.451 174.576 104.474 174.685 104.457 174.793C104.441 174.9 104.385 174.998 104.301 175.068C104.217 175.139 104.11 175.177 103.999 175.176Z" fill="#AAD7C3"/>
<path opacity="0.2" d="M91.943 178.755L89.2502 178.349C88.9143 178.299 88.6004 178.526 88.549 178.856L88.1369 181.505C88.0855 181.835 88.3161 182.144 88.6519 182.194L91.3448 182.599C91.6806 182.65 91.9945 182.423 92.0459 182.093L92.458 179.444C92.5094 179.114 92.2788 178.805 91.943 178.755Z" fill="#AAD7C3"/>
<path d="M106.567 182.397L94.8506 180.629C94.7321 180.61 94.6258 180.546 94.5546 180.451C94.4834 180.356 94.4529 180.237 94.4698 180.12C94.4781 180.062 94.4982 180.006 94.5289 179.955C94.5596 179.905 94.6002 179.861 94.6484 179.826C94.6966 179.791 94.7514 179.766 94.8096 179.752C94.8678 179.738 94.9283 179.736 94.9873 179.746L106.753 181.513C106.812 181.521 106.869 181.541 106.921 181.571C106.972 181.601 107.017 181.641 107.052 181.689C107.088 181.736 107.113 181.79 107.127 181.848C107.141 181.905 107.143 181.964 107.134 182.022C107.126 182.086 107.105 182.147 107.071 182.201C107.037 182.256 106.992 182.302 106.938 182.338C106.884 182.373 106.823 182.397 106.759 182.407C106.695 182.418 106.63 182.414 106.567 182.397Z" fill="#AAD7C3"/>
<path d="M102.681 183.781L94.5087 182.551C94.4495 182.543 94.3924 182.523 94.341 182.493C94.2896 182.463 94.2449 182.423 94.2094 182.376C94.1739 182.328 94.1484 182.274 94.1344 182.217C94.1205 182.16 94.1182 182.1 94.1279 182.042C94.1363 181.984 94.1563 181.928 94.187 181.877C94.2177 181.827 94.2583 181.783 94.3065 181.748C94.3547 181.713 94.4095 181.688 94.4677 181.674C94.5259 181.66 94.5864 181.658 94.6454 181.667L102.818 182.897C102.937 182.916 103.043 182.98 103.114 183.075C103.185 183.171 103.216 183.29 103.199 183.407C103.19 183.465 103.17 183.521 103.14 183.572C103.109 183.622 103.068 183.666 103.02 183.701C102.972 183.736 102.917 183.761 102.859 183.775C102.801 183.789 102.74 183.791 102.681 183.781Z" fill="#AAD7C3"/>
<path opacity="0.1" d="M90.6058 187.368L87.913 186.963C87.5772 186.912 87.2633 187.139 87.2119 187.469L86.7998 190.117C86.7484 190.447 86.9789 190.756 87.3148 190.807L90.0076 191.212C90.3434 191.262 90.6573 191.036 90.7087 190.705L91.1208 188.057C91.1722 187.727 90.9417 187.418 90.6058 187.368Z" fill="white"/>
<path d="M105.23 191.001L93.5129 189.235C93.3943 189.216 93.288 189.152 93.2168 189.057C93.1456 188.961 93.1152 188.843 93.1321 188.726C93.1404 188.667 93.1605 188.611 93.1911 188.561C93.2218 188.51 93.2624 188.466 93.3107 188.431C93.3589 188.396 93.4137 188.371 93.4719 188.357C93.5301 188.344 93.5905 188.342 93.6496 188.351L105.415 190.118C105.474 190.126 105.532 190.146 105.583 190.176C105.634 190.206 105.679 190.246 105.715 190.294C105.75 190.341 105.776 190.395 105.79 190.452C105.803 190.509 105.806 190.569 105.796 190.627C105.789 190.69 105.767 190.751 105.733 190.806C105.7 190.86 105.654 190.907 105.601 190.942C105.547 190.978 105.486 191.002 105.422 191.012C105.358 191.022 105.292 191.019 105.23 191.001Z" fill="#AAD7C3"/>
<path d="M101.343 192.383L93.1613 191.155C93.1029 191.145 93.047 191.125 92.9967 191.094C92.9464 191.063 92.9027 191.023 92.8682 190.976C92.8338 190.929 92.8091 190.875 92.7958 190.819C92.7824 190.762 92.7805 190.703 92.7903 190.646C92.7973 190.587 92.8165 190.53 92.8468 190.479C92.8771 190.428 92.9177 190.383 92.9663 190.348C93.0148 190.313 93.0702 190.288 93.1289 190.275C93.1877 190.262 93.2485 190.261 93.3078 190.272L101.48 191.5C101.546 191.501 101.611 191.515 101.67 191.543C101.73 191.57 101.783 191.61 101.825 191.659C101.868 191.708 101.899 191.766 101.917 191.828C101.935 191.89 101.939 191.955 101.93 192.019C101.92 192.083 101.896 192.144 101.86 192.198C101.824 192.252 101.777 192.298 101.721 192.333C101.665 192.367 101.603 192.389 101.538 192.398C101.473 192.407 101.406 192.402 101.343 192.383Z" fill="#AAD7C3"/>
<g opacity="0.1">
<path opacity="0.1" d="M283.814 168.916L136.221 146.705C135.629 146.617 135.026 146.762 134.543 147.11C134.06 147.457 133.737 147.978 133.643 148.559L133.018 152.553L132.901 153.322L132.061 158.708L131.944 159.477L131.104 164.854L130.987 165.613L130.147 170.999L130.03 171.758L129.191 177.145L129.073 177.913L128.234 183.291L128.117 184.059L127.277 189.436L127.16 190.204L126.32 195.582L126.203 196.35L125.363 201.727L125.246 202.495L124.631 206.49C124.585 206.778 124.597 207.072 124.667 207.356C124.737 207.639 124.863 207.906 125.038 208.142C125.213 208.377 125.434 208.576 125.687 208.728C125.941 208.88 126.222 208.98 126.515 209.025L274.079 231.235C274.669 231.321 275.27 231.172 275.749 230.823C276.228 230.474 276.548 229.952 276.637 229.372L277.262 225.378L277.379 224.61L278.219 219.232L278.336 218.464L279.176 213.077L279.293 212.319L280.132 206.941L280.25 206.173L281.089 200.796L281.206 200.027L282.046 194.641L282.163 193.882L283.003 188.495L283.12 187.736L283.96 182.359L284.077 181.591L284.917 176.204L285.034 175.436L285.659 171.441C285.749 170.866 285.607 170.28 285.262 169.807C284.916 169.335 284.396 169.015 283.814 168.916ZM275.905 229.257C275.844 229.634 275.635 229.973 275.323 230.2C275.01 230.426 274.619 230.522 274.235 230.467L126.681 208.257C126.295 208.197 125.948 207.991 125.716 207.682C125.484 207.372 125.385 206.986 125.441 206.605L126.066 202.611L276.52 225.263L275.905 229.257ZM276.647 224.456L126.183 201.814L127.023 196.427L277.477 219.079L276.647 224.456ZM277.623 218.31L127.14 195.706L127.98 190.319L278.434 212.962L277.623 218.31ZM278.6 212.165L128.136 189.513L128.976 184.136L279.429 206.778L278.6 212.165ZM279.576 206.019L129.112 183.367L129.952 177.99L280.406 200.642L279.576 206.019ZM280.552 199.874L130.089 177.222L130.929 171.835L281.382 194.487L280.552 199.874ZM281.529 193.719L131.065 171.076L131.905 165.699L282.359 188.341L281.529 193.719ZM282.505 187.573L131.925 164.969L132.764 159.592L283.218 182.234L282.505 187.573ZM283.482 181.437L132.881 158.824L133.721 153.437L284.175 176.089L283.482 181.437ZM133.985 152.63L134.61 148.645C134.638 148.458 134.704 148.278 134.804 148.116C134.903 147.953 135.034 147.812 135.189 147.7C135.344 147.587 135.52 147.506 135.707 147.461C135.895 147.415 136.089 147.407 136.279 147.435L283.657 169.684C284.04 169.743 284.384 169.949 284.613 170.257C284.841 170.565 284.937 170.949 284.878 171.326L284.253 175.321L133.985 152.63Z" fill="white"/>
</g>
<g opacity="0.1">
<path opacity="0.1" d="M299.573 65.5379L48.1296 27.686C47.7955 27.6355 47.4546 27.6505 47.1264 27.7299C46.7982 27.8093 46.4891 27.9517 46.217 28.1489C45.9448 28.346 45.7149 28.5941 45.5405 28.8788C45.3661 29.1635 45.2505 29.4793 45.2004 29.8081L31.1109 120.328C31.0099 120.99 31.179 121.664 31.5814 122.204C31.9838 122.743 32.5868 123.105 33.259 123.209L284.712 161.061C285.385 161.16 286.07 160.994 286.619 160.598C287.168 160.202 287.535 159.609 287.641 158.948L301.73 68.4186C301.782 68.09 301.767 67.7547 301.686 67.4319C301.605 67.1092 301.46 66.8052 301.26 66.5376C301.059 66.27 300.807 66.0439 300.518 65.8723C300.228 65.7008 299.907 65.5871 299.573 65.5379ZM94.5282 78.5489L111.986 81.1703L110.463 90.9262L92.9758 88.2952L94.5282 78.5489ZM92.2337 88.1511L74.7073 85.5681L76.2305 75.8027L93.7178 78.4337L92.2337 88.1511ZM112.787 81.3047L130.284 83.9358L128.761 93.7012L111.274 91.0702L112.787 81.3047ZM203.475 94.1717L185.988 91.5407L187.501 81.7753L204.998 84.4062L203.475 94.1717ZM205.77 84.5695L223.267 87.2005L221.744 96.966L204.256 94.335L205.77 84.5695ZM149.324 86.8548L166.821 89.4858L165.298 99.2513L147.781 96.5339L149.324 86.8548ZM147.029 96.457L129.542 93.826L131.026 84.051L148.523 86.682L147.029 96.457ZM167.592 89.5626L185.041 92.1841L183.518 101.95L166.03 99.3185L167.592 89.5626ZM185.861 92.3089L203.358 94.9399L201.835 104.705L184.347 102.074L185.861 92.3089ZM185.207 91.4255L167.719 88.7945L169.233 79.029L186.73 81.6696L185.207 91.4255ZM166.938 88.6792L149.451 86.0482L150.964 76.2828L168.442 78.9042L166.938 88.6792ZM148.64 85.9714L131.153 83.3308L132.666 73.4885L150.164 76.1195L148.64 85.9714ZM130.362 83.1676L112.875 80.5366L114.388 70.7711L131.885 73.4021L130.362 83.1676ZM128.605 94.4694L127.091 104.216L109.604 101.585L111.127 91.8192L128.605 94.4694ZM129.386 94.5846L146.873 97.2156L145.35 106.981L127.863 104.35L129.386 94.5846ZM147.654 97.3308L165.142 99.9619L163.618 109.727L146.141 107.096L147.654 97.3308ZM165.923 100.077L183.41 102.718L181.887 112.474L164.4 109.843L165.923 100.077ZM184.191 102.833L201.679 105.464L200.155 115.229L182.668 112.598L184.191 102.833ZM202.46 105.579L219.947 108.21L218.424 117.976L200.937 115.345L202.46 105.579ZM202.577 104.821L204.09 95.0551L221.587 97.6861L220.064 107.452L202.577 104.821ZM222.359 97.8014L239.856 100.432L238.333 110.198L220.845 107.567L222.359 97.8014ZM240.627 100.548L258.124 103.188L256.601 112.944L239.114 110.313L240.627 100.548ZM240.754 99.789L242.268 90.0236L259.774 92.693L258.271 102.42L240.754 99.789ZM239.973 99.6738L222.486 97.0332L223.999 87.2677L241.496 89.9083L239.973 99.6738ZM224.097 86.5091L225.62 76.7437L243.107 79.3747L241.672 89.1401L224.097 86.5091ZM223.325 86.3939L205.838 83.7533L207.351 73.9975L224.839 76.6285L223.325 86.3939ZM205.057 83.6381L187.56 81.0071L189.083 71.2416L206.57 73.8726L205.057 83.6381ZM186.788 80.8918L169.321 78.2896L170.844 68.5242L188.331 71.1552L186.788 80.8918ZM168.52 78.136L151.062 75.505L152.575 65.7395L170.063 68.3802L168.52 78.136ZM150.281 75.409L132.793 72.778L134.268 62.9933L151.843 65.6243L150.281 75.409ZM132.012 72.6627L114.515 70.0317L116.038 60.2663L133.526 62.9261L132.012 72.6627ZM113.763 69.8877L96.276 67.2567L97.7894 57.4912L115.277 60.1319L113.763 69.8877ZM113.646 70.6559L112.123 80.4213L94.6356 77.7903L96.1491 68.0249L113.646 70.6559ZM93.8545 77.6751L76.3672 75.0345L77.8806 65.269L95.3777 67.9097L93.8545 77.6751ZM75.586 74.9193L58.1085 72.2883L59.6219 62.5228L77.119 65.1538L75.586 74.9193ZM75.4689 75.6874L73.9457 85.4529L56.4583 82.8219L57.9815 73.0564L75.4689 75.6874ZM73.8285 86.2499L72.3053 96.0153L54.818 93.3843L56.3412 83.6189L73.8285 86.2499ZM74.6096 86.3747L92.097 89.0057L90.5738 98.7712L73.0865 96.1306L74.6096 86.3747ZM92.8781 89.1209L110.346 91.7327L108.823 101.498L91.3061 98.848L92.8781 89.1209ZM108.706 102.295L107.182 112.061L89.6951 109.42L91.2182 99.6546L108.706 102.295ZM109.487 102.41L126.974 105.041L125.48 114.778L107.983 112.147L109.487 102.41ZM127.755 105.157L145.243 107.788L143.719 117.553L126.232 114.922L127.755 105.157ZM145.985 107.864L163.56 110.495L162.037 120.261L144.5 117.659L145.985 107.864ZM164.253 110.611L181.74 113.242L180.217 123.007L162.73 120.376L164.253 110.611ZM182.522 113.357L200.009 115.998L198.486 125.753L180.998 123.122L182.522 113.357ZM200.79 116.113L218.277 118.744L216.754 128.509L199.267 125.878L200.79 116.113ZM219.059 118.859L236.585 121.5L235.062 131.265L217.574 128.634L219.059 118.859ZM219.176 118.091L220.699 108.335L238.225 110.937L236.702 120.703L219.176 118.091ZM238.967 111.081L256.455 113.712L254.932 123.478L237.444 120.847L238.967 111.081ZM257.294 113.818L274.782 116.449L273.259 126.214L255.771 123.583L257.294 113.818ZM257.412 113.059L258.925 103.294L276.422 105.925L274.87 115.738L257.412 113.059ZM259.052 102.497L260.565 92.7314L278.062 95.3624L276.52 105.176L259.052 102.497ZM260.683 91.9344L262.176 82.2458L279.664 84.8768L278.16 94.6134L260.683 91.9344ZM259.911 91.8096L242.414 89.1786L243.937 79.4131L261.405 82.1305L259.911 91.8096ZM244.054 78.6545L245.578 68.9659L263.045 71.5681L261.532 81.3335L244.054 78.6545ZM243.283 78.5297L225.786 75.8987L227.309 66.1332L244.796 68.7738L243.283 78.5297ZM225.015 75.7835L207.498 73.2293L209.021 63.4638L226.508 66.0948L225.015 75.7835ZM206.746 73.0372L189.249 70.4062L190.772 60.6408L208.26 63.2718L206.746 73.0372ZM188.478 70.2814L170.961 67.7272L172.484 57.9618L189.971 60.5928L188.478 70.2814ZM170.209 67.5352L152.712 64.9042L154.216 55.2443L171.703 57.8753L170.209 67.5352ZM151.921 64.8465L134.424 62.2059L135.947 52.4501L153.435 55.0811L151.921 64.8465ZM133.653 62.0907L116.156 59.4597L117.669 49.7135L135.166 52.3637L133.653 62.0907ZM115.384 59.3445L97.8871 56.7135L99.4102 46.948L116.898 49.579L115.384 59.3445ZM97.1645 56.6078L79.5893 53.9768L81.1125 44.2114L98.5998 46.852L97.1645 56.6078ZM97.0376 57.376L95.5242 67.1415L78.0368 64.5105L79.5502 54.745L97.0376 57.376ZM77.2557 64.3952L59.7683 61.7546L61.2818 51.9988L78.7691 54.6298L77.2557 64.3952ZM58.9872 61.6394L41.4999 59.0084L43.0133 49.2429L60.5104 51.874L58.9872 61.6394ZM58.87 62.4076L57.3469 72.173L39.8595 69.542L41.3729 59.7766L58.87 62.4076ZM57.2297 72.97L55.7065 82.7355L38.2191 80.1045L39.7423 70.339L57.2297 72.97ZM55.5893 83.5325L54.0661 93.2979L36.5788 90.6669L38.102 80.9014L55.5893 83.5325ZM53.949 94.0949L52.4356 103.851L34.9384 101.22L36.4616 91.4543L53.949 94.0949ZM54.7301 94.2101L72.2175 96.8411L70.704 106.607L53.2069 103.976L54.7301 94.2101ZM72.9986 96.9564L90.4859 99.5873L88.9628 109.353L71.4754 106.722L72.9986 96.9564ZM88.8456 110.121L87.3321 119.886L69.8253 117.159L71.3485 107.394L88.8456 110.121ZM89.6267 110.236L107.114 112.867L105.601 122.633L88.1035 120.002L89.6267 110.236ZM107.846 112.858L125.334 115.498L123.82 125.254L106.323 122.623L107.846 112.858ZM126.115 115.613L143.602 118.244L142.079 128.039L124.582 125.408L126.115 115.613ZM144.383 118.36L161.871 120.991L160.357 130.756L142.86 128.125L144.383 118.36ZM162.652 121.116L180.159 123.775L178.645 133.541L161.148 130.9L162.652 121.116ZM180.92 123.862L198.408 126.493L196.894 136.258L179.397 133.627L180.92 123.862ZM199.189 126.608L216.676 129.239L215.163 139.004L197.666 136.373L199.189 126.608ZM217.457 129.364L234.945 132.062L233.431 141.827L215.934 139.196L217.457 129.364ZM235.726 132.11L253.213 134.741L251.7 144.545L234.203 141.914L235.726 132.11ZM235.843 131.342L237.366 121.576L254.853 124.217L253.33 133.982L235.843 131.342ZM255.635 124.38L273.122 127.011L271.599 136.777L254.111 134.146L255.635 124.38ZM273.893 127.107L291.381 129.738L289.857 139.504L272.38 136.863L273.893 127.107ZM274.01 126.349L275.534 116.583L293.021 119.214L291.468 128.98L274.01 126.349ZM275.651 115.786L277.164 106.021L294.661 108.652L293.138 118.417L275.651 115.786ZM277.291 105.224L278.775 95.5736L296.35 98.1566L294.837 107.922L277.291 105.224ZM278.922 94.6614L280.455 85.0112L297.942 87.6422L296.429 97.4077L278.922 94.6614ZM280.562 84.099L282.095 74.4488L299.582 77.0798L298.069 86.8452L280.562 84.099ZM279.791 83.9837L262.294 81.3528L263.817 71.5873L281.304 74.2183L279.791 83.9837ZM263.934 70.8191L265.457 61.0633L282.944 63.6943L281.421 73.4597L263.934 70.8191ZM263.153 70.7039L245.665 68.0729L247.189 58.3074L264.676 60.9384L263.153 70.7039ZM244.884 67.9577L227.397 65.3267L228.979 55.686L246.466 58.317L244.884 67.9577ZM226.616 65.2114L209.129 62.5708L210.652 52.815L228.139 55.446L226.616 65.2114ZM208.347 62.4556L190.899 59.9494L192.422 50.184L209.91 52.815L208.347 62.4556ZM190.079 59.7094L172.601 57.1648L174.125 47.3993L191.612 50.0303L190.079 59.7094ZM171.81 56.9535L154.323 54.3225L155.856 44.6819L173.324 47.3225L171.81 56.9535ZM153.552 54.2073L136.055 51.5763L137.578 41.8108L155.065 44.4418L153.552 54.2073ZM135.283 51.4611L117.786 48.8204L119.309 39.0646L136.806 41.8012L135.283 51.4611ZM117.005 48.7052L99.5177 46.0742L101.07 36.4336L118.557 39.0646L117.005 48.7052ZM98.7463 45.959L81.2492 43.328L82.7724 33.5625L100.26 36.1935L98.7463 45.959ZM80.4778 43.2128L62.9905 40.697L64.5136 30.9411L82.001 33.5721L80.4778 43.2128ZM80.3509 43.9713L78.8375 53.7368L61.3403 51.1058L62.8635 41.3403L80.3509 43.9713ZM60.569 50.9906L43.0816 48.5228L44.6048 38.7573L62.0922 41.3883L60.569 50.9906ZM34.7724 101.892L52.25 104.523L50.7366 114.288L33.2395 111.657L34.7724 101.892ZM53.0409 104.638L70.5283 107.269L69.0149 117.035L51.5177 114.404L53.0409 104.638ZM68.8489 117.803L67.3354 127.568L49.8481 124.937L51.3615 115.172L68.8489 117.803ZM69.63 117.918L87.1564 120.539L85.643 130.305L68.1556 127.674L69.63 117.918ZM87.8985 120.674L105.386 123.305L103.872 133.07L86.4241 130.43L87.8985 120.674ZM106.206 123.42L123.693 126.051L122.18 135.817L104.683 133.186L106.206 123.42ZM124.504 126.166L141.991 128.807L140.478 138.563L122.961 135.903L124.504 126.166ZM142.772 128.922L160.26 131.553L158.678 141.319L141.19 138.688L142.772 128.922ZM161.041 131.668L178.528 134.299L177.015 144.065L159.518 141.434L161.041 131.668ZM179.309 134.415L196.758 137.055L195.244 146.811L177.747 144.18L179.309 134.415ZM197.578 137.17L215.065 139.801L213.552 149.567L196.054 146.936L197.578 137.17ZM215.846 139.917L233.334 142.548L231.82 152.313L214.333 149.682L215.846 139.917ZM234.115 142.673L251.602 145.303L250.059 155.107L232.562 152.467L234.115 142.673ZM252.383 145.419L269.87 148.05L268.357 157.815L250.86 155.184L252.383 145.419ZM252.5 144.651L254.023 134.885L271.511 137.526L269.988 147.282L252.5 144.651ZM272.292 137.641L289.779 140.272L288.266 150.037L270.739 147.426L272.292 137.641ZM300.979 68.3033L299.7 76.3692L282.212 73.7382L283.735 63.9727L299.455 66.3349C299.917 66.4061 300.331 66.6519 300.61 67.0198C300.889 67.3877 301.011 67.8484 300.949 68.3033H300.979ZM48.0906 28.4542L63.8106 30.8163L62.2972 40.5817L44.722 37.9603L45.9718 29.9329C46.0063 29.7037 46.0867 29.4835 46.2081 29.285C46.3295 29.0864 46.4897 28.9135 46.6793 28.776C46.869 28.6386 47.0844 28.5394 47.3132 28.4842C47.542 28.4289 47.7796 28.4187 48.0125 28.4542H48.0906ZM31.9604 120.443L33.2102 112.416L50.6976 115.057L49.1841 124.812L33.3762 122.46C32.9065 122.387 32.4855 122.133 32.2055 121.755C31.9255 121.377 31.8092 120.905 31.8823 120.443H31.9604ZM284.829 160.302L269.099 157.93L270.622 148.165L288.11 150.796L286.86 158.833C286.788 159.292 286.533 159.705 286.153 159.98C285.772 160.255 285.296 160.371 284.829 160.302Z" fill="white"/>
</g>
<path opacity="0.5" d="M291.273 130.507L286.86 158.815C286.826 159.034 286.749 159.244 286.633 159.434C286.517 159.623 286.363 159.789 286.182 159.92C286 160.051 285.794 160.145 285.576 160.198C285.357 160.251 285.13 160.26 284.907 160.226L33.3176 122.355C33.0958 122.321 32.8829 122.244 32.6911 122.129C32.4994 122.014 32.3325 121.863 32.2001 121.685C32.0677 121.507 31.9724 121.304 31.9195 121.09C31.8667 120.875 31.8574 120.652 31.8921 120.434L32.4779 116.651C32.4779 116.651 44.3022 107.279 51.7033 108.393C60.4421 109.708 62.0141 114.586 69.8253 115.739C77.6365 116.891 86.1898 99.1268 93.2589 100.183C97.0767 100.759 98.0531 103.649 99.918 106.3C100.718 107.518 101.78 108.55 103.028 109.323C104.276 110.096 105.68 110.591 107.143 110.774L107.436 110.822C117.005 112.263 129.952 62.3116 143.114 64.2897C148.972 65.1635 151.286 76.1869 153.034 88.3626C155.251 103.726 156.5 121.01 162.603 121.884C173.519 123.526 177.249 101.719 187.384 103.285C193.76 104.245 196.084 115.864 201.454 125.072C204.627 130.517 208.875 135.126 215.67 136.144C221.851 137.104 225.981 135.663 229.194 133.445C235.491 129.115 238.303 121.721 246.173 122.883C250.84 123.584 252.539 127.117 254.277 130.449C255.791 133.33 257.333 136.115 260.927 136.652C265.154 137.296 268.738 131.342 272.575 126.09C275.709 121.75 278.98 117.851 282.866 118.408C286.752 118.965 289.193 123.699 290.375 127.05C290.743 128.184 291.043 129.338 291.273 130.507Z" fill="#AAD7C3"/>
<path opacity="0.5" d="M297.327 91.6071L286.86 158.823C286.826 159.042 286.749 159.253 286.633 159.442C286.517 159.632 286.363 159.797 286.182 159.928C286 160.06 285.794 160.154 285.576 160.207C285.357 160.259 285.13 160.269 284.907 160.235L33.3176 122.354C33.0958 122.32 32.8829 122.243 32.6911 122.128C32.4994 122.013 32.3325 121.862 32.2001 121.684C32.0677 121.506 31.9724 121.303 31.9195 121.089C31.8667 120.874 31.8574 120.651 31.8921 120.433L32.4779 116.65C42.9254 118.225 48.5007 110.533 55.5112 111.59C62.5218 112.646 66.154 117.457 72.7155 118.446C79.2769 119.435 89.4021 104.33 96.5787 105.415C97.7041 105.576 98.8035 105.879 99.8496 106.318C102.613 107.451 104.517 109.275 107.075 110.793C109.088 111.993 111.326 112.783 113.656 113.116C122.063 114.374 138.886 84.4534 148.64 85.9225C150.329 86.2226 151.858 87.0918 152.966 88.3807C158.727 94.555 160.211 109.996 168.334 111.215C178.186 112.703 183.459 96.946 193.018 98.3767C202.577 99.8075 205.389 116.016 216.452 117.677C227.514 119.339 239.514 89.6098 251.006 91.3382C262.499 93.0666 265.779 108.344 275.768 109.842C286.733 111.493 297.327 91.6071 297.327 91.6071Z" fill="#AAD7C3"/>
<path d="M292.445 122.854L286.84 158.815C286.807 159.034 286.73 159.244 286.614 159.434C286.497 159.623 286.344 159.789 286.162 159.92C285.981 160.051 285.775 160.145 285.556 160.198C285.337 160.251 285.11 160.26 284.888 160.226L33.3176 122.355C33.0958 122.321 32.8829 122.244 32.6911 122.129C32.4994 122.014 32.3325 121.863 32.2001 121.685C32.0677 121.507 31.9724 121.304 31.9195 121.09C31.8667 120.875 31.8574 120.652 31.8921 120.434L32.1753 118.581C32.5365 118.245 38.4633 112.743 44.4779 113.645C50.6976 114.606 50.7171 120.06 59.3876 121.327C68.058 122.595 70.5869 115.883 82.8896 117.736C95.1922 119.589 95.1532 128.049 107.876 129.969C120.598 131.89 123.225 121.74 132.286 123.104C141.347 124.467 140.712 129.643 145.848 130.411C150.984 131.179 153.972 123.267 160.289 124.217C166.606 125.168 171.439 138.189 178.557 139.264C183.557 140.013 192.393 130.276 201.415 125.053C205.223 122.844 209.08 121.442 212.673 121.99C220.103 123.104 224.439 128.807 229.155 133.426C232.084 136.307 235.238 138.803 239.358 139.427C245.216 140.311 249.718 135.068 254.238 130.459C257.91 126.704 261.61 123.363 266.111 124.035C268.363 124.317 270.541 125.007 272.536 126.071C276.442 128.222 277.467 131.121 282.134 131.832C287.748 132.706 292.445 122.854 292.445 122.854Z" fill="#AAD7C3"/>
<path d="M63.0395 24.7687L49.5261 22.7329C49.2137 22.686 48.9137 22.579 48.6434 22.4179C48.3731 22.2568 48.1378 22.0449 47.9509 21.7942C47.7641 21.5435 47.6294 21.259 47.5545 20.9571C47.4796 20.6551 47.4661 20.3415 47.5147 20.0344C47.611 19.4132 47.954 18.855 48.4684 18.4823C48.9828 18.1096 49.6266 17.9529 50.2584 18.0465L63.762 20.0824C64.3924 20.1795 64.9584 20.5175 65.3369 21.0228C65.7154 21.5281 65.8757 22.1599 65.7831 22.7809C65.6844 23.4009 65.3408 23.9576 64.827 24.3298C64.3132 24.7021 63.6708 24.8598 63.0395 24.7687Z" fill="#AAD7C3"/>
<path d="M70.4992 22.0882H70.714L84.2273 24.1242C84.4196 24.1483 84.605 24.2101 84.7727 24.3057C84.9403 24.4014 85.0869 24.529 85.2037 24.6811C85.4251 24.9838 85.5195 25.3586 85.4673 25.7279C85.4123 26.0597 85.2402 26.3619 84.9814 26.5814C84.7225 26.8009 84.3933 26.9237 84.0515 26.9283H83.827L70.3234 24.8924C70.1302 24.8715 69.9436 24.8112 69.7754 24.7153C69.6073 24.6194 69.4614 24.49 69.347 24.3354C69.1892 24.1263 69.0938 23.8781 69.0714 23.6187C69.049 23.3592 69.1004 23.0987 69.2201 22.8664C69.3397 22.6341 69.5227 22.4392 69.7486 22.3034C69.9745 22.1677 70.2344 22.0965 70.4992 22.0978V22.0882ZM70.4992 21.1375C69.883 21.1219 69.2842 21.3399 68.8269 21.7463C68.3695 22.1528 68.0886 22.7167 68.0422 23.3213C67.9957 23.9258 68.1874 24.5248 68.5775 24.9942C68.9676 25.4637 69.5263 25.7676 70.1379 25.8432L83.6414 27.8791C83.7649 27.8886 83.889 27.8886 84.0125 27.8791C84.6184 27.8758 85.2009 27.6483 85.6441 27.2418C86.0872 26.8353 86.3586 26.2796 86.4041 25.6853C86.4497 25.091 86.2661 24.5016 85.8898 24.0344C85.5136 23.5672 84.9724 23.2564 84.3737 23.1638L70.8604 21.1375C70.7402 21.128 70.6194 21.128 70.4992 21.1375Z" fill="#AAD7C3"/>
<path d="M91.1011 25.1893H91.3061L104.81 27.2253C105.163 27.283 105.482 27.4688 105.704 27.7462C105.925 28.0235 106.033 28.3723 106.006 28.7239C105.979 29.0756 105.819 29.4045 105.558 29.6461C105.297 29.8877 104.953 30.0245 104.595 30.0295H104.38L90.8668 27.9935C90.6743 27.9699 90.4887 27.9084 90.321 27.8127C90.1532 27.717 90.0068 27.589 89.8904 27.4365C89.7796 27.2873 89.7 27.118 89.6565 26.9382C89.6129 26.7585 89.6061 26.5721 89.6365 26.3898C89.6896 26.0597 89.8601 25.7589 90.1176 25.5408C90.375 25.3228 90.7028 25.2016 91.0425 25.1989L91.1011 25.1893ZM91.0425 24.2386C90.4263 24.223 89.8276 24.441 89.3702 24.8474C88.9129 25.2539 88.6319 25.8178 88.5855 26.4224C88.5391 27.0269 88.7308 27.6259 89.1209 28.0953C89.511 28.5647 90.0696 28.8687 90.6812 28.9443L104.195 30.9802C104.315 30.9897 104.436 30.9897 104.556 30.9802C105.162 30.9769 105.744 30.7494 106.188 30.3429C106.631 29.9364 106.902 29.3807 106.948 28.7864C106.993 28.1921 106.81 27.6027 106.433 27.1355C106.057 26.6683 105.516 26.3575 104.917 26.2649L91.4135 24.2386C91.2901 24.2291 91.166 24.2291 91.0425 24.2386Z" fill="#AAD7C3"/>
<path d="M301.486 58.5192L301.652 57.4821L300.871 57.2996C300.853 57.1281 300.81 56.96 300.744 56.8003L301.35 56.2817L300.725 55.4367L300.031 55.8496C299.896 55.7434 299.749 55.6532 299.592 55.5807L299.641 54.7933L298.586 54.6396L298.401 55.4079C298.231 55.4258 298.063 55.4645 297.903 55.5231L297.366 54.9277L296.507 55.5519L296.927 56.2241C296.818 56.3586 296.729 56.5073 296.663 56.6658L295.862 56.6082L295.696 57.6453L296.477 57.8374C296.495 58.0058 296.538 58.1708 296.604 58.3272L295.999 58.8457L296.634 59.6908L297.317 59.2778C297.454 59.3819 297.601 59.472 297.756 59.5467L297.708 60.3341L298.762 60.4878L298.948 59.7292C299.12 59.7025 299.29 59.6607 299.455 59.6043L299.983 60.1997L300.842 59.5755L300.422 58.9033C300.528 58.7709 300.617 58.6256 300.686 58.4712L301.486 58.5192ZM298.489 58.7689C298.246 58.7318 298.021 58.625 297.84 58.4617C297.66 58.2985 297.532 58.0863 297.474 57.8519C297.416 57.6176 297.43 57.3716 297.515 57.145C297.599 56.9185 297.749 56.7216 297.947 56.5793C298.145 56.4369 298.382 56.3555 298.627 56.3453C298.872 56.3351 299.114 56.3966 299.324 56.5221C299.533 56.6475 299.7 56.8312 299.804 57.0499C299.907 57.2687 299.942 57.5126 299.905 57.751C299.88 57.9092 299.823 58.0611 299.738 58.1979C299.654 58.3347 299.542 58.4538 299.411 58.5483C299.28 58.6428 299.13 58.711 298.972 58.7488C298.814 58.7867 298.65 58.7935 298.489 58.7689Z" fill="#AAD7C3"/>
<path opacity="0.2" d="M149.623 172.783L146.747 172.35L143.587 192.662L146.463 193.095L149.623 172.783Z" fill="#AAD7C3"/>
<path d="M149.149 175.835L146.273 175.402L144.785 184.96L147.662 185.393L149.149 175.835Z" fill="#AAD7C3"/>
<path opacity="0.2" d="M142.371 176.925L139.495 176.492L136.334 196.804L139.21 197.237L142.371 176.925Z" fill="#AAD7C3"/>
<path d="M138.636 181.843L137.147 191.412L140.023 191.845L141.512 182.276L138.636 181.843Z" fill="#AAD7C3"/>
<path opacity="0.2" d="M137.174 172.188L134.294 171.758L131.159 192.102L134.04 192.531L137.174 172.188Z" fill="#AAD7C3"/>
<path d="M135.307 179.704L132.431 179.271L130.942 188.84L133.818 189.272L135.307 179.704Z" fill="#AAD7C3"/>
<path opacity="0.2" d="M155.468 177.761L152.592 177.328L149.431 197.64L152.308 198.073L155.468 177.761Z" fill="#AAD7C3"/>
<path d="M155.004 180.812L152.127 180.379L150.639 189.948L153.515 190.381L155.004 180.812Z" fill="#AAD7C3"/>
<path opacity="0.2" d="M162.865 172.726L159.989 172.293L156.828 192.606L159.704 193.039L162.865 172.726Z" fill="#AAD7C3"/>
<path d="M162.507 175.017L159.631 174.584L158.142 184.153L161.018 184.585L162.507 175.017Z" fill="#AAD7C3"/>
<path opacity="0.2" d="M168.523 178.941L165.647 178.508L162.486 198.82L165.362 199.253L168.523 178.941Z" fill="#AAD7C3"/>
<path d="M168.397 179.71L165.521 179.277L164.032 188.846L166.909 189.279L168.397 179.71Z" fill="#AAD7C3"/>
<path opacity="0.2" d="M176.631 169.293L173.755 168.86L170.595 189.172L173.471 189.605L176.631 169.293Z" fill="#AAD7C3"/>
<path d="M176.524 170.063L173.648 169.63L172.16 179.189L175.036 179.622L176.524 170.063Z" fill="#AAD7C3"/>
<path opacity="0.2" d="M181.111 183.06L178.235 182.627L175.075 202.939L177.951 203.372L181.111 183.06Z" fill="#AAD7C3"/>
<path d="M180.637 186.123L177.761 185.69L176.272 195.258L179.148 195.691L180.637 186.123Z" fill="#AAD7C3"/>
<path opacity="0.2" d="M187.395 185.218L184.519 184.786L181.358 205.099L184.234 205.532L187.395 185.218Z" fill="#AAD7C3"/>
<path d="M186.203 192.872L183.327 192.439L181.838 202.009L184.715 202.442L186.203 192.872Z" fill="#AAD7C3"/>
<path opacity="0.2" d="M195.857 173.426L192.981 172.994L189.82 193.306L192.696 193.739L195.857 173.426Z" fill="#AAD7C3"/>
<path d="M194.539 181.854L191.662 181.421L190.175 190.98L193.051 191.413L194.539 181.854Z" fill="#AAD7C3"/>
<path opacity="0.2" d="M200.924 183.343L198.047 182.91L194.887 203.223L197.763 203.656L200.924 183.343Z" fill="#AAD7C3"/>
<path d="M200.323 187.178L197.446 186.745L195.959 196.303L198.835 196.735L200.323 187.178Z" fill="#AAD7C3"/>
<path opacity="0.2" d="M208.214 179.015L205.338 178.582L202.177 198.894L205.053 199.327L208.214 179.015Z" fill="#AAD7C3"/>
<path d="M208.537 182.133L205.656 181.704L204.18 191.287L207.06 191.716L208.537 182.133Z" fill="#AAD7C3"/>
<path opacity="0.2" d="M216.104 170.863L213.228 170.43L210.067 190.743L212.944 191.176L216.104 170.863Z" fill="#AAD7C3"/>
<path d="M216.094 170.87L213.218 170.438L211.729 180.005L214.605 180.438L216.094 170.87Z" fill="#AAD7C3"/>
<path opacity="0.2" d="M220.572 184.705L217.696 184.272L214.536 204.586L217.412 205.019L220.572 184.705Z" fill="#AAD7C3"/>
<path d="M220.205 187.006L217.329 186.573L215.84 196.141L218.716 196.574L220.205 187.006Z" fill="#AAD7C3"/>
<path opacity="0.2" d="M225.641 194.612L222.764 194.18L219.604 214.491L222.48 214.924L225.641 194.612Z" fill="#AAD7C3"/>
<path d="M225.283 196.904L222.407 196.471L220.918 206.039L223.794 206.472L225.283 196.904Z" fill="#AAD7C3"/>
<path opacity="0.2" d="M233.778 184.834L230.902 184.401L227.741 204.713L230.617 205.146L233.778 184.834Z" fill="#AAD7C3"/>
<path d="M232.596 192.471L229.72 192.039L228.231 201.606L231.107 202.039L232.596 192.471Z" fill="#AAD7C3"/>
<path opacity="0.2" d="M242.037 174.325L239.161 173.892L236.001 194.205L238.877 194.638L242.037 174.325Z" fill="#AAD7C3"/>
<path d="M240.602 183.502L237.726 183.069L236.237 192.638L239.113 193.07L240.602 183.502Z" fill="#AAD7C3"/>
<path opacity="0.2" d="M246.717 186.775L243.841 186.342L240.68 206.655L243.557 207.087L246.717 186.775Z" fill="#AAD7C3"/>
<path d="M247.118 189.848L244.237 189.418L242.761 199.001L245.641 199.431L247.118 189.848Z" fill="#AAD7C3"/>
<path opacity="0.2" d="M252.647 191.132L249.771 190.699L246.61 211.011L249.487 211.444L252.647 191.132Z" fill="#AAD7C3"/>
<path d="M251.348 199.55L248.472 199.118L246.983 208.685L249.86 209.118L251.348 199.55Z" fill="#AAD7C3"/>
<path opacity="0.2" d="M260.105 185.762L257.229 185.33L254.068 205.641L256.944 206.074L260.105 185.762Z" fill="#AAD7C3"/>
<path d="M260.104 185.772L257.228 185.339L255.739 194.908L258.615 195.341L260.104 185.772Z" fill="#AAD7C3"/>
<path opacity="0.2" d="M265.586 193.072L262.71 192.64L259.55 212.951L262.426 213.384L265.586 193.072Z" fill="#AAD7C3"/>
<path d="M265.344 194.602L262.468 194.169L260.979 203.739L263.855 204.171L265.344 194.602Z" fill="#AAD7C3"/>
<path opacity="0.2" d="M272.487 191.305L269.611 190.872L266.45 211.185L269.326 211.618L272.487 191.305Z" fill="#AAD7C3"/>
<path d="M272.361 192.074L269.485 191.641L267.996 201.21L270.873 201.643L272.361 192.074Z" fill="#AAD7C3"/>
<path opacity="0.2" d="M278.535 194.89L275.659 194.457L272.498 214.77L275.374 215.203L278.535 194.89Z" fill="#AAD7C3"/>
<path d="M277.933 204.834L275.053 204.404L273.576 213.987L276.457 214.417L277.933 204.834Z" fill="#AAD7C3"/>
<path d="M174.105 223.104L119.94 214.953L119.683 216.604L173.848 224.755L174.105 223.104Z" fill="#999999" stroke="#263238" stroke-linecap="round" stroke-linejoin="round"/>
</svg>
