<svg width="502" height="502" viewBox="0 0 502 502" fill="none" xmlns="http://www.w3.org/2000/svg">
<path d="M482.85 337.901L276.13 218.551C273.23 216.881 270.88 212.391 270.88 208.551V48.6108C270.88 44.7508 273.23 42.9708 276.13 44.6108L482.85 164.001C485.75 165.671 488.1 170.161 488.1 174.001V333.901C488.1 337.801 485.75 339.581 482.85 337.901Z" fill="#B1B4C4"/>
<path d="M483.91 339.551L486.21 338.231L485.21 331.441L483.91 339.551Z" fill="#B1B4C4"/>
<path d="M270.51 45.6308L272.76 44.3308L276 46.1808C276 46.1808 272.55 46.7008 272.47 46.6808C272.39 46.6608 270.51 45.6308 270.51 45.6308Z" fill="#B1B4C4"/>
<path d="M480.96 339.001L274.23 219.651C271.33 217.971 268.98 213.481 268.98 209.651V49.7108C268.98 45.8408 271.33 44.0708 274.23 45.7108L480.96 165.091C483.86 166.761 486.21 171.261 486.21 175.091V335.031C486.21 338.891 483.86 340.671 480.96 339.001Z" fill="#E4E7F2"/>
<path d="M480.59 339.211L273.87 219.851C270.97 218.181 268.62 213.691 268.62 209.851V49.9208C268.62 46.0508 270.97 44.2708 273.87 45.9208L480.59 165.301C483.49 166.971 485.84 171.461 485.84 175.301V335.241C485.84 339.101 483.49 340.881 480.59 339.211Z" fill="#D6D8E5"/>
<path d="M480.59 339.211L273.87 219.851C270.97 218.181 268.62 213.691 268.62 209.851V49.9208C268.62 46.0508 270.97 44.2708 273.87 45.9208L480.59 165.301C483.49 166.971 485.84 171.461 485.84 175.301V335.241C485.84 339.101 483.49 340.881 480.59 339.211Z" fill="url(#paint0_linear)"/>
<path d="M483 329.481L271.24 207.221L271.35 50.5608C271.35 48.9508 272.48 48.3008 273.87 49.1008L480.59 168.461C481.323 168.936 481.933 169.578 482.371 170.334C482.809 171.09 483.062 171.939 483.11 172.811L483 329.481Z" fill="white"/>
<path opacity="0.5" d="M482.98 329.361L271.22 207.111L271.33 50.4408C271.33 48.8408 272.46 48.1908 273.85 48.9908L480.57 168.361C481.304 168.838 481.914 169.482 482.352 170.239C482.79 170.997 483.043 171.847 483.09 172.721L482.98 329.361Z" fill="url(#paint1_linear)"/>
<path opacity="0.4" d="M324.67 432.131L117.95 312.771C115.05 311.101 115.42 308.181 118.77 306.241L257.25 226.291C260.6 224.361 265.66 224.151 268.56 225.821L475.28 345.171C478.18 346.851 477.82 349.771 474.47 351.701L335.99 431.701C332.67 433.591 327.58 433.801 324.67 432.131Z" fill="#D6D8E5"/>
<path d="M329.19 429.421L122.47 310.061C119.57 308.391 119.93 305.471 123.28 303.531L261.77 223.531C265.11 221.601 270.18 221.391 273.08 223.061L479.8 342.461C482.7 344.141 482.34 347.061 478.99 348.991L340.51 428.991C337.16 430.881 332.09 431.091 329.19 429.421Z" fill="#B1B4C4"/>
<path d="M120.51 307.361V303.471L124.89 305.301L120.51 307.361Z" fill="#B1B4C4"/>
<path d="M481.76 345.381V341.571L478.52 342.681L480.67 345.841L481.76 345.381Z" fill="#B1B4C4"/>
<path d="M329.19 426.131L122.47 306.781C119.57 305.111 119.93 302.181 123.28 300.251L261.77 220.301C265.11 218.361 270.18 218.151 273.08 219.831L479.8 339.181C482.7 340.851 482.34 343.781 478.99 345.711L340.51 425.661C337.16 427.601 332.09 427.811 329.19 426.131Z" fill="#E4E7F2"/>
<path d="M329.19 425.631L122.47 306.271C119.57 304.601 119.93 301.681 123.28 299.741L261.77 219.791C265.11 217.861 270.18 217.651 273.08 219.321L479.8 338.671C482.7 340.351 482.34 343.271 478.99 345.201L340.51 425.201C337.16 427.091 332.09 427.301 329.19 425.631Z" fill="#D6D8E5"/>
<path d="M329.19 425.631L122.47 306.271C119.57 304.601 119.93 301.681 123.28 299.741L261.77 219.791C265.11 217.861 270.18 217.651 273.08 219.321L479.8 338.671C482.7 340.351 482.34 343.271 478.99 345.201L340.51 425.201C337.16 427.091 332.09 427.301 329.19 425.631Z" fill="url(#paint2_linear)"/>
<path d="M257.93 246.761L248.3 241.201C247.52 240.751 247.62 239.961 248.52 239.431L257.71 234.131C258.175 233.873 258.694 233.727 259.225 233.704C259.756 233.682 260.285 233.783 260.77 234.001L270.4 239.561C271.18 240.011 271.09 240.811 270.18 241.331L260.99 246.631C260.526 246.891 260.007 247.039 259.476 247.061C258.944 247.084 258.415 246.981 257.93 246.761Z" fill="#2B303F"/>
<path d="M271.56 254.631L261.93 249.071C261.15 248.621 261.24 247.821 262.15 247.301L271.34 242.001C271.804 241.74 272.323 241.593 272.855 241.57C273.386 241.548 273.916 241.651 274.4 241.871L284.02 247.431C284.81 247.881 284.71 248.671 283.8 249.201L274.62 254.501C274.155 254.759 273.637 254.905 273.106 254.927C272.575 254.95 272.045 254.848 271.56 254.631Z" fill="#2B303F"/>
<path d="M285.34 262.581L275.67 257.031C274.89 256.571 274.99 255.781 275.89 255.261L285.08 249.951C285.545 249.692 286.064 249.546 286.596 249.526C287.128 249.505 287.657 249.609 288.14 249.831L297.77 255.381C298.55 255.841 298.45 256.631 297.55 257.151L288.36 262.461C287.9 262.713 287.388 262.855 286.864 262.876C286.34 262.897 285.819 262.796 285.34 262.581Z" fill="#2B303F"/>
<path d="M298.81 270.361L289.18 264.801C288.4 264.351 288.5 263.561 289.4 263.031L298.59 257.731C299.055 257.473 299.574 257.327 300.105 257.304C300.636 257.282 301.165 257.383 301.65 257.601L311.28 263.161C312.06 263.611 311.96 264.411 311.06 264.931L301.87 270.231C301.406 270.491 300.887 270.638 300.356 270.661C299.824 270.684 299.295 270.581 298.81 270.361Z" fill="#2B303F"/>
<path d="M312.43 278.231L302.81 272.671C302.02 272.221 302.12 271.421 303.03 270.901L312.21 265.601C312.676 265.341 313.197 265.193 313.73 265.171C314.263 265.148 314.794 265.251 315.28 265.471L324.9 271.031C325.69 271.481 325.59 272.271 324.68 272.801L315.5 278.101C315.034 278.359 314.513 278.505 313.981 278.528C313.448 278.55 312.917 278.449 312.43 278.231Z" fill="#2B303F"/>
<path d="M326.06 286.091L316.43 280.541C315.65 280.081 315.75 279.291 316.65 278.771L325.84 273.461C326.305 273.202 326.824 273.056 327.356 273.036C327.888 273.015 328.417 273.119 328.9 273.341L338.53 278.891C339.31 279.351 339.21 280.141 338.31 280.661L329.12 285.971C328.655 286.229 328.136 286.375 327.605 286.396C327.073 286.417 326.544 286.312 326.06 286.091Z" fill="#2B303F"/>
<path d="M339.67 293.961L330.06 288.361C329.27 287.911 329.37 287.121 330.28 286.591L339.46 281.291C339.927 281.033 340.447 280.886 340.98 280.864C341.513 280.841 342.044 280.943 342.53 281.161L352.15 286.721C352.94 287.171 352.84 287.971 351.93 288.491L342.75 293.791C342.287 294.061 341.766 294.217 341.231 294.246C340.695 294.276 340.161 294.178 339.67 293.961Z" fill="#2B303F"/>
<path d="M353.31 301.831L343.67 296.271C342.88 295.821 342.98 295.021 343.89 294.501L353.07 289.201C353.534 288.941 354.053 288.793 354.585 288.771C355.116 288.748 355.646 288.851 356.13 289.071L365.76 294.631C366.55 295.081 366.45 295.871 365.54 296.401L356.35 301.701C355.888 301.956 355.373 302.1 354.846 302.123C354.318 302.145 353.793 302.045 353.31 301.831Z" fill="#2B303F"/>
<path d="M366.94 309.691L357.31 304.141C356.53 303.681 356.63 302.891 357.53 302.371L366.72 297.071C367.184 296.808 367.703 296.659 368.235 296.637C368.767 296.614 369.296 296.718 369.78 296.941L379.41 302.501C380.19 302.951 380.09 303.741 379.19 304.261L370 309.571C369.535 309.829 369.016 309.975 368.485 309.996C367.953 310.017 367.424 309.912 366.94 309.691Z" fill="#2B303F"/>
<path d="M380.56 317.561L370.94 312.001C370.15 311.551 370.25 310.761 371.16 310.231L380.34 304.931C380.807 304.672 381.328 304.526 381.861 304.506C382.394 304.485 382.925 304.589 383.41 304.811L393.03 310.361C393.82 310.821 393.72 311.611 392.81 312.131L383.63 317.431C383.164 317.691 382.644 317.839 382.111 317.861C381.578 317.884 381.047 317.781 380.56 317.561Z" fill="#2B303F"/>
<path d="M394.19 325.431L384.56 319.871C383.78 319.421 383.88 318.631 384.78 318.101L393.97 312.801C394.435 312.543 394.954 312.397 395.485 312.374C396.016 312.352 396.545 312.453 397.03 312.671L406.66 318.231C407.44 318.681 407.34 319.471 406.44 320.001L397.25 325.301C396.785 325.559 396.267 325.705 395.736 325.728C395.204 325.75 394.675 325.649 394.19 325.431Z" fill="#2B303F"/>
<path d="M407.81 333.291L398.19 327.741C397.4 327.281 397.5 326.491 398.41 325.971L407.59 320.671C408.056 320.41 408.577 320.263 409.11 320.24C409.643 320.218 410.174 320.321 410.66 320.541L420.28 326.101C421.07 326.551 420.97 327.341 420.06 327.861L410.88 333.171C410.414 333.43 409.893 333.575 409.36 333.596C408.826 333.617 408.296 333.512 407.81 333.291Z" fill="#2B303F"/>
<path d="M421.44 341.161L411.82 335.601C411.03 335.151 411.13 334.361 412.04 333.841L421.22 328.531C421.685 328.272 422.204 328.126 422.736 328.106C423.268 328.085 423.797 328.189 424.28 328.411L433.91 333.961C434.69 334.421 434.6 335.211 433.69 335.731L424.5 341.031C424.037 341.293 423.518 341.442 422.986 341.465C422.454 341.487 421.924 341.383 421.44 341.161Z" fill="#2B303F"/>
<path d="M441.67 352.821L425.48 343.471C424.7 343.021 424.79 342.231 425.7 341.701L434.89 336.401C435.355 336.143 435.874 335.997 436.405 335.974C436.936 335.952 437.465 336.053 437.95 336.271L454.14 345.621C454.92 346.071 454.82 346.861 453.92 347.391L444.73 352.691C444.265 352.949 443.747 353.095 443.216 353.118C442.685 353.14 442.155 353.039 441.67 352.821Z" fill="#2B303F"/>
<path d="M264.94 266.051L255.31 260.501C254.52 260.041 254.62 259.251 255.53 258.731L264.71 253.421C265.177 253.162 265.698 253.016 266.231 252.996C266.764 252.975 267.295 253.079 267.78 253.301L277.4 258.851C278.19 259.311 278.09 260.101 277.18 260.621L268 265.931C267.535 266.19 267.016 266.335 266.485 266.356C265.953 266.377 265.424 266.272 264.94 266.051Z" fill="#2B303F"/>
<path d="M278.58 273.931L268.96 268.361C268.17 267.901 268.27 267.111 269.18 266.591L278.36 261.281C278.827 261.022 279.348 260.876 279.881 260.855C280.414 260.835 280.945 260.939 281.43 261.161L291.05 266.711C291.84 267.171 291.74 267.961 290.83 268.481L281.67 273.811C281.201 274.073 280.677 274.22 280.14 274.241C279.603 274.262 279.068 274.156 278.58 273.931Z" fill="#2B303F"/>
<path d="M292.23 281.811L282.61 276.261C281.82 275.801 281.92 275.011 282.83 274.491L292.01 269.191C292.475 268.928 292.996 268.78 293.53 268.757C294.063 268.734 294.595 268.839 295.08 269.061L304.7 274.621C305.49 275.071 305.39 275.861 304.48 276.381L295.3 281.691C294.834 281.95 294.313 282.095 293.78 282.116C293.246 282.137 292.716 282.033 292.23 281.811Z" fill="#2B303F"/>
<path d="M305.88 289.691L296.26 284.141C295.47 283.681 295.57 282.891 296.48 282.371L305.66 277.071C306.126 276.81 306.647 276.663 307.18 276.641C307.713 276.618 308.244 276.721 308.73 276.941L318.35 282.501C319.14 282.951 319.04 283.741 318.13 284.261L308.95 289.571C308.484 289.83 307.963 289.975 307.43 289.996C306.896 290.017 306.366 289.912 305.88 289.691Z" fill="#2B303F"/>
<path d="M319.42 297.511L309.8 291.951C309.01 291.501 309.11 290.711 310.02 290.191L319.2 284.881C319.667 284.622 320.188 284.476 320.721 284.455C321.254 284.435 321.785 284.539 322.27 284.761L331.89 290.311C332.68 290.771 332.58 291.561 331.67 292.081L322.49 297.381C322.025 297.643 321.505 297.792 320.971 297.815C320.437 297.837 319.906 297.733 319.42 297.511Z" fill="#2B303F"/>
<path d="M333.07 305.361L323.45 299.811C322.66 299.351 322.76 298.561 323.67 298.041L332.85 292.731C333.317 292.472 333.838 292.326 334.371 292.306C334.904 292.285 335.435 292.389 335.92 292.611L345.54 298.161C346.33 298.621 346.23 299.411 345.32 299.931L336.14 305.241C335.674 305.5 335.153 305.645 334.62 305.666C334.086 305.687 333.556 305.583 333.07 305.361Z" fill="#2B303F"/>
<path d="M346.72 313.271L337.1 307.721C336.31 307.261 336.41 306.471 337.32 305.951L346.5 300.641C346.967 300.382 347.488 300.236 348.021 300.215C348.554 300.195 349.085 300.299 349.57 300.521L359.19 306.071C359.98 306.531 359.88 307.321 358.97 307.841L349.79 313.151C349.324 313.41 348.803 313.555 348.27 313.576C347.736 313.597 347.206 313.492 346.72 313.271Z" fill="#2B303F"/>
<path d="M360.37 321.151L350.75 315.601C349.96 315.141 350.06 314.351 350.97 313.831L360.15 308.521C360.615 308.262 361.134 308.116 361.666 308.096C362.198 308.075 362.727 308.179 363.21 308.401L372.84 313.951C373.63 314.411 373.53 315.201 372.62 315.721L363.44 321.031C362.974 321.29 362.453 321.435 361.92 321.456C361.386 321.477 360.856 321.372 360.37 321.151Z" fill="#2B303F"/>
<path d="M374.02 329.031L364.4 323.481C363.61 323.021 363.71 322.231 364.62 321.711L373.8 316.401C374.265 316.142 374.784 315.997 375.316 315.976C375.848 315.955 376.377 316.059 376.86 316.281L386.49 321.841C387.27 322.291 387.18 323.081 386.27 323.601L377.08 328.911C376.615 329.17 376.096 329.315 375.565 329.336C375.033 329.357 374.504 329.252 374.02 329.031Z" fill="#2B303F"/>
<path d="M387.67 336.911L378.04 331.361C377.26 330.901 377.36 330.111 378.26 329.591L387.45 324.291C387.914 324.03 388.433 323.883 388.965 323.86C389.496 323.838 390.026 323.941 390.51 324.161L400.14 329.721C400.92 330.171 400.83 330.961 399.92 331.481L390.73 336.791C390.265 337.049 389.746 337.195 389.215 337.216C388.683 337.237 388.154 337.132 387.67 336.911Z" fill="#2B303F"/>
<path d="M401.32 344.791L391.67 339.241C390.89 338.781 390.99 337.991 391.89 337.471L401.08 332.171C401.544 331.911 402.063 331.763 402.595 331.741C403.126 331.718 403.656 331.821 404.14 332.041L413.77 337.601C414.55 338.051 414.45 338.841 413.55 339.361L404.36 344.671C403.898 344.926 403.382 345.07 402.855 345.091C402.327 345.112 401.801 345.009 401.32 344.791Z" fill="#2B303F"/>
<path d="M414.97 352.681L405.34 347.121C404.56 346.661 404.66 345.871 405.56 345.351L414.75 340.051C415.214 339.79 415.733 339.643 416.265 339.62C416.796 339.598 417.326 339.701 417.81 339.921L427.44 345.481C428.22 345.931 428.12 346.721 427.22 347.251L418.03 352.551C417.565 352.809 417.047 352.955 416.516 352.977C415.985 353 415.455 352.898 414.97 352.681Z" fill="#2B303F"/>
<path d="M251.29 258.171L235.1 248.831C234.31 248.371 234.41 247.581 235.32 247.061L244.5 241.761C244.965 241.498 245.486 241.349 246.02 241.327C246.553 241.304 247.085 241.408 247.57 241.631L263.75 250.971C264.54 251.431 264.44 252.221 263.53 252.741L254.35 258.051C253.885 258.309 253.366 258.455 252.835 258.476C252.303 258.497 251.774 258.392 251.29 258.171Z" fill="#2B303F"/>
<path d="M440.97 353.361L431.35 347.811C430.907 347.587 430.417 347.47 429.92 347.47C429.424 347.47 428.934 347.587 428.49 347.811L418.78 353.361C418.607 353.419 418.457 353.53 418.35 353.678C418.244 353.826 418.186 354.003 418.186 354.186C418.186 354.368 418.244 354.546 418.35 354.694C418.457 354.842 418.607 354.953 418.78 355.011L419.55 355.451C419.71 355.503 419.85 355.605 419.949 355.742C420.047 355.878 420.101 356.042 420.101 356.211C420.101 356.379 420.047 356.543 419.949 356.68C419.85 356.816 419.71 356.918 419.55 356.971L409.29 362.891C408.49 363.351 408.49 364.091 409.29 364.541L415.42 368.081C415.864 368.305 416.354 368.422 416.85 368.422C417.347 368.422 417.837 368.305 418.28 368.081L427.87 362.541L429.87 361.391L431.3 360.571L432.74 359.741L441.01 354.961C441.75 354.511 441.76 353.781 440.97 353.361Z" fill="#2B303F"/>
<path d="M205.16 277.291L195.53 271.731C194.75 271.281 194.85 270.491 195.75 269.961L204.94 264.661C205.405 264.403 205.924 264.257 206.455 264.234C206.986 264.211 207.515 264.313 208 264.531L217.63 270.091C218.41 270.551 218.31 271.341 217.41 271.861L208.22 277.161C207.756 277.421 207.237 277.568 206.706 277.591C206.174 277.614 205.645 277.511 205.16 277.291Z" fill="#2B303F"/>
<path d="M218.74 285.141L209.12 279.581C208.33 279.121 208.43 278.331 209.34 277.811L218.52 272.511C218.986 272.25 219.507 272.103 220.04 272.08C220.573 272.058 221.104 272.161 221.59 272.381L231.21 277.941C232 278.391 231.9 279.181 230.99 279.711L221.81 285.011C221.344 285.269 220.823 285.415 220.291 285.438C219.758 285.46 219.227 285.359 218.74 285.141Z" fill="#2B303F"/>
<path d="M232.33 292.981L222.67 287.421C221.88 286.971 221.98 286.181 222.89 285.651L232.07 280.351C232.535 280.093 233.054 279.947 233.585 279.924C234.116 279.902 234.645 280.003 235.13 280.221L244.76 285.781C245.55 286.231 245.45 287.031 244.54 287.551L235.36 292.851C234.9 293.105 234.386 293.249 233.861 293.271C233.335 293.294 232.811 293.194 232.33 292.981Z" fill="#2B303F"/>
<path d="M348.04 359.781L338.41 354.231C337.63 353.771 337.73 352.981 338.63 352.461L347.82 347.161C348.284 346.898 348.803 346.75 349.335 346.727C349.867 346.704 350.396 346.808 350.88 347.031L360.51 352.591C361.29 353.041 361.2 353.831 360.29 354.351L351.1 359.661C350.635 359.92 350.116 360.065 349.585 360.086C349.053 360.107 348.524 360.002 348.04 359.781Z" fill="#2B303F"/>
<path d="M361.67 367.631L352.04 362.071C351.26 361.621 351.36 360.831 352.26 360.301L361.45 355.001C361.915 354.743 362.434 354.597 362.965 354.574C363.496 354.552 364.025 354.653 364.51 354.871L374.14 360.431C374.92 360.881 374.82 361.681 373.92 362.201L364.73 367.501C364.266 367.761 363.747 367.909 363.216 367.931C362.684 367.954 362.155 367.851 361.67 367.631Z" fill="#2B303F"/>
<path d="M375.21 375.471L365.59 369.921C364.8 369.461 364.9 368.671 365.81 368.151L374.99 362.841C375.457 362.582 375.978 362.436 376.511 362.415C377.044 362.395 377.575 362.499 378.06 362.721L387.68 368.271C388.47 368.731 388.37 369.521 387.46 370.041L378.28 375.361C377.813 375.618 377.292 375.762 376.758 375.781C376.225 375.8 375.695 375.694 375.21 375.471Z" fill="#2B303F"/>
<path d="M388.8 383.361L379.18 377.801C378.39 377.351 378.49 376.561 379.4 376.031L388.58 370.731C389.045 370.473 389.564 370.327 390.095 370.304C390.626 370.282 391.155 370.383 391.64 370.601L401.27 376.161C402.06 376.611 401.96 377.401 401.05 377.931L391.87 383.231C391.404 383.489 390.883 383.635 390.351 383.658C389.818 383.68 389.287 383.579 388.8 383.361Z" fill="#2B303F"/>
<path d="M249.42 302.841L236.29 295.271C235.51 294.811 235.61 294.021 236.51 293.501L245.7 288.201C246.164 287.938 246.683 287.79 247.215 287.767C247.747 287.744 248.276 287.849 248.76 288.071L261.89 295.651C262.67 296.101 262.57 296.891 261.67 297.411L252.48 302.721C252.015 302.98 251.496 303.125 250.965 303.146C250.433 303.167 249.904 303.062 249.42 302.841Z" fill="#2B303F"/>
<path d="M334.45 351.941L321.33 344.361C320.54 343.911 320.64 343.121 321.55 342.591L330.73 337.291C331.197 337.033 331.717 336.886 332.25 336.864C332.783 336.841 333.314 336.943 333.8 337.161L346.92 344.741C347.71 345.191 347.61 345.991 346.7 346.511L337.52 351.811C337.054 352.071 336.534 352.219 336.001 352.241C335.468 352.264 334.937 352.161 334.45 351.941Z" fill="#2B303F"/>
<path d="M317.37 342.071L253.37 305.131C252.59 304.681 252.68 303.891 253.59 303.361L262.78 298.061C263.245 297.803 263.764 297.657 264.295 297.634C264.826 297.612 265.355 297.713 265.84 297.931L329.84 334.881C330.63 335.331 330.53 336.121 329.62 336.641L320.44 341.951C319.974 342.211 319.453 342.358 318.92 342.379C318.386 342.399 317.855 342.294 317.37 342.071Z" fill="#2B303F"/>
<path d="M255.44 275.821L245.81 270.261C245.03 269.811 245.12 269.021 246.03 268.491L255.22 263.191C255.685 262.933 256.204 262.787 256.735 262.764C257.266 262.742 257.795 262.843 258.28 263.061L267.9 268.621C268.69 269.071 268.59 269.871 267.68 270.391L258.5 275.691C258.036 275.951 257.517 276.098 256.986 276.121C256.454 276.144 255.925 276.041 255.44 275.821Z" fill="#2B303F"/>
<path d="M269.05 283.681L259.42 278.121C258.64 277.671 258.73 276.871 259.64 276.351L268.83 271.051C269.294 270.79 269.813 270.643 270.345 270.62C270.876 270.598 271.406 270.701 271.89 270.921L281.51 276.481C282.3 276.931 282.2 277.721 281.29 278.251L272.11 283.551C271.645 283.809 271.127 283.955 270.596 283.977C270.064 284 269.535 283.898 269.05 283.681Z" fill="#2B303F"/>
<path d="M282.67 291.531L273.04 285.981C272.26 285.521 272.35 284.731 273.26 284.211L282.45 278.911C282.914 278.651 283.433 278.503 283.965 278.481C284.496 278.458 285.026 278.561 285.51 278.781L295.14 284.341C295.92 284.791 295.82 285.581 294.92 286.111L285.73 291.411C285.265 291.67 284.746 291.815 284.215 291.836C283.683 291.857 283.154 291.752 282.67 291.531Z" fill="#2B303F"/>
<path d="M296.27 299.361L286.67 293.841C285.89 293.381 285.99 292.591 286.89 292.071L296.08 286.761C296.545 286.502 297.064 286.356 297.596 286.336C298.128 286.315 298.657 286.419 299.14 286.641L308.77 292.191C309.55 292.651 309.45 293.441 308.55 293.961L299.36 299.271C298.889 299.53 298.363 299.673 297.826 299.689C297.289 299.704 296.756 299.592 296.27 299.361Z" fill="#2B303F"/>
<path d="M309.88 307.251L300.25 301.691C299.47 301.241 299.57 300.451 300.47 299.931L309.66 294.621C310.125 294.362 310.644 294.217 311.176 294.196C311.708 294.175 312.237 294.279 312.72 294.501L322.35 300.051C323.13 300.511 323.03 301.301 322.13 301.821L312.94 307.121C312.476 307.381 311.957 307.529 311.426 307.551C310.894 307.574 310.365 307.471 309.88 307.251Z" fill="#2B303F"/>
<path d="M323.49 315.111L313.86 309.551C313.08 309.101 313.18 308.311 314.08 307.781L323.27 302.481C323.735 302.223 324.254 302.077 324.785 302.054C325.316 302.032 325.845 302.133 326.33 302.351L335.96 307.911C336.74 308.361 336.64 309.161 335.74 309.681L326.55 314.981C326.086 315.241 325.567 315.388 325.036 315.411C324.504 315.434 323.975 315.331 323.49 315.111Z" fill="#2B303F"/>
<path d="M337.1 322.971L327.47 317.411C326.69 316.961 326.79 316.161 327.69 315.641L336.88 310.341C337.344 310.081 337.863 309.933 338.395 309.911C338.926 309.888 339.456 309.991 339.94 310.211L349.57 315.771C350.35 316.221 350.25 317.011 349.35 317.541L340.16 322.841C339.695 323.099 339.177 323.245 338.646 323.267C338.114 323.29 337.585 323.188 337.1 322.971Z" fill="#2B303F"/>
<path d="M350.67 330.831L341.04 325.271C340.26 324.811 340.36 324.021 341.26 323.501L350.45 318.201C350.914 317.941 351.433 317.793 351.965 317.771C352.496 317.748 353.026 317.851 353.51 318.071L363.14 323.631C363.92 324.081 363.83 324.871 362.92 325.401L353.73 330.701C353.265 330.959 352.747 331.105 352.216 331.128C351.684 331.15 351.155 331.049 350.67 330.831Z" fill="#2B303F"/>
<path d="M364.32 338.681L354.67 333.131C353.88 332.671 353.98 331.881 354.89 331.361L364.07 326.051C364.535 325.792 365.054 325.646 365.586 325.626C366.118 325.605 366.647 325.709 367.13 325.931L376.76 331.481C377.54 331.941 377.45 332.731 376.54 333.251L367.35 338.561C366.889 338.815 366.375 338.958 365.85 338.979C365.324 338.999 364.8 338.897 364.32 338.681Z" fill="#2B303F"/>
<path d="M377.93 346.541L368.31 340.981C367.52 340.531 367.62 339.741 368.53 339.221L377.71 333.911C378.175 333.652 378.694 333.506 379.226 333.486C379.758 333.465 380.287 333.569 380.77 333.791L390.4 339.341C391.19 339.801 391.09 340.591 390.18 341.111L381 346.411C380.535 346.673 380.015 346.822 379.481 346.845C378.947 346.867 378.416 346.763 377.93 346.541Z" fill="#2B303F"/>
<path d="M391.54 354.361L381.92 348.801C381.13 348.351 381.23 347.561 382.14 347.031L391.32 341.731C391.787 341.473 392.307 341.327 392.84 341.304C393.373 341.282 393.904 341.383 394.39 341.601L404.01 347.161C404.8 347.611 404.7 348.411 403.79 348.931L394.61 354.231C394.144 354.491 393.624 354.639 393.091 354.661C392.558 354.684 392.027 354.581 391.54 354.361Z" fill="#2B303F"/>
<path d="M405.15 362.261L395.53 356.701C394.74 356.251 394.84 355.461 395.75 354.931L404.93 349.631C405.397 349.373 405.917 349.227 406.45 349.204C406.983 349.181 407.514 349.283 408 349.501L417.67 355.061C418.46 355.511 418.36 356.301 417.45 356.831L408.27 362.131C407.797 362.397 407.268 362.548 406.726 362.57C406.184 362.593 405.644 362.487 405.15 362.261Z" fill="#2B303F"/>
<path d="M241.83 267.961L221.92 256.471C221.13 256.011 221.23 255.221 222.14 254.701L231.32 249.401C231.786 249.14 232.307 248.993 232.84 248.97C233.373 248.948 233.904 249.051 234.39 249.271L254.29 260.761C255.08 261.221 254.98 262.011 254.07 262.531L244.89 267.831C244.426 268.091 243.907 268.238 243.376 268.261C242.844 268.284 242.315 268.181 241.83 267.961Z" fill="#2B303F"/>
<path d="M235.47 279.541L225.85 273.991C225.06 273.531 225.16 272.741 226.07 272.221L235.25 266.911C235.717 266.652 236.238 266.506 236.771 266.486C237.304 266.465 237.835 266.569 238.32 266.791L247.94 272.341C248.73 272.801 248.63 273.591 247.72 274.111L238.54 279.421C238.074 279.68 237.553 279.825 237.02 279.846C236.486 279.867 235.956 279.762 235.47 279.541Z" fill="#2B303F"/>
<path d="M249.08 287.361L239.46 281.801C238.67 281.351 238.77 280.561 239.68 280.031L248.86 274.731C249.325 274.473 249.844 274.327 250.375 274.304C250.906 274.282 251.435 274.383 251.92 274.601L261.55 280.161C262.33 280.611 262.24 281.411 261.33 281.931L252.14 287.231C251.676 287.491 251.157 287.638 250.626 287.661C250.094 287.684 249.565 287.581 249.08 287.361Z" fill="#2B303F"/>
<path d="M262.67 295.261L253.04 289.701C252.26 289.251 252.36 288.451 253.26 287.931L262.45 282.631C262.914 282.371 263.433 282.223 263.965 282.201C264.496 282.178 265.026 282.281 265.51 282.501L275.14 288.061C275.92 288.511 275.82 289.301 274.92 289.831L265.73 295.131C265.265 295.389 264.747 295.535 264.216 295.558C263.684 295.58 263.155 295.479 262.67 295.261Z" fill="#2B303F"/>
<path d="M276.3 303.111L266.67 297.561C265.89 297.101 265.99 296.311 266.89 295.791L276.08 290.481C276.545 290.222 277.064 290.076 277.596 290.056C278.128 290.035 278.657 290.139 279.14 290.361L288.77 295.911C289.55 296.371 289.45 297.161 288.55 297.681L279.36 302.991C278.895 303.25 278.376 303.395 277.845 303.416C277.313 303.437 276.784 303.332 276.3 303.111Z" fill="#2B303F"/>
<path d="M289.91 310.971L280.28 305.411C279.5 304.961 279.59 304.171 280.5 303.641L289.67 298.361C290.135 298.103 290.654 297.957 291.185 297.934C291.716 297.912 292.245 298.013 292.73 298.231L302.35 303.791C303.14 304.241 303.04 305.041 302.13 305.561L292.95 310.861C292.487 311.115 291.971 311.257 291.443 311.276C290.916 311.295 290.391 311.191 289.91 310.971Z" fill="#2B303F"/>
<path d="M303.51 318.831L293.89 313.271C293.1 312.821 293.2 312.021 294.11 311.501L303.29 306.201C303.756 305.94 304.277 305.793 304.81 305.77C305.343 305.748 305.874 305.851 306.36 306.071L315.98 311.631C316.77 312.081 316.67 312.871 315.76 313.401L306.58 318.701C306.114 318.959 305.593 319.105 305.061 319.128C304.528 319.15 303.997 319.049 303.51 318.831Z" fill="#2B303F"/>
<path d="M317.12 326.681L307.5 321.131C306.71 320.671 306.81 319.881 307.72 319.361L316.9 314.051C317.367 313.792 317.888 313.646 318.421 313.625C318.954 313.605 319.485 313.709 319.97 313.931L329.59 319.481C330.38 319.941 330.28 320.731 329.37 321.251L320.19 326.561C319.724 326.82 319.203 326.965 318.67 326.986C318.136 327.007 317.606 326.902 317.12 326.681Z" fill="#2B303F"/>
<path d="M330.73 334.541L321.11 328.981C320.32 328.531 320.42 327.741 321.33 327.211L330.51 321.911C330.975 321.653 331.494 321.507 332.025 321.484C332.556 321.461 333.085 321.563 333.57 321.781L343.2 327.341C343.98 327.801 343.89 328.591 342.98 329.111L333.79 334.411C333.326 334.671 332.807 334.818 332.276 334.841C331.744 334.864 331.215 334.761 330.73 334.541Z" fill="#2B303F"/>
<path d="M344.34 342.361L334.67 336.841C333.89 336.391 333.99 335.591 334.89 335.071L344.08 329.771C344.544 329.51 345.063 329.363 345.595 329.34C346.126 329.318 346.656 329.421 347.14 329.641L356.77 335.201C357.55 335.651 357.45 336.441 356.55 336.971L347.36 342.271C346.897 342.516 346.384 342.652 345.861 342.667C345.337 342.683 344.817 342.578 344.34 342.361Z" fill="#2B303F"/>
<path d="M357.95 350.251L348.32 344.701C347.54 344.241 347.64 343.451 348.54 342.931L357.73 337.631C358.194 337.368 358.713 337.219 359.245 337.197C359.777 337.174 360.306 337.278 360.79 337.501L370.42 343.061C371.2 343.511 371.1 344.301 370.2 344.821L361.01 350.131C360.545 350.39 360.026 350.535 359.495 350.556C358.963 350.577 358.434 350.472 357.95 350.251Z" fill="#2B303F"/>
<path d="M371.56 358.111L361.93 352.551C361.15 352.101 361.24 351.311 362.15 350.781L371.34 345.481C371.805 345.223 372.324 345.077 372.855 345.054C373.386 345.032 373.915 345.133 374.4 345.351L384.02 350.911C384.81 351.371 384.71 352.161 383.8 352.681L374.62 357.981C374.156 358.241 373.637 358.388 373.106 358.411C372.574 358.434 372.045 358.331 371.56 358.111Z" fill="#2B303F"/>
<path d="M402.01 375.691L375.54 360.411C374.75 359.961 374.85 359.171 375.76 358.641L384.94 353.341C385.407 353.083 385.927 352.937 386.46 352.914C386.993 352.891 387.524 352.993 388.01 353.211L414.48 368.491C415.26 368.951 415.16 369.741 414.26 370.261L405.07 375.571C404.605 375.83 404.086 375.975 403.555 375.996C403.023 376.017 402.494 375.912 402.01 375.691Z" fill="#2B303F"/>
<path d="M221.86 271.691L208.74 264.111C207.95 263.661 208.05 262.861 208.96 262.341L218.14 257.041C218.606 256.78 219.127 256.633 219.66 256.61C220.193 256.588 220.724 256.691 221.21 256.911L234.33 264.491C235.12 264.941 235.02 265.731 234.11 266.261L224.93 271.561C224.464 271.819 223.943 271.965 223.411 271.988C222.878 272.01 222.347 271.909 221.86 271.691Z" fill="#2B303F"/>
<path d="M455.3 344.921L262.03 233.361C261.25 232.911 261.34 232.111 262.25 231.591L266.84 228.941C267.307 228.683 267.827 228.537 268.36 228.514C268.893 228.492 269.424 228.593 269.91 228.811L463.18 340.361C463.96 340.811 463.86 341.601 462.96 342.131L458.36 344.781C457.897 345.043 457.379 345.192 456.847 345.216C456.315 345.241 455.786 345.139 455.3 344.921Z" fill="#2B303F"/>
<path d="M335.57 357.611C335.297 358.211 334.828 358.702 334.24 359.001L281.05 389.701C280.157 390.201 279.158 390.484 278.135 390.527C277.112 390.57 276.093 390.373 275.16 389.951L184.27 337.471C183.856 337.255 183.531 336.901 183.35 336.471C183.02 335.671 183.48 334.731 184.69 334.031L237.88 303.361C238.776 302.865 239.774 302.585 240.797 302.543C241.82 302.501 242.838 302.699 243.77 303.121L334.67 355.601C335.052 355.753 335.36 356.048 335.528 356.423C335.696 356.798 335.711 357.224 335.57 357.611Z" fill="#B1B4C4"/>
<path d="M335.57 357.611C335.297 358.212 334.828 358.702 334.24 359.001L281.05 389.701C280.157 390.201 279.158 390.484 278.135 390.527C277.112 390.571 276.093 390.373 275.16 389.951L184.27 337.471C183.856 337.255 183.531 336.901 183.35 336.471C183.63 335.891 184.095 335.42 184.67 335.131L237.86 304.431C238.754 303.931 239.753 303.648 240.776 303.605C241.799 303.561 242.818 303.759 243.75 304.181L334.67 356.661C335.066 356.871 335.382 357.204 335.57 357.611Z" fill="url(#paint3_linear)"/>
<path d="M470.01 336.461L276.74 224.881C276.309 224.569 275.956 224.161 275.709 223.689C275.463 223.216 275.33 222.693 275.32 222.161V219.891C275.32 218.841 275.96 218.361 276.74 218.811L470.01 330.361C470.444 330.671 470.799 331.078 471.046 331.551C471.292 332.024 471.424 332.548 471.43 333.081V335.361C471.43 336.431 470.8 336.911 470.01 336.461Z" fill="#2B303F"/>
<path d="M354.25 118.121L287.25 79.4607C286.944 79.2377 286.694 78.9462 286.52 78.6093C286.347 78.2725 286.254 77.8997 286.25 77.5207V72.8507C286.25 72.1007 286.71 71.7507 287.25 72.0807L354.25 110.741C354.557 110.964 354.807 111.255 354.98 111.592C355.154 111.929 355.246 112.302 355.25 112.681V117.361C355.27 118.101 354.81 118.451 354.25 118.121Z" fill="#E9EAF2"/>
<path d="M337.05 119.241L287.6 90.6908C287.286 90.4613 287.032 90.16 286.858 89.8121C286.684 89.4642 286.595 89.0798 286.6 88.6908V86.4208C286.6 85.6708 287.05 85.3208 287.6 85.6508L337.05 114.201C337.364 114.43 337.619 114.732 337.793 115.08C337.967 115.427 338.055 115.812 338.05 116.201V118.521C338.07 119.221 337.67 119.561 337.05 119.241Z" fill="#E9EAF2"/>
<path d="M337.05 128.051L287.6 99.5008C287.286 99.2712 287.032 98.97 286.858 98.6221C286.684 98.2742 286.595 97.8897 286.6 97.5008V95.2308C286.6 94.4808 287.05 94.1408 287.6 94.4608L337.05 123.021C337.358 123.242 337.61 123.533 337.784 123.871C337.957 124.208 338.049 124.581 338.05 124.961V127.281C338.07 128.031 337.67 128.361 337.05 128.051Z" fill="#E9EAF2"/>
<path d="M327.73 131.481L287.6 108.361C287.292 108.14 287.041 107.848 286.867 107.511C286.693 107.174 286.602 106.8 286.6 106.421V104.041C286.6 103.291 287.05 102.951 287.6 103.271L327.73 126.441C328.044 126.671 328.298 126.972 328.472 127.32C328.646 127.668 328.734 128.052 328.73 128.441V130.761C328.74 131.461 328.29 131.801 327.73 131.481Z" fill="#6E9569"/>
<path d="M354.25 210.641L287.25 171.981C286.937 171.75 286.684 171.449 286.51 171.101C286.336 170.753 286.247 170.37 286.25 169.981V165.361C286.25 164.611 286.71 164.271 287.25 164.591L354.25 203.251C354.563 203.482 354.817 203.783 354.991 204.131C355.165 204.478 355.253 204.862 355.25 205.251V209.921C355.27 210.621 354.81 210.961 354.25 210.641Z" fill="#E9EAF2"/>
<path d="M337.05 211.761L287.6 183.201C287.292 182.98 287.041 182.688 286.867 182.351C286.693 182.014 286.602 181.64 286.6 181.261V178.941C286.6 178.191 287.05 177.841 287.6 178.171L337.05 206.721C337.357 206.943 337.608 207.235 337.781 207.572C337.955 207.909 338.047 208.282 338.05 208.661V210.991C338.07 211.741 337.67 212.081 337.05 211.761Z" fill="#E9EAF2"/>
<path d="M337.05 220.571L287.6 192.021C287.293 191.796 287.043 191.503 286.869 191.164C286.695 190.826 286.603 190.451 286.6 190.071V187.751C286.6 187.001 287.05 186.651 287.6 186.981L337.05 215.531C337.364 215.76 337.619 216.062 337.793 216.41C337.967 216.758 338.055 217.142 338.05 217.531V219.851C338.07 220.551 337.67 220.891 337.05 220.571Z" fill="#E9EAF2"/>
<path d="M327.73 224.001L287.6 200.831C287.293 200.606 287.043 200.313 286.869 199.974C286.695 199.636 286.603 199.261 286.6 198.881V196.561C286.6 195.811 287.05 195.471 287.6 195.791L327.73 218.961C328.037 219.183 328.288 219.475 328.461 219.812C328.635 220.149 328.727 220.522 328.73 220.901V223.231C328.74 223.981 328.29 224.361 327.73 224.001Z" fill="#6E9569"/>
<path d="M372.17 222.121C372.17 222.121 379.56 228.321 390.22 219.851C397.84 213.601 404.65 217.171 408.44 219.331C412.23 221.491 417.75 222.781 428.15 241.621C430.4 245.325 433.481 248.455 437.15 250.761C442.76 253.991 445.45 252.421 449.86 245.761C454.27 239.101 457.15 231.761 465.25 236.561V303.361L371.45 249.211V221.681L372.17 222.121Z" fill="#F5F6FF"/>
<path d="M351.79 193.801L287.6 156.741C287.293 156.516 287.043 156.223 286.869 155.884C286.695 155.546 286.603 155.171 286.6 154.791V117.791C286.6 117.041 287.05 116.701 287.6 117.021L351.79 154.081C352.097 154.306 352.347 154.599 352.521 154.938C352.694 155.276 352.786 155.65 352.79 156.031V193.031C352.8 193.781 352.35 194.121 351.79 193.801Z" fill="#E9EAF2"/>
<path d="M371.44 220.561V249.241L465.24 303.391V236.581" stroke="#E9EAF2" stroke-width="0.22" stroke-miterlimit="10"/>
<path d="M408.31 219.651V270.451" stroke="#E9EAF2" stroke-width="0.22" stroke-miterlimit="10"/>
<path d="M437 251.781V287.021" stroke="#E9EAF2" stroke-width="0.22" stroke-miterlimit="10"/>
<path d="M371.44 221.681C388.08 232.001 390.44 208.681 408.57 219.141C426.7 229.601 424.2 243.251 437.57 250.981C450.94 258.711 451.27 228.521 465.23 236.581" stroke="#E9EAF2" stroke-width="1.09" stroke-miterlimit="10"/>
<path d="M409.88 222.368C410.746 221.868 410.747 220.249 409.883 218.752C409.018 217.255 407.616 216.447 406.75 216.947C405.885 217.446 405.883 219.065 406.748 220.562C407.612 222.059 409.015 222.868 409.88 222.368Z" fill="#6E9569"/>
<path d="M468.231 240.2C469.101 239.701 469.105 238.076 468.241 236.572C467.377 235.068 465.971 234.254 465.101 234.754C464.232 235.254 464.227 236.878 465.091 238.382C465.956 239.886 467.362 240.7 468.231 240.2Z" fill="#6E9569"/>
<path d="M439.887 254.826C440.757 254.327 440.761 252.702 439.897 251.198C439.033 249.694 437.627 248.88 436.757 249.38C435.888 249.88 435.883 251.504 436.748 253.008C437.612 254.512 439.018 255.326 439.887 254.826Z" fill="#6E9569"/>
<path d="M374.065 225.237C374.935 224.737 374.939 223.113 374.075 221.609C373.211 220.105 371.805 219.291 370.935 219.791C370.065 220.291 370.061 221.915 370.925 223.419C371.79 224.923 373.195 225.737 374.065 225.237Z" fill="#6E9569"/>
<path d="M374.09 172.411L370.25 170.191C369.944 169.968 369.694 169.676 369.52 169.339C369.347 169.002 369.254 168.63 369.25 168.251V149.681C369.25 148.931 369.71 148.591 370.25 148.911L374.09 151.131C374.396 151.354 374.646 151.646 374.819 151.983C374.993 152.319 375.086 152.692 375.09 153.071V171.651C375.11 172.361 374.67 172.741 374.09 172.411Z" fill="#E9EAF2"/>
<path d="M382.95 177.531L379.1 175.361C378.794 175.135 378.545 174.842 378.371 174.503C378.198 174.165 378.105 173.791 378.1 173.411V135.581C378.1 134.831 378.56 134.491 379.1 134.811L382.95 137.031C383.264 137.261 383.518 137.562 383.692 137.91C383.866 138.258 383.954 138.642 383.95 139.031V176.761C383.96 177.511 383.51 177.851 382.95 177.531Z" fill="#6E9569"/>
<path d="M400.67 187.751L396.83 185.531C396.523 185.306 396.273 185.013 396.099 184.674C395.925 184.336 395.833 183.961 395.83 183.581V149.471C395.83 148.721 396.28 148.381 396.83 148.701L400.67 150.921C400.976 151.146 401.226 151.44 401.399 151.778C401.573 152.117 401.666 152.491 401.67 152.871V186.981C401.67 187.731 401.21 188.071 400.67 187.751Z" fill="#E9EAF2"/>
<path d="M409.5 192.861L405.67 190.641C405.364 190.417 405.115 190.125 404.941 189.789C404.768 189.452 404.675 189.08 404.67 188.701V160.431C404.67 159.681 405.13 159.341 405.67 159.661L409.51 161.881C409.817 162.105 410.068 162.399 410.242 162.737C410.415 163.076 410.507 163.45 410.51 163.831V192.091C410.52 192.841 410.07 193.181 409.5 192.861Z" fill="#6E9569"/>
<path d="M427.13 203.041L423.29 200.821C422.977 200.59 422.724 200.289 422.55 199.941C422.376 199.593 422.287 199.21 422.29 198.821V184.821C422.29 184.071 422.75 183.731 423.29 184.051L427.13 186.271C427.437 186.495 427.688 186.789 427.862 187.127C428.035 187.466 428.127 187.84 428.13 188.221V202.221C428.15 203.021 427.67 203.361 427.13 203.041Z" fill="#E9EAF2"/>
<path d="M435.99 208.151L432.14 205.931C431.834 205.705 431.585 205.412 431.411 205.073C431.238 204.735 431.145 204.361 431.14 203.981V156.481C431.14 155.731 431.6 155.381 432.14 155.711L435.99 157.931C436.297 158.153 436.548 158.445 436.721 158.782C436.895 159.119 436.987 159.492 436.99 159.871V207.361C437 208.131 436.55 208.471 435.99 208.151Z" fill="#6E9569"/>
<path d="M457.59 220.621L453.74 218.361C453.434 218.135 453.185 217.842 453.011 217.503C452.838 217.165 452.745 216.791 452.74 216.411V202.411C452.74 201.661 453.2 201.311 453.74 201.641L457.59 203.861C457.897 204.083 458.148 204.375 458.321 204.712C458.495 205.049 458.587 205.422 458.59 205.801V219.801C458.6 220.601 458.15 220.941 457.59 220.621Z" fill="#E9EAF2"/>
<path d="M466.44 225.731L462.59 223.511C462.283 223.288 462.033 222.997 461.859 222.66C461.685 222.323 461.593 221.95 461.59 221.571V203.001C461.59 202.251 462.04 201.901 462.59 202.231L466.44 204.451C466.747 204.674 466.997 204.965 467.17 205.302C467.344 205.639 467.436 206.012 467.44 206.391V224.961C467.46 225.711 467 226.051 466.44 225.731Z" fill="#6E9569"/>
<path opacity="0.4" d="M113.975 496.431L14.9954 439.281L150.965 360.781L249.945 417.921L113.975 496.431Z" fill="#D6D8E5"/>
<path d="M250.295 414.031L154.585 358.761L21.8654 435.391L18.6053 433.511V437.271L117.585 494.411L253.555 415.911V412.151L250.295 414.031Z" fill="#B1B4C4"/>
<path d="M117.585 490.651L18.6053 433.511L154.585 355.001L253.555 412.151L117.585 490.651Z" fill="#FAFBFF"/>
<path d="M224.335 418.211L144.975 372.391L152.835 367.851L232.205 413.671L224.335 418.211Z" fill="#E9EAF2"/>
<path d="M215.965 423.051L136.605 377.231L140.535 374.961L219.895 420.781L215.965 423.051Z" fill="#E9EAF2"/>
<path d="M209.475 426.791L130.115 380.971L134.045 378.701L213.405 424.521L209.475 426.791Z" fill="#E9EAF2"/>
<path d="M202.995 430.541L123.635 384.721L127.565 382.451L206.925 428.271L202.995 430.541Z" fill="#E9EAF2"/>
<path d="M155.435 458.001L76.0653 412.181L83.9353 407.641L163.285 453.461L155.435 458.001Z" fill="#E9EAF2"/>
<path d="M141.625 459.701L67.6953 417.011L71.6253 414.741L145.555 457.431L141.625 459.701Z" fill="#E9EAF2"/>
<path d="M133.665 462.591L61.2053 420.761L65.1353 418.491L137.595 460.321L133.665 462.591Z" fill="#E9EAF2"/>
<path d="M115.975 459.871L54.7253 424.501L58.6554 422.231L119.905 457.601L115.975 459.871Z" fill="#E9EAF2"/>
<path d="M115.355 415.061L93.2153 402.281L115.355 389.501L137.495 402.281L115.355 415.061Z" fill="#E9EAF2"/>
<path d="M143.965 431.581L121.825 418.801L143.965 406.011L166.105 418.801L143.965 431.581Z" fill="#E9EAF2"/>
<path d="M172.575 448.101L150.435 435.311L172.575 422.531L194.715 435.321L172.575 448.101Z" fill="#E9EAF2"/>
<path d="M186.765 397.841C185.208 396.419 183.498 395.175 181.665 394.131C167.815 386.131 145.295 386.131 131.455 394.131C129.317 395.34 127.353 396.834 125.615 398.571C118.005 406.381 119.955 416.481 131.455 423.121C145.295 431.121 167.825 431.121 181.665 423.121C193.525 416.271 195.225 405.741 186.765 397.841ZM177.255 420.531C165.845 427.121 147.255 427.121 135.875 420.531C127.875 415.911 125.475 409.251 128.705 403.411C130.444 400.551 132.921 398.213 135.875 396.641C147.285 390.061 165.875 390.061 177.255 396.641C180.206 398.21 182.677 400.55 184.405 403.411C187.645 409.291 185.255 415.941 177.255 420.531Z" fill="#B1B4C4"/>
<path d="M184.405 403.451C182.677 400.59 180.206 398.25 177.255 396.681C165.845 390.101 147.255 390.101 135.875 396.681C132.921 398.253 130.444 400.592 128.705 403.451L125.615 398.531L125.055 397.641L129.055 388.091L142.945 380.371L168.805 380.821L186.375 391.241C186.375 391.241 186.695 394.541 186.735 397.801C186.805 401.881 186.405 405.851 184.405 403.451Z" fill="#A1A5B5"/>
<path d="M121.075 408.531L121.085 397.681L126.465 406.791L121.075 408.531Z" fill="#B1B4C4"/>
<path d="M192.045 408.531V397.741L187.305 403.111L192.045 408.531Z" fill="#B1B4C4"/>
<path opacity="0.1" d="M156.885 420.161C173.2 420.161 186.425 412.527 186.425 403.111C186.425 393.695 173.2 386.061 156.885 386.061C140.571 386.061 127.345 393.695 127.345 403.111C127.345 412.527 140.571 420.161 156.885 420.161Z" fill="#3E7EFF"/>
<path d="M123.775 410.361C123.775 410.361 128.325 428.281 162.255 427.361C185.805 427.361 188.815 407.121 188.255 404.241C185.839 407.57 182.725 410.332 179.131 412.332C175.536 414.332 171.548 415.523 167.445 415.821C153.115 417.071 142.535 416.911 136.875 414.171C131.215 411.431 123.785 404.241 123.785 404.241L123.775 410.361Z" fill="#B1B4C4"/>
<path d="M131.455 412.781C117.615 404.781 117.615 391.781 131.455 383.781C145.295 375.781 167.825 375.781 181.665 383.781C195.505 391.781 195.505 404.781 181.665 412.781C167.825 420.781 145.295 420.771 131.455 412.781ZM177.245 386.341C165.835 379.761 147.245 379.751 135.875 386.341C124.505 392.931 124.465 403.641 135.875 410.231C147.285 416.821 165.875 416.821 177.245 410.231C188.615 403.641 188.705 392.931 177.245 386.341Z" fill="url(#paint4_linear)"/>
<path opacity="0.1" d="M84.646 454.273C86.5114 453.196 86.5125 449.706 84.6485 446.477C82.7846 443.249 79.7614 441.505 77.896 442.581C76.0307 443.658 76.0296 447.149 77.8936 450.377C79.7575 453.606 82.7807 455.35 84.646 454.273Z" fill="black"/>
<path d="M135.095 417.311L120.155 425.941L115.545 423.271L130.485 414.651L135.095 417.311Z" fill="#B1B4C4"/>
<path d="M135.095 422.631L120.155 431.251V425.931L135.095 417.301V422.631Z" fill="#A1A5B5"/>
<path d="M123.205 429.711C123.116 428.055 122.637 426.443 121.808 425.006C120.98 423.569 119.824 422.348 118.435 421.441C117.959 421.097 117.402 420.883 116.818 420.819C116.234 420.756 115.644 420.846 115.105 421.081L77.9253 442.531L84.7053 454.171L121.425 432.971C122.515 432.581 123.205 431.441 123.205 429.711Z" fill="url(#paint5_linear)"/>
<path d="M84.646 454.273C86.5114 453.196 86.5125 449.706 84.6485 446.477C82.7846 443.249 79.7614 441.505 77.896 442.581C76.0307 443.658 76.0296 447.149 77.8936 450.377C79.7575 453.606 82.7807 455.35 84.646 454.273Z" fill="#4F604D"/>
<path opacity="0.4" d="M482.915 442.611L424.615 408.961C424.119 408.672 423.708 408.258 423.422 407.761C423.136 407.263 422.985 406.7 422.985 406.126C422.985 405.552 423.136 404.988 423.422 404.491C423.708 403.993 424.119 403.579 424.615 403.291C425.113 403.001 425.679 402.848 426.255 402.848C426.832 402.848 427.397 403.001 427.895 403.291L486.185 436.941C486.713 437.247 487.144 437.695 487.431 438.233C487.718 438.772 487.849 439.38 487.81 439.988C487.77 440.597 487.562 441.183 487.208 441.68C486.854 442.176 486.368 442.565 485.805 442.801C485.341 442.992 484.839 443.074 484.338 443.041C483.837 443.008 483.351 442.861 482.915 442.611Z" fill="#D6D8E5"/>
<path d="M457.745 422.261C436.885 410.211 419.915 380.821 419.915 356.731C419.915 332.641 436.915 322.841 457.745 334.891C478.575 346.941 495.615 376.331 495.615 400.421C495.615 424.511 478.615 434.301 457.745 422.261ZM457.745 342.711C440.625 332.821 426.685 340.861 426.685 360.641C426.685 380.421 440.615 404.531 457.745 414.441C474.875 424.351 488.815 416.281 488.815 396.531C488.815 376.781 474.875 352.591 457.745 342.711Z" fill="#5F8F7C"/>
<path d="M425.815 335.161L432.755 331.381L431.715 336.131L425.815 335.161Z" fill="#5F8F7C"/>
<path d="M478.055 428.391C478.225 428.311 485.635 424.171 485.635 424.171L479.905 423.251L478.055 428.391Z" fill="#5F8F7C"/>
<path d="M477.284 423.452C490.738 415.684 490.739 390.496 477.285 367.194C463.832 343.891 442.018 331.298 428.564 339.066C415.11 346.834 415.109 372.021 428.563 395.324C442.016 418.626 463.83 431.22 477.284 423.452Z" fill="#F4F4F4"/>
<path d="M452.925 424.941C432.065 412.891 415.085 383.501 415.085 359.411C415.085 335.321 432.085 325.521 452.925 337.571C473.765 349.621 490.755 379.011 490.755 403.101C490.755 427.191 473.785 436.981 452.925 424.941ZM452.925 345.391C435.795 335.501 421.865 343.541 421.865 363.321C421.865 383.101 435.795 407.231 452.925 417.121C470.055 427.011 483.985 418.961 483.985 399.191C483.985 379.421 470.055 355.271 452.925 345.391Z" fill="#6E9569"/>
<path d="M452.925 408.321C439.995 400.851 429.485 382.641 429.485 367.721C429.485 352.801 439.995 346.721 452.925 354.191C465.855 361.661 476.365 379.861 476.365 394.781C476.365 409.701 465.845 415.781 452.925 408.321ZM452.925 362.011C443.735 356.701 436.255 361.011 436.255 371.631C436.255 382.251 443.735 395.191 452.925 400.501C462.115 405.811 469.615 401.531 469.615 390.871C469.615 380.211 462.115 367.311 452.925 362.011Z" fill="#6E9569"/>
<path d="M452.925 391.961C447.815 388.961 443.655 381.801 443.655 375.901C443.655 370.001 447.815 367.601 452.925 370.551C458.035 373.501 462.195 380.701 462.195 386.601C462.195 392.501 458.035 394.911 452.925 391.961ZM452.925 378.371C451.545 377.571 450.425 378.221 450.425 379.811C450.474 380.678 450.725 381.522 451.159 382.274C451.593 383.026 452.198 383.665 452.925 384.141C454.305 384.931 455.425 384.291 455.425 382.691C455.378 381.825 455.127 380.982 454.693 380.231C454.258 379.481 453.653 378.843 452.925 378.371Z" fill="#6E9569"/>
<path d="M388.465 417.931L384.995 417.971L396.255 413.191L389.725 417.251L388.465 417.931Z" fill="#2B303F"/>
<path d="M389.962 419.539C390.306 419.34 390.306 418.694 389.961 418.096C389.615 417.499 389.056 417.175 388.712 417.374C388.368 417.573 388.368 418.219 388.714 418.816C389.059 419.414 389.618 419.738 389.962 419.539Z" fill="#E8A30A"/>
<path d="M453.708 382.669C454.052 382.47 454.051 381.824 453.706 381.226C453.361 380.628 452.802 380.305 452.458 380.504C452.113 380.702 452.114 381.348 452.459 381.946C452.804 382.544 453.363 382.867 453.708 382.669Z" fill="#E8A30A"/>
<path d="M390.835 422.951L390.005 419.501L399.065 413.721L398.675 414.541L390.835 422.951Z" fill="#2B303F"/>
<path d="M390.005 419.531C390.085 419.461 453.715 382.681 453.715 382.681L452.545 380.481L388.715 417.361L390.005 419.531Z" fill="#FF7B52"/>
<path d="M43.653 324.864H30.3477V377.154H43.653V324.864Z" fill="url(#paint6_linear)"/>
<path d="M29.7127 324.271C29.7127 324.271 30.0756 335.024 37.7261 354.311C37.7261 354.311 44.8505 338.78 45.5884 323.944C46.3262 309.109 29.7127 324.271 29.7127 324.271Z" fill="url(#paint7_linear)"/>
<path d="M20.3687 283.787L2.66661 301.011L0.561951 323.503L21.9714 312.768L25.8662 285.335L20.3687 283.787Z" fill="#6E9569"/>
<path d="M20.3687 283.787L2.66661 301.011L0.561951 323.503L21.9714 312.768L25.8662 285.335L20.3687 283.787Z" fill="url(#paint8_linear)"/>
<path d="M55.0835 283.787L72.7796 301.011L74.8903 323.503L53.4022 312.024L49.586 285.335L55.0835 283.787Z" fill="url(#paint9_linear)"/>
<path d="M37.5023 326.987C42.3623 326.987 46.302 324.712 46.302 321.906C46.302 319.101 42.3623 316.826 37.5023 316.826C32.6424 316.826 28.7027 319.101 28.7027 321.906C28.7027 324.712 32.6424 326.987 37.5023 326.987Z" fill="#424956"/>
<path d="M24.1607 316.826V312.254H50.8137V316.995L24.1607 316.826Z" fill="#494949"/>
<path d="M37.5023 324.525C44.8707 324.525 50.8439 321.075 50.8439 316.82C50.8439 312.565 44.8707 309.115 37.5023 309.115C30.1339 309.115 24.1607 312.565 24.1607 316.82C24.1607 321.075 30.1339 324.525 37.5023 324.525Z" fill="#2B303F"/>
<path d="M37.4599 319.282C46.4516 319.282 53.7408 315.074 53.7408 309.883C53.7408 304.693 46.4516 300.485 37.4599 300.485C28.4683 300.485 21.1791 304.693 21.1791 309.883C21.1791 315.074 28.4683 319.282 37.4599 319.282Z" fill="#EDEFF9"/>
<path d="M37.4599 319.282C46.4516 319.282 53.7408 315.074 53.7408 309.883C53.7408 304.693 46.4516 300.485 37.4599 300.485C28.4683 300.485 21.1791 304.693 21.1791 309.883C21.1791 315.074 28.4683 319.282 37.4599 319.282Z" fill="url(#paint10_radial)"/>
<path d="M55.0411 293.143C55.0411 293.899 55.0411 294.642 55.0411 295.362C55.0411 295.967 55.0411 296.572 55.0411 297.176C55.0411 297.993 54.9988 298.773 54.9685 299.535C54.9685 300.485 54.902 301.386 54.8536 302.251C54.8053 303.115 54.7629 303.962 54.7024 304.742C54.4545 308.159 54.4605 310.675 54.0372 311.661C51.7329 317.05 43.9372 314.08 40.0908 312.145C38.6695 311.431 37.7321 310.845 37.7321 310.845H37.3813C37.3813 310.845 36.2685 311.449 34.6235 312.103C30.5896 313.736 23.3987 316.632 21.4029 311.643C21.0461 310.748 20.6892 307.79 20.4715 304.694C20.4171 303.92 20.3687 303.091 20.3203 302.208C20.2719 301.325 20.2477 300.448 20.2114 299.499C20.2114 298.743 20.1691 297.963 20.151 297.152C20.151 296.547 20.151 295.943 20.151 295.338V293.118C20.0421 272.017 22.2798 238.276 29.6703 223.876C31.8052 219.709 34.3695 217.163 37.4358 217.012H37.7866C40.8105 217.169 43.405 219.703 45.546 223.852C52.8337 238.198 55.1742 271.806 55.0411 293.143Z" fill="url(#paint11_linear)"/>
<path d="M37.5446 273.245C40.9415 273.245 43.6953 270.491 43.6953 267.095C43.6953 263.698 40.9415 260.944 37.5446 260.944C34.1477 260.944 31.3939 263.698 31.3939 267.095C31.3939 270.491 34.1477 273.245 37.5446 273.245Z" fill="url(#paint12_linear)"/>
<path d="M37.5446 274.146C36.1499 274.146 34.7865 273.733 33.6268 272.958C32.4672 272.183 31.5633 271.082 31.0296 269.793C30.4959 268.505 30.3562 267.087 30.6283 265.719C30.9004 264.351 31.572 263.094 32.5582 262.108C33.5444 261.122 34.801 260.45 36.1689 260.178C37.5368 259.906 38.9547 260.046 40.2432 260.58C41.5318 261.113 42.6331 262.017 43.408 263.177C44.1828 264.336 44.5964 265.7 44.5964 267.095C44.5948 268.964 43.8514 270.757 42.5292 272.079C41.2071 273.401 39.4144 274.145 37.5446 274.146ZM37.5446 261.845C36.5061 261.844 35.4906 262.151 34.6265 262.727C33.7624 263.303 33.0886 264.122 32.6904 265.081C32.2921 266.041 32.1873 267.096 32.3891 268.115C32.591 269.134 33.0905 270.07 33.8244 270.804C34.5584 271.539 35.4937 272.04 36.5122 272.243C37.5307 272.446 38.5865 272.342 39.5461 271.945C40.5057 271.548 41.3259 270.875 41.903 270.012C42.4801 269.148 42.7881 268.133 42.7881 267.095C42.7865 265.704 42.2338 264.37 41.2509 263.386C40.2681 262.402 38.9353 261.848 37.5446 261.845Z" fill="#424956"/>
<path d="M37.5446 255.162C40.9415 255.162 43.6953 252.408 43.6953 249.011C43.6953 245.614 40.9415 242.861 37.5446 242.861C34.1477 242.861 31.3939 245.614 31.3939 249.011C31.3939 252.408 34.1477 255.162 37.5446 255.162Z" fill="url(#paint13_linear)"/>
<path d="M37.5447 256.081C36.149 256.082 34.7843 255.67 33.6232 254.896C32.462 254.121 31.5564 253.02 31.0209 251.731C30.4854 250.443 30.3441 249.024 30.6148 247.655C30.8854 246.286 31.556 245.027 32.5416 244.039C33.5272 243.051 34.7836 242.377 36.1521 242.103C37.5205 241.829 38.9396 241.967 40.2298 242.499C41.52 243.031 42.6235 243.934 43.4007 245.093C44.178 246.252 44.5941 247.616 44.5965 249.011C44.5981 250.884 43.8562 252.68 42.5339 254.006C41.2116 255.332 39.4171 256.078 37.5447 256.081ZM37.5447 243.78C36.5059 243.779 35.4901 244.086 34.6259 244.662C33.7617 245.238 33.0879 246.058 32.6898 247.018C32.2918 247.977 32.1873 249.033 32.3897 250.052C32.592 251.071 33.0921 252.007 33.8266 252.741C34.5612 253.476 35.4971 253.976 36.516 254.178C37.5349 254.381 38.5909 254.276 39.5503 253.878C40.5098 253.48 41.3296 252.806 41.906 251.942C42.4824 251.078 42.7894 250.062 42.7882 249.023C42.789 248.334 42.654 247.651 42.3909 247.014C42.1278 246.377 41.7418 245.798 41.2549 245.31C40.768 244.822 40.1897 244.434 39.5531 244.17C38.9165 243.905 38.2341 243.769 37.5447 243.768V243.78Z" fill="#424956"/>
<path d="M55.0411 305.305C55.0411 306.061 55.0411 306.805 55.0411 307.531C54.4364 309.526 52.7913 311.437 50.1182 312.974C43.1873 316.971 31.9746 316.971 25.0135 312.974C22.3403 311.425 20.7013 309.508 20.0905 307.531V305.311C20.6953 307.343 22.3282 309.278 25.0377 310.845C31.9746 314.842 43.2115 314.842 50.1424 310.845C52.7974 309.26 54.4787 307.331 55.0411 305.305Z" fill="#6E9569"/>
<path d="M54.9867 308.825C54.9867 309.635 54.9443 310.421 54.9141 311.177C54.2367 313.064 52.628 314.861 50.0758 316.324C43.1449 320.328 31.9322 320.328 24.9711 316.324C22.4249 314.848 20.8162 313.04 20.1328 311.141C20.1328 310.385 20.0905 309.605 20.0723 308.801C20.6771 310.772 22.3282 312.647 24.9651 314.171C31.902 318.175 43.1389 318.175 50.0698 314.171C52.7187 312.653 54.3516 310.784 54.9867 308.825Z" fill="#6E9569"/>
<path d="M54.7993 302.577C54.0675 304.349 52.495 306.037 50.094 307.416C43.1632 311.413 31.9504 311.413 24.9893 307.416C22.5702 306.013 20.9977 304.319 20.2659 302.529C20.3143 303.412 20.3627 304.241 20.4171 305.015C21.1973 306.684 22.7214 308.256 24.9893 309.569C27.9474 311.181 31.2112 312.153 34.5691 312.423C36.3786 312.599 38.2002 312.613 40.0122 312.466C43.5355 312.243 46.9678 311.254 50.0698 309.569C52.3196 308.268 53.8376 306.714 54.6239 305.063L54.7993 302.577Z" fill="#6E9569"/>
<path d="M39.2321 283.835H36.2142V323.455H39.2321V283.835Z" fill="#6E9569"/>
<path d="M39.2321 283.835H36.2142V323.455H39.2321V283.835Z" fill="url(#paint14_linear)"/>
<path d="M45.4372 223.864C40.2644 225.452 34.7343 225.452 29.5615 223.864C31.6964 219.697 34.2607 217.151 37.327 217H37.6778C40.7319 217.181 43.2962 219.715 45.4372 223.864Z" fill="#6E9569"/>
<path d="M45.4372 223.864C40.2644 225.452 34.7343 225.452 29.5615 223.864C31.6964 219.697 34.2607 217.151 37.327 217H37.6778C40.7319 217.181 43.2962 219.715 45.4372 223.864Z" fill="url(#paint15_linear)"/>
<defs>
<linearGradient id="paint0_linear" x1="377.23" y1="45.3054" x2="377.23" y2="339.838" gradientUnits="userSpaceOnUse">
<stop stop-color="#6DC09E"/>
<stop offset="1" stop-color="#567266"/>
</linearGradient>
<linearGradient id="paint1_linear" x1="376.058" y1="257.308" x2="444.743" y2="137.795" gradientUnits="userSpaceOnUse">
<stop offset="0.21" stop-color="white" stop-opacity="0"/>
<stop offset="1" stop-color="white" stop-opacity="0.2"/>
</linearGradient>
<linearGradient id="paint2_linear" x1="301.135" y1="218.194" x2="301.135" y2="426.762" gradientUnits="userSpaceOnUse">
<stop stop-color="#D6D8E5"/>
<stop offset="1" stop-color="#B6B7BE"/>
</linearGradient>
<linearGradient id="paint3_linear" x1="259.46" y1="303.599" x2="259.46" y2="390.533" gradientUnits="userSpaceOnUse">
<stop stop-color="#F3F4F9"/>
<stop offset="1" stop-color="#C7C9D5"/>
</linearGradient>
<linearGradient id="paint4_linear" x1="156.56" y1="377.781" x2="156.56" y2="418.777" gradientUnits="userSpaceOnUse">
<stop stop-color="#D6D8E5"/>
<stop offset="1" stop-color="#9B9B9B"/>
</linearGradient>
<linearGradient id="paint5_linear" x1="100.565" y1="420.8" x2="100.565" y2="454.171" gradientUnits="userSpaceOnUse">
<stop stop-color="#6E9569"/>
<stop offset="1" stop-color="#465045"/>
</linearGradient>
<linearGradient id="paint6_linear" x1="37.0003" y1="324.864" x2="35.4279" y2="382.409" gradientUnits="userSpaceOnUse">
<stop stop-color="#EDEFF9"/>
<stop offset="1" stop-color="white" stop-opacity="0"/>
</linearGradient>
<linearGradient id="paint7_linear" x1="37.6625" y1="317.435" x2="37.6625" y2="354.311" gradientUnits="userSpaceOnUse">
<stop stop-color="#FF3D00"/>
<stop offset="1" stop-color="white"/>
</linearGradient>
<linearGradient id="paint8_linear" x1="13.2141" y1="283.787" x2="13.2141" y2="323.503" gradientUnits="userSpaceOnUse">
<stop stop-color="#6E9569"/>
<stop offset="1" stop-color="#749C8C"/>
</linearGradient>
<linearGradient id="paint9_linear" x1="62.2381" y1="283.787" x2="62.2381" y2="323.503" gradientUnits="userSpaceOnUse">
<stop stop-color="#6E9569"/>
<stop offset="1" stop-color="#749C8C"/>
</linearGradient>
<radialGradient id="paint10_radial" cx="0" cy="0" r="1" gradientUnits="userSpaceOnUse" gradientTransform="translate(37.4599 309.883) rotate(90.2018) scale(13.8237 17.787)">
<stop stop-color="#EDEFF9"/>
<stop offset="1" stop-color="#C2C2C2"/>
</radialGradient>
<linearGradient id="paint11_linear" x1="37.5968" y1="217.012" x2="37.5968" y2="314.724" gradientUnits="userSpaceOnUse">
<stop stop-color="#E9EAF2"/>
<stop offset="1" stop-color="#B3B3B9"/>
</linearGradient>
<linearGradient id="paint12_linear" x1="37.5446" y1="260.944" x2="37.5446" y2="273.245" gradientUnits="userSpaceOnUse">
<stop stop-color="#6E9569"/>
<stop offset="1" stop-color="#5F8F7C"/>
</linearGradient>
<linearGradient id="paint13_linear" x1="37.5446" y1="242.861" x2="37.5446" y2="255.162" gradientUnits="userSpaceOnUse">
<stop stop-color="#6E9569"/>
<stop offset="1" stop-color="#5F8F7C"/>
</linearGradient>
<linearGradient id="paint14_linear" x1="37.7231" y1="283.835" x2="37.7231" y2="323.455" gradientUnits="userSpaceOnUse">
<stop stop-color="#6E9569"/>
<stop offset="1" stop-color="#749C8C"/>
</linearGradient>
<linearGradient id="paint15_linear" x1="37.4994" y1="217" x2="37.4994" y2="225.055" gradientUnits="userSpaceOnUse">
<stop stop-color="#6E9569"/>
<stop offset="1" stop-color="#749C8C"/>
</linearGradient>
</defs>
</svg>
