<svg width="184" height="35" viewBox="0 0 184 35" fill="none" xmlns="http://www.w3.org/2000/svg">
<g clip-path="url(#clip0)">
<path d="M171.009 18.3983C167.008 18.3983 163.874 15.5072 163.874 11.8159C163.874 8.12943 167.008 5.24173 171.009 5.24173C175.043 5.24173 178.085 8.06819 178.085 11.8159C178.085 15.5684 175.043 18.3983 171.009 18.3983ZM171.009 -0.000899841C163.689 -0.000899841 157.956 5.19002 157.956 11.8159C157.956 18.3616 163.811 23.6865 171.009 23.6865C178.294 23.6865 184.001 18.4725 184.001 11.8159C184.001 5.19002 178.294 -0.000899841 171.009 -0.000899841Z" fill="#0077C8"/>
<path d="M114.245 9.34767L114.414 9.00678C115.56 6.69676 118.029 5.25427 120.857 5.24406C122.764 5.25087 124.52 5.89795 125.829 7.07031L125.832 7.06827L126.004 7.20571C126.543 7.72351 126.984 8.33044 127.315 9.00814L127.481 9.34767H114.245ZM123.209 0.193316H123.208C122.967 0.153852 122.724 0.120509 122.478 0.0932922C122.317 0.0762817 122.156 0.0619957 121.991 0.0504286C121.651 0.0232119 121.31 0.00620085 120.964 0.00415959L120.888 7.67219e-05C113.542 7.67219e-05 107.835 5.19099 107.835 11.8169C107.835 12.1088 107.852 12.4252 107.889 12.8144C107.904 12.9716 107.913 13.0784 107.927 13.1852C107.957 13.4159 107.995 13.6479 108.04 13.8779C109.115 19.5635 114.492 23.6875 120.827 23.6875C124.674 23.6875 128.27 22.1906 130.742 19.5696L125.799 16.5955C124.485 17.7604 122.729 18.3993 120.827 18.3993C118.027 18.3993 115.575 16.9745 114.428 14.6815L114.257 14.3399H133.578C133.778 13.4873 133.88 12.6395 133.88 11.8169C133.88 6.06873 129.393 1.17992 123.209 0.193316" fill="#0077C8"/>
<path d="M148.579 7.67219e-05C141.294 7.67219e-05 135.587 5.19099 135.587 11.8169C135.587 18.4735 141.294 23.6875 148.579 23.6875C152.426 23.6875 156.022 22.1906 158.493 19.5703L153.55 16.5955C152.237 17.7604 150.48 18.3993 148.579 18.3993C144.544 18.3993 141.502 15.5694 141.502 11.8169C141.502 8.06917 144.544 5.2427 148.579 5.2427C150.497 5.2427 152.265 5.89114 153.582 7.07371L158.511 4.10777C156.042 1.4936 152.44 7.67219e-05 148.579 7.67219e-05Z" fill="#0077C8"/>
<path d="M66.5615 23.6934C73.3538 23.6934 78.8793 18.6338 78.8793 12.4154V1.51374H72.8929V12.4154C72.8929 15.6324 70.0524 18.2507 66.5615 18.2507C63.0469 18.2507 60.1878 15.6324 60.1878 12.4154V1.51374H54.243V12.4154C54.243 18.6338 59.7686 23.6934 66.5615 23.6934Z" fill="#0077C8"/>
<path d="M87.4883 15.9006V7.73556L87.5455 7.66956C88.8791 6.12773 90.9167 5.2425 93.1372 5.2425C97.1707 5.2425 100.213 8.06896 100.213 11.8167C100.213 15.5692 97.1707 18.3991 93.1372 18.3991C90.9167 18.3991 88.8791 17.5118 87.5455 15.9666L87.4883 15.9006ZM93.1372 23.6873C100.422 23.6873 106.128 18.4732 106.128 11.8167C106.128 5.19079 100.422 -0.000125328 93.1372 -0.000125328C88.274 -0.000125328 83.8635 2.38951 81.6089 6.23864V30.1533H87.4883V22.5333L87.8585 22.6816C89.5229 23.3491 91.2996 23.6873 93.1372 23.6873" fill="#0077C8"/>
<path fill-rule="evenodd" clip-rule="evenodd" d="M36.5179 12.4069C36.5179 6.15724 42.0316 1.09016 48.8454 1.05682V23.7617C42.0316 23.7202 36.5179 18.6538 36.5179 12.4069Z" fill="#FF6900"/>
<path d="M12.4053 23.5996C19.2295 23.5996 24.7669 18.5509 24.807 12.3189H0.000549316C0.0414351 18.5509 5.57885 23.5996 12.4053 23.5996Z" fill="#0077C8"/>
<path d="M38.3872 23.6493C38.3872 17.403 32.8669 12.3346 26.0554 12.2965V35C32.8669 34.9612 38.3872 29.8921 38.3872 23.6493Z" fill="#0077C8"/>
</g>
<defs>
<clipPath id="clip0">
<rect width="184" height="35" fill="white"/>
</clipPath>
</defs>
</svg>
